%TF.GenerationSoftware,KiCad,Pcbnew,10.0.4*%
%TF.CreationDate,2026-07-18T16:01:10+02:00*%
%TF.ProjectId,shield-pcb-rounded,73686965-6c64-42d7-9063-622d726f756e,1.2*%
%TF.SameCoordinates,Original*%
%TF.FileFunction,Profile,NP*%
%FSLAX46Y46*%
G04 Gerber Fmt 4.6, Leading zero omitted, Abs format (unit mm)*
G04 Created by KiCad (PCBNEW 10.0.4) date 2026-07-18 16:01:10*
%MOMM*%
%LPD*%
G01*
G04 APERTURE LIST*
%TA.AperFunction,Profile*%
%ADD10C,0.150000*%
%TD*%
G04 APERTURE END LIST*
D10*
X139500000Y-107000000D02*
G75*
G02*
X140500000Y-106000000I1000000J0D01*
G01*
X139500000Y-159000000D02*
X139500000Y-107000000D01*
X140500000Y-160000000D02*
G75*
G02*
X139500000Y-159000000I0J1000000D01*
G01*
X140500000Y-160000000D02*
X182500000Y-160000000D01*
X156500000Y-106000000D02*
X140500000Y-106000000D01*
X157500000Y-93000000D02*
X157500000Y-105000000D01*
X157500000Y-93000000D02*
G75*
G02*
X158500000Y-92000000I1000000J0D01*
G01*
X157500000Y-105000000D02*
G75*
G02*
X156500000Y-106000000I-1000000J0D01*
G01*
X174500000Y-92000000D02*
X158500000Y-92000000D01*
X175500000Y-88237500D02*
X175500000Y-91000000D01*
X175500000Y-88237500D02*
G75*
G02*
X176500000Y-87237500I1000000J0D01*
G01*
X175500000Y-91000000D02*
G75*
G02*
X174500000Y-92000000I-1000000J0D01*
G01*
X182500000Y-160000000D02*
G75*
G02*
X184500000Y-162000000I0J-2000000D01*
G01*
X184500000Y-162000000D02*
X184500000Y-165955000D01*
X185500000Y-166955000D02*
G75*
G02*
X184500000Y-165955000I0J1000000D01*
G01*
X185500000Y-166955000D02*
X203804203Y-166955000D01*
X195500000Y-87237500D02*
X176500000Y-87237500D01*
X195500000Y-87237500D02*
G75*
G02*
X196500000Y-88237500I0J-1000000D01*
G01*
X196500000Y-91000000D02*
X196500000Y-88237500D01*
X197500000Y-92000000D02*
G75*
G02*
X196500000Y-91000000I0J1000000D01*
G01*
X203804203Y-166955000D02*
G75*
G02*
X204063023Y-166989072I-3J-1000100D01*
G01*
X204063022Y-166989074D02*
X220565879Y-171411001D01*
X213500000Y-92000000D02*
X197500000Y-92000000D01*
X213500000Y-92000000D02*
G75*
G02*
X214500000Y-93000000I0J-1000000D01*
G01*
X214500000Y-93857500D02*
X214500000Y-93000000D01*
X215500000Y-94857500D02*
G75*
G02*
X214500000Y-93857500I0J1000000D01*
G01*
X220565879Y-171411001D02*
G75*
G02*
X220807056Y-171510909I-258679J-965499D01*
G01*
X220807060Y-171510902D02*
X237115022Y-180926308D01*
X231500000Y-94857500D02*
X215500000Y-94857500D01*
X231500000Y-94857500D02*
G75*
G02*
X232500000Y-95857500I0J-1000000D01*
G01*
X232500000Y-101857500D02*
X232500000Y-95857500D01*
X234500000Y-103857500D02*
G75*
G02*
X232500000Y-101857500I0J2000000D01*
G01*
X234500000Y-103857500D02*
X252500000Y-103857500D01*
X238481047Y-180560283D02*
G75*
G02*
X237114986Y-180926371I-866047J499883D01*
G01*
X238481047Y-180560283D02*
X247959572Y-164142997D01*
X247959572Y-164142997D02*
G75*
G02*
X248004099Y-164069561I1731228J-999503D01*
G01*
X252500000Y-103857500D02*
G75*
G02*
X254500000Y-105857500I0J-2000000D01*
G01*
X254187524Y-154348737D02*
X248004099Y-164069561D01*
X254500000Y-105857500D02*
X254500000Y-153275301D01*
X254500000Y-153275301D02*
G75*
G02*
X254187523Y-154348736I-2000000J1D01*
G01*
M02*
