M48
; DRILL file KiCad 10.0.4 date 2026-07-18T16:01:16
; FORMAT={-:-/ absolute / metric / decimal}
; #@! TF.CreationDate,2026-07-18T16:01:16+02:00
; #@! TF.GenerationSoftware,Kicad,Pcbnew,10.0.4
; #@! TF.FileFunction,Plated,1,2,PTH
FMAT,2
METRIC
; #@! TA.AperFunction,Plated,PTH,ViaDrill
T1C0.400
; #@! TA.AperFunction,Plated,PTH,ComponentDrill
T2C0.400
; #@! TA.AperFunction,Plated,PTH,ComponentDrill
T3C0.750
; #@! TA.AperFunction,Plated,PTH,ComponentDrill
T4C1.000
; #@! TA.AperFunction,Plated,PTH,ComponentDrill
T5C1.270
; #@! TA.AperFunction,Plated,PTH,ComponentDrill
T6C1.900
; #@! TA.AperFunction,Plated,PTH,ComponentDrill
T7C3.000
; #@! TA.AperFunction,Plated,PTH,ComponentDrill
T8C3.400
%
G90
G05
T1
X243.0Y-148.5
X245.008Y-148.539
X251.562Y-148.844
T2
X240.6Y-108.157
X240.6Y-110.697
X240.6Y-113.237
X240.6Y-115.777
X247.4Y-108.157
X247.4Y-110.697
X247.4Y-113.237
X247.4Y-115.777
T3
X243.0Y-152.857
X245.0Y-152.857
T4
X236.38Y-108.157
X236.38Y-110.697
X236.38Y-113.237
X236.38Y-115.777
X236.38Y-118.317
X236.38Y-120.857
X236.38Y-123.397
X236.38Y-125.938
X236.38Y-128.477
X236.38Y-131.017
X236.38Y-133.558
X236.38Y-136.097
X251.62Y-108.157
X251.62Y-110.697
X251.62Y-113.237
X251.62Y-115.777
X251.62Y-118.317
X251.62Y-120.857
X251.62Y-123.397
X251.62Y-125.938
X251.62Y-128.477
X251.62Y-131.017
X251.62Y-133.558
X251.62Y-136.097
T5
X145.0Y-119.8
X145.0Y-136.8
X145.0Y-153.8
X150.0Y-121.9
X150.0Y-138.9
X150.0Y-155.9
X155.0Y-119.8
X155.0Y-136.8
X155.0Y-153.8
X163.0Y-105.8
X163.0Y-122.8
X163.0Y-139.8
X168.0Y-107.9
X168.0Y-124.9
X168.0Y-141.9
X173.0Y-105.8
X173.0Y-122.8
X173.0Y-139.8
X181.0Y-101.037
X181.0Y-118.037
X181.0Y-135.037
X186.0Y-103.137
X186.0Y-120.137
X186.0Y-137.137
X190.0Y-160.755
X191.0Y-101.037
X191.0Y-118.037
X191.0Y-135.037
X195.0Y-162.855
X199.0Y-105.8
X199.0Y-122.8
X199.0Y-139.8
X200.0Y-160.755
X204.0Y-107.9
X204.0Y-124.9
X204.0Y-141.9
X209.0Y-105.8
X209.0Y-122.8
X209.0Y-139.8
X209.342Y-161.985
X213.628Y-165.307
X217.0Y-108.657
X217.0Y-125.657
X217.0Y-142.657
X219.002Y-164.573
X222.0Y-110.757
X222.0Y-127.757
X222.0Y-144.757
X227.0Y-108.657
X227.0Y-125.657
X227.0Y-142.657
X227.658Y-168.307
X230.938Y-172.626
X236.318Y-173.307
T6
X144.5Y-116.0
X144.5Y-133.0
X144.5Y-150.0
X155.5Y-116.0
X155.5Y-133.0
X155.5Y-150.0
X162.5Y-102.0
X162.5Y-119.0
X162.5Y-136.0
X173.5Y-102.0
X173.5Y-119.0
X173.5Y-136.0
X180.5Y-97.237
X180.5Y-114.237
X180.5Y-131.237
X189.5Y-156.955
X191.5Y-97.237
X191.5Y-114.237
X191.5Y-131.237
X198.5Y-102.0
X198.5Y-119.0
X198.5Y-136.0
X200.5Y-156.955
X209.5Y-102.0
X209.5Y-119.0
X209.5Y-136.0
X209.843Y-158.185
X216.5Y-104.858
X216.5Y-121.857
X216.5Y-138.857
X220.468Y-161.032
X227.5Y-104.858
X227.5Y-121.857
X227.5Y-138.857
X229.125Y-164.766
X238.651Y-170.266
T7
X145.0Y-112.25
X145.0Y-129.25
X145.0Y-146.25
X150.0Y-110.05
X150.0Y-127.05
X150.0Y-144.05
X155.0Y-112.25
X155.0Y-129.25
X155.0Y-146.25
X163.0Y-98.25
X163.0Y-115.25
X163.0Y-132.25
X168.0Y-96.05
X168.0Y-113.05
X168.0Y-130.05
X173.0Y-98.25
X173.0Y-115.25
X173.0Y-132.25
X181.0Y-93.487
X181.0Y-110.487
X181.0Y-127.487
X186.0Y-91.287
X186.0Y-108.287
X186.0Y-125.287
X190.0Y-153.205
X191.0Y-93.487
X191.0Y-110.487
X191.0Y-127.487
X195.0Y-151.005
X199.0Y-98.25
X199.0Y-115.25
X199.0Y-132.25
X200.0Y-153.205
X204.0Y-96.05
X204.0Y-113.05
X204.0Y-130.05
X209.0Y-98.25
X209.0Y-115.25
X209.0Y-132.25
X211.296Y-154.692
X216.695Y-153.861
X217.0Y-101.108
X217.0Y-118.108
X217.0Y-135.107
X220.956Y-157.28
X222.0Y-98.907
X222.0Y-115.907
X222.0Y-132.907
X227.0Y-101.108
X227.0Y-118.108
X227.0Y-135.107
X231.433Y-161.768
X236.863Y-162.363
X240.093Y-166.768
T8
X150.0Y-116.0
X150.0Y-133.0
X150.0Y-150.0
X168.0Y-102.0
X168.0Y-119.0
X168.0Y-136.0
X186.0Y-97.237
X186.0Y-114.237
X186.0Y-131.237
X195.0Y-156.955
X204.0Y-102.0
X204.0Y-119.0
X204.0Y-136.0
X215.155Y-159.609
X222.0Y-104.858
X222.0Y-121.857
X222.0Y-138.857
X233.888Y-167.516
M30
