%TF.GenerationSoftware,KiCad,Pcbnew,10.0.4*%
%TF.CreationDate,2026-07-18T16:01:10+02:00*%
%TF.ProjectId,shield-pcb-rounded,73686965-6c64-42d7-9063-622d726f756e,1.2*%
%TF.SameCoordinates,Original*%
%TF.FileFunction,Copper,L1,Top*%
%TF.FilePolarity,Positive*%
%FSLAX46Y46*%
G04 Gerber Fmt 4.6, Leading zero omitted, Abs format (unit mm)*
G04 Created by KiCad (PCBNEW 10.0.4) date 2026-07-18 16:01:10*
%MOMM*%
%LPD*%
G01*
G04 APERTURE LIST*
G04 Aperture macros list*
%AMRoundRect*
0 Rectangle with rounded corners*
0 $1 Rounding radius*
0 $2 $3 $4 $5 $6 $7 $8 $9 X,Y pos of 4 corners*
0 Add a 4 corners polygon primitive as box body*
4,1,4,$2,$3,$4,$5,$6,$7,$8,$9,$2,$3,0*
0 Add four circle primitives for the rounded corners*
1,1,$1+$1,$2,$3*
1,1,$1+$1,$4,$5*
1,1,$1+$1,$6,$7*
1,1,$1+$1,$8,$9*
0 Add four rect primitives between the rounded corners*
20,1,$1+$1,$2,$3,$4,$5,0*
20,1,$1+$1,$4,$5,$6,$7,0*
20,1,$1+$1,$6,$7,$8,$9,0*
20,1,$1+$1,$8,$9,$2,$3,0*%
%AMFreePoly0*
4,1,6,0.600000,-1.000000,0.000000,-0.400000,-0.600000,-1.000000,-0.600000,0.250000,0.600000,0.250000,0.600000,-1.000000,0.600000,-1.000000,$1*%
%AMFreePoly1*
4,1,6,0.600000,-0.200000,0.600000,-0.400000,-0.600000,-0.400000,-0.600000,-0.200000,0.000000,0.400000,0.600000,-0.200000,0.600000,-0.200000,$1*%
G04 Aperture macros list end*
%TA.AperFunction,SMDPad,CuDef*%
%ADD10FreePoly0,0.000000*%
%TD*%
%TA.AperFunction,ComponentPad*%
%ADD11O,1.200000X1.750000*%
%TD*%
%TA.AperFunction,SMDPad,CuDef*%
%ADD12FreePoly1,0.000000*%
%TD*%
%TA.AperFunction,SMDPad,CuDef*%
%ADD13R,0.800000X1.000000*%
%TD*%
%TA.AperFunction,SMDPad,CuDef*%
%ADD14R,1.500000X0.700000*%
%TD*%
%TA.AperFunction,SMDPad,CuDef*%
%ADD15R,0.600000X1.200000*%
%TD*%
%TA.AperFunction,ComponentPad*%
%ADD16C,1.700000*%
%TD*%
%TA.AperFunction,ComponentPad*%
%ADD17C,0.800000*%
%TD*%
%TA.AperFunction,ComponentPad*%
%ADD18C,2.200000*%
%TD*%
%TA.AperFunction,ComponentPad*%
%ADD19C,3.300000*%
%TD*%
%TA.AperFunction,ComponentPad*%
%ADD20C,3.700000*%
%TD*%
%TA.AperFunction,SMDPad,CuDef*%
%ADD21RoundRect,0.215000X-1.685000X-0.860000X1.685000X-0.860000X1.685000X0.860000X-1.685000X0.860000X0*%
%TD*%
%TA.AperFunction,ComponentPad*%
%ADD22C,2.032000*%
%TD*%
%TA.AperFunction,SMDPad,CuDef*%
%ADD23RoundRect,0.215000X-1.110000X-0.860000X1.110000X-0.860000X1.110000X0.860000X-1.110000X0.860000X0*%
%TD*%
%TA.AperFunction,SMDPad,CuDef*%
%ADD24RoundRect,0.215000X-1.850169X-0.394586X1.405001X-1.266806X1.850169X0.394586X-1.405001X1.266806X0*%
%TD*%
%TA.AperFunction,SMDPad,CuDef*%
%ADD25RoundRect,0.215000X-1.294762X-0.543407X0.849593X-1.117985X1.294762X0.543407X-0.849593X1.117985X0*%
%TD*%
%TA.AperFunction,SMDPad,CuDef*%
%ADD26RoundRect,0.215000X-1.889253X0.097718X1.029253X-1.587282X1.889253X-0.097718X-1.029253X1.587282X0*%
%TD*%
%TA.AperFunction,SMDPad,CuDef*%
%ADD27RoundRect,0.215000X-1.391288X-0.189782X0.531288X-1.299782X1.391288X0.189782X-0.531288X1.299782X0*%
%TD*%
%TA.AperFunction,ViaPad*%
%ADD28C,0.800000*%
%TD*%
%TA.AperFunction,Conductor*%
%ADD29C,0.400000*%
%TD*%
%TA.AperFunction,Conductor*%
%ADD30C,0.250000*%
%TD*%
%TA.AperFunction,Conductor*%
%ADD31C,0.600000*%
%TD*%
G04 APERTURE END LIST*
D10*
%TO.P,JST1,1*%
%TO.N,BAT_P*%
X245000000Y-150041500D03*
%TO.P,JST1,2*%
%TO.N,GND*%
X243000000Y-150041500D03*
D11*
%TO.P,JST1,11*%
%TO.N,JST1_1*%
X245000000Y-152857500D03*
%TO.P,JST1,12*%
%TO.N,JST1_2*%
X243000000Y-152857500D03*
D12*
%TO.P,JST1,21*%
%TO.N,JST1_1*%
X245000000Y-151057500D03*
%TO.P,JST1,22*%
%TO.N,JST1_2*%
X243000000Y-151057500D03*
%TD*%
D13*
%TO.P,PWR1,*%
%TO.N,*%
X250915000Y-145207500D03*
X250915000Y-152507500D03*
X253125000Y-145207500D03*
X253125000Y-152507500D03*
D14*
%TO.P,PWR1,1*%
%TO.N,BAT_P*%
X250265000Y-151107500D03*
%TO.P,PWR1,2*%
%TO.N,RAW*%
X250265000Y-148107500D03*
%TO.P,PWR1,3*%
%TO.N,N/C*%
X250265000Y-146607500D03*
%TD*%
D15*
%TO.P,MCU1,1*%
%TO.N,MCU1_1*%
X249480000Y-108157500D03*
D16*
X251620000Y-108157500D03*
D15*
%TO.P,MCU1,2*%
%TO.N,MCU1_2*%
X249480000Y-110697500D03*
D16*
X251620000Y-110697500D03*
D15*
%TO.P,MCU1,3*%
%TO.N,MCU1_3*%
X249480000Y-113237500D03*
D16*
X251620000Y-113237500D03*
D15*
%TO.P,MCU1,4*%
%TO.N,MCU1_4*%
X249480000Y-115777500D03*
D16*
X251620000Y-115777500D03*
%TO.P,MCU1,5*%
%TO.N,grid-zn_inner_top*%
X251620000Y-118317500D03*
%TO.P,MCU1,6*%
%TO.N,grid-zn_index_top*%
X251620000Y-120857500D03*
%TO.P,MCU1,7*%
%TO.N,grid-zn_pinky_top*%
X251620000Y-123397500D03*
%TO.P,MCU1,8*%
%TO.N,grid-zn_pinky_home*%
X251620000Y-125937500D03*
%TO.P,MCU1,9*%
%TO.N,grid-zn_pinky_bottom*%
X251620000Y-128477500D03*
%TO.P,MCU1,10*%
%TO.N,thumb-zn_near_thumb*%
X251620000Y-131017500D03*
%TO.P,MCU1,11*%
%TO.N,thumb-zn_home_thumb*%
X251620000Y-133557500D03*
%TO.P,MCU1,12*%
%TO.N,thumb-zn_far_thumb*%
X251620000Y-136097500D03*
%TO.P,MCU1,13*%
%TO.N,grid-zn_inner_bottom*%
X236380000Y-136097500D03*
%TO.P,MCU1,14*%
%TO.N,grid-zn_index_bottom*%
X236380000Y-133557500D03*
%TO.P,MCU1,15*%
%TO.N,grid-zn_middle_bottom*%
X236380000Y-131017500D03*
%TO.P,MCU1,16*%
%TO.N,grid-zn_ring_bottom*%
X236380000Y-128477500D03*
%TO.P,MCU1,17*%
%TO.N,grid-zn_ring_home*%
X236380000Y-125937500D03*
%TO.P,MCU1,18*%
%TO.N,grid-zn_inner_home*%
X236380000Y-123397500D03*
%TO.P,MCU1,19*%
%TO.N,grid-zn_index_home*%
X236380000Y-120857500D03*
%TO.P,MCU1,20*%
%TO.N,grid-zn_middle_home*%
X236380000Y-118317500D03*
%TO.P,MCU1,21*%
%TO.N,MCU1_21*%
X236380000Y-115777500D03*
D15*
X238520000Y-115777500D03*
D16*
%TO.P,MCU1,22*%
%TO.N,MCU1_22*%
X236380000Y-113237500D03*
D15*
X238520000Y-113237500D03*
D16*
%TO.P,MCU1,23*%
%TO.N,MCU1_23*%
X236380000Y-110697500D03*
D15*
X238520000Y-110697500D03*
D16*
%TO.P,MCU1,24*%
%TO.N,MCU1_24*%
X236380000Y-108157500D03*
D15*
X238520000Y-108157500D03*
D17*
%TO.P,MCU1,101*%
%TO.N,RAW*%
X247400000Y-108157500D03*
D15*
X248580000Y-108157500D03*
D17*
%TO.P,MCU1,102*%
%TO.N,GND*%
X247400000Y-110697500D03*
D15*
X248580000Y-110697500D03*
D17*
%TO.P,MCU1,103*%
%TO.N,RST*%
X247400000Y-113237500D03*
D15*
X248580000Y-113237500D03*
D17*
%TO.P,MCU1,104*%
%TO.N,VCC*%
X247400000Y-115777500D03*
D15*
X248580000Y-115777500D03*
%TO.P,MCU1,121*%
%TO.N,GND*%
X239420000Y-115777500D03*
D17*
X240600000Y-115777500D03*
D15*
%TO.P,MCU1,122*%
X239420000Y-113237500D03*
D17*
X240600000Y-113237500D03*
D15*
%TO.P,MCU1,123*%
%TO.N,grid-zn_ring_top*%
X239420000Y-110697500D03*
D17*
X240600000Y-110697500D03*
D15*
%TO.P,MCU1,124*%
%TO.N,grid-zn_middle_top*%
X239420000Y-108157500D03*
D17*
X240600000Y-108157500D03*
%TD*%
D18*
%TO.P,S5,*%
%TO.N,*%
X162500000Y-119000000D03*
D19*
X168000000Y-113050000D03*
D20*
X168000000Y-119000000D03*
D18*
X173500000Y-119000000D03*
D21*
%TO.P,S5,1*%
%TO.N,GND*%
X160352500Y-115250000D03*
D19*
X163000000Y-115250000D03*
D22*
%TO.N,grid-zn_ring_home*%
X163000000Y-122800000D03*
X173000000Y-122800000D03*
%TO.P,S5,2*%
%TO.N,GND*%
X168000000Y-124900000D03*
D23*
%TO.N,grid-zn_ring_home*%
X171245000Y-113050000D03*
D19*
X173000000Y-115250000D03*
%TD*%
D18*
%TO.P,S16,*%
%TO.N,*%
X189500000Y-156955000D03*
D19*
X195000000Y-151005000D03*
D20*
X195000000Y-156955000D03*
D18*
X200500000Y-156955000D03*
D21*
%TO.P,S16,1*%
%TO.N,GND*%
X187352500Y-153205000D03*
D19*
X190000000Y-153205000D03*
D22*
%TO.N,thumb-zn_near_thumb*%
X190000000Y-160755000D03*
X200000000Y-160755000D03*
%TO.P,S16,2*%
%TO.N,GND*%
X195000000Y-162855000D03*
D23*
%TO.N,thumb-zn_near_thumb*%
X198245000Y-151005000D03*
D19*
X200000000Y-153205000D03*
%TD*%
D18*
%TO.P,S17,*%
%TO.N,*%
X209842827Y-158185006D03*
D19*
X216695392Y-153861252D03*
D20*
X215155419Y-159608511D03*
D18*
X220468011Y-161032016D03*
D24*
%TO.P,S17,1*%
%TO.N,GND*%
X208739073Y-154006971D03*
D19*
X211296361Y-154692194D03*
D22*
%TO.N,thumb-zn_home_thumb*%
X209342277Y-161984934D03*
X219001536Y-164573124D03*
%TO.P,S17,2*%
%TO.N,GND*%
X213628387Y-165307473D03*
D25*
%TO.N,thumb-zn_home_thumb*%
X219829822Y-154701120D03*
D19*
X220955620Y-157280384D03*
%TD*%
D18*
%TO.P,S15,*%
%TO.N,*%
X216500000Y-104857500D03*
D19*
X222000000Y-98907500D03*
D20*
X222000000Y-104857500D03*
D18*
X227500000Y-104857500D03*
D21*
%TO.P,S15,1*%
%TO.N,GND*%
X214352500Y-101107500D03*
D19*
X217000000Y-101107500D03*
D22*
%TO.N,grid-zn_inner_top*%
X217000000Y-108657500D03*
X227000000Y-108657500D03*
%TO.P,S15,2*%
%TO.N,GND*%
X222000000Y-110757500D03*
D23*
%TO.N,grid-zn_inner_top*%
X225245000Y-98907500D03*
D19*
X227000000Y-101107500D03*
%TD*%
D18*
%TO.P,S10,*%
%TO.N,*%
X198500000Y-136000000D03*
D19*
X204000000Y-130050000D03*
D20*
X204000000Y-136000000D03*
D18*
X209500000Y-136000000D03*
D21*
%TO.P,S10,1*%
%TO.N,GND*%
X196352500Y-132250000D03*
D19*
X199000000Y-132250000D03*
D22*
%TO.N,grid-zn_index_bottom*%
X199000000Y-139800000D03*
X209000000Y-139800000D03*
%TO.P,S10,2*%
%TO.N,GND*%
X204000000Y-141900000D03*
D23*
%TO.N,grid-zn_index_bottom*%
X207245000Y-130050000D03*
D19*
X209000000Y-132250000D03*
%TD*%
D18*
%TO.P,S12,*%
%TO.N,*%
X198500000Y-102000000D03*
D19*
X204000000Y-96050000D03*
D20*
X204000000Y-102000000D03*
D18*
X209500000Y-102000000D03*
D21*
%TO.P,S12,1*%
%TO.N,GND*%
X196352500Y-98250000D03*
D19*
X199000000Y-98250000D03*
D22*
%TO.N,grid-zn_index_top*%
X199000000Y-105800000D03*
X209000000Y-105800000D03*
%TO.P,S12,2*%
%TO.N,GND*%
X204000000Y-107900000D03*
D23*
%TO.N,grid-zn_index_top*%
X207245000Y-96050000D03*
D19*
X209000000Y-98250000D03*
%TD*%
D18*
%TO.P,S8,*%
%TO.N,*%
X180500000Y-114237500D03*
D19*
X186000000Y-108287500D03*
D20*
X186000000Y-114237500D03*
D18*
X191500000Y-114237500D03*
D21*
%TO.P,S8,1*%
%TO.N,GND*%
X178352500Y-110487500D03*
D19*
X181000000Y-110487500D03*
D22*
%TO.N,grid-zn_middle_home*%
X181000000Y-118037500D03*
X191000000Y-118037500D03*
%TO.P,S8,2*%
%TO.N,GND*%
X186000000Y-120137500D03*
D23*
%TO.N,grid-zn_middle_home*%
X189245000Y-108287500D03*
D19*
X191000000Y-110487500D03*
%TD*%
D18*
%TO.P,S1,*%
%TO.N,*%
X144500000Y-150000000D03*
D19*
X150000000Y-144050000D03*
D20*
X150000000Y-150000000D03*
D18*
X155500000Y-150000000D03*
D21*
%TO.P,S1,1*%
%TO.N,GND*%
X142352500Y-146250000D03*
D19*
X145000000Y-146250000D03*
D22*
%TO.N,grid-zn_pinky_bottom*%
X145000000Y-153800000D03*
X155000000Y-153800000D03*
%TO.P,S1,2*%
%TO.N,GND*%
X150000000Y-155900000D03*
D23*
%TO.N,grid-zn_pinky_bottom*%
X153245000Y-144050000D03*
D19*
X155000000Y-146250000D03*
%TD*%
D18*
%TO.P,S4,*%
%TO.N,*%
X162500000Y-136000000D03*
D19*
X168000000Y-130050000D03*
D20*
X168000000Y-136000000D03*
D18*
X173500000Y-136000000D03*
D21*
%TO.P,S4,1*%
%TO.N,GND*%
X160352500Y-132250000D03*
D19*
X163000000Y-132250000D03*
D22*
%TO.N,grid-zn_ring_bottom*%
X163000000Y-139800000D03*
X173000000Y-139800000D03*
%TO.P,S4,2*%
%TO.N,GND*%
X168000000Y-141900000D03*
D23*
%TO.N,grid-zn_ring_bottom*%
X171245000Y-130050000D03*
D19*
X173000000Y-132250000D03*
%TD*%
D18*
%TO.P,S18,*%
%TO.N,*%
X229124641Y-164766054D03*
D19*
X236862781Y-162363203D03*
D20*
X233887781Y-167516054D03*
D18*
X238650921Y-170266054D03*
D26*
%TO.P,S18,1*%
%TO.N,GND*%
X229139852Y-160444709D03*
D19*
X231432654Y-161768459D03*
D22*
%TO.N,thumb-zn_far_thumb*%
X227657654Y-168306951D03*
X236317908Y-173306951D03*
%TO.P,S18,2*%
%TO.N,GND*%
X230937781Y-172625604D03*
D27*
%TO.N,thumb-zn_far_thumb*%
X239673033Y-163985703D03*
D19*
X240092908Y-166768459D03*
%TD*%
D18*
%TO.P,S14,*%
%TO.N,*%
X216500000Y-121857500D03*
D19*
X222000000Y-115907500D03*
D20*
X222000000Y-121857500D03*
D18*
X227500000Y-121857500D03*
D21*
%TO.P,S14,1*%
%TO.N,GND*%
X214352500Y-118107500D03*
D19*
X217000000Y-118107500D03*
D22*
%TO.N,grid-zn_inner_home*%
X217000000Y-125657500D03*
X227000000Y-125657500D03*
%TO.P,S14,2*%
%TO.N,GND*%
X222000000Y-127757500D03*
D23*
%TO.N,grid-zn_inner_home*%
X225245000Y-115907500D03*
D19*
X227000000Y-118107500D03*
%TD*%
D18*
%TO.P,S7,*%
%TO.N,*%
X180500000Y-131237500D03*
D19*
X186000000Y-125287500D03*
D20*
X186000000Y-131237500D03*
D18*
X191500000Y-131237500D03*
D21*
%TO.P,S7,1*%
%TO.N,GND*%
X178352500Y-127487500D03*
D19*
X181000000Y-127487500D03*
D22*
%TO.N,grid-zn_middle_bottom*%
X181000000Y-135037500D03*
X191000000Y-135037500D03*
%TO.P,S7,2*%
%TO.N,GND*%
X186000000Y-137137500D03*
D23*
%TO.N,grid-zn_middle_bottom*%
X189245000Y-125287500D03*
D19*
X191000000Y-127487500D03*
%TD*%
D18*
%TO.P,S6,*%
%TO.N,*%
X162500000Y-102000000D03*
D19*
X168000000Y-96050000D03*
D20*
X168000000Y-102000000D03*
D18*
X173500000Y-102000000D03*
D21*
%TO.P,S6,1*%
%TO.N,GND*%
X160352500Y-98250000D03*
D19*
X163000000Y-98250000D03*
D22*
%TO.N,grid-zn_ring_top*%
X163000000Y-105800000D03*
X173000000Y-105800000D03*
%TO.P,S6,2*%
%TO.N,GND*%
X168000000Y-107900000D03*
D23*
%TO.N,grid-zn_ring_top*%
X171245000Y-96050000D03*
D19*
X173000000Y-98250000D03*
%TD*%
D18*
%TO.P,S3,*%
%TO.N,*%
X144500000Y-116000000D03*
D19*
X150000000Y-110050000D03*
D20*
X150000000Y-116000000D03*
D18*
X155500000Y-116000000D03*
D21*
%TO.P,S3,1*%
%TO.N,GND*%
X142352500Y-112250000D03*
D19*
X145000000Y-112250000D03*
D22*
%TO.N,grid-zn_pinky_top*%
X145000000Y-119800000D03*
X155000000Y-119800000D03*
%TO.P,S3,2*%
%TO.N,GND*%
X150000000Y-121900000D03*
D23*
%TO.N,grid-zn_pinky_top*%
X153245000Y-110050000D03*
D19*
X155000000Y-112250000D03*
%TD*%
D18*
%TO.P,S13,*%
%TO.N,*%
X216500000Y-138857500D03*
D19*
X222000000Y-132907500D03*
D20*
X222000000Y-138857500D03*
D18*
X227500000Y-138857500D03*
D21*
%TO.P,S13,1*%
%TO.N,GND*%
X214352500Y-135107500D03*
D19*
X217000000Y-135107500D03*
D22*
%TO.N,grid-zn_inner_bottom*%
X217000000Y-142657500D03*
X227000000Y-142657500D03*
%TO.P,S13,2*%
%TO.N,GND*%
X222000000Y-144757500D03*
D23*
%TO.N,grid-zn_inner_bottom*%
X225245000Y-132907500D03*
D19*
X227000000Y-135107500D03*
%TD*%
D18*
%TO.P,S2,*%
%TO.N,*%
X144500000Y-133000000D03*
D19*
X150000000Y-127050000D03*
D20*
X150000000Y-133000000D03*
D18*
X155500000Y-133000000D03*
D21*
%TO.P,S2,1*%
%TO.N,GND*%
X142352500Y-129250000D03*
D19*
X145000000Y-129250000D03*
D22*
%TO.N,grid-zn_pinky_home*%
X145000000Y-136800000D03*
X155000000Y-136800000D03*
%TO.P,S2,2*%
%TO.N,GND*%
X150000000Y-138900000D03*
D23*
%TO.N,grid-zn_pinky_home*%
X153245000Y-127050000D03*
D19*
X155000000Y-129250000D03*
%TD*%
D18*
%TO.P,S9,*%
%TO.N,*%
X180500000Y-97237500D03*
D19*
X186000000Y-91287500D03*
D20*
X186000000Y-97237500D03*
D18*
X191500000Y-97237500D03*
D21*
%TO.P,S9,1*%
%TO.N,GND*%
X178352500Y-93487500D03*
D19*
X181000000Y-93487500D03*
D22*
%TO.N,grid-zn_middle_top*%
X181000000Y-101037500D03*
X191000000Y-101037500D03*
%TO.P,S9,2*%
%TO.N,GND*%
X186000000Y-103137500D03*
D23*
%TO.N,grid-zn_middle_top*%
X189245000Y-91287500D03*
D19*
X191000000Y-93487500D03*
%TD*%
D18*
%TO.P,S11,*%
%TO.N,*%
X198500000Y-119000000D03*
D19*
X204000000Y-113050000D03*
D20*
X204000000Y-119000000D03*
D18*
X209500000Y-119000000D03*
D21*
%TO.P,S11,1*%
%TO.N,GND*%
X196352500Y-115250000D03*
D19*
X199000000Y-115250000D03*
D22*
%TO.N,grid-zn_index_home*%
X199000000Y-122800000D03*
X209000000Y-122800000D03*
%TO.P,S11,2*%
%TO.N,GND*%
X204000000Y-124900000D03*
D23*
%TO.N,grid-zn_index_home*%
X207245000Y-113050000D03*
D19*
X209000000Y-115250000D03*
%TD*%
D28*
%TO.N,BAT_P*%
X245008400Y-148539200D03*
%TO.N,GND*%
X243000000Y-148500000D03*
%TO.N,RAW*%
X251561600Y-148844000D03*
%TD*%
%TO.N,BAT_P*%
D29*
X245000000Y-148553539D02*
X245000000Y-150041500D01*
X248276494Y-150588094D02*
X246658652Y-148970252D01*
X250183513Y-151107500D02*
X250186250Y-151107500D01*
X245618000Y-148539200D02*
X245008400Y-148539200D01*
X249530450Y-151107500D02*
X250186250Y-151107500D01*
X245004200Y-148543400D02*
X245008400Y-148539200D01*
X250053750Y-151053750D02*
X250000000Y-151000000D01*
X250186250Y-151107500D02*
X250186250Y-151107500D01*
X246658652Y-148970252D02*
G75*
G03*
X245618000Y-148539199I-1040652J-1040648D01*
G01*
X245004200Y-148543400D02*
G75*
G03*
X245000016Y-148553539I10100J-10100D01*
G01*
X248276494Y-150588094D02*
G75*
G03*
X249530450Y-151107524I1254006J1253994D01*
G01*
X250053750Y-151053750D02*
G75*
G03*
X250183513Y-151107494I129750J129750D01*
G01*
%TO.N,GND*%
D30*
X248580000Y-110697500D02*
X247400000Y-110697500D01*
X239420000Y-115777500D02*
X240600000Y-115777500D01*
X239420000Y-113237500D02*
X240600000Y-113237500D01*
D29*
X243000000Y-148500000D02*
X243000000Y-150041500D01*
%TO.N,JST1_1*%
X245000000Y-151057500D02*
X245000000Y-152857500D01*
%TO.N,JST1_2*%
X243000000Y-151057500D02*
X243000000Y-152857500D01*
%TO.N,RAW*%
X249686250Y-148107500D02*
X250247110Y-148107500D01*
X253500000Y-139439339D02*
X253500000Y-107207106D01*
X248698261Y-147698261D02*
X248553750Y-147553750D01*
D30*
X248615200Y-108153200D02*
X247435200Y-108153200D01*
D29*
X252749999Y-141249999D02*
X252707106Y-141292893D01*
X250308189Y-148132800D02*
X251127994Y-148132800D01*
X249277817Y-105500000D02*
X251792893Y-105500000D01*
X247400000Y-107377817D02*
X247400000Y-108157500D01*
X248000000Y-145414213D02*
X248000000Y-146216879D01*
X251561600Y-148844000D02*
X251561600Y-148566405D01*
X249292893Y-142707106D02*
X249000000Y-143000000D01*
X251000000Y-142000000D02*
G75*
G03*
X249292896Y-142707109I0J-2414200D01*
G01*
X249277817Y-105500000D02*
G75*
G03*
X247949995Y-106049995I-17J-1877800D01*
G01*
X250277650Y-148120150D02*
G75*
G03*
X250247110Y-148107496I-30550J-30550D01*
G01*
X252707106Y-141292893D02*
G75*
G02*
X251000000Y-142000003I-1707106J1707093D01*
G01*
X253000000Y-106000000D02*
G75*
G02*
X253499997Y-107207106I-1207100J-1207100D01*
G01*
X250277650Y-148120150D02*
G75*
G03*
X250308189Y-148132804I30550J30550D01*
G01*
X253000000Y-106000000D02*
G75*
G03*
X251792893Y-105500003I-1207100J-1207100D01*
G01*
X247950000Y-106050000D02*
G75*
G03*
X247400007Y-107377817I1327800J-1327800D01*
G01*
X251434600Y-148259800D02*
G75*
G03*
X251127994Y-148132802I-306600J-306600D01*
G01*
X249000000Y-143000000D02*
G75*
G03*
X248000006Y-145414213I2414200J-2414200D01*
G01*
X251434600Y-148259800D02*
G75*
G02*
X251561598Y-148566405I-306600J-306600D01*
G01*
X253500000Y-139439339D02*
G75*
G02*
X252749988Y-141249988I-2560700J39D01*
G01*
X248000000Y-146216879D02*
G75*
G03*
X248553744Y-147553756I1890600J-21D01*
G01*
X248698261Y-147698261D02*
G75*
G03*
X249686250Y-148107543I988039J987961D01*
G01*
%TO.N,MCU1_1*%
D30*
X249500000Y-108157500D02*
X251620000Y-108157500D01*
%TO.N,MCU1_2*%
X249500000Y-110697500D02*
X251620000Y-110697500D01*
%TO.N,MCU1_3*%
X249500000Y-113237500D02*
X251620000Y-113237500D01*
%TO.N,MCU1_4*%
X249500000Y-115777500D02*
X251620000Y-115777500D01*
%TO.N,grid-zn_inner_top*%
D29*
X245313200Y-115120452D02*
X245313200Y-107241772D01*
X229607500Y-101107500D02*
X227000000Y-101107500D01*
X235753963Y-105000000D02*
X243071427Y-105000000D01*
X231906207Y-103406207D02*
X229607500Y-101107500D01*
X251077993Y-118000000D02*
X248192747Y-118000000D01*
X251461250Y-118158750D02*
X251620000Y-118317500D01*
X246156600Y-117156600D02*
G75*
G03*
X248192747Y-117999951I2036100J2036200D01*
G01*
X245313200Y-115120452D02*
G75*
G03*
X246156586Y-117156614I2879500J-48D01*
G01*
X244656600Y-105656600D02*
G75*
G03*
X243071427Y-104999989I-1585200J-1585200D01*
G01*
X231906207Y-103406207D02*
G75*
G03*
X235753963Y-105000011I3847793J3847807D01*
G01*
X244656600Y-105656600D02*
G75*
G02*
X245313211Y-107241772I-1585200J-1585200D01*
G01*
X251461250Y-118158750D02*
G75*
G03*
X251077993Y-118000003I-383250J-383250D01*
G01*
%TO.N,grid-zn_index_top*%
X222554800Y-102108000D02*
X222831337Y-102108000D01*
X215376036Y-98250000D02*
X209000000Y-98250000D01*
X249488750Y-120857500D02*
X251620000Y-120857500D01*
X230721364Y-104788164D02*
X230839407Y-104906207D01*
X226949000Y-103225600D02*
X225529462Y-103225600D01*
X219223792Y-99843792D02*
X220733658Y-101353658D01*
X245078192Y-118578192D02*
X245850478Y-119350478D01*
X241355979Y-106500000D02*
X234687163Y-106500000D01*
X243484400Y-114730436D02*
X243484400Y-108628420D01*
X245850478Y-119350478D02*
G75*
G03*
X249488750Y-120857533I3638322J3638278D01*
G01*
X230839407Y-104906207D02*
G75*
G03*
X234687163Y-106500011I3847793J3847807D01*
G01*
X219223792Y-99843792D02*
G75*
G03*
X215376036Y-98249989I-3847792J-3847808D01*
G01*
X220733658Y-101353658D02*
G75*
G03*
X222554800Y-102107995I1821142J1821158D01*
G01*
X243484400Y-114730436D02*
G75*
G03*
X245078200Y-118578184I5441600J36D01*
G01*
X242861000Y-107123400D02*
G75*
G03*
X241355979Y-106500009I-1505000J-1505000D01*
G01*
X242861000Y-107123400D02*
G75*
G02*
X243484391Y-108628420I-1505000J-1505000D01*
G01*
X224180400Y-102666800D02*
G75*
G03*
X222831337Y-102107984I-1349100J-1349100D01*
G01*
X230721364Y-104788164D02*
G75*
G03*
X226949000Y-103225591I-3772364J-3772336D01*
G01*
X224180400Y-102666800D02*
G75*
G03*
X225529462Y-103225616I1349100J1349100D01*
G01*
%TO.N,grid-zn_pinky_top*%
X198747267Y-124764800D02*
X199743485Y-124764800D01*
X156240000Y-113490000D02*
X155000000Y-112250000D01*
X163840211Y-120802400D02*
X160515235Y-120802400D01*
X211800516Y-125374400D02*
X209424367Y-125374400D01*
X203913314Y-123037600D02*
X204063600Y-123037600D01*
X245536036Y-127227500D02*
X226353987Y-127227500D01*
X249383792Y-125633707D02*
X251620000Y-123397500D01*
X168615411Y-122224800D02*
X167274188Y-122224800D01*
X182127828Y-120802400D02*
X172049388Y-120802400D01*
X217971969Y-127508000D02*
X216951483Y-127508000D01*
X221651230Y-125984000D02*
X223351912Y-125984000D01*
X157480000Y-117767164D02*
X157480000Y-116483624D01*
X185389671Y-122153500D02*
X192443032Y-122153500D01*
X206603600Y-124206000D02*
X206405067Y-124007467D01*
X214376000Y-126441200D02*
G75*
G03*
X216951483Y-127508007I2575500J2575500D01*
G01*
X221651230Y-125984000D02*
G75*
G03*
X219811591Y-126745991I-30J-2601600D01*
G01*
X224852950Y-126605750D02*
G75*
G03*
X223351912Y-125983995I-1501050J-1501050D01*
G01*
X156240000Y-113490000D02*
G75*
G02*
X157479990Y-116483624I-2993600J-2993600D01*
G01*
X219811600Y-126746000D02*
G75*
G02*
X217971969Y-127507987I-1839600J1839600D01*
G01*
X165557200Y-121513600D02*
G75*
G03*
X163840211Y-120802395I-1717000J-1717000D01*
G01*
X157480000Y-117767164D02*
G75*
G03*
X158368989Y-119913411I3035200J-36D01*
G01*
X195595150Y-123459150D02*
G75*
G03*
X198747267Y-124764813I3152150J3152150D01*
G01*
X158369000Y-119913400D02*
G75*
G03*
X160515235Y-120802385I2146200J2146200D01*
G01*
X183758750Y-121477950D02*
G75*
G03*
X182127828Y-120802388I-1630950J-1630950D01*
G01*
X170332400Y-121513600D02*
G75*
G02*
X168615411Y-122224805I-1717000J1717000D01*
G01*
X224852950Y-126605750D02*
G75*
G03*
X226353987Y-127227505I1501050J1501050D01*
G01*
X183758750Y-121477950D02*
G75*
G03*
X185389671Y-122153512I1630950J1630950D01*
G01*
X214376000Y-126441200D02*
G75*
G03*
X211800516Y-125374393I-2575500J-2575500D01*
G01*
X172049388Y-120802400D02*
G75*
G03*
X170332403Y-121513603I12J-2428200D01*
G01*
X165557200Y-121513600D02*
G75*
G03*
X167274188Y-122224805I1717000J1717000D01*
G01*
X249383792Y-125633707D02*
G75*
G02*
X245536036Y-127227510I-3847792J3847807D01*
G01*
X201828400Y-123901200D02*
G75*
G02*
X199743485Y-124764794I-2084900J2084900D01*
G01*
X206405067Y-124007467D02*
G75*
G03*
X204063600Y-123037590I-2341467J-2341433D01*
G01*
X206603600Y-124206000D02*
G75*
G03*
X209424367Y-125374414I2820800J2820800D01*
G01*
X195595150Y-123459150D02*
G75*
G03*
X192443032Y-122153487I-3152150J-3152150D01*
G01*
X203913314Y-123037600D02*
G75*
G03*
X201828396Y-123901196I-14J-2948500D01*
G01*
%TO.N,grid-zn_pinky_home*%
X160261007Y-144761007D02*
X154196992Y-138696992D01*
X232796492Y-144761007D02*
X251620000Y-125937500D01*
X164108763Y-146354800D02*
X228948736Y-146354800D01*
X155625000Y-129250000D02*
X156250000Y-129250000D01*
X152603200Y-133341593D02*
X152603200Y-134849236D01*
X153801599Y-130448399D02*
X154558058Y-129691941D01*
X160261007Y-144761007D02*
G75*
G03*
X164108763Y-146354811I3847793J3847807D01*
G01*
X155625000Y-129250000D02*
G75*
G03*
X154558055Y-129691938I0J-1508900D01*
G01*
X152603200Y-134849236D02*
G75*
G03*
X154197000Y-138696984I5441600J36D01*
G01*
X153801599Y-130448399D02*
G75*
G03*
X152603196Y-133341593I2893201J-2893201D01*
G01*
X232796492Y-144761007D02*
G75*
G02*
X228948736Y-146354810I-3847792J3847807D01*
G01*
%TO.N,grid-zn_pinky_bottom*%
X156119200Y-147369200D02*
X155000000Y-146250000D01*
X233202892Y-146894607D02*
X251620000Y-128477500D01*
X158821187Y-148488400D02*
X229355136Y-148488400D01*
X156119200Y-147369200D02*
G75*
G03*
X158821187Y-148488405I2702000J2702000D01*
G01*
X233202892Y-146894607D02*
G75*
G02*
X229355136Y-148488410I-3847792J3847807D01*
G01*
%TO.N,thumb-zn_near_thumb*%
X200961300Y-152243700D02*
X200000000Y-153205000D01*
X203282083Y-151282400D02*
X229101136Y-151282400D01*
X232948892Y-149688607D02*
X251620000Y-131017500D01*
X203282083Y-151282400D02*
G75*
G03*
X200961305Y-152243705I17J-3282100D01*
G01*
X232948892Y-149688607D02*
G75*
G02*
X229101136Y-151282410I-3847792J3847807D01*
G01*
%TO.N,thumb-zn_home_thumb*%
X229490908Y-155686591D02*
X251620000Y-133557500D01*
X225643152Y-157280384D02*
X220955620Y-157280384D01*
X229490908Y-155686591D02*
G75*
G02*
X225643152Y-157280410I-3847808J3847791D01*
G01*
%TO.N,thumb-zn_far_thumb*%
X239673033Y-150298430D02*
X239673033Y-163985703D01*
X241266825Y-146450674D02*
X251620000Y-136097500D01*
X241266825Y-146450674D02*
G75*
G03*
X239673059Y-150298430I3847775J-3847726D01*
G01*
%TO.N,grid-zn_inner_bottom*%
D31*
X225245000Y-132907500D02*
X227245000Y-134907500D01*
D29*
X227000000Y-135053750D02*
X227000000Y-135000000D01*
X235768750Y-136097500D02*
X236380000Y-136097500D01*
X227038006Y-135069493D02*
X227142150Y-134965350D01*
X232982133Y-134823200D02*
X227485330Y-134823200D01*
X234520350Y-135460350D02*
X234725280Y-135665280D01*
X234725280Y-135665280D02*
G75*
G03*
X235768750Y-136097532I1043520J1043480D01*
G01*
X227485330Y-134823200D02*
G75*
G03*
X227142141Y-134965341I-30J-485300D01*
G01*
X227000000Y-135053750D02*
G75*
G03*
X227038075Y-135069562I22300J-50D01*
G01*
X234520350Y-135460350D02*
G75*
G03*
X232982133Y-134823186I-1538250J-1538250D01*
G01*
%TO.N,grid-zn_index_bottom*%
X238963200Y-135509000D02*
X238963200Y-135371300D01*
X217740142Y-141107500D02*
X231999736Y-141107500D01*
X210161611Y-133411611D02*
X209000000Y-132250000D01*
X238334581Y-137026617D02*
X235847492Y-139513707D01*
X213892386Y-139513707D02*
X211838388Y-137459709D01*
X237149399Y-133557500D02*
X236380000Y-133557500D01*
X211000000Y-135435660D02*
G75*
G03*
X211838376Y-137459721I2862400J-40D01*
G01*
X238963200Y-135509000D02*
G75*
G02*
X238334575Y-137026611I-2146200J0D01*
G01*
X238431950Y-134088750D02*
G75*
G03*
X237149399Y-133557500I-1282550J-1282550D01*
G01*
X213892386Y-139513707D02*
G75*
G03*
X217740142Y-141107455I3847714J3847807D01*
G01*
X235847492Y-139513707D02*
G75*
G02*
X231999736Y-141107510I-3847792J3847807D01*
G01*
X238431950Y-134088750D02*
G75*
G02*
X238963200Y-135371300I-1282550J-1282550D01*
G01*
X210161611Y-133411611D02*
G75*
G02*
X211000039Y-135435660I-2024011J-2024089D01*
G01*
%TO.N,grid-zn_middle_bottom*%
X236106862Y-130857500D02*
X215859064Y-130857500D01*
X236300000Y-130937500D02*
X236380000Y-131017500D01*
X191815484Y-127965200D02*
X208876435Y-127965200D01*
X191238850Y-127726350D02*
X191000000Y-127487500D01*
X191238850Y-127726350D02*
G75*
G03*
X191815484Y-127965206I576650J576650D01*
G01*
X236300000Y-130937500D02*
G75*
G03*
X236106862Y-130857515I-193100J-193100D01*
G01*
X212367750Y-129411350D02*
G75*
G03*
X208876435Y-127965185I-3491350J-3491350D01*
G01*
X212367750Y-129411350D02*
G75*
G03*
X215859064Y-130857515I3491350J3491350D01*
G01*
%TO.N,grid-zn_ring_bottom*%
X174000802Y-128418499D02*
X177787909Y-124631392D01*
X224170626Y-129438400D02*
X216483014Y-129438400D01*
X181635665Y-123037600D02*
X190633636Y-123037600D01*
X209982985Y-126746000D02*
X198849963Y-126746000D01*
X195002207Y-125152207D02*
X194481392Y-124631392D01*
X173000000Y-130834651D02*
X173000000Y-132250000D01*
X225764973Y-128778000D02*
X235867014Y-128778000D01*
X236229750Y-128627750D02*
X236380000Y-128477500D01*
X194481392Y-124631392D02*
G75*
G03*
X190633636Y-123037589I-3847792J-3847808D01*
G01*
X195002207Y-125152207D02*
G75*
G03*
X198849963Y-126746011I3847793J3847807D01*
G01*
X181635665Y-123037600D02*
G75*
G03*
X177787937Y-124631420I35J-5441500D01*
G01*
X213233000Y-128092200D02*
G75*
G03*
X216483014Y-129438394I3250000J3250000D01*
G01*
X236229750Y-128627750D02*
G75*
G02*
X235867014Y-128778006I-362750J362750D01*
G01*
X225764973Y-128778000D02*
G75*
G03*
X224967808Y-129108208I27J-1127400D01*
G01*
X224967800Y-129108200D02*
G75*
G02*
X224170626Y-129438411I-797200J797200D01*
G01*
X213233000Y-128092200D02*
G75*
G03*
X209982985Y-126746006I-3250000J-3250000D01*
G01*
X174000802Y-128418499D02*
G75*
G03*
X173000019Y-130834651I2416098J-2416101D01*
G01*
%TO.N,grid-zn_ring_home*%
X189433200Y-119481600D02*
X189157191Y-119205591D01*
X235311050Y-124868550D02*
X236380000Y-125937500D01*
X192744535Y-120853200D02*
X199920537Y-120853200D01*
X208816262Y-120853200D02*
X209981800Y-120853200D01*
X232730376Y-123799600D02*
X226210904Y-123799600D01*
X206118137Y-121970800D02*
X202618662Y-121970800D01*
X186255956Y-118110000D02*
X186512200Y-118110000D01*
X181840843Y-116281200D02*
X174031200Y-116281200D01*
X174031200Y-116281200D02*
X173000000Y-115250000D01*
X213320559Y-122236159D02*
X213665256Y-122580856D01*
X221065586Y-125018800D02*
X223267495Y-125018800D01*
X218865513Y-124107500D02*
X217350900Y-124107500D01*
X219965550Y-124563150D02*
G75*
G03*
X218865513Y-124107494I-1100050J-1100050D01*
G01*
X201269600Y-121412000D02*
G75*
G03*
X199920537Y-120853184I-1349100J-1349100D01*
G01*
X213320559Y-122236159D02*
G75*
G03*
X209981800Y-120853194I-3338759J-3338741D01*
G01*
X189433200Y-119481600D02*
G75*
G03*
X192744535Y-120853185I3311300J3311300D01*
G01*
X184048400Y-117195600D02*
G75*
G03*
X186255956Y-118110018I2207600J2207600D01*
G01*
X226210904Y-123799600D02*
G75*
G03*
X224739199Y-124409199I-4J-2081300D01*
G01*
X224739200Y-124409200D02*
G75*
G02*
X223267495Y-125018798I-1471700J1471700D01*
G01*
X213665256Y-122580856D02*
G75*
G03*
X217350900Y-124107496I3685644J3685656D01*
G01*
X207467200Y-121412000D02*
G75*
G02*
X206118137Y-121970816I-1349100J1349100D01*
G01*
X219965550Y-124563150D02*
G75*
G03*
X221065586Y-125018806I1100050J1100050D01*
G01*
X208816262Y-120853200D02*
G75*
G03*
X207467211Y-121412011I38J-1907900D01*
G01*
X184048400Y-117195600D02*
G75*
G03*
X181840843Y-116281153I-2207600J-2207500D01*
G01*
X189157191Y-119205591D02*
G75*
G03*
X186512200Y-118110005I-2644991J-2645009D01*
G01*
X235311050Y-124868550D02*
G75*
G03*
X232730376Y-123799610I-2580650J-2580650D01*
G01*
X201269600Y-121412000D02*
G75*
G03*
X202618662Y-121970816I1349100J1349100D01*
G01*
%TO.N,grid-zn_inner_home*%
X231090000Y-118107500D02*
X227000000Y-118107500D01*
X231090000Y-118107500D02*
X236380000Y-123397500D01*
%TO.N,grid-zn_index_home*%
X209696250Y-114553750D02*
X209000000Y-115250000D01*
X230973792Y-115451292D02*
X236380000Y-120857500D01*
X227126036Y-113857500D02*
X211377146Y-113857500D01*
X211377146Y-113857500D02*
G75*
G03*
X209696236Y-114553736I-46J-2377100D01*
G01*
X230973792Y-115451292D02*
G75*
G03*
X227126036Y-113857489I-3847792J-3847808D01*
G01*
%TO.N,grid-zn_middle_home*%
X232432292Y-114369792D02*
X236380000Y-118317500D01*
X228584536Y-112776000D02*
X212658135Y-112776000D01*
X206035464Y-110032800D02*
X191776221Y-110032800D01*
X191227350Y-110260150D02*
X191000000Y-110487500D01*
X209346800Y-111404400D02*
G75*
G03*
X212658135Y-112775985I3311300J3311300D01*
G01*
X232432292Y-114369792D02*
G75*
G03*
X228584536Y-112775989I-3847792J-3847808D01*
G01*
X209346800Y-111404400D02*
G75*
G03*
X206035464Y-110032815I-3311300J-3311300D01*
G01*
X191776221Y-110032800D02*
G75*
G03*
X191227344Y-110260144I-21J-776200D01*
G01*
%TO.N,MCU1_21*%
D30*
X236380000Y-115777500D02*
X238500000Y-115777500D01*
%TO.N,MCU1_22*%
X236380000Y-113237500D02*
X238500000Y-113237500D01*
%TO.N,MCU1_23*%
X236380000Y-110697500D02*
X238500000Y-110697500D01*
%TO.N,MCU1_24*%
X236380000Y-108157500D02*
X238500000Y-108157500D01*
%TO.N,RST*%
X248580000Y-113237500D02*
X247400000Y-113237500D01*
%TO.N,VCC*%
X248580000Y-115777500D02*
X247400000Y-115777500D01*
%TO.N,grid-zn_ring_top*%
D29*
X217466522Y-110896400D02*
X213226363Y-110896400D01*
X189585600Y-102260400D02*
X189492277Y-102167077D01*
X240351628Y-111648371D02*
X240326250Y-111673750D01*
X173810000Y-99060000D02*
X181368764Y-99060000D01*
X202725472Y-104597200D02*
X202951246Y-104822974D01*
D30*
X240248750Y-110697500D02*
X239420000Y-110697500D01*
D29*
X206276225Y-106200225D02*
X209378607Y-109302607D01*
X229183417Y-111947500D02*
X239665359Y-111947500D01*
X225645750Y-110482150D02*
X225419675Y-110256075D01*
X173810000Y-99060000D02*
X173000000Y-98250000D01*
X193019577Y-103682800D02*
X200517915Y-103682800D01*
X222004277Y-109016800D02*
X222427800Y-109016800D01*
X185661235Y-100838000D02*
X186283600Y-100838000D01*
X189492277Y-102167077D02*
G75*
G03*
X186283600Y-100837984I-3208677J-3208623D01*
G01*
X219735400Y-109956600D02*
G75*
G02*
X217466522Y-110896409I-2268900J2268900D01*
G01*
X206276225Y-106200225D02*
G75*
G03*
X204613736Y-105511570I-1662525J-1662475D01*
G01*
X183515000Y-99949000D02*
G75*
G03*
X181368764Y-99060015I-2146200J-2146200D01*
G01*
X189585600Y-102260400D02*
G75*
G03*
X193019577Y-103682809I3434000J3434000D01*
G01*
X222004277Y-109016800D02*
G75*
G03*
X219735406Y-109956606I23J-3208700D01*
G01*
X202725472Y-104597200D02*
G75*
G03*
X200517915Y-103682773I-2207572J-2207500D01*
G01*
X225419675Y-110256075D02*
G75*
G03*
X222427800Y-109016814I-2991875J-2991925D01*
G01*
X240326250Y-111673750D02*
G75*
G02*
X239665359Y-111947454I-660850J660950D01*
G01*
X209378607Y-109302607D02*
G75*
G03*
X213226363Y-110896411I3847793J3847807D01*
G01*
X202951246Y-104822974D02*
G75*
G03*
X204613736Y-105511579I1662454J1662474D01*
G01*
X240600000Y-111048750D02*
G75*
G02*
X240351605Y-111648348I-848000J50D01*
G01*
X240600000Y-111048750D02*
G75*
G03*
X240248750Y-110697500I-351200J50D01*
G01*
X225645750Y-110482150D02*
G75*
G03*
X229183417Y-111947493I3537650J3537650D01*
G01*
X183515000Y-99949000D02*
G75*
G03*
X185661235Y-100837985I2146200J2146200D01*
G01*
%TO.N,grid-zn_middle_top*%
X216214135Y-106680000D02*
X218157737Y-106680000D01*
X209396104Y-103936800D02*
X210032600Y-103936800D01*
X227636566Y-106680000D02*
X225783462Y-106680000D01*
X191652650Y-94140150D02*
X191000000Y-93487500D01*
X240600000Y-108541143D02*
X240600000Y-108157500D01*
X198972769Y-94792800D02*
X193228286Y-94792800D01*
X220855862Y-107797600D02*
X223085337Y-107797600D01*
X200812400Y-95554800D02*
X200891900Y-95634300D01*
D30*
X239408800Y-108153200D02*
X240588800Y-108153200D01*
D29*
X202961936Y-99060000D02*
X204799890Y-99060000D01*
X201574400Y-97672463D02*
X201574400Y-97282000D01*
X234221333Y-109407500D02*
X239733643Y-109407500D01*
X212902800Y-105308400D02*
X212590870Y-104996470D01*
X207314800Y-101574909D02*
X207314800Y-101855495D01*
X219506800Y-107238800D02*
G75*
G03*
X218157737Y-106679984I-1349100J-1349100D01*
G01*
X200812400Y-95554800D02*
G75*
G03*
X198972769Y-94792813I-1839600J-1839600D01*
G01*
X240600000Y-108541143D02*
G75*
G02*
X240346237Y-109153737I-866400J43D01*
G01*
X230928950Y-108043750D02*
G75*
G03*
X227636566Y-106680014I-3292350J-3292350D01*
G01*
X201980800Y-98653600D02*
G75*
G03*
X202961936Y-99059985I981100J981100D01*
G01*
X230928950Y-108043750D02*
G75*
G03*
X234221333Y-109407486I3292350J3292350D01*
G01*
X191652650Y-94140150D02*
G75*
G03*
X193228286Y-94792806I1575650J1575650D01*
G01*
X206578200Y-99796600D02*
G75*
G03*
X204799890Y-99060004I-1778300J-1778300D01*
G01*
X225783462Y-106680000D02*
G75*
G03*
X224434411Y-107238811I38J-1907900D01*
G01*
X200891900Y-95634300D02*
G75*
G02*
X201574400Y-97282000I-1647700J-1647700D01*
G01*
X224434400Y-107238800D02*
G75*
G02*
X223085337Y-107797616I-1349100J1349100D01*
G01*
X219506800Y-107238800D02*
G75*
G03*
X220855862Y-107797616I1349100J1349100D01*
G01*
X206578200Y-99796600D02*
G75*
G02*
X207314796Y-101574909I-1778300J-1778300D01*
G01*
X207314800Y-101855495D02*
G75*
G03*
X207924399Y-103327201I2081300J-5D01*
G01*
X240346250Y-109153750D02*
G75*
G02*
X239733643Y-109407518I-612650J612650D01*
G01*
X201574400Y-97672463D02*
G75*
G03*
X201980789Y-98653611I1387500J-37D01*
G01*
X207924400Y-103327200D02*
G75*
G03*
X209396104Y-103936798I1471700J1471700D01*
G01*
X212590870Y-104996470D02*
G75*
G03*
X210032600Y-103936788I-2558270J-2558230D01*
G01*
X212902800Y-105308400D02*
G75*
G03*
X216214135Y-106679985I3311300J3311300D01*
G01*
%TD*%
%TA.AperFunction,Conductor*%
%TO.N,grid-zn_index_bottom*%
G36*
X209459035Y-131927517D02*
G01*
X210635046Y-132105156D01*
X210642714Y-132109780D01*
X210644897Y-132115195D01*
X210911549Y-134136187D01*
X210909234Y-134144837D01*
X210905027Y-134148258D01*
X210556618Y-134316051D01*
X210547715Y-134316567D01*
X209285044Y-133879664D01*
X209278346Y-133873720D01*
X209277214Y-133867591D01*
X209445658Y-131938070D01*
X209449792Y-131930129D01*
X209458332Y-131927434D01*
X209459035Y-131927517D01*
G37*
%TD.AperFunction*%
%TD*%
%TA.AperFunction,Conductor*%
%TO.N,RAW*%
G36*
X248284537Y-107858501D02*
G01*
X248285023Y-107858779D01*
X248287473Y-107860648D01*
X248571035Y-108143269D01*
X248573577Y-108147058D01*
X248574262Y-108148703D01*
X248574279Y-108157657D01*
X248573608Y-108159286D01*
X248571049Y-108163117D01*
X248288025Y-108445200D01*
X248284225Y-108447730D01*
X248281777Y-108448739D01*
X248274264Y-108449216D01*
X248273724Y-108449070D01*
X248270883Y-108447882D01*
X248270622Y-108447730D01*
X248229842Y-108423941D01*
X247987815Y-108282758D01*
X247984396Y-108279733D01*
X247982386Y-108277089D01*
X247980000Y-108270008D01*
X247980000Y-108037246D01*
X247980889Y-108032771D01*
X247982162Y-108029698D01*
X247987074Y-108024072D01*
X248270214Y-107858907D01*
X248274526Y-107857421D01*
X248277150Y-107857064D01*
X248284537Y-107858501D01*
G37*
%TD.AperFunction*%
%TD*%
%TA.AperFunction,Conductor*%
%TO.N,GND*%
G36*
X239726289Y-112941632D02*
G01*
X239729109Y-112942813D01*
X239917728Y-113052841D01*
X240012183Y-113107940D01*
X240015600Y-113110963D01*
X240017612Y-113113608D01*
X240020000Y-113120691D01*
X240020000Y-113353452D01*
X240019108Y-113357932D01*
X240017836Y-113361001D01*
X240012923Y-113366627D01*
X239729787Y-113531789D01*
X239725474Y-113533276D01*
X239722851Y-113533634D01*
X239715451Y-113532192D01*
X239714966Y-113531914D01*
X239714260Y-113531375D01*
X239714191Y-113531357D01*
X239714154Y-113531294D01*
X239712525Y-113530050D01*
X239545975Y-113364053D01*
X239428961Y-113247428D01*
X239426418Y-113243635D01*
X239425734Y-113241991D01*
X239425719Y-113233040D01*
X239426391Y-113231408D01*
X239428944Y-113227586D01*
X239711976Y-112945495D01*
X239715769Y-112942969D01*
X239718221Y-112941958D01*
X239725740Y-112941483D01*
X239726289Y-112941632D01*
G37*
%TD.AperFunction*%
%TD*%
%TA.AperFunction,Conductor*%
%TO.N,grid-zn_inner_bottom*%
G36*
X226570024Y-132821718D02*
G01*
X226573171Y-132826147D01*
X227236343Y-134470296D01*
X227236259Y-134479251D01*
X227233765Y-134482946D01*
X226820843Y-134895868D01*
X226812570Y-134899295D01*
X226807495Y-134898137D01*
X224914910Y-133986893D01*
X224908943Y-133980216D01*
X224908826Y-133972839D01*
X225241892Y-132914422D01*
X225247644Y-132907559D01*
X225252271Y-132906260D01*
X226561542Y-132818850D01*
X226570024Y-132821718D01*
G37*
%TD.AperFunction*%
%TD*%
%TA.AperFunction,Conductor*%
%TO.N,MCU1_3*%
G36*
X251224627Y-112497685D02*
G01*
X251622077Y-113231930D01*
X251623002Y-113240837D01*
X251622077Y-113243070D01*
X251224627Y-113977314D01*
X251217675Y-113982958D01*
X251209256Y-113982283D01*
X251198952Y-113977314D01*
X251041298Y-113901283D01*
X249930711Y-113365691D01*
X249924747Y-113359010D01*
X249924093Y-113355152D01*
X249924093Y-113119847D01*
X249927520Y-113111574D01*
X249930709Y-113109309D01*
X251209258Y-112492715D01*
X251218196Y-112492209D01*
X251224627Y-112497685D01*
G37*
%TD.AperFunction*%
%TD*%
%TA.AperFunction,Conductor*%
%TO.N,grid-zn_ring_home*%
G36*
X174601481Y-115664781D02*
G01*
X174602169Y-115665169D01*
X175278408Y-116077779D01*
X175283685Y-116085014D01*
X175284014Y-116087767D01*
X175284014Y-116471450D01*
X175280587Y-116479723D01*
X175274424Y-116482958D01*
X173008015Y-116898530D01*
X172999260Y-116896652D01*
X172995843Y-116892991D01*
X172640541Y-116293893D01*
X172639269Y-116285030D01*
X172644637Y-116277863D01*
X172647086Y-116276767D01*
X174592560Y-115663997D01*
X174601481Y-115664781D01*
G37*
%TD.AperFunction*%
%TD*%
%TA.AperFunction,Conductor*%
%TO.N,grid-zn_pinky_bottom*%
G36*
X156626231Y-146529706D02*
G01*
X156629537Y-146534734D01*
X157059207Y-147825040D01*
X157058569Y-147833973D01*
X157058424Y-147834252D01*
X156876119Y-148175320D01*
X156869197Y-148181001D01*
X156864093Y-148181380D01*
X154961052Y-147900536D01*
X154953368Y-147895938D01*
X154951274Y-147891188D01*
X154940181Y-147833973D01*
X154710139Y-146647494D01*
X154711928Y-146638721D01*
X154719398Y-146633782D01*
X154720959Y-146633587D01*
X156617778Y-146526750D01*
X156626231Y-146529706D01*
G37*
%TD.AperFunction*%
%TD*%
%TA.AperFunction,Conductor*%
%TO.N,MCU1_22*%
G36*
X236790741Y-112492715D02*
G01*
X238069289Y-113109308D01*
X238075253Y-113115989D01*
X238075907Y-113119847D01*
X238075907Y-113355152D01*
X238072480Y-113363425D01*
X238069289Y-113365691D01*
X236790743Y-113982283D01*
X236781803Y-113982790D01*
X236775372Y-113977314D01*
X236377922Y-113243070D01*
X236376997Y-113234163D01*
X236377922Y-113231930D01*
X236775372Y-112497685D01*
X236782324Y-112492041D01*
X236790741Y-112492715D01*
G37*
%TD.AperFunction*%
%TD*%
%TA.AperFunction,Conductor*%
%TO.N,BAT_P*%
G36*
X245002985Y-148536021D02*
G01*
X245368425Y-148688303D01*
X245374743Y-148694648D01*
X245375201Y-148702220D01*
X245202373Y-149327196D01*
X245196865Y-149334257D01*
X245191096Y-149335778D01*
X244809110Y-149335778D01*
X244800837Y-149332351D01*
X244797767Y-149326946D01*
X244636316Y-148688302D01*
X244615000Y-148603981D01*
X244616295Y-148595121D01*
X244623475Y-148589771D01*
X244624636Y-148589540D01*
X244996798Y-148535245D01*
X245002985Y-148536021D01*
G37*
%TD.AperFunction*%
%TD*%
%TA.AperFunction,Conductor*%
%TO.N,GND*%
G36*
X248284537Y-110402801D02*
G01*
X248285023Y-110403079D01*
X248287473Y-110404948D01*
X248571035Y-110687569D01*
X248573577Y-110691358D01*
X248574262Y-110693003D01*
X248574279Y-110701957D01*
X248573608Y-110703586D01*
X248571049Y-110707417D01*
X248288025Y-110989500D01*
X248284225Y-110992030D01*
X248281777Y-110993039D01*
X248274264Y-110993516D01*
X248273724Y-110993370D01*
X248270883Y-110992182D01*
X248270622Y-110992030D01*
X248229842Y-110968241D01*
X247987815Y-110827058D01*
X247984396Y-110824033D01*
X247982386Y-110821389D01*
X247980000Y-110814308D01*
X247980000Y-110581546D01*
X247980889Y-110577071D01*
X247982162Y-110573998D01*
X247987074Y-110568372D01*
X248270214Y-110403207D01*
X248274526Y-110401721D01*
X248277150Y-110401364D01*
X248284537Y-110402801D01*
G37*
%TD.AperFunction*%
%TD*%
%TA.AperFunction,Conductor*%
%TO.N,grid-zn_inner_bottom*%
G36*
X225592279Y-132826203D02*
G01*
X227217301Y-133469974D01*
X227223731Y-133476208D01*
X227224691Y-133480665D01*
X227247310Y-134895375D01*
X227244015Y-134903702D01*
X227235798Y-134907261D01*
X227233190Y-134907009D01*
X225461388Y-134532331D01*
X225454003Y-134527267D01*
X225452403Y-134523490D01*
X225214120Y-133480665D01*
X225162314Y-133253941D01*
X225163812Y-133245115D01*
X225165443Y-133243068D01*
X225579703Y-132828808D01*
X225587975Y-132825382D01*
X225592279Y-132826203D01*
G37*
%TD.AperFunction*%
%TD*%
%TA.AperFunction,Conductor*%
%TO.N,grid-zn_index_top*%
G36*
X251224377Y-120117223D02*
G01*
X251622077Y-120851930D01*
X251623002Y-120860837D01*
X251622077Y-120863070D01*
X251224377Y-121597776D01*
X251217425Y-121603420D01*
X251209518Y-121602976D01*
X249931223Y-121060525D01*
X249924945Y-121054139D01*
X249924093Y-121049755D01*
X249924093Y-120665244D01*
X249927520Y-120656971D01*
X249931221Y-120654474D01*
X251209519Y-120112022D01*
X251218472Y-120111945D01*
X251224377Y-120117223D01*
G37*
%TD.AperFunction*%
%TD*%
%TA.AperFunction,Conductor*%
%TO.N,grid-zn_inner_home*%
G36*
X236614721Y-122579242D02*
G01*
X236618539Y-122581748D01*
X236620037Y-122583221D01*
X236623516Y-122590908D01*
X236623592Y-122592263D01*
X236623124Y-122596255D01*
X236386070Y-123392800D01*
X236383939Y-123396837D01*
X236381764Y-123399516D01*
X236376018Y-123403356D01*
X235579028Y-123640543D01*
X235574485Y-123640966D01*
X235572390Y-123640749D01*
X235564874Y-123636905D01*
X235563971Y-123635895D01*
X235561850Y-123632486D01*
X235465883Y-123395030D01*
X235464982Y-123392800D01*
X235043163Y-122349069D01*
X235042312Y-122344586D01*
X235042338Y-122341528D01*
X235045764Y-122333359D01*
X235315114Y-122064009D01*
X235318905Y-122061476D01*
X235321731Y-122060305D01*
X235330590Y-122060268D01*
X236614721Y-122579242D01*
G37*
%TD.AperFunction*%
%TD*%
%TA.AperFunction,Conductor*%
%TO.N,VCC*%
G36*
X248189034Y-115649633D02*
G01*
X248195551Y-115655775D01*
X248196578Y-115660570D01*
X248196578Y-115894429D01*
X248193151Y-115902702D01*
X248189034Y-115905366D01*
X247563583Y-116143057D01*
X247554632Y-116142793D01*
X247548664Y-116136707D01*
X247397531Y-115782084D01*
X247397441Y-115773133D01*
X247397502Y-115772983D01*
X247548665Y-115418290D01*
X247555060Y-115412025D01*
X247563583Y-115411942D01*
X248189034Y-115649633D01*
G37*
%TD.AperFunction*%
%TD*%
%TA.AperFunction,Conductor*%
%TO.N,grid-zn_ring_top*%
G36*
X239726289Y-110401632D02*
G01*
X239729109Y-110402813D01*
X239917728Y-110512841D01*
X240012183Y-110567940D01*
X240015600Y-110570963D01*
X240017612Y-110573608D01*
X240020000Y-110580691D01*
X240020000Y-110813452D01*
X240019108Y-110817932D01*
X240017836Y-110821001D01*
X240012923Y-110826627D01*
X239729787Y-110991789D01*
X239725474Y-110993276D01*
X239722851Y-110993634D01*
X239715451Y-110992192D01*
X239714966Y-110991914D01*
X239714260Y-110991375D01*
X239714191Y-110991357D01*
X239714154Y-110991294D01*
X239712525Y-110990050D01*
X239545975Y-110824053D01*
X239428961Y-110707428D01*
X239426418Y-110703635D01*
X239425734Y-110701991D01*
X239425719Y-110693040D01*
X239426391Y-110691408D01*
X239428944Y-110687586D01*
X239711976Y-110405495D01*
X239715769Y-110402969D01*
X239718221Y-110401958D01*
X239725740Y-110401483D01*
X239726289Y-110401632D01*
G37*
%TD.AperFunction*%
%TD*%
%TA.AperFunction,Conductor*%
%TO.N,grid-zn_middle_top*%
G36*
X240445447Y-107792158D02*
G01*
X240451334Y-107798169D01*
X240602447Y-108148621D01*
X240602576Y-108157575D01*
X240602485Y-108157796D01*
X240451336Y-108516585D01*
X240444966Y-108522879D01*
X240436334Y-108522955D01*
X239810902Y-108281092D01*
X239804422Y-108274912D01*
X239803422Y-108270180D01*
X239803422Y-108036320D01*
X239806849Y-108028047D01*
X239811027Y-108025360D01*
X240436499Y-107791841D01*
X240445447Y-107792158D01*
G37*
%TD.AperFunction*%
%TD*%
%TA.AperFunction,Conductor*%
%TO.N,grid-zn_ring_top*%
G36*
X240818778Y-110760611D02*
G01*
X240824652Y-110762316D01*
X240955242Y-110841857D01*
X240960857Y-110845277D01*
X240966140Y-110852507D01*
X240965509Y-110859915D01*
X240656504Y-111574019D01*
X240650073Y-111580251D01*
X240641120Y-111580111D01*
X240639265Y-111579101D01*
X240322448Y-111367393D01*
X240317474Y-111359947D01*
X240317467Y-111359913D01*
X240206057Y-110763809D01*
X240207906Y-110755050D01*
X240215409Y-110750161D01*
X240217763Y-110749964D01*
X240818778Y-110760611D01*
G37*
%TD.AperFunction*%
%TD*%
%TA.AperFunction,Conductor*%
%TO.N,grid-zn_index_top*%
G36*
X210313476Y-97254061D02*
G01*
X211639217Y-98046594D01*
X211644560Y-98053780D01*
X211644914Y-98056636D01*
X211644914Y-98443363D01*
X211641487Y-98451636D01*
X211639217Y-98453405D01*
X210313477Y-99245937D01*
X210304618Y-99247241D01*
X210300384Y-99245202D01*
X209763335Y-98836106D01*
X209006130Y-98259305D01*
X209001627Y-98251568D01*
X209003914Y-98242910D01*
X209006128Y-98240695D01*
X210300384Y-97254796D01*
X210309042Y-97252510D01*
X210313476Y-97254061D01*
G37*
%TD.AperFunction*%
%TD*%
%TA.AperFunction,Conductor*%
%TO.N,JST1_2*%
G36*
X243193980Y-151388522D02*
G01*
X243196704Y-151389651D01*
X243202092Y-151394169D01*
X243202136Y-151394238D01*
X243203254Y-151396497D01*
X243550816Y-152343324D01*
X243551523Y-152347834D01*
X243551399Y-152350864D01*
X243547637Y-152358991D01*
X243547594Y-152359030D01*
X243009603Y-152849739D01*
X243005695Y-152852098D01*
X243003728Y-152852809D01*
X242995273Y-152852615D01*
X242994008Y-152852091D01*
X242990601Y-152849926D01*
X242453196Y-152359753D01*
X242450490Y-152356081D01*
X242449201Y-152353333D01*
X242448790Y-152344393D01*
X242796383Y-151397482D01*
X242798759Y-151393591D01*
X242800760Y-151391419D01*
X242806900Y-151387912D01*
X242806924Y-151387906D01*
X242806980Y-151387895D01*
X242808794Y-151387701D01*
X242808885Y-151387660D01*
X242808952Y-151387684D01*
X242809441Y-151387633D01*
X243189505Y-151387633D01*
X243193980Y-151388522D01*
G37*
%TD.AperFunction*%
%TD*%
%TA.AperFunction,Conductor*%
%TO.N,MCU1_24*%
G36*
X236790741Y-107412715D02*
G01*
X238069289Y-108029308D01*
X238075253Y-108035989D01*
X238075907Y-108039847D01*
X238075907Y-108275152D01*
X238072480Y-108283425D01*
X238069289Y-108285691D01*
X236790743Y-108902283D01*
X236781803Y-108902790D01*
X236775372Y-108897314D01*
X236377922Y-108163070D01*
X236376997Y-108154163D01*
X236377922Y-108151930D01*
X236775372Y-107417685D01*
X236782324Y-107412041D01*
X236790741Y-107412715D01*
G37*
%TD.AperFunction*%
%TD*%
%TA.AperFunction,Conductor*%
%TO.N,BAT_P*%
G36*
X249518346Y-150789973D02*
G01*
X249519707Y-150790823D01*
X249955200Y-151106302D01*
X250194967Y-151279994D01*
X250199656Y-151287623D01*
X250197578Y-151296333D01*
X250190745Y-151300867D01*
X249519020Y-151456568D01*
X249511283Y-151455702D01*
X249124062Y-151268371D01*
X249118107Y-151261683D01*
X249117856Y-151254813D01*
X249217206Y-150884056D01*
X249222657Y-150876953D01*
X249225085Y-150875898D01*
X249509435Y-150789111D01*
X249518346Y-150789973D01*
G37*
%TD.AperFunction*%
%TD*%
%TA.AperFunction,Conductor*%
%TO.N,grid-zn_pinky_top*%
G36*
X250818751Y-123154373D02*
G01*
X251615301Y-123391427D01*
X251619337Y-123393558D01*
X251622016Y-123395733D01*
X251625856Y-123401479D01*
X251863043Y-124198470D01*
X251863466Y-124203012D01*
X251863249Y-124205107D01*
X251859405Y-124212625D01*
X251858395Y-124213527D01*
X251854986Y-124215648D01*
X250571572Y-124734333D01*
X250567088Y-124735185D01*
X250564031Y-124735159D01*
X250555858Y-124731732D01*
X250286512Y-124462386D01*
X250283976Y-124458591D01*
X250282805Y-124455765D01*
X250282768Y-124446906D01*
X250377087Y-124213527D01*
X250801743Y-123162775D01*
X250804247Y-123158960D01*
X250805721Y-123157461D01*
X250813404Y-123153982D01*
X250814760Y-123153906D01*
X250818751Y-123154373D01*
G37*
%TD.AperFunction*%
%TD*%
%TA.AperFunction,Conductor*%
%TO.N,GND*%
G36*
X239726289Y-115481632D02*
G01*
X239729109Y-115482813D01*
X239917728Y-115592841D01*
X240012183Y-115647940D01*
X240015600Y-115650963D01*
X240017612Y-115653608D01*
X240020000Y-115660691D01*
X240020000Y-115893452D01*
X240019108Y-115897932D01*
X240017836Y-115901001D01*
X240012923Y-115906627D01*
X239729787Y-116071789D01*
X239725474Y-116073276D01*
X239722851Y-116073634D01*
X239715451Y-116072192D01*
X239714966Y-116071914D01*
X239714260Y-116071375D01*
X239714191Y-116071357D01*
X239714154Y-116071294D01*
X239712525Y-116070050D01*
X239545975Y-115904053D01*
X239428961Y-115787428D01*
X239426418Y-115783635D01*
X239425734Y-115781991D01*
X239425719Y-115773040D01*
X239426391Y-115771408D01*
X239428944Y-115767586D01*
X239711976Y-115485495D01*
X239715769Y-115482969D01*
X239718221Y-115481958D01*
X239725740Y-115481483D01*
X239726289Y-115481632D01*
G37*
%TD.AperFunction*%
%TD*%
%TA.AperFunction,Conductor*%
%TO.N,RAW*%
G36*
X248188971Y-108025359D02*
G01*
X248195522Y-108031463D01*
X248196578Y-108036320D01*
X248196578Y-108270180D01*
X248193151Y-108278453D01*
X248189098Y-108281092D01*
X247563665Y-108522955D01*
X247554713Y-108522743D01*
X247548663Y-108516585D01*
X247397513Y-108157795D01*
X247397460Y-108148842D01*
X247397552Y-108148621D01*
X247450702Y-108025359D01*
X247548666Y-107798167D01*
X247555088Y-107791929D01*
X247563500Y-107791841D01*
X248188971Y-108025359D01*
G37*
%TD.AperFunction*%
%TD*%
%TA.AperFunction,Conductor*%
%TO.N,MCU1_21*%
G36*
X236790741Y-115032715D02*
G01*
X238069289Y-115649308D01*
X238075253Y-115655989D01*
X238075907Y-115659847D01*
X238075907Y-115895152D01*
X238072480Y-115903425D01*
X238069289Y-115905691D01*
X236790743Y-116522283D01*
X236781803Y-116522790D01*
X236775372Y-116517314D01*
X236377922Y-115783070D01*
X236376997Y-115774163D01*
X236377922Y-115771930D01*
X236775372Y-115037685D01*
X236782324Y-115032041D01*
X236790741Y-115032715D01*
G37*
%TD.AperFunction*%
%TD*%
%TA.AperFunction,Conductor*%
%TO.N,MCU1_1*%
G36*
X251224627Y-107417685D02*
G01*
X251622077Y-108151930D01*
X251623002Y-108160837D01*
X251622077Y-108163070D01*
X251224627Y-108897314D01*
X251217675Y-108902958D01*
X251209256Y-108902283D01*
X251198952Y-108897314D01*
X251041298Y-108821283D01*
X249930711Y-108285691D01*
X249924747Y-108279010D01*
X249924093Y-108275152D01*
X249924093Y-108039847D01*
X249927520Y-108031574D01*
X249930709Y-108029309D01*
X251209258Y-107412715D01*
X251218196Y-107412209D01*
X251224627Y-107417685D01*
G37*
%TD.AperFunction*%
%TD*%
%TA.AperFunction,Conductor*%
%TO.N,thumb-zn_home_thumb*%
G36*
X250818751Y-133314373D02*
G01*
X251615301Y-133551427D01*
X251619337Y-133553558D01*
X251622016Y-133555733D01*
X251625856Y-133561479D01*
X251863043Y-134358470D01*
X251863466Y-134363012D01*
X251863249Y-134365107D01*
X251859405Y-134372625D01*
X251858395Y-134373527D01*
X251854986Y-134375648D01*
X250571572Y-134894333D01*
X250567088Y-134895185D01*
X250564031Y-134895159D01*
X250555858Y-134891732D01*
X250286512Y-134622386D01*
X250283976Y-134618591D01*
X250282805Y-134615765D01*
X250282768Y-134606906D01*
X250377087Y-134373527D01*
X250801743Y-133322775D01*
X250804247Y-133318960D01*
X250805721Y-133317461D01*
X250813404Y-133313982D01*
X250814760Y-133313906D01*
X250818751Y-133314373D01*
G37*
%TD.AperFunction*%
%TD*%
%TA.AperFunction,Conductor*%
%TO.N,grid-zn_middle_home*%
G36*
X236614721Y-117499242D02*
G01*
X236618539Y-117501748D01*
X236620037Y-117503221D01*
X236623516Y-117510908D01*
X236623592Y-117512263D01*
X236623124Y-117516255D01*
X236386070Y-118312800D01*
X236383939Y-118316837D01*
X236381764Y-118319516D01*
X236376018Y-118323356D01*
X235579028Y-118560543D01*
X235574485Y-118560966D01*
X235572390Y-118560749D01*
X235564874Y-118556905D01*
X235563971Y-118555895D01*
X235561850Y-118552486D01*
X235465883Y-118315030D01*
X235464982Y-118312800D01*
X235043163Y-117269069D01*
X235042312Y-117264586D01*
X235042338Y-117261528D01*
X235045764Y-117253359D01*
X235315114Y-116984009D01*
X235318905Y-116981476D01*
X235321731Y-116980305D01*
X235330590Y-116980268D01*
X236614721Y-117499242D01*
G37*
%TD.AperFunction*%
%TD*%
%TA.AperFunction,Conductor*%
%TO.N,grid-zn_ring_home*%
G36*
X235318480Y-124596520D02*
G01*
X235318898Y-124596879D01*
X235324009Y-124601500D01*
X236616852Y-125120133D01*
X236623255Y-125126394D01*
X236623714Y-125134317D01*
X236386825Y-125933601D01*
X236381188Y-125940559D01*
X236378957Y-125941486D01*
X235576809Y-126181191D01*
X235567901Y-126180277D01*
X235562611Y-126174364D01*
X235052600Y-124911659D01*
X235052680Y-124902705D01*
X235054405Y-124899856D01*
X235056045Y-124897858D01*
X235302014Y-124598141D01*
X235309911Y-124593920D01*
X235318480Y-124596520D01*
G37*
%TD.AperFunction*%
%TD*%
%TA.AperFunction,Conductor*%
%TO.N,GND*%
G36*
X243198681Y-149544927D02*
G01*
X243201881Y-149550905D01*
X243248774Y-149785373D01*
X243247036Y-149794158D01*
X243245591Y-149795925D01*
X243008290Y-150034176D01*
X243000023Y-150037619D01*
X242991743Y-150034209D01*
X242991710Y-150034176D01*
X242754408Y-149795925D01*
X242750998Y-149787645D01*
X242751225Y-149785373D01*
X242798119Y-149550905D01*
X242803102Y-149543465D01*
X242809592Y-149541500D01*
X243190408Y-149541500D01*
X243198681Y-149544927D01*
G37*
%TD.AperFunction*%
%TD*%
%TA.AperFunction,Conductor*%
%TO.N,MCU1_24*%
G36*
X238224537Y-107862801D02*
G01*
X238225023Y-107863079D01*
X238227473Y-107864948D01*
X238511035Y-108147569D01*
X238513577Y-108151358D01*
X238514262Y-108153003D01*
X238514279Y-108161957D01*
X238513608Y-108163586D01*
X238511049Y-108167417D01*
X238228025Y-108449500D01*
X238224225Y-108452030D01*
X238221777Y-108453039D01*
X238214264Y-108453516D01*
X238213724Y-108453370D01*
X238210883Y-108452182D01*
X238210622Y-108452030D01*
X238169842Y-108428241D01*
X237927815Y-108287058D01*
X237924396Y-108284033D01*
X237922386Y-108281389D01*
X237920000Y-108274308D01*
X237920000Y-108041546D01*
X237920889Y-108037071D01*
X237922162Y-108033998D01*
X237927074Y-108028372D01*
X238210214Y-107863207D01*
X238214526Y-107861721D01*
X238217150Y-107861364D01*
X238224537Y-107862801D01*
G37*
%TD.AperFunction*%
%TD*%
%TA.AperFunction,Conductor*%
%TO.N,thumb-zn_far_thumb*%
G36*
X251617530Y-136092091D02*
G01*
X251624482Y-136097735D01*
X251625407Y-136099968D01*
X251863707Y-136900700D01*
X251862782Y-136909607D01*
X251856877Y-136914885D01*
X250569414Y-137435206D01*
X250560460Y-137435128D01*
X250556757Y-137432631D01*
X250284867Y-137160741D01*
X250281440Y-137152468D01*
X250282290Y-137148089D01*
X250802614Y-135860621D01*
X250808892Y-135854236D01*
X250816796Y-135853792D01*
X251617530Y-136092091D01*
G37*
%TD.AperFunction*%
%TD*%
%TA.AperFunction,Conductor*%
%TO.N,MCU1_4*%
G36*
X249786289Y-115481632D02*
G01*
X249789109Y-115482813D01*
X249977728Y-115592841D01*
X250072183Y-115647940D01*
X250075600Y-115650963D01*
X250077612Y-115653608D01*
X250080000Y-115660691D01*
X250080000Y-115893452D01*
X250079108Y-115897932D01*
X250077836Y-115901001D01*
X250072923Y-115906627D01*
X249789787Y-116071789D01*
X249785474Y-116073276D01*
X249782851Y-116073634D01*
X249775451Y-116072192D01*
X249774966Y-116071914D01*
X249774260Y-116071375D01*
X249774191Y-116071357D01*
X249774154Y-116071294D01*
X249772525Y-116070050D01*
X249605975Y-115904053D01*
X249488961Y-115787428D01*
X249486418Y-115783635D01*
X249485734Y-115781991D01*
X249485719Y-115773040D01*
X249486391Y-115771408D01*
X249488944Y-115767586D01*
X249771976Y-115485495D01*
X249775769Y-115482969D01*
X249778221Y-115481958D01*
X249785740Y-115481483D01*
X249786289Y-115481632D01*
G37*
%TD.AperFunction*%
%TD*%
%TA.AperFunction,Conductor*%
%TO.N,grid-zn_index_bottom*%
G36*
X236812772Y-132826026D02*
G01*
X238129645Y-133613593D01*
X238134987Y-133620780D01*
X238133772Y-133629484D01*
X237942809Y-133960241D01*
X237935705Y-133965692D01*
X237932984Y-133966087D01*
X237119279Y-133987452D01*
X237110919Y-133984243D01*
X237109524Y-133982657D01*
X236494870Y-133141200D01*
X236492757Y-133132498D01*
X236496101Y-133125970D01*
X236798552Y-132827735D01*
X236806849Y-132824367D01*
X236812772Y-132826026D01*
G37*
%TD.AperFunction*%
%TD*%
%TA.AperFunction,Conductor*%
%TO.N,RST*%
G36*
X248284537Y-112942801D02*
G01*
X248285023Y-112943079D01*
X248287473Y-112944948D01*
X248571035Y-113227569D01*
X248573577Y-113231358D01*
X248574262Y-113233003D01*
X248574279Y-113241957D01*
X248573608Y-113243586D01*
X248571049Y-113247417D01*
X248288025Y-113529500D01*
X248284225Y-113532030D01*
X248281777Y-113533039D01*
X248274264Y-113533516D01*
X248273724Y-113533370D01*
X248270883Y-113532182D01*
X248270622Y-113532030D01*
X248229842Y-113508241D01*
X247987815Y-113367058D01*
X247984396Y-113364033D01*
X247982386Y-113361389D01*
X247980000Y-113354308D01*
X247980000Y-113121546D01*
X247980889Y-113117071D01*
X247982162Y-113113998D01*
X247987074Y-113108372D01*
X248270214Y-112943207D01*
X248274526Y-112941721D01*
X248277150Y-112941364D01*
X248284537Y-112942801D01*
G37*
%TD.AperFunction*%
%TD*%
%TA.AperFunction,Conductor*%
%TO.N,MCU1_3*%
G36*
X249787775Y-112942035D02*
G01*
X250074196Y-113109114D01*
X250079615Y-113116241D01*
X250080000Y-113119219D01*
X250080000Y-113355780D01*
X250076573Y-113364053D01*
X250074195Y-113365886D01*
X249787777Y-113532963D01*
X249778904Y-113534172D01*
X249773623Y-113531144D01*
X249605975Y-113364053D01*
X249487313Y-113245785D01*
X249483873Y-113237519D01*
X249487285Y-113229241D01*
X249773624Y-112943854D01*
X249781901Y-112940442D01*
X249787775Y-112942035D01*
G37*
%TD.AperFunction*%
%TD*%
%TA.AperFunction,Conductor*%
%TO.N,MCU1_23*%
G36*
X236790741Y-109952715D02*
G01*
X238069289Y-110569308D01*
X238075253Y-110575989D01*
X238075907Y-110579847D01*
X238075907Y-110815152D01*
X238072480Y-110823425D01*
X238069289Y-110825691D01*
X236790743Y-111442283D01*
X236781803Y-111442790D01*
X236775372Y-111437314D01*
X236377922Y-110703070D01*
X236376997Y-110694163D01*
X236377922Y-110691930D01*
X236775372Y-109957685D01*
X236782324Y-109952041D01*
X236790741Y-109952715D01*
G37*
%TD.AperFunction*%
%TD*%
%TA.AperFunction,Conductor*%
%TO.N,grid-zn_ring_bottom*%
G36*
X235572451Y-128231751D02*
G01*
X236433679Y-128774103D01*
X236438853Y-128781411D01*
X236439075Y-128785270D01*
X236381402Y-129314626D01*
X236377099Y-129322480D01*
X236368504Y-129324990D01*
X236367334Y-129324802D01*
X234748131Y-128979972D01*
X234740753Y-128974897D01*
X234738868Y-128968529D01*
X234738868Y-128585762D01*
X234742295Y-128577489D01*
X234746017Y-128574983D01*
X235561669Y-128230870D01*
X235570623Y-128230813D01*
X235572451Y-128231751D01*
G37*
%TD.AperFunction*%
%TD*%
%TA.AperFunction,Conductor*%
%TO.N,MCU1_2*%
G36*
X251224627Y-109957685D02*
G01*
X251622077Y-110691930D01*
X251623002Y-110700837D01*
X251622077Y-110703070D01*
X251224627Y-111437314D01*
X251217675Y-111442958D01*
X251209256Y-111442283D01*
X251198952Y-111437314D01*
X251041298Y-111361283D01*
X249930711Y-110825691D01*
X249924747Y-110819010D01*
X249924093Y-110815152D01*
X249924093Y-110579847D01*
X249927520Y-110571574D01*
X249930709Y-110569309D01*
X251209258Y-109952715D01*
X251218196Y-109952209D01*
X251224627Y-109957685D01*
G37*
%TD.AperFunction*%
%TD*%
%TA.AperFunction,Conductor*%
%TO.N,MCU1_23*%
G36*
X238226376Y-110403855D02*
G01*
X238512685Y-110689213D01*
X238516126Y-110697481D01*
X238512713Y-110705759D01*
X238512685Y-110705787D01*
X238226376Y-110991144D01*
X238218098Y-110994557D01*
X238212222Y-110992963D01*
X237925805Y-110825886D01*
X237920385Y-110818758D01*
X237920000Y-110815780D01*
X237920000Y-110579219D01*
X237923427Y-110570946D01*
X237925800Y-110569116D01*
X238212224Y-110402035D01*
X238221095Y-110400827D01*
X238226376Y-110403855D01*
G37*
%TD.AperFunction*%
%TD*%
%TA.AperFunction,Conductor*%
%TO.N,grid-zn_index_home*%
G36*
X211146354Y-113666331D02*
G01*
X211154549Y-113669940D01*
X211157695Y-113676501D01*
X211207944Y-114058228D01*
X211205626Y-114066878D01*
X211205523Y-114067010D01*
X210601949Y-114830672D01*
X210594131Y-114835038D01*
X210590116Y-114834812D01*
X208605272Y-114372458D01*
X208597992Y-114367244D01*
X208596531Y-114358409D01*
X208596583Y-114358196D01*
X208670184Y-114067010D01*
X208782374Y-113623147D01*
X208787723Y-113615967D01*
X208793975Y-113614318D01*
X211146354Y-113666331D01*
G37*
%TD.AperFunction*%
%TD*%
%TA.AperFunction,Conductor*%
%TO.N,grid-zn_ring_top*%
G36*
X174655327Y-98224573D02*
G01*
X175429115Y-98856489D01*
X175433355Y-98864376D01*
X175433414Y-98865551D01*
X175433414Y-99250979D01*
X175429987Y-99259252D01*
X175424690Y-99262294D01*
X173011357Y-99897012D01*
X173002484Y-99895802D01*
X172997066Y-99888673D01*
X172997055Y-99888631D01*
X172784889Y-99069554D01*
X172786132Y-99060686D01*
X172791412Y-99055951D01*
X174643131Y-98222966D01*
X174652080Y-98222698D01*
X174655327Y-98224573D01*
G37*
%TD.AperFunction*%
%TD*%
%TA.AperFunction,Conductor*%
%TO.N,grid-zn_middle_home*%
G36*
X191786686Y-109036350D02*
G01*
X193574868Y-109829714D01*
X193581040Y-109836202D01*
X193581823Y-109840409D01*
X193581823Y-110227091D01*
X193578396Y-110235364D01*
X193577324Y-110236313D01*
X192563694Y-111027798D01*
X192555064Y-111030188D01*
X192550365Y-111028543D01*
X190942432Y-110039937D01*
X190937179Y-110032685D01*
X190938593Y-110023842D01*
X190939627Y-110022415D01*
X191773020Y-109039478D01*
X191780982Y-109035385D01*
X191786686Y-109036350D01*
G37*
%TD.AperFunction*%
%TD*%
%TA.AperFunction,Conductor*%
%TO.N,GND*%
G36*
X243383566Y-148550351D02*
G01*
X243391269Y-148554912D01*
X243393492Y-148563587D01*
X243393221Y-148564920D01*
X243202301Y-149287865D01*
X243196876Y-149294989D01*
X243190989Y-149296578D01*
X242809011Y-149296578D01*
X242800738Y-149293151D01*
X242797699Y-149287865D01*
X242606778Y-148564918D01*
X242607979Y-148556046D01*
X242615103Y-148550621D01*
X242616409Y-148550355D01*
X242998354Y-148495813D01*
X243001646Y-148495813D01*
X243383566Y-148550351D01*
G37*
%TD.AperFunction*%
%TD*%
%TA.AperFunction,Conductor*%
%TO.N,grid-zn_ring_bottom*%
G36*
X173039662Y-129567689D02*
G01*
X173404662Y-129695404D01*
X173411339Y-129701370D01*
X173411448Y-129701604D01*
X173956438Y-130900011D01*
X173956744Y-130908960D01*
X173953301Y-130913823D01*
X172471060Y-132155372D01*
X172462517Y-132158058D01*
X172454578Y-132153916D01*
X172454065Y-132153257D01*
X171752757Y-131183013D01*
X171750688Y-131174300D01*
X171753089Y-131168868D01*
X173026651Y-129571437D01*
X173034486Y-129567106D01*
X173039662Y-129567689D01*
G37*
%TD.AperFunction*%
%TD*%
%TA.AperFunction,Conductor*%
%TO.N,grid-zn_inner_top*%
G36*
X228313515Y-100111702D02*
G01*
X229204704Y-100659781D01*
X229607498Y-100907499D01*
X229607507Y-100907503D01*
X229746770Y-100965188D01*
X229750566Y-100967724D01*
X229767103Y-100984261D01*
X229770530Y-100992534D01*
X229767103Y-101000807D01*
X229503493Y-101264417D01*
X229503493Y-101264418D01*
X229586328Y-101298730D01*
X229592659Y-101305061D01*
X229592659Y-101314015D01*
X229587979Y-101319504D01*
X228313517Y-102103296D01*
X228304675Y-102104711D01*
X228300298Y-102102637D01*
X227006130Y-101116805D01*
X227001627Y-101109068D01*
X227003914Y-101100410D01*
X227006128Y-101098195D01*
X228300300Y-100112361D01*
X228308956Y-100110075D01*
X228313515Y-100111702D01*
G37*
%TD.AperFunction*%
%TD*%
%TA.AperFunction,Conductor*%
%TO.N,RAW*%
G36*
X249518219Y-147760270D02*
G01*
X249519449Y-147761152D01*
X249864081Y-148044076D01*
X250178683Y-148302347D01*
X250182903Y-148310245D01*
X250180302Y-148318814D01*
X250173603Y-148322853D01*
X249519640Y-148456551D01*
X249511006Y-148454953D01*
X249122190Y-148207028D01*
X249117056Y-148199691D01*
X249117352Y-148193550D01*
X249236133Y-147828028D01*
X249241949Y-147821220D01*
X249244609Y-147820249D01*
X249509387Y-147758802D01*
X249518219Y-147760270D01*
G37*
%TD.AperFunction*%
%TD*%
%TA.AperFunction,Conductor*%
%TO.N,grid-zn_ring_top*%
G36*
X240445367Y-110332206D02*
G01*
X240451335Y-110338292D01*
X240602467Y-110692913D01*
X240602558Y-110701867D01*
X240602467Y-110702087D01*
X240451335Y-111056707D01*
X240444939Y-111062974D01*
X240436416Y-111063057D01*
X239810966Y-110825366D01*
X239804449Y-110819224D01*
X239803422Y-110814429D01*
X239803422Y-110580570D01*
X239806849Y-110572297D01*
X239810966Y-110569633D01*
X240436417Y-110331942D01*
X240445367Y-110332206D01*
G37*
%TD.AperFunction*%
%TD*%
%TA.AperFunction,Conductor*%
%TO.N,grid-zn_middle_bottom*%
G36*
X192571539Y-126970263D02*
G01*
X193569918Y-127761687D01*
X193574273Y-127769511D01*
X193574350Y-127770855D01*
X193574350Y-128157528D01*
X193570923Y-128165801D01*
X193567315Y-128168258D01*
X191742253Y-128961655D01*
X191733299Y-128961811D01*
X191728500Y-128958293D01*
X190931779Y-127975597D01*
X190929230Y-127967013D01*
X190933499Y-127959141D01*
X190934775Y-127958240D01*
X192558190Y-126969440D01*
X192567036Y-126968064D01*
X192571539Y-126970263D01*
G37*
%TD.AperFunction*%
%TD*%
%TA.AperFunction,Conductor*%
%TO.N,MCU1_2*%
G36*
X249787775Y-110402035D02*
G01*
X250074196Y-110569114D01*
X250079615Y-110576241D01*
X250080000Y-110579219D01*
X250080000Y-110815780D01*
X250076573Y-110824053D01*
X250074195Y-110825886D01*
X249787777Y-110992963D01*
X249778904Y-110994172D01*
X249773623Y-110991144D01*
X249605975Y-110824053D01*
X249487313Y-110705785D01*
X249483873Y-110697519D01*
X249487285Y-110689241D01*
X249773624Y-110403854D01*
X249781901Y-110400442D01*
X249787775Y-110402035D01*
G37*
%TD.AperFunction*%
%TD*%
%TA.AperFunction,Conductor*%
%TO.N,MCU1_4*%
G36*
X251221763Y-115035246D02*
G01*
X251222962Y-115036267D01*
X251225666Y-115039605D01*
X251620969Y-115769883D01*
X251622318Y-115774247D01*
X251622674Y-115777681D01*
X251621325Y-115784457D01*
X251225734Y-116515268D01*
X251222820Y-116518781D01*
X251221315Y-116520003D01*
X251213005Y-116522583D01*
X251211434Y-116522457D01*
X251207287Y-116521333D01*
X251198952Y-116517314D01*
X251041298Y-116441283D01*
X250431416Y-116147161D01*
X249932807Y-115906701D01*
X249929161Y-115903953D01*
X249927065Y-115901605D01*
X249924093Y-115893814D01*
X249924093Y-115662174D01*
X249924983Y-115657698D01*
X249926188Y-115654788D01*
X249931914Y-115648727D01*
X251207164Y-115033724D01*
X251211577Y-115032583D01*
X251213515Y-115032473D01*
X251221763Y-115035246D01*
G37*
%TD.AperFunction*%
%TD*%
%TA.AperFunction,Conductor*%
%TO.N,grid-zn_middle_top*%
G36*
X240759956Y-108187559D02*
G01*
X240761239Y-108188312D01*
X240960892Y-108305501D01*
X240966292Y-108312644D01*
X240965843Y-108319909D01*
X240693761Y-109005049D01*
X240687523Y-109011474D01*
X240678569Y-109011605D01*
X240678409Y-109011540D01*
X240432372Y-108909621D01*
X240327939Y-108866361D01*
X240321609Y-108860030D01*
X240320788Y-108854281D01*
X240361399Y-108483971D01*
X240365707Y-108476122D01*
X240365934Y-108475945D01*
X240746986Y-108188311D01*
X240755654Y-108186063D01*
X240759956Y-108187559D01*
G37*
%TD.AperFunction*%
%TD*%
%TA.AperFunction,Conductor*%
%TO.N,MCU1_1*%
G36*
X249787775Y-107862035D02*
G01*
X250074196Y-108029114D01*
X250079615Y-108036241D01*
X250080000Y-108039219D01*
X250080000Y-108275780D01*
X250076573Y-108284053D01*
X250074195Y-108285886D01*
X249787777Y-108452963D01*
X249778904Y-108454172D01*
X249773623Y-108451144D01*
X249605975Y-108284053D01*
X249487313Y-108165785D01*
X249483873Y-108157519D01*
X249487285Y-108149241D01*
X249773624Y-107863854D01*
X249781901Y-107860442D01*
X249787775Y-107862035D01*
G37*
%TD.AperFunction*%
%TD*%
%TA.AperFunction,Conductor*%
%TO.N,grid-zn_pinky_home*%
G36*
X250818751Y-125694373D02*
G01*
X251615301Y-125931427D01*
X251619337Y-125933558D01*
X251622016Y-125935733D01*
X251625856Y-125941479D01*
X251863043Y-126738470D01*
X251863466Y-126743012D01*
X251863249Y-126745107D01*
X251859405Y-126752625D01*
X251858395Y-126753527D01*
X251854986Y-126755648D01*
X250571572Y-127274333D01*
X250567088Y-127275185D01*
X250564031Y-127275159D01*
X250555858Y-127271732D01*
X250286512Y-127002386D01*
X250283976Y-126998591D01*
X250282805Y-126995765D01*
X250282768Y-126986906D01*
X250377087Y-126753527D01*
X250801743Y-125702775D01*
X250804247Y-125698960D01*
X250805721Y-125697461D01*
X250813404Y-125693982D01*
X250814760Y-125693906D01*
X250818751Y-125694373D01*
G37*
%TD.AperFunction*%
%TD*%
%TA.AperFunction,Conductor*%
%TO.N,JST1_1*%
G36*
X245200105Y-151391060D02*
G01*
X245202815Y-151395301D01*
X245551619Y-152345510D01*
X245551253Y-152354458D01*
X245548521Y-152358186D01*
X245007885Y-152851307D01*
X244999463Y-152854351D01*
X244992115Y-152851307D01*
X244451478Y-152358186D01*
X244447675Y-152350079D01*
X244448379Y-152345514D01*
X244797185Y-151395300D01*
X244803252Y-151388716D01*
X244808168Y-151387633D01*
X245191832Y-151387633D01*
X245200105Y-151391060D01*
G37*
%TD.AperFunction*%
%TD*%
%TA.AperFunction,Conductor*%
%TO.N,grid-zn_index_home*%
G36*
X235329410Y-119519791D02*
G01*
X236616877Y-120040114D01*
X236623263Y-120046392D01*
X236623707Y-120054299D01*
X236385407Y-120855030D01*
X236379763Y-120861982D01*
X236377530Y-120862907D01*
X235576799Y-121101207D01*
X235567892Y-121100282D01*
X235562614Y-121094377D01*
X235465883Y-120855030D01*
X235042292Y-119806912D01*
X235042370Y-119797960D01*
X235044864Y-119794260D01*
X235316758Y-119522366D01*
X235325030Y-119518940D01*
X235329410Y-119519791D01*
G37*
%TD.AperFunction*%
%TD*%
%TA.AperFunction,Conductor*%
%TO.N,grid-zn_pinky_bottom*%
G36*
X250818751Y-128234373D02*
G01*
X251615301Y-128471427D01*
X251619337Y-128473558D01*
X251622016Y-128475733D01*
X251625856Y-128481479D01*
X251863043Y-129278470D01*
X251863466Y-129283012D01*
X251863249Y-129285107D01*
X251859405Y-129292625D01*
X251858395Y-129293527D01*
X251854986Y-129295648D01*
X250571572Y-129814333D01*
X250567088Y-129815185D01*
X250564031Y-129815159D01*
X250555858Y-129811732D01*
X250286512Y-129542386D01*
X250283976Y-129538591D01*
X250282805Y-129535765D01*
X250282768Y-129526906D01*
X250377087Y-129293527D01*
X250801743Y-128242775D01*
X250804247Y-128238960D01*
X250805721Y-128237461D01*
X250813404Y-128233982D01*
X250814760Y-128233906D01*
X250818751Y-128234373D01*
G37*
%TD.AperFunction*%
%TD*%
%TA.AperFunction,Conductor*%
%TO.N,MCU1_22*%
G36*
X238226376Y-112943855D02*
G01*
X238512685Y-113229213D01*
X238516126Y-113237481D01*
X238512713Y-113245759D01*
X238512685Y-113245787D01*
X238226376Y-113531144D01*
X238218098Y-113534557D01*
X238212222Y-113532963D01*
X237925805Y-113365886D01*
X237920385Y-113358758D01*
X237920000Y-113355780D01*
X237920000Y-113119219D01*
X237923427Y-113110946D01*
X237925800Y-113109116D01*
X238212224Y-112942035D01*
X238221095Y-112940827D01*
X238226376Y-112943855D01*
G37*
%TD.AperFunction*%
%TD*%
%TA.AperFunction,Conductor*%
%TO.N,VCC*%
G36*
X248286376Y-115483855D02*
G01*
X248572685Y-115769213D01*
X248576126Y-115777481D01*
X248572713Y-115785759D01*
X248572685Y-115785787D01*
X248286376Y-116071144D01*
X248278098Y-116074557D01*
X248272222Y-116072963D01*
X247985805Y-115905886D01*
X247980385Y-115898758D01*
X247980000Y-115895780D01*
X247980000Y-115659219D01*
X247983427Y-115650946D01*
X247985800Y-115649116D01*
X248272224Y-115482035D01*
X248281095Y-115480827D01*
X248286376Y-115483855D01*
G37*
%TD.AperFunction*%
%TD*%
%TA.AperFunction,Conductor*%
%TO.N,grid-zn_middle_top*%
G36*
X239727775Y-107857735D02*
G01*
X240014196Y-108024814D01*
X240019615Y-108031941D01*
X240020000Y-108034919D01*
X240020000Y-108271480D01*
X240016573Y-108279753D01*
X240014195Y-108281586D01*
X239727777Y-108448663D01*
X239718904Y-108449872D01*
X239713623Y-108446844D01*
X239545975Y-108279753D01*
X239427313Y-108161485D01*
X239423873Y-108153219D01*
X239427285Y-108144941D01*
X239713624Y-107859554D01*
X239721901Y-107856142D01*
X239727775Y-107857735D01*
G37*
%TD.AperFunction*%
%TD*%
%TA.AperFunction,Conductor*%
%TO.N,GND*%
G36*
X240445367Y-112872206D02*
G01*
X240451335Y-112878292D01*
X240602467Y-113232913D01*
X240602558Y-113241867D01*
X240602467Y-113242087D01*
X240451335Y-113596707D01*
X240444939Y-113602974D01*
X240436416Y-113603057D01*
X239810966Y-113365366D01*
X239804449Y-113359224D01*
X239803422Y-113354429D01*
X239803422Y-113120570D01*
X239806849Y-113112297D01*
X239810966Y-113109633D01*
X240436417Y-112871942D01*
X240445367Y-112872206D01*
G37*
%TD.AperFunction*%
%TD*%
%TA.AperFunction,Conductor*%
%TO.N,thumb-zn_far_thumb*%
G36*
X239874121Y-161747827D02*
G01*
X239876283Y-161750808D01*
X240668328Y-163312474D01*
X240669014Y-163321402D01*
X240664371Y-163327509D01*
X239683972Y-163979429D01*
X239675186Y-163981156D01*
X239667751Y-163976164D01*
X239667069Y-163974997D01*
X239329530Y-163312474D01*
X238958541Y-162584295D01*
X238957840Y-162575370D01*
X238959021Y-162572824D01*
X239469601Y-161749930D01*
X239476875Y-161744708D01*
X239479543Y-161744400D01*
X239865848Y-161744400D01*
X239874121Y-161747827D01*
G37*
%TD.AperFunction*%
%TD*%
%TA.AperFunction,Conductor*%
%TO.N,grid-zn_inner_bottom*%
G36*
X234916492Y-135567331D02*
G01*
X235596847Y-135755316D01*
X235603775Y-135760593D01*
X236136632Y-136652655D01*
X236137933Y-136661515D01*
X236132588Y-136668699D01*
X236127904Y-136670281D01*
X235793790Y-136708111D01*
X235785519Y-136705894D01*
X234642525Y-135861009D01*
X234637909Y-135853335D01*
X234640071Y-135844645D01*
X234641059Y-135843478D01*
X234904971Y-135570476D01*
X234913183Y-135566911D01*
X234916492Y-135567331D01*
G37*
%TD.AperFunction*%
%TD*%
%TA.AperFunction,Conductor*%
%TO.N,thumb-zn_home_thumb*%
G36*
X222269096Y-156284445D02*
G01*
X223594837Y-157076978D01*
X223600180Y-157084164D01*
X223600534Y-157087020D01*
X223600534Y-157473747D01*
X223597107Y-157482020D01*
X223594837Y-157483789D01*
X222269097Y-158276321D01*
X222260238Y-158277625D01*
X222256004Y-158275586D01*
X221718955Y-157866490D01*
X220961750Y-157289689D01*
X220957247Y-157281952D01*
X220959534Y-157273294D01*
X220961748Y-157271079D01*
X222256004Y-156285180D01*
X222264662Y-156282894D01*
X222269096Y-156284445D01*
G37*
%TD.AperFunction*%
%TD*%
%TA.AperFunction,Conductor*%
%TO.N,thumb-zn_near_thumb*%
G36*
X201958941Y-151344229D02*
G01*
X201962779Y-151349583D01*
X202090334Y-151714111D01*
X202090162Y-151722301D01*
X201624973Y-152891227D01*
X201618730Y-152897647D01*
X201612356Y-152898470D01*
X199622952Y-152598218D01*
X199615283Y-152593595D01*
X199613160Y-152588588D01*
X199466210Y-151714111D01*
X199457060Y-151659658D01*
X199459068Y-151650932D01*
X199466659Y-151646182D01*
X199467167Y-151646108D01*
X201950313Y-151341834D01*
X201958941Y-151344229D01*
G37*
%TD.AperFunction*%
%TD*%
%TA.AperFunction,Conductor*%
%TO.N,grid-zn_inner_bottom*%
G36*
X228043198Y-133826888D02*
G01*
X229613962Y-134619955D01*
X229619803Y-134626743D01*
X229620389Y-134630399D01*
X229620389Y-135017135D01*
X229616962Y-135025408D01*
X229615435Y-135026695D01*
X228493219Y-135818599D01*
X228484483Y-135820569D01*
X228480035Y-135818808D01*
X226981771Y-134831360D01*
X226976748Y-134823946D01*
X226978440Y-134815153D01*
X226980199Y-134813063D01*
X228029924Y-133828795D01*
X228038301Y-133825638D01*
X228043198Y-133826888D01*
G37*
%TD.AperFunction*%
%TD*%
%TA.AperFunction,Conductor*%
%TO.N,GND*%
G36*
X248189034Y-110569633D02*
G01*
X248195551Y-110575775D01*
X248196578Y-110580570D01*
X248196578Y-110814429D01*
X248193151Y-110822702D01*
X248189034Y-110825366D01*
X247563583Y-111063057D01*
X247554632Y-111062793D01*
X247548664Y-111056707D01*
X247397531Y-110702084D01*
X247397441Y-110693133D01*
X247397502Y-110692983D01*
X247548665Y-110338290D01*
X247555060Y-110332025D01*
X247563583Y-110331942D01*
X248189034Y-110569633D01*
G37*
%TD.AperFunction*%
%TD*%
%TA.AperFunction,Conductor*%
%TO.N,grid-zn_middle_bottom*%
G36*
X236369560Y-130172181D02*
G01*
X236369561Y-130172181D01*
X236369562Y-130172181D01*
X236372941Y-130174036D01*
X236377411Y-130176488D01*
X236377412Y-130176490D01*
X236377919Y-130177122D01*
X236380488Y-130184098D01*
X236400129Y-130850150D01*
X236399371Y-130854651D01*
X236397895Y-130858535D01*
X236395262Y-130862621D01*
X235722983Y-131539929D01*
X235719199Y-131542479D01*
X235716539Y-131543593D01*
X235709426Y-131544210D01*
X235709250Y-131544170D01*
X235707698Y-131543627D01*
X235707584Y-131543628D01*
X235707521Y-131543565D01*
X235706761Y-131543300D01*
X235172465Y-131285649D01*
X234708060Y-131061701D01*
X234704414Y-131058953D01*
X234702315Y-131056601D01*
X234699347Y-131048813D01*
X234699347Y-130668602D01*
X234700236Y-130664128D01*
X234701281Y-130661605D01*
X234706119Y-130656020D01*
X234706503Y-130655793D01*
X234707540Y-130655343D01*
X234707610Y-130655274D01*
X234707701Y-130655273D01*
X234709179Y-130654632D01*
X236363245Y-130172384D01*
X236367789Y-130171987D01*
X236369560Y-130172181D01*
G37*
%TD.AperFunction*%
%TD*%
%TA.AperFunction,Conductor*%
%TO.N,thumb-zn_near_thumb*%
G36*
X251617530Y-131012091D02*
G01*
X251624482Y-131017735D01*
X251625407Y-131019968D01*
X251863707Y-131820700D01*
X251862782Y-131829607D01*
X251856877Y-131834885D01*
X250569414Y-132355206D01*
X250560460Y-132355128D01*
X250556757Y-132352631D01*
X250284867Y-132080741D01*
X250281440Y-132072468D01*
X250282290Y-132068089D01*
X250802614Y-130780621D01*
X250808892Y-130774236D01*
X250816796Y-130773792D01*
X251617530Y-131012091D01*
G37*
%TD.AperFunction*%
%TD*%
%TA.AperFunction,Conductor*%
%TO.N,RST*%
G36*
X248189034Y-113109633D02*
G01*
X248195551Y-113115775D01*
X248196578Y-113120570D01*
X248196578Y-113354429D01*
X248193151Y-113362702D01*
X248189034Y-113365366D01*
X247563583Y-113603057D01*
X247554632Y-113602793D01*
X247548664Y-113596707D01*
X247397531Y-113242084D01*
X247397441Y-113233133D01*
X247397502Y-113232983D01*
X247548665Y-112878290D01*
X247555060Y-112872025D01*
X247563583Y-112871942D01*
X248189034Y-113109633D01*
G37*
%TD.AperFunction*%
%TD*%
%TA.AperFunction,Conductor*%
%TO.N,grid-zn_inner_top*%
G36*
X251616421Y-117471724D02*
G01*
X251621429Y-117479148D01*
X251621573Y-117480022D01*
X251685958Y-117992425D01*
X251683589Y-118001061D01*
X251680360Y-118003922D01*
X250802666Y-118529490D01*
X250793807Y-118530800D01*
X250792220Y-118530279D01*
X249993175Y-118202975D01*
X249986818Y-118196668D01*
X249985910Y-118192148D01*
X249985910Y-117809559D01*
X249989337Y-117801286D01*
X249995277Y-117798094D01*
X251607633Y-117470016D01*
X251616421Y-117471724D01*
G37*
%TD.AperFunction*%
%TD*%
%TA.AperFunction,Conductor*%
%TO.N,MCU1_21*%
G36*
X238226376Y-115483855D02*
G01*
X238512685Y-115769213D01*
X238516126Y-115777481D01*
X238512713Y-115785759D01*
X238512685Y-115785787D01*
X238226376Y-116071144D01*
X238218098Y-116074557D01*
X238212222Y-116072963D01*
X237925805Y-115905886D01*
X237920385Y-115898758D01*
X237920000Y-115895780D01*
X237920000Y-115659219D01*
X237923427Y-115650946D01*
X237925800Y-115649116D01*
X238212224Y-115482035D01*
X238221095Y-115480827D01*
X238226376Y-115483855D01*
G37*
%TD.AperFunction*%
%TD*%
%TA.AperFunction,Conductor*%
%TO.N,grid-zn_inner_home*%
G36*
X228313476Y-117111561D02*
G01*
X229639217Y-117904094D01*
X229644560Y-117911280D01*
X229644914Y-117914136D01*
X229644914Y-118300863D01*
X229641487Y-118309136D01*
X229639217Y-118310905D01*
X228313477Y-119103437D01*
X228304618Y-119104741D01*
X228300384Y-119102702D01*
X227763335Y-118693606D01*
X227006130Y-118116805D01*
X227001627Y-118109068D01*
X227003914Y-118100410D01*
X227006128Y-118098195D01*
X228300384Y-117112296D01*
X228309042Y-117110010D01*
X228313476Y-117111561D01*
G37*
%TD.AperFunction*%
%TD*%
%TA.AperFunction,Conductor*%
%TO.N,BAT_P*%
G36*
X245198681Y-149544927D02*
G01*
X245201881Y-149550905D01*
X245248774Y-149785373D01*
X245247036Y-149794158D01*
X245245591Y-149795925D01*
X245008290Y-150034176D01*
X245000023Y-150037619D01*
X244991743Y-150034209D01*
X244991710Y-150034176D01*
X244754408Y-149795925D01*
X244750998Y-149787645D01*
X244751225Y-149785373D01*
X244798119Y-149550905D01*
X244803102Y-149543465D01*
X244809592Y-149541500D01*
X245190408Y-149541500D01*
X245198681Y-149544927D01*
G37*
%TD.AperFunction*%
%TD*%
%TA.AperFunction,Conductor*%
%TO.N,GND*%
G36*
X240445367Y-115412206D02*
G01*
X240451335Y-115418292D01*
X240602467Y-115772913D01*
X240602558Y-115781867D01*
X240602467Y-115782087D01*
X240451335Y-116136707D01*
X240444939Y-116142974D01*
X240436416Y-116143057D01*
X239810966Y-115905366D01*
X239804449Y-115899224D01*
X239803422Y-115894429D01*
X239803422Y-115660570D01*
X239806849Y-115652297D01*
X239810966Y-115649633D01*
X240436417Y-115411942D01*
X240445367Y-115412206D01*
G37*
%TD.AperFunction*%
%TD*%
%TA.AperFunction,Conductor*%
%TO.N,grid-zn_middle_top*%
G36*
X192576241Y-93986201D02*
G01*
X192578558Y-93987900D01*
X193216315Y-94589121D01*
X193219984Y-94597289D01*
X193219988Y-94597808D01*
X193214285Y-94981806D01*
X193210735Y-94990027D01*
X193203341Y-94993308D01*
X190982390Y-95136872D01*
X190973913Y-95133986D01*
X190971778Y-95131498D01*
X190604079Y-94556092D01*
X190602513Y-94547278D01*
X190607639Y-94539935D01*
X190610750Y-94538537D01*
X192567349Y-93985155D01*
X192576241Y-93986201D01*
G37*
%TD.AperFunction*%
%TD*%
M02*
