%TF.GenerationSoftware,KiCad,Pcbnew,10.0.4*%
%TF.CreationDate,2026-07-18T16:01:10+02:00*%
%TF.ProjectId,shield-pcb-rounded,73686965-6c64-42d7-9063-622d726f756e,1.2*%
%TF.SameCoordinates,Original*%
%TF.FileFunction,Paste,Top*%
%TF.FilePolarity,Positive*%
%FSLAX46Y46*%
G04 Gerber Fmt 4.6, Leading zero omitted, Abs format (unit mm)*
G04 Created by KiCad (PCBNEW 10.0.4) date 2026-07-18 16:01:10*
%MOMM*%
%LPD*%
G01*
G04 APERTURE LIST*
G04 Aperture macros list*
%AMRoundRect*
0 Rectangle with rounded corners*
0 $1 Rounding radius*
0 $2 $3 $4 $5 $6 $7 $8 $9 X,Y pos of 4 corners*
0 Add a 4 corners polygon primitive as box body*
4,1,4,$2,$3,$4,$5,$6,$7,$8,$9,$2,$3,0*
0 Add four circle primitives for the rounded corners*
1,1,$1+$1,$2,$3*
1,1,$1+$1,$4,$5*
1,1,$1+$1,$6,$7*
1,1,$1+$1,$8,$9*
0 Add four rect primitives between the rounded corners*
20,1,$1+$1,$2,$3,$4,$5,0*
20,1,$1+$1,$4,$5,$6,$7,0*
20,1,$1+$1,$6,$7,$8,$9,0*
20,1,$1+$1,$8,$9,$2,$3,0*%
%AMFreePoly0*
4,1,6,0.600000,-1.000000,0.000000,-0.400000,-0.600000,-1.000000,-0.600000,0.250000,0.600000,0.250000,0.600000,-1.000000,0.600000,-1.000000,$1*%
%AMFreePoly1*
4,1,6,0.600000,-0.200000,0.600000,-0.400000,-0.600000,-0.400000,-0.600000,-0.200000,0.000000,0.400000,0.600000,-0.200000,0.600000,-0.200000,$1*%
G04 Aperture macros list end*
%ADD10FreePoly0,0.000000*%
%ADD11FreePoly1,0.000000*%
%ADD12R,0.800000X1.000000*%
%ADD13R,1.500000X0.700000*%
%ADD14R,0.600000X1.200000*%
%ADD15RoundRect,0.215000X-1.085000X-0.860000X1.085000X-0.860000X1.085000X0.860000X-1.085000X0.860000X0*%
%ADD16RoundRect,0.215000X-1.110000X-0.860000X1.110000X-0.860000X1.110000X0.860000X-1.110000X0.860000X0*%
%ADD17RoundRect,0.215000X-1.270614X-0.549878X0.825445X-1.111515X1.270614X0.549878X-0.825445X1.111515X0*%
%ADD18RoundRect,0.215000X-1.294762X-0.543407X0.849593X-1.117985X1.294762X0.543407X-0.849593X1.117985X0*%
%ADD19RoundRect,0.215000X-1.369638X-0.202282X0.509638X-1.287282X1.369638X0.202282X-0.509638X1.287282X0*%
%ADD20RoundRect,0.215000X-1.391288X-0.189782X0.531288X-1.299782X1.391288X0.189782X-0.531288X1.299782X0*%
G04 APERTURE END LIST*
D10*
%TO.C,JST1*%
X245000000Y-150041500D03*
X243000000Y-150041500D03*
D11*
X245000000Y-151057500D03*
X243000000Y-151057500D03*
%TD*%
D12*
%TO.C,PWR1*%
X250915000Y-145207500D03*
X250915000Y-152507500D03*
X253125000Y-145207500D03*
X253125000Y-152507500D03*
D13*
X250265000Y-151107500D03*
X250265000Y-148107500D03*
X250265000Y-146607500D03*
%TD*%
D14*
%TO.C,MCU1*%
X249480000Y-108157500D03*
X249480000Y-110697500D03*
X249480000Y-113237500D03*
X249480000Y-115777500D03*
X238520000Y-115777500D03*
X238520000Y-113237500D03*
X238520000Y-110697500D03*
X238520000Y-108157500D03*
X248580000Y-108157500D03*
X248580000Y-110697500D03*
X248580000Y-113237500D03*
X248580000Y-115777500D03*
X239420000Y-115777500D03*
X239420000Y-113237500D03*
X239420000Y-110697500D03*
X239420000Y-108157500D03*
%TD*%
D15*
%TO.C,S5*%
X159752500Y-115250000D03*
D16*
X171245000Y-113050000D03*
%TD*%
D15*
%TO.C,S16*%
X186752500Y-153205000D03*
D16*
X198245000Y-151005000D03*
%TD*%
D17*
%TO.C,S17*%
X208159517Y-153851679D03*
D18*
X219829822Y-154701120D03*
%TD*%
D15*
%TO.C,S15*%
X213752500Y-101107500D03*
D16*
X225245000Y-98907500D03*
%TD*%
D15*
%TO.C,S10*%
X195752500Y-132250000D03*
D16*
X207245000Y-130050000D03*
%TD*%
D15*
%TO.C,S12*%
X195752500Y-98250000D03*
D16*
X207245000Y-96050000D03*
%TD*%
D15*
%TO.C,S8*%
X177752500Y-110487500D03*
D16*
X189245000Y-108287500D03*
%TD*%
D15*
%TO.C,S1*%
X141752500Y-146250000D03*
D16*
X153245000Y-144050000D03*
%TD*%
D15*
%TO.C,S4*%
X159752500Y-132250000D03*
D16*
X171245000Y-130050000D03*
%TD*%
D19*
%TO.C,S18*%
X228620236Y-160144709D03*
D20*
X239673033Y-163985703D03*
%TD*%
D15*
%TO.C,S14*%
X213752500Y-118107500D03*
D16*
X225245000Y-115907500D03*
%TD*%
D15*
%TO.C,S7*%
X177752500Y-127487500D03*
D16*
X189245000Y-125287500D03*
%TD*%
D15*
%TO.C,S6*%
X159752500Y-98250000D03*
D16*
X171245000Y-96050000D03*
%TD*%
D15*
%TO.C,S3*%
X141752500Y-112250000D03*
D16*
X153245000Y-110050000D03*
%TD*%
D15*
%TO.C,S13*%
X213752500Y-135107500D03*
D16*
X225245000Y-132907500D03*
%TD*%
D15*
%TO.C,S2*%
X141752500Y-129250000D03*
D16*
X153245000Y-127050000D03*
%TD*%
D15*
%TO.C,S9*%
X177752500Y-93487500D03*
D16*
X189245000Y-91287500D03*
%TD*%
D15*
%TO.C,S11*%
X195752500Y-115250000D03*
D16*
X207245000Y-113050000D03*
%TD*%
M02*
