0
SECTION
2
HEADER
9
$INSUNITS
70
4
0
ENDSEC
0
SECTION
2
TABLES
0
TABLE
2
LTYPE
0
LTYPE
72
65
70
64
2
CONTINUOUS
3
______
73
0
40
0
0
ENDTAB
0
TABLE
2
LAYER
0
ENDTAB
0
ENDSEC
0
SECTION
2
ENTITIES
0
LINE
8
0
10
140.5
20
-160
11
182.5
21
-160
0
LINE
8
0
10
139.5
20
-159
11
139.5
21
-107
0
LINE
8
0
10
156.5
20
-106
11
140.5
21
-106
0
LINE
8
0
10
174.5
20
-92
11
158.5
21
-92
0
LINE
8
0
10
157.5
20
-93
11
157.5
21
-105
0
LINE
8
0
10
196.5
20
-91
11
196.5
21
-88.2375
0
LINE
8
0
10
195.5
20
-87.2375
11
176.5
21
-87.2375
0
LINE
8
0
10
175.5
20
-88.2375
11
175.5
21
-91
0
LINE
8
0
10
214.5
20
-93.8575
11
214.5
21
-93
0
LINE
8
0
10
213.5
20
-92
11
197.5
21
-92
0
LINE
8
0
10
232.5
20
-101.8575
11
232.5
21
-95.8575
0
LINE
8
0
10
231.5
20
-94.8575
11
215.5
21
-94.8575
0
LINE
8
0
10
185.5
20
-166.955
11
203.8042028
21
-166.955
0
LINE
8
0
10
184.5
20
-162
11
184.5
21
-165.955
0
LINE
8
0
10
204.0630218
20
-166.9890742
11
220.5658791
21
-171.4110015
0
LINE
8
0
10
220.8070601
20
-171.5109019
11
237.115022
21
-180.9263081
0
LINE
8
0
10
238.4810474
20
-180.5602827
11
247.9595719
21
-164.1429967
0
ARC
8
0
10
185.5
20
-165.955
40
1
50
180
51
270
0
ARC
8
0
10
203.8042028
20
-167.955
40
1
50
75.0000021
51
90
0
ARC
8
0
10
220.3070601
20
-172.3769273
40
1
50
59.9999999
51
75.0000021
0
ARC
8
0
10
237.615022
20
-180.0602827
40
1
50
239.9999999
51
329.9999999
0
ARC
8
0
10
231.5
20
-95.8575
40
1
50
0
51
90
0
ARC
8
0
10
215.5
20
-93.8575
40
1
50
180
51
270
0
ARC
8
0
10
213.5
20
-93
40
1
50
0
51
90
0
ARC
8
0
10
197.5
20
-91
40
1
50
180
51
270
0
ARC
8
0
10
195.5
20
-88.2375
40
1
50
0
51
90
0
ARC
8
0
10
176.5
20
-88.2375
40
1
50
90
51
180
0
ARC
8
0
10
174.5
20
-91
40
1
50
270
51
0
0
ARC
8
0
10
158.5
20
-93
40
1
50
90
51
180
0
ARC
8
0
10
156.5
20
-105
40
1
50
270
51
0
0
ARC
8
0
10
140.5
20
-107
40
1
50
90
51
180
0
ARC
8
0
10
140.5
20
-159
40
1
50
180
51
270
0
LINE
8
0
10
234.5
20
-103.8575
11
252.5
21
-103.8575
0
LINE
8
0
10
254.5
20
-105.8575
11
254.5
21
-153.2753015
0
LINE
8
0
10
254.1875238
20
-154.3487369
11
248.0040989
21
-164.0695613
0
ARC
8
0
10
234.5
20
-101.8575
40
2
50
180
51
270
0
ARC
8
0
10
252.5
20
-105.8575
40
2
50
0
51
90
0
ARC
8
0
10
252.5
20
-153.2753015
40
2
50
327.5395239
51
0
0
ARC
8
0
10
249.6916227
20
-165.1429967
40
2
50
147.5395239
51
149.9999999
0
ARC
8
0
10
182.5
20
-162
40
2
50
0
51
90
0
CIRCLE
8
0
10
160
20
-108.5333333
40
1.5
0
CIRCLE
8
0
10
172.5
20
-152
40
1.5
0
CIRCLE
8
0
10
232
20
-113.3575
40
1.5
0
CIRCLE
8
0
10
234.9371581
20
-154.6627043
40
1.5
0
ENDSEC
0
EOF