0
SECTION
2
HEADER
9
$INSUNITS
70
4
0
ENDSEC
0
SECTION
2
TABLES
0
TABLE
2
LTYPE
0
LTYPE
72
65
70
64
2
CONTINUOUS
3
______
73
0
40
0
0
ENDTAB
0
TABLE
2
LAYER
0
ENDTAB
0
ENDSEC
0
SECTION
2
ENTITIES
0
LINE
8
0
10
137.5
20
-162
11
178.5
21
-162
0
LINE
8
0
10
137.5
20
-161
11
137.5
21
-105
0
LINE
8
0
10
154.5
20
-104
11
138.5
21
-104
0
LINE
8
0
10
172.5
20
-90
11
156.5
21
-90
0
LINE
8
0
10
155.5
20
-91
11
155.5
21
-103
0
LINE
8
0
10
198.5
20
-89
11
198.5
21
-86.2375
0
LINE
8
0
10
197.5
20
-85.2375
11
174.5
21
-85.2375
0
LINE
8
0
10
173.5
20
-86.2375
11
173.5
21
-89
0
LINE
8
0
10
216.5
20
-91.8575
11
216.5
21
-91
0
LINE
8
0
10
215.5
20
-90
11
199.5
21
-90
0
LINE
8
0
10
234.5
20
-97.8575
11
234.5
21
-93.8575
0
LINE
8
0
10
233.5
20
-92.8575
11
217.5
21
-92.8575
0
LINE
8
0
10
183.5
20
-168.955
11
203.5408976
21
-168.955
0
LINE
8
0
10
182.5
20
-166
11
182.5
21
-167.955
0
LINE
8
0
10
203.7997166
20
-168.9890742
11
219.7939081
21
-173.2747049
0
LINE
8
0
10
220.0350891
20
-173.3746053
11
237.8470728
21
-183.6583589
0
LINE
8
0
10
239.2130982
20
-183.2923335
11
250.7130982
21
-163.3737493
0
ARC
8
0
10
183.5
20
-167.955
40
1
50
180
51
270
0
ARC
8
0
10
203.5408976
20
-169.955
40
1
50
75.0000021
51
90
0
ARC
8
0
10
219.5350891
20
-174.2406307
40
1
50
59.9999999
51
75.0000021
0
ARC
8
0
10
238.3470728
20
-182.7923335
40
1
50
239.9999999
51
329.9999999
0
ARC
8
0
10
233.5
20
-93.8575
40
1
50
0
51
90
0
ARC
8
0
10
217.5
20
-91.8575
40
1
50
180
51
270
0
ARC
8
0
10
215.5
20
-91
40
1
50
0
51
90
0
ARC
8
0
10
199.5
20
-89
40
1
50
180
51
270
0
ARC
8
0
10
197.5
20
-86.2375
40
1
50
0
51
90
0
ARC
8
0
10
174.5
20
-86.2375
40
1
50
90
51
180
0
ARC
8
0
10
172.5
20
-89
40
1
50
270
51
0
0
ARC
8
0
10
156.5
20
-91
40
1
50
90
51
180
0
ARC
8
0
10
154.5
20
-103
40
1
50
270
51
0
0
ARC
8
0
10
138.5
20
-105
40
1
50
90
51
180
0
ARC
8
0
10
138.5
20
-161
40
1
50
180
51
229.1774197
0
LINE
8
0
10
238.5
20
-101.8575
11
256.5
21
-101.8575
0
LINE
8
0
10
137.5
20
-162
11
137.8462811
21
-161.7567375
0
LINE
8
0
10
256.5
20
-101.8575
11
256.5
21
-154.4960478
0
LINE
8
0
10
255.6694418
20
-156.9362608
11
250.7130982
21
-163.3737493
0
ARC
8
0
10
178.5
20
-166
40
4
50
0
51
90
0
ARC
8
0
10
252.5
20
-154.4960478
40
4
50
322.4066483
51
0
0
ARC
8
0
10
238.5
20
-97.8575
40
4
50
180
51
270
0
LINE
8
0
10
140.5
20
-160
11
182.5
21
-160
0
LINE
8
0
10
139.5
20
-159
11
139.5
21
-107
0
LINE
8
0
10
156.5
20
-106
11
140.5
21
-106
0
LINE
8
0
10
174.5
20
-92
11
158.5
21
-92
0
LINE
8
0
10
157.5
20
-93
11
157.5
21
-105
0
LINE
8
0
10
196.5
20
-91
11
196.5
21
-88.2375
0
LINE
8
0
10
195.5
20
-87.2375
11
176.5
21
-87.2375
0
LINE
8
0
10
175.5
20
-88.2375
11
175.5
21
-91
0
LINE
8
0
10
214.5
20
-93.8575
11
214.5
21
-93
0
LINE
8
0
10
213.5
20
-92
11
197.5
21
-92
0
LINE
8
0
10
232.5
20
-101.8575
11
232.5
21
-95.8575
0
LINE
8
0
10
231.5
20
-94.8575
11
215.5
21
-94.8575
0
LINE
8
0
10
185.5
20
-166.955
11
203.8042028
21
-166.955
0
LINE
8
0
10
184.5
20
-162
11
184.5
21
-165.955
0
LINE
8
0
10
204.0630218
20
-166.9890742
11
220.5658791
21
-171.4110015
0
LINE
8
0
10
220.8070601
20
-171.5109019
11
237.115022
21
-180.9263081
0
LINE
8
0
10
238.4810474
20
-180.5602827
11
247.9595719
21
-164.1429967
0
ARC
8
0
10
185.5
20
-165.955
40
1
50
180
51
270
0
ARC
8
0
10
203.8042028
20
-167.955
40
1
50
75.0000021
51
90
0
ARC
8
0
10
220.3070601
20
-172.3769273
40
1
50
59.9999999
51
75.0000021
0
ARC
8
0
10
237.615022
20
-180.0602827
40
1
50
239.9999999
51
329.9999999
0
ARC
8
0
10
231.5
20
-95.8575
40
1
50
0
51
90
0
ARC
8
0
10
215.5
20
-93.8575
40
1
50
180
51
270
0
ARC
8
0
10
213.5
20
-93
40
1
50
0
51
90
0
ARC
8
0
10
197.5
20
-91
40
1
50
180
51
270
0
ARC
8
0
10
195.5
20
-88.2375
40
1
50
0
51
90
0
ARC
8
0
10
176.5
20
-88.2375
40
1
50
90
51
180
0
ARC
8
0
10
174.5
20
-91
40
1
50
270
51
0
0
ARC
8
0
10
158.5
20
-93
40
1
50
90
51
180
0
ARC
8
0
10
156.5
20
-105
40
1
50
270
51
0
0
ARC
8
0
10
140.5
20
-107
40
1
50
90
51
180
0
ARC
8
0
10
140.5
20
-159
40
1
50
180
51
270
0
LINE
8
0
10
234.5
20
-103.8575
11
252.5
21
-103.8575
0
LINE
8
0
10
254.5
20
-105.8575
11
254.5
21
-153.2753015
0
LINE
8
0
10
254.1875238
20
-154.3487369
11
248.0040989
21
-164.0695613
0
ARC
8
0
10
234.5
20
-101.8575
40
2
50
180
51
270
0
ARC
8
0
10
252.5
20
-105.8575
40
2
50
0
51
90
0
ARC
8
0
10
252.5
20
-153.2753015
40
2
50
327.5395239
51
0
0
ARC
8
0
10
249.6916227
20
-165.1429967
40
2
50
147.5395239
51
149.9999999
0
ARC
8
0
10
182.5
20
-162
40
2
50
0
51
90
0
ENDSEC
0
EOF