<svg xmlns="http://www.w3.org/2000/svg" width="1365.333" height="1365.333" version="1.0" viewBox="0 0 1024 1024"><path d="M518 240.1c-11 3.8-18 4.6-24.7 2.6-2.8-.9-8.7-1.8-13-2.2-7.7-.6-7.9-.6-13.7 2.9-3.2 2-6.2 3.6-6.6 3.6-.5 0-2.7 1.5-4.9 3.4-2.3 1.9-4.9 3.7-5.9 4.1-.9.3-3 2.4-4.6 4.6-3.2 4.6-5.9 5.9-12.1 5.9-4.8 0-17.5 2.3-21.7 3.9-4.6 1.8-10.8 8.2-14 14.5-3.3 6.6-8.7 12.9-13.1 15.2-1.5.8-5.8 2.4-9.5 3.5-6.7 2.1-16.8 7.2-20.8 10.7-1.1.9-2.4 3.2-2.7 5-1 4.9-7.3 17.3-10.7 20.9-1.6 1.7-8.5 6-15.2 9.6-6.8 3.6-13.3 7.6-14.5 8.9-2.7 2.8-6.3 11-8.8 19.8-2.8 9.9-4.9 12-18.4 18.9-6.6 3.4-12.3 6.6-12.7 7.3-.4.6-1 2.8-1.4 4.7-.4 2-1.5 6.5-2.4 10.1-.9 3.6-1.9 8.7-2.2 11.4-.5 4.4-1.3 5.8-6.7 11.4-3.4 3.6-9.4 8.9-13.4 11.9-6.4 4.7-7.4 5.9-8.8 10.6-.9 2.8-2 10.1-2.3 16.1l-.7 10.8-5 4.4c-2.8 2.4-5.3 4.4-5.7 4.4-.5 0-.8 1.5-.8 3.2 0 2.9-.7 3.7-5.5 6.8-3.1 1.9-5.8 4.4-6 5.5-2.5 10.9-2.8 20.3-.9 26.7.3 1 0 2.6-.6 3.8-.6 1.1-1.5 4.6-2.1 7.7-1.1 6-1.9 7.3-9.5 15.6-6.7 7.3-7.5 8.9-7.6 14.7-.1 2.8-.5 5.3-.9 5.6-.4.2.1 3.5 1.2 7.2 4.6 16 3.6 23.1-5.3 36.7-6.3 9.8-8.1 15.1-7.6 22.4.3 4.8 1 6.5 3.5 9.4 3.7 4.3 5.1 11.9 3.7 20.6-.5 3.1-.9 11.1-.9 17.8 0 10.7.2 12.5 2.1 15 3.7 5 11.7 10.2 20.4 13.4 9.4 3.4 13.6 5.8 16.2 9.2 15.7 20.6 19.9 23.3 32.8 21.1 4.1-.8 10.7-1.4 14.5-1.5 8.3-.2 10.5.7 21.8 9.3 4.2 3.3 9.3 6.6 11.2 7.4 5.4 2.2 13.1 2 22-.6 5.5-1.7 10.6-2.4 16.5-2.4 8.5-.1 8.6-.1 20 5.8 11.4 5.8 11.5 5.8 18.2 5.3 4.2-.4 9.5-1.8 14.5-3.8 6.7-2.8 9-3.3 16.3-3.3 7.6 0 9.3.4 16.5 3.6 4.4 2 9.9 3.9 12.1 4.3 5.9.9 15.3-1.1 24.7-5.2 10.6-4.7 15.1-4.8 23.7-.6 9.1 4.3 18 6.6 23.7 6.1 3-.3 9-2.5 15.6-5.6 6.6-3.2 12.2-5.2 14.4-5.2 1.9 0 7.2 1.6 11.9 3.5 17.7 7.4 23.8 7.2 37-1.2 11.8-7.5 14.9-7.8 26.9-2.8 5.9 2.4 11.3 3.9 15.6 4.2 7.5.6 9.3-.1 22.7-9.1 9.6-6.4 11-6.7 23.6-3.6 4.4 1 11.4 2.3 15.4 2.8 6.7.8 7.5.7 12-1.8 2.6-1.4 8.1-5.1 12.2-8.2 12.3-9.1 12.4-9.2 27.4-8.4 12.5.7 13.1.6 18.2-1.9 6.7-3.3 10.2-6.9 17.6-18 6.8-10.1 6.6-9.9 18.5-16.1 9.1-4.7 14.5-9 16.9-13.6 2.2-4.2 1.7-14.5-1.1-24.2-3.5-11.9-3.3-14.6 2-26.7 6.4-15 6.1-18.3-3.5-34.9-7.2-12.5-7.3-13.1-4.4-25.2 4.4-19.2 3.5-23.2-8.5-38.3-3.9-4.9-7.4-10-7.7-11.2-.3-1.2-.1-5.3.5-9.2 1.5-9.2 1.4-19.3-.1-22.8-2.1-4.6-8.4-12.5-13.9-17.2-7.5-6.4-8.9-10.1-8.9-24.4 0-16.7-1.8-20.1-16.6-30.8-9.7-7-11.6-10.3-13.3-23.4-1.4-10.5-4.8-18.4-9.4-21.9-1.8-1.3-5.8-3.8-9.1-5.6-12.2-6.5-14.8-10-18.5-25-3.6-14.1-6.4-17.4-19.9-22.7-11.5-4.4-14.9-7.2-18.6-15.5-9.1-20-9.4-20.5-15.9-23.8-3.3-1.6-6.7-3-7.6-3-.9 0-4.9-1-8.9-2.2-8.8-2.6-14.9-7.5-19.5-15.7-1.7-3.1-5.3-7.7-7.9-10.3-5.4-5.3-8.6-6.2-24.6-7.4-10.4-.7-11.8-1.4-23.2-11.4-11-9.7-13.7-11-22.7-10.9-5.9 0-9.9.8-16.3 3zm26.7 21.2c13.2 12.5 13.9 12.8 30.9 14.1 13.8 1.1 14.5 1.3 17.5 4.1 1.7 1.7 4.5 5.7 6.1 9 3.9 7.8 8 12.8 12.4 15.6 2 1.2 8.8 3.5 15.2 5.1 14.2 3.5 15.8 4.8 19.7 16.1 1.5 4.5 3.9 10.1 5.2 12.5 3 5.2 10.3 10.2 19.5 13.2 8 2.5 12.8 5.6 14.5 9.2.7 1.4 2 6.3 2.9 10.9 1.7 8.9 4.8 16.1 8.6 19.6 1.2 1.2 6.8 4.5 12.3 7.5 12.3 6.6 13.1 7.8 14.4 22 .6 5.9 1.8 12.4 2.6 14.5 2.1 5.1 7.1 10 16.6 16.4 10.4 7.1 11.3 9 10.4 21.9-.6 7.8-.4 11 1 15.6 1.5 5.4 2.6 6.8 12 15.9 5.7 5.5 10.6 11 11 12.3.4 1.2-.1 7.1-1 13-2.6 16.5-1.2 21.6 8.7 32.7 11.2 12.5 11.4 13.3 7.3 25.6-5.5 16-4.5 22.1 6.1 37.6 7.6 11.1 7.6 11.3 1.9 23.6-6.4 13.8-6.8 21.6-1.9 34.5 1.4 3.8 2.4 8.2 2.2 10.2-.3 3.4-.6 3.7-11.6 9.1-6.2 3-12.6 6.8-14.2 8.5-1.6 1.6-5.3 6.9-8.3 11.9-7.3 11.9-8.2 12.5-17.7 11.5-20.5-2.3-26.2-.7-38.9 10.5-4.7 4.1-9.6 7.7-11 8-1.5.3-7.2-.8-13.1-2.5-13.9-4-20.5-4-28.5 0-3.3 1.6-7 3.7-8.1 4.5-2 1.4-2.3 1.4-3.7 0-1.4-1.3-1.6-6-1.8-33.3-.1-17.4-.2-33.7-.4-36.2-.1-2.5-.5-34.4-.9-71-.5-36.6-1.1-66.8-1.5-67.1-.3-.4-10.3-.3-22.1.2-11.8.4-41.1 1.3-65 1.8-23.9.6-50.9 1.3-60 1.6-15.8.5-25.8.7-88.7 2.1l-28.3.7v7.1c-.1 3.9-.3 15-.5 24.6-.2 9.6-.7 54.2-1 99-.4 44.8-.8 81.6-1 81.8-.1.1-3.1-1.3-6.6-3.3-13.6-7.5-14.9-8-23.4-7.9-6.4 0-9.9.6-17.3 3.2-5.1 1.8-10.4 3.2-11.8 3.2-3.5 0-7.6-2.3-16.5-9.2-11.6-9-18.2-10.3-36.5-7.2-9.2 1.6-9.3 1.6-13.3-.7-2.3-1.2-5.3-4.1-6.7-6.3-9.5-14.6-13.2-17.6-29-23.2-5.3-1.9-10.5-3.9-11.5-4.5-2.6-1.3-2.5-6.9.3-15.5 1.5-4.8 2.2-9.4 2.2-14.9 0-7.4-.3-8.7-4.3-17-6.5-13.6-6.5-13.8 1.1-25.3 3.6-5.3 7.2-11.6 8.1-14 2.3-5.7 2.1-13.3-.3-21.2-3.1-9.8-4-15.2-2.8-17.3.5-1 3.9-5 7.4-8.9 12.5-13.6 14.4-19.3 11.8-36.2-1.6-10.3-1.6-11 .1-14.1.9-1.9 4.6-5.6 8.1-8.5 14.1-11.5 16.2-15.6 16.7-33.8.5-15.2.6-15.4 10.7-22 16.1-10.5 19.5-15.9 21.2-32.8.6-6 1.7-11.8 2.5-13 .8-1.2 5.8-4.5 11.2-7.4 16.6-8.7 20.6-14 24.6-32.7 2.2-9.9 3.2-11.1 13.9-15.3 18.9-7.4 22.4-10.9 28.2-27.9 3.4-9.8 6.4-13.5 12.5-15.1 17.3-4.6 21.1-6.2 26.3-11.4 2.9-3 6.9-8.5 9.3-13.1 6.3-12 7.1-12.6 20-13.7 16.9-1.4 21.7-3.6 33.7-15.8l9.9-10.1 4.6.7c2.5.3 8.1 1.7 12.4 3 10.7 3.3 16.2 3.1 27.7-1 14.7-5.3 15.3-5.2 25.7 4.7z"/><path d="M630.1 423.2c-6.9 3.6-10.3 8.5-10.5 15.2-.1 6.2 1.7 9.5 7.5 13.4 4.7 3.3 13 2.8 18.9-1.2 7.4-4.9 10.2-15.1 5.8-21.6-5.3-7.8-13.7-10-21.7-5.8zM382.1 429.8c-1.9.9-4.8 3.4-6.5 5.5-2.7 3.3-3.1 4.6-3.1 10 0 4.7.5 6.9 2 8.9 7 9.3 22.9 7.7 29.1-2.8 2.2-3.8 2.6-5.4 2.2-10-.5-5.8-2.8-9.3-8-12-3.7-1.9-11.6-1.8-15.7.4zM530.8 455.7c-.9 1-1.9 3.4-2.3 5.3-1.6 7.6-4.7 11.2-11.3 12.9-3.6 1-4.8.9-8.7-.8-5.7-2.5-9.3-6.6-10.1-11.4-1.1-6.4-4.6-8.3-9.2-5.1-4.3 3-2.3 14.5 3.6 20.7 5.1 5.4 9.8 7.2 19.2 7.2 9.1 0 12.7-1.4 19.3-7.4 5.8-5.3 10.4-18.3 7.7-21.6-1.7-2-6.3-1.9-8.2.2z"/></svg>