<?xml version="1.0" standalone="no"?>
<!DOCTYPE svg PUBLIC "-//W3C//DTD SVG 20010904//EN"
 "http://www.w3.org/TR/2001/REC-SVG-20010904/DTD/svg10.dtd">
<svg version="1.0" xmlns="http://www.w3.org/2000/svg"
 width="771.000000pt" height="769.000000pt" viewBox="0 0 771.000000 769.000000"
 preserveAspectRatio="xMidYMid meet">

<g transform="translate(0.000000,769.000000) scale(0.100000,-0.100000)"
fill="#000000" stroke="none">
<path d="M3764 7581 c-79 -36 -116 -91 -133 -195 -16 -110 -23 -113 -281 -146
-188 -24 -230 -32 -390 -80 -344 -104 -508 -229 -560 -430 -16 -61 -24 -68
-176 -154 -38 -21 -96 -56 -129 -76 -127 -78 -295 -168 -396 -214 -35 -16 -86
-40 -114 -52 -27 -13 -74 -34 -103 -46 -181 -78 -504 -249 -583 -309 -19 -15
-48 -34 -66 -43 -17 -8 -37 -22 -45 -29 -7 -7 -20 -18 -29 -23 -52 -30 -215
-186 -314 -299 -66 -76 -164 -249 -209 -368 -19 -53 -43 -142 -52 -198 -24
-156 -8 -360 35 -447 11 -20 29 -59 41 -87 24 -53 96 -149 152 -201 80 -76
212 -150 328 -185 67 -21 257 -18 362 5 81 18 88 19 112 3 14 -10 28 -30 31
-45 4 -15 12 -54 20 -88 11 -47 12 -69 3 -100 -18 -61 -59 -116 -113 -151
-138 -87 -171 -111 -235 -170 -73 -68 -200 -214 -200 -231 0 -5 -7 -15 -16
-22 -8 -8 -34 -44 -57 -82 -23 -38 -54 -88 -68 -111 -38 -63 -118 -241 -150
-335 -16 -46 -33 -120 -39 -164 -6 -44 -15 -90 -20 -103 -5 -14 -5 -37 0 -55
12 -43 -11 -88 -84 -162 -143 -147 -209 -412 -162 -651 8 -40 18 -92 21 -116
17 -106 79 -291 131 -388 132 -247 334 -405 594 -464 81 -18 114 -20 225 -15
90 4 149 11 193 26 75 23 147 26 182 5 14 -8 59 -31 100 -51 48 -24 95 -57
131 -93 115 -116 299 -218 464 -257 45 -11 129 -18 235 -21 151 -4 173 -2 255
21 50 13 112 32 138 41 51 19 108 17 462 -17 148 -14 941 -14 1080 0 61 7 190
16 288 22 97 6 210 17 250 26 39 8 125 20 190 25 65 5 135 16 155 24 20 7 66
16 102 20 61 6 138 22 290 60 36 9 92 23 125 30 117 28 391 123 475 165 267
134 470 322 573 532 64 131 87 186 87 208 0 19 46 80 60 80 5 0 39 14 77 31
260 120 458 350 529 614 31 117 36 161 31 285 -7 172 -47 297 -141 443 -87
134 -169 185 -288 179 -40 -2 -115 -53 -219 -151 -33 -31 -68 -59 -77 -63 -57
-23 -94 6 -117 91 -23 87 -71 239 -138 441 -61 181 -62 188 -62 291 0 99 2
109 28 148 l28 42 178 -7 c148 -6 187 -4 227 9 27 8 76 21 109 27 63 13 198
75 252 116 56 42 127 124 171 195 23 38 42 72 42 76 0 4 11 34 24 67 33 81 50
218 43 341 -12 231 -134 473 -339 670 -182 176 -338 306 -443 370 -19 12 -42
28 -52 36 -10 8 -70 49 -133 89 -63 41 -117 77 -120 80 -3 4 -27 20 -55 35
-27 16 -81 50 -120 75 -38 26 -133 85 -210 131 -138 82 -181 109 -240 149 -16
11 -93 61 -170 112 -267 176 -327 229 -342 308 -11 59 -58 159 -97 206 -127
152 -511 320 -866 379 -126 21 -157 35 -176 80 -27 65 -115 193 -152 222 -103
79 -100 77 -207 81 -82 2 -108 -1 -141 -17z m-1246 -1163 c123 -105 354 -192
671 -253 255 -49 486 -66 865 -65 398 0 556 13 791 65 167 36 368 115 438 172
40 32 64 29 127 -16 99 -71 360 -243 478 -315 69 -42 109 -67 187 -118 39 -25
96 -60 127 -77 31 -18 62 -39 68 -46 7 -8 16 -15 21 -15 5 0 48 -26 96 -59 49
-32 120 -79 158 -104 69 -45 216 -148 311 -217 154 -112 334 -280 421 -392 60
-79 138 -240 153 -318 21 -113 10 -324 -19 -365 -4 -5 -14 -26 -21 -45 -88
-223 -364 -345 -679 -301 -132 19 -265 88 -365 189 -42 42 -87 94 -99 114 -64
108 -87 148 -87 155 0 5 -12 31 -25 58 -14 28 -25 57 -25 65 0 8 -9 29 -20 45
-11 17 -20 40 -20 53 0 12 -11 57 -24 100 -14 42 -29 106 -35 142 -6 36 -15
83 -21 105 -5 22 -13 66 -16 99 -5 49 -11 63 -37 87 -62 57 -167 25 -182 -54
-12 -63 37 -359 86 -522 24 -78 64 -187 84 -225 7 -14 28 -54 45 -90 18 -36
38 -72 45 -80 7 -8 16 -24 19 -36 7 -24 192 -215 280 -290 l59 -50 -16 -100
c-9 -55 -17 -130 -17 -166 0 -82 24 -211 45 -240 8 -13 15 -31 15 -41 0 -15
33 -124 116 -377 22 -68 49 -168 94 -345 22 -88 49 -194 59 -235 54 -208 62
-264 68 -450 10 -329 -39 -542 -172 -744 -81 -123 -273 -296 -356 -321 -13 -4
-31 -13 -39 -20 -8 -8 -69 -36 -135 -64 -112 -48 -183 -71 -330 -107 -33 -8
-82 -21 -110 -29 -27 -8 -84 -19 -125 -25 -41 -6 -88 -16 -105 -21 -16 -6 -73
-17 -125 -25 -52 -8 -117 -18 -145 -24 -27 -6 -102 -14 -165 -20 -63 -5 -152
-16 -196 -25 -98 -18 -683 -48 -944 -48 -284 1 -791 28 -898 49 l-93 18 -77
-41 c-122 -64 -243 -75 -492 -44 -69 8 -100 20 -219 79 -119 59 -252 204 -286
312 -4 13 -13 30 -20 37 -7 6 -16 34 -19 60 -4 26 -16 74 -27 106 -16 49 -19
85 -19 245 0 103 5 203 10 222 66 252 148 375 300 454 67 35 83 39 150 40 68
1 80 -2 130 -33 30 -18 67 -47 83 -65 38 -43 83 -124 92 -166 15 -68 42 -108
82 -119 59 -16 108 -4 138 35 30 40 31 64 4 151 -34 113 -69 171 -154 258 -94
97 -169 139 -287 162 -99 18 -225 5 -305 -33 -28 -13 -55 -24 -58 -24 -4 0
-40 -28 -81 -62 -99 -81 -200 -210 -234 -298 -7 -19 -19 -42 -25 -50 -12 -15
-19 -37 -52 -165 -17 -64 -23 -309 -13 -541 5 -120 5 -122 -20 -143 -44 -38
-132 -72 -231 -88 -88 -15 -106 -15 -207 0 -239 34 -418 170 -531 400 -135
277 -171 631 -84 815 32 68 112 134 187 156 97 28 130 30 179 8 54 -24 54 -22
62 -190 3 -67 10 -135 15 -150 5 -15 14 -71 19 -124 13 -128 44 -224 85 -261
27 -25 37 -28 76 -24 34 4 51 13 72 36 34 38 36 80 8 195 -23 97 -43 287 -43
411 0 109 19 371 32 440 5 28 17 90 26 140 34 184 96 421 141 535 7 19 18 51
23 70 10 36 44 128 79 215 11 28 48 103 81 169 33 65 63 132 66 148 4 16 2 83
-5 148 -13 130 -1 326 24 398 8 21 17 62 21 92 4 30 15 73 25 95 10 22 21 60
25 85 4 25 16 59 26 76 10 17 19 40 19 50 0 11 12 42 25 69 14 28 25 55 25 61
0 6 8 22 18 35 11 13 22 37 26 53 4 16 16 41 27 54 10 14 19 29 19 33 0 10
106 176 124 195 20 22 51 59 74 88 68 91 -35 214 -135 161 -67 -37 -187 -185
-264 -328 -74 -138 -149 -303 -149 -329 0 -7 -7 -26 -16 -43 -16 -30 -65 -198
-90 -313 -22 -99 -51 -140 -135 -190 -81 -49 -248 -67 -354 -38 -268 71 -454
339 -431 621 20 249 115 442 321 645 153 152 259 233 470 361 87 53 366 192
470 234 50 21 95 40 100 44 6 4 26 14 45 21 64 24 223 106 380 195 85 48 163
93 175 99 11 6 27 16 35 22 20 15 70 32 97 33 12 1 44 -18 71 -41z m-1568
-3323 c0 -35 -7 -70 -19 -93 -11 -21 -22 -60 -26 -87 -4 -28 -14 -66 -22 -85
-8 -19 -20 -76 -28 -127 -8 -51 -19 -102 -25 -113 -6 -11 -14 -60 -17 -108 -7
-113 -15 -122 -103 -122 -90 0 -129 9 -141 31 -18 35 21 207 65 289 7 14 19
43 26 65 7 22 18 47 25 55 7 8 20 31 30 50 40 79 49 95 55 100 4 3 15 20 24
37 41 81 111 163 138 163 15 0 18 -8 18 -55z m6269 -369 c65 -34 143 -208 163
-363 14 -109 1 -231 -32 -307 -27 -59 -113 -210 -132 -230 -7 -8 -24 -28 -38
-46 -14 -17 -54 -54 -88 -82 -56 -45 -67 -50 -90 -42 l-27 9 -7 150 c-10 210
-28 397 -39 411 -9 11 -33 110 -46 190 -7 45 3 60 139 208 105 114 139 132
197 102z"/>
<path d="M2565 5259 c-36 -18 -65 -71 -65 -120 0 -55 33 -91 98 -109 36 -9 49
-8 87 9 125 55 77 233 -62 230 -21 0 -47 -5 -58 -10z"/>
<path d="M5085 5099 c-43 -12 -72 -42 -86 -88 -14 -48 -7 -80 27 -120 24 -29
30 -31 91 -31 60 0 67 2 94 31 24 26 29 40 29 83 0 57 -17 89 -58 110 -42 21
-65 25 -97 15z"/>
<path d="M3710 5003 c-47 -6 -60 -19 -60 -59 0 -59 22 -93 114 -172 38 -32 38
-34 32 -84 -9 -69 -44 -133 -105 -195 -101 -103 -262 -128 -327 -50 -35 42
-30 97 17 161 28 40 31 50 23 74 -8 23 -16 27 -53 30 -36 3 -48 -1 -73 -25
-66 -62 -93 -199 -54 -273 49 -92 121 -130 251 -130 115 0 216 39 300 115 41
39 67 55 84 55 6 0 36 -22 66 -50 78 -71 120 -96 203 -121 127 -38 254 -16
319 54 41 44 65 116 58 170 -9 70 -36 132 -69 158 -33 26 -85 30 -110 10 -22
-19 -20 -67 4 -89 37 -35 46 -111 18 -164 -12 -24 -83 -41 -142 -33 -125 16
-241 125 -274 258 -19 74 -16 93 21 118 121 83 175 188 111 218 -56 25 -239
37 -354 24z"/>
<path d="M4229 3935 c-4 -3 -36 -10 -71 -15 -38 -6 -90 -22 -124 -40 -60 -31
-184 -126 -184 -140 0 -4 -10 -18 -22 -32 -36 -38 -78 -96 -78 -106 0 -5 -9
-21 -20 -34 -20 -26 -60 -188 -60 -243 0 -17 9 -73 20 -124 28 -133 85 -242
198 -378 51 -62 96 -113 100 -113 4 0 34 -26 67 -56 64 -60 72 -66 211 -158
49 -32 100 -67 114 -77 22 -16 68 -40 195 -99 63 -30 157 -60 185 -60 16 0 41
14 63 34 29 27 37 41 37 69 0 76 -9 84 -183 157 -43 18 -98 46 -123 62 -25 15
-47 28 -51 28 -11 0 -136 83 -192 127 -154 123 -209 176 -284 272 -168 215
-175 394 -23 558 32 34 83 77 114 95 54 30 62 32 167 32 93 1 116 -2 150 -20
22 -12 54 -25 72 -28 17 -4 37 -14 44 -22 6 -8 18 -14 25 -14 21 0 146 -80
370 -237 123 -85 150 -103 225 -144 16 -9 34 -21 41 -27 25 -20 122 -42 155
-36 44 8 83 58 83 106 0 51 -33 86 -114 123 -39 18 -89 45 -111 61 -22 15 -76
52 -120 82 -44 31 -119 83 -168 116 -48 34 -95 66 -105 71 -10 6 -31 19 -47
30 -55 37 -70 45 -105 61 -19 9 -42 22 -50 29 -8 7 -31 16 -50 20 -19 4 -48
14 -65 23 -40 21 -274 60 -286 47z"/>
</g>
</svg>
