0
SECTION
2
HEADER
9
$INSUNITS
70
4
0
ENDSEC
0
SECTION
2
TABLES
0
TABLE
2
LTYPE
0
LTYPE
72
65
70
0
2
CONTINUOUS
3
______
73
0
40
0
0
LTYPE
72
65
70
0
2
DASHED
3
_ _ _ 
73
2
40
7.5
49
5
49
-2.5
0
LTYPE
72
65
70
0
2
DOTTED
3
. . . 
73
2
40
1.5
49
0.5
49
-1
0
ENDTAB
0
TABLE
2
LAYER
0
ENDTAB
0
ENDSEC
0
SECTION
2
ENTITIES
0
LINE
8
0
6
CONTINUOUS
10
140.5
20
-160
11
182.5
21
-160
0
LINE
8
0
6
CONTINUOUS
10
139.5
20
-159
11
139.5
21
-107
0
LINE
8
0
6
CONTINUOUS
10
156.5
20
-106
11
140.5
21
-106
0
LINE
8
0
6
CONTINUOUS
10
174.5
20
-92
11
158.5
21
-92
0
LINE
8
0
6
CONTINUOUS
10
157.5
20
-93
11
157.5
21
-105
0
LINE
8
0
6
CONTINUOUS
10
196.5
20
-91
11
196.5
21
-88.2375
0
LINE
8
0
6
CONTINUOUS
10
195.5
20
-87.2375
11
176.5
21
-87.2375
0
LINE
8
0
6
CONTINUOUS
10
175.5
20
-88.2375
11
175.5
21
-91
0
LINE
8
0
6
CONTINUOUS
10
214.5
20
-93.8575
11
214.5
21
-93
0
LINE
8
0
6
CONTINUOUS
10
213.5
20
-92
11
197.5
21
-92
0
LINE
8
0
6
CONTINUOUS
10
232.5
20
-101.8575
11
232.5
21
-95.8575
0
LINE
8
0
6
CONTINUOUS
10
231.5
20
-94.8575
11
215.5
21
-94.8575
0
LINE
8
0
6
CONTINUOUS
10
185.5
20
-166.955
11
203.8042028
21
-166.955
0
LINE
8
0
6
CONTINUOUS
10
184.5
20
-162
11
184.5
21
-165.955
0
LINE
8
0
6
CONTINUOUS
10
204.0630218
20
-166.9890742
11
220.5658791
21
-171.4110015
0
LINE
8
0
6
CONTINUOUS
10
220.8070601
20
-171.5109019
11
237.115022
21
-180.9263081
0
LINE
8
0
6
CONTINUOUS
10
238.4810474
20
-180.5602827
11
247.9595719
21
-164.1429967
0
ARC
8
0
6
CONTINUOUS
10
185.5
20
-165.955
40
1
50
180
51
270
0
ARC
8
0
6
CONTINUOUS
10
203.8042028
20
-167.955
40
1
50
75.0000021
51
90
0
ARC
8
0
6
CONTINUOUS
10
220.3070601
20
-172.3769273
40
1
50
59.9999999
51
75.0000021
0
ARC
8
0
6
CONTINUOUS
10
237.615022
20
-180.0602827
40
1
50
239.9999999
51
329.9999999
0
ARC
8
0
6
CONTINUOUS
10
231.5
20
-95.8575
40
1
50
0
51
90
0
ARC
8
0
6
CONTINUOUS
10
215.5
20
-93.8575
40
1
50
180
51
270
0
ARC
8
0
6
CONTINUOUS
10
213.5
20
-93
40
1
50
0
51
90
0
ARC
8
0
6
CONTINUOUS
10
197.5
20
-91
40
1
50
180
51
270
0
ARC
8
0
6
CONTINUOUS
10
195.5
20
-88.2375
40
1
50
0
51
90
0
ARC
8
0
6
CONTINUOUS
10
176.5
20
-88.2375
40
1
50
90
51
180
0
ARC
8
0
6
CONTINUOUS
10
174.5
20
-91
40
1
50
270
51
0
0
ARC
8
0
6
CONTINUOUS
10
158.5
20
-93
40
1
50
90
51
180
0
ARC
8
0
6
CONTINUOUS
10
156.5
20
-105
40
1
50
270
51
0
0
ARC
8
0
6
CONTINUOUS
10
140.5
20
-107
40
1
50
90
51
180
0
ARC
8
0
6
CONTINUOUS
10
140.5
20
-159
40
1
50
180
51
270
0
LINE
8
0
6
CONTINUOUS
10
234.5
20
-103.8575
11
252.5
21
-103.8575
0
LINE
8
0
6
CONTINUOUS
10
254.5
20
-105.8575
11
254.5
21
-153.2753015
0
LINE
8
0
6
CONTINUOUS
10
254.1875238
20
-154.3487369
11
248.0040989
21
-164.0695613
0
ARC
8
0
6
CONTINUOUS
10
234.5
20
-101.8575
40
2
50
180
51
270
0
ARC
8
0
6
CONTINUOUS
10
252.5
20
-105.8575
40
2
50
0
51
90
0
ARC
8
0
6
CONTINUOUS
10
252.5
20
-153.2753015
40
2
50
327.5395239
51
0
0
ARC
8
0
6
CONTINUOUS
10
249.6916227
20
-165.1429967
40
2
50
147.5395239
51
149.9999999
0
ARC
8
0
6
CONTINUOUS
10
182.5
20
-162
40
2
50
0
51
90
0
LINE
8
0
6
CONTINUOUS
10
144
20
-147.65
11
156
21
-147.65
0
LINE
8
0
6
CONTINUOUS
10
156
20
-147.65
11
156
21
-142.65
0
LINE
8
0
6
CONTINUOUS
10
156
20
-142.65
11
144
21
-142.65
0
LINE
8
0
6
CONTINUOUS
10
144
20
-142.65
11
144
21
-147.65
0
LINE
8
0
6
CONTINUOUS
10
144
20
-130.65
11
156
21
-130.65
0
LINE
8
0
6
CONTINUOUS
10
156
20
-130.65
11
156
21
-125.65
0
LINE
8
0
6
CONTINUOUS
10
156
20
-125.65
11
144
21
-125.65
0
LINE
8
0
6
CONTINUOUS
10
144
20
-125.65
11
144
21
-130.65
0
LINE
8
0
6
CONTINUOUS
10
144
20
-113.65
11
156
21
-113.65
0
LINE
8
0
6
CONTINUOUS
10
156
20
-113.65
11
156
21
-108.65
0
LINE
8
0
6
CONTINUOUS
10
156
20
-108.65
11
144
21
-108.65
0
LINE
8
0
6
CONTINUOUS
10
144
20
-108.65
11
144
21
-113.65
0
LINE
8
0
6
CONTINUOUS
10
162
20
-133.65
11
174
21
-133.65
0
LINE
8
0
6
CONTINUOUS
10
174
20
-133.65
11
174
21
-128.65
0
LINE
8
0
6
CONTINUOUS
10
174
20
-128.65
11
162
21
-128.65
0
LINE
8
0
6
CONTINUOUS
10
162
20
-128.65
11
162
21
-133.65
0
LINE
8
0
6
CONTINUOUS
10
162
20
-116.65
11
174
21
-116.65
0
LINE
8
0
6
CONTINUOUS
10
174
20
-116.65
11
174
21
-111.65
0
LINE
8
0
6
CONTINUOUS
10
174
20
-111.65
11
162
21
-111.65
0
LINE
8
0
6
CONTINUOUS
10
162
20
-111.65
11
162
21
-116.65
0
LINE
8
0
6
CONTINUOUS
10
162
20
-99.65
11
174
21
-99.65
0
LINE
8
0
6
CONTINUOUS
10
174
20
-99.65
11
174
21
-94.65
0
LINE
8
0
6
CONTINUOUS
10
174
20
-94.65
11
162
21
-94.65
0
LINE
8
0
6
CONTINUOUS
10
162
20
-94.65
11
162
21
-99.65
0
LINE
8
0
6
CONTINUOUS
10
180
20
-128.8875
11
192
21
-128.8875
0
LINE
8
0
6
CONTINUOUS
10
192
20
-128.8875
11
192
21
-123.8875
0
LINE
8
0
6
CONTINUOUS
10
192
20
-123.8875
11
180
21
-123.8875
0
LINE
8
0
6
CONTINUOUS
10
180
20
-123.8875
11
180
21
-128.8875
0
LINE
8
0
6
CONTINUOUS
10
180
20
-111.8875
11
192
21
-111.8875
0
LINE
8
0
6
CONTINUOUS
10
192
20
-111.8875
11
192
21
-106.8875
0
LINE
8
0
6
CONTINUOUS
10
192
20
-106.8875
11
180
21
-106.8875
0
LINE
8
0
6
CONTINUOUS
10
180
20
-106.8875
11
180
21
-111.8875
0
LINE
8
0
6
CONTINUOUS
10
180
20
-94.8875
11
192
21
-94.8875
0
LINE
8
0
6
CONTINUOUS
10
192
20
-94.8875
11
192
21
-89.8875
0
LINE
8
0
6
CONTINUOUS
10
192
20
-89.8875
11
180
21
-89.8875
0
LINE
8
0
6
CONTINUOUS
10
180
20
-89.8875
11
180
21
-94.8875
0
LINE
8
0
6
CONTINUOUS
10
198
20
-133.65
11
210
21
-133.65
0
LINE
8
0
6
CONTINUOUS
10
210
20
-133.65
11
210
21
-128.65
0
LINE
8
0
6
CONTINUOUS
10
210
20
-128.65
11
198
21
-128.65
0
LINE
8
0
6
CONTINUOUS
10
198
20
-128.65
11
198
21
-133.65
0
LINE
8
0
6
CONTINUOUS
10
198
20
-116.65
11
210
21
-116.65
0
LINE
8
0
6
CONTINUOUS
10
210
20
-116.65
11
210
21
-111.65
0
LINE
8
0
6
CONTINUOUS
10
210
20
-111.65
11
198
21
-111.65
0
LINE
8
0
6
CONTINUOUS
10
198
20
-111.65
11
198
21
-116.65
0
LINE
8
0
6
CONTINUOUS
10
198
20
-99.65
11
210
21
-99.65
0
LINE
8
0
6
CONTINUOUS
10
210
20
-99.65
11
210
21
-94.65
0
LINE
8
0
6
CONTINUOUS
10
210
20
-94.65
11
198
21
-94.65
0
LINE
8
0
6
CONTINUOUS
10
198
20
-94.65
11
198
21
-99.65
0
LINE
8
0
6
CONTINUOUS
10
216
20
-136.5075
11
228
21
-136.5075
0
LINE
8
0
6
CONTINUOUS
10
228
20
-136.5075
11
228
21
-131.5075
0
LINE
8
0
6
CONTINUOUS
10
228
20
-131.5075
11
216
21
-131.5075
0
LINE
8
0
6
CONTINUOUS
10
216
20
-131.5075
11
216
21
-136.5075
0
LINE
8
0
6
CONTINUOUS
10
216
20
-119.5075
11
228
21
-119.5075
0
LINE
8
0
6
CONTINUOUS
10
228
20
-119.5075
11
228
21
-114.5075
0
LINE
8
0
6
CONTINUOUS
10
228
20
-114.5075
11
216
21
-114.5075
0
LINE
8
0
6
CONTINUOUS
10
216
20
-114.5075
11
216
21
-119.5075
0
LINE
8
0
6
CONTINUOUS
10
216
20
-102.5075
11
228
21
-102.5075
0
LINE
8
0
6
CONTINUOUS
10
228
20
-102.5075
11
228
21
-97.5075
0
LINE
8
0
6
CONTINUOUS
10
228
20
-97.5075
11
216
21
-97.5075
0
LINE
8
0
6
CONTINUOUS
10
216
20
-97.5075
11
216
21
-102.5075
0
LINE
8
0
6
CONTINUOUS
10
189
20
-154.605
11
201
21
-154.605
0
LINE
8
0
6
CONTINUOUS
10
201
20
-154.605
11
201
21
-149.605
0
LINE
8
0
6
CONTINUOUS
10
201
20
-149.605
11
189
21
-149.605
0
LINE
8
0
6
CONTINUOUS
10
189
20
-149.605
11
189
21
-154.605
0
LINE
8
0
6
CONTINUOUS
10
209.9680885
20
-155.7856712
11
221.5591984
21
-158.8914997
0
LINE
8
0
6
CONTINUOUS
10
221.5591984
20
-158.8914997
11
222.8532937
21
-154.0618706
0
LINE
8
0
6
CONTINUOUS
10
222.8532937
20
-154.0618706
11
211.2621838
21
-150.9560421
0
LINE
8
0
6
CONTINUOUS
10
211.2621838
20
-150.9560421
11
209.9680885
21
-155.7856712
0
LINE
8
0
6
CONTINUOUS
10
229.8666283
20
-162.4808944
11
240.2589331
21
-168.4808944
0
LINE
8
0
6
CONTINUOUS
10
240.2589331
20
-168.4808944
11
242.7589331
21
-164.1507674
0
LINE
8
0
6
CONTINUOUS
10
242.7589331
20
-164.1507674
11
232.3666283
21
-158.1507674
0
LINE
8
0
6
CONTINUOUS
10
232.3666283
20
-158.1507674
11
229.8666283
21
-162.4808944
0
CIRCLE
8
0
6
CONTINUOUS
10
160
20
-108.5333333
40
1.5
0
CIRCLE
8
0
6
CONTINUOUS
10
172.5
20
-152
40
1.5
0
CIRCLE
8
0
6
CONTINUOUS
10
234.9371581
20
-154.6627042
40
1.5
0
ENDSEC
0
EOF