0
SECTION
2
HEADER
9
$INSUNITS
70
4
0
ENDSEC
0
SECTION
2
TABLES
0
TABLE
2
LTYPE
0
LTYPE
72
65
70
64
2
CONTINUOUS
3
______
73
0
40
0
0
ENDTAB
0
TABLE
2
LAYER
0
ENDTAB
0
ENDSEC
0
SECTION
2
ENTITIES
0
LINE
8
0
10
51.2546677
20
-33.5080882
11
7.7083646
21
-5.0393958
0
LINE
8
0
10
2.1352571
20
7.968888
11
2.2646667
21
8.4518511
0
LINE
8
0
10
6.5351809
20
24.3896271
11
6.6645905
21
24.8725901
0
LINE
8
0
10
17.3426778
20
30.9163503
11
21.3893149
21
30.0044402
0
LINE
8
0
10
38.6007327
20
26.1258451
11
39.0924876
21
26.0150281
0
LINE
8
0
10
56.3039054
20
22.1364331
11
56.7956602
21
22.0256161
0
LINE
8
0
10
74.007078
20
18.147021
11
74.4988329
21
18.036204
0
LINE
8
0
10
76.3841412
20
-26.4185787
11
72.5194784
21
-50.8677185
0
LINE
8
0
10
79.0882077
20
-9.3117562
11
79.0086764
21
-9.814898
0
LINE
8
0
10
81.7922742
20
7.7950662
11
81.7127429
21
7.2919245
0
LINE
8
0
10
66.6042828
20
-52.3425424
11
63.2140045
21
-46.2884257
0
LINE
8
0
10
179.6644148
20
-10.0105954
11
216.2493257
21
-1.8964217
0
LINE
8
0
10
161.9400173
20
-13.9416926
11
162.4323617
21
-13.8324954
0
LINE
8
0
10
222.6645905
20
7.968888
11
222.5351809
21
8.4518511
0
LINE
8
0
10
218.2646667
20
24.3896271
11
218.1352571
21
24.8725901
0
LINE
8
0
10
207.4571698
20
30.9163503
11
203.4105327
21
30.0044402
0
LINE
8
0
10
186.1991149
20
26.1258451
11
185.70736
21
26.0150281
0
LINE
8
0
10
168.4959422
20
22.1364331
11
168.0041874
21
22.0256161
0
LINE
8
0
10
150.7927696
20
18.147021
11
150.3010147
21
18.036204
0
LINE
8
0
10
150.3313144
20
-7.6303321
11
150.5023245
21
-8.1001784
0
LINE
8
0
10
144.516972
20
8.3444423
11
144.687982
21
7.8745962
0
LINE
8
0
10
7.7083646
20
-5.0393958
11
10.5871081
21
5.7042214
0
LINE
8
0
10
10.5871081
20
5.7042214
11
2.1352571
21
7.968888
0
LINE
8
0
10
2.2646667
20
8.4518511
11
10.7165177
21
6.1871844
0
LINE
8
0
10
10.7165177
20
6.1871844
11
14.9870319
21
22.1249605
0
LINE
8
0
10
14.9870319
20
22.1249605
11
6.5351809
21
24.3896271
0
LINE
8
0
10
6.6645905
20
24.8725901
11
15.1164415
21
22.6079234
0
LINE
8
0
10
15.1164415
20
22.6079234
11
17.3426778
21
30.9163503
0
LINE
8
0
10
10.7145392
20
0.6757351
11
27.15916
21
-5.3096174
0
LINE
8
0
10
27.15916
20
-5.3096174
11
32.8024924
21
10.1953109
0
LINE
8
0
10
32.8024924
20
10.1953109
11
16.3578716
21
16.1806634
0
LINE
8
0
10
16.3578716
20
16.1806634
11
10.7145392
21
0.6757351
0
LINE
8
0
10
16.5288816
20
16.6505096
11
32.9735024
21
10.6651571
0
LINE
8
0
10
32.9735024
20
10.6651571
11
38.6007327
21
26.1258451
0
LINE
8
0
10
21.3893149
20
30.0044402
11
16.5288816
21
16.6505096
0
LINE
8
0
10
29.3391071
20
-0.7821643
11
45.7837279
21
-6.7675168
0
LINE
8
0
10
45.7837279
20
-6.7675168
11
51.4270603
21
8.7374115
0
LINE
8
0
10
51.4270603
20
8.7374115
11
34.9824395
21
14.722764
0
LINE
8
0
10
34.9824395
20
14.722764
11
29.3391071
21
-0.7821643
0
LINE
8
0
10
35.1534496
20
15.1926102
11
51.5980704
21
9.2072577
0
LINE
8
0
10
51.5980704
20
9.2072577
11
56.3039054
21
22.1364331
0
LINE
8
0
10
39.0924876
20
26.0150281
11
35.1534496
21
15.1926102
0
LINE
8
0
10
44.2014534
20
-12.5766826
11
60.6460742
21
-18.5620351
0
LINE
8
0
10
60.6460742
20
-18.5620351
11
66.2894066
21
-3.0571068
0
LINE
8
0
10
66.2894066
20
-3.0571068
11
49.8447858
21
2.9282457
0
LINE
8
0
10
49.8447858
20
2.9282457
11
44.2014534
21
-12.5766826
0
LINE
8
0
10
50.0157959
20
3.3980919
11
66.4604167
21
-2.5872606
0
LINE
8
0
10
66.4604167
20
-2.5872606
11
72.1037491
21
12.9176677
0
LINE
8
0
10
72.1037491
20
12.9176677
11
55.6591283
21
18.9030202
0
LINE
8
0
10
55.6591283
20
18.9030202
11
50.0157959
21
3.3980919
0
LINE
8
0
10
55.8301383
20
19.3728665
11
72.2747591
21
13.387514
0
LINE
8
0
10
72.2747591
20
13.387514
11
74.007078
21
18.147021
0
LINE
8
0
10
56.7956602
20
22.0256161
11
55.8301383
21
19.3728665
0
LINE
8
0
10
60.4318803
20
-20.6124305
11
76.3841412
21
-26.4185787
0
LINE
8
0
10
79.0086764
20
-9.814898
11
66.0752127
21
-5.1075022
0
LINE
8
0
10
66.0752127
20
-5.1075022
11
60.4318803
21
-20.6124305
0
LINE
8
0
10
66.2462228
20
-4.6376559
11
79.0882077
21
-9.3117562
0
LINE
8
0
10
81.7127429
20
7.2919245
11
71.8895552
21
10.8672724
0
LINE
8
0
10
71.8895552
20
10.8672724
11
66.2462228
21
-4.6376559
0
LINE
8
0
10
72.0605652
20
11.3371186
11
81.7922742
21
7.7950662
0
LINE
8
0
10
74.4988329
20
18.036204
11
72.0605652
21
11.3371186
0
LINE
8
0
10
63.2140045
20
-46.2884257
11
70.816482
21
-39.4431242
0
LINE
8
0
10
70.816482
20
-39.4431242
11
59.1066964
21
-26.4380898
0
LINE
8
0
10
59.1066964
20
-26.4380898
11
51.2546677
21
-33.5080882
0
LINE
8
0
10
72.5194784
20
-50.8677185
11
66.6042828
21
-52.3425424
0
LINE
8
0
10
222.6645905
20
7.968888
11
214.2127395
21
5.7042214
0
LINE
8
0
10
214.2127395
20
5.7042214
11
216.2493257
21
-1.8964217
0
LINE
8
0
10
214.0833299
20
6.1871844
11
222.5351809
21
8.4518511
0
LINE
8
0
10
218.2646667
20
24.3896271
11
209.8128157
21
22.1249605
0
LINE
8
0
10
209.8128157
20
22.1249605
11
214.0833299
21
6.1871844
0
LINE
8
0
10
209.6834061
20
22.6079234
11
218.1352571
21
24.8725901
0
LINE
8
0
10
207.4571698
20
30.9163503
11
209.6834061
21
22.6079234
0
LINE
8
0
10
197.6406876
20
-5.3096174
11
214.0853084
21
0.6757351
0
LINE
8
0
10
214.0853084
20
0.6757351
11
208.441976
21
16.1806634
0
LINE
8
0
10
208.441976
20
16.1806634
11
191.9973552
21
10.1953109
0
LINE
8
0
10
191.9973552
20
10.1953109
11
197.6406876
21
-5.3096174
0
LINE
8
0
10
191.8263452
20
10.6651571
11
208.270966
21
16.6505096
0
LINE
8
0
10
208.270966
20
16.6505096
11
203.4105327
21
30.0044402
0
LINE
8
0
10
186.1991149
20
26.1258451
11
191.8263452
21
10.6651571
0
LINE
8
0
10
179.0161197
20
-6.7675168
11
195.4607405
21
-0.7821643
0
LINE
8
0
10
195.4607405
20
-0.7821643
11
189.8174081
21
14.722764
0
LINE
8
0
10
189.8174081
20
14.722764
11
173.3727873
21
8.7374115
0
LINE
8
0
10
173.3727873
20
8.7374115
11
179.0161197
21
-6.7675168
0
LINE
8
0
10
173.2017772
20
9.2072577
11
189.646398
21
15.1926102
0
LINE
8
0
10
189.646398
20
15.1926102
11
185.70736
21
26.0150281
0
LINE
8
0
10
168.4959422
20
22.1364331
11
173.2017772
21
9.2072577
0
LINE
8
0
10
179.6644148
20
-10.0105954
11
174.9550618
21
2.9282457
0
LINE
8
0
10
174.9550618
20
2.9282457
11
158.510441
21
-3.0571068
0
LINE
8
0
10
158.510441
20
-3.0571068
11
162.4323617
21
-13.8324954
0
LINE
8
0
10
158.3394309
20
-2.5872606
11
174.7840517
21
3.3980919
0
LINE
8
0
10
174.7840517
20
3.3980919
11
169.1407193
21
18.9030202
0
LINE
8
0
10
169.1407193
20
18.9030202
11
152.6960985
21
12.9176677
0
LINE
8
0
10
152.6960985
20
12.9176677
11
158.3394309
21
-2.5872606
0
LINE
8
0
10
152.5250885
20
13.387514
11
168.9697093
21
19.3728665
0
LINE
8
0
10
168.9697093
20
19.3728665
11
168.0041874
21
22.0256161
0
LINE
8
0
10
150.7927696
20
18.147021
11
152.5250885
21
13.387514
0
LINE
8
0
10
161.9400173
20
-13.9416926
11
158.7246349
21
-5.1075022
0
LINE
8
0
10
158.7246349
20
-5.1075022
11
150.5023245
21
-8.1001784
0
LINE
8
0
10
150.3313144
20
-7.6303321
11
158.5536248
21
-4.6376559
0
LINE
8
0
10
158.5536248
20
-4.6376559
11
152.9102924
21
10.8672724
0
LINE
8
0
10
152.9102924
20
10.8672724
11
144.687982
21
7.8745962
0
LINE
8
0
10
144.516972
20
8.3444423
11
152.7392824
21
11.3371186
0
LINE
8
0
10
152.7392824
20
11.3371186
11
150.3010147
21
18.036204
0
ENDSEC
0
EOF