0
SECTION
2
HEADER
9
$INSUNITS
70
4
0
ENDSEC
0
SECTION
2
TABLES
0
TABLE
2
LTYPE
0
LTYPE
72
65
70
64
2
CONTINUOUS
3
______
73
0
40
0
0
ENDTAB
0
TABLE
2
LAYER
0
ENDTAB
0
ENDSEC
0
SECTION
2
ENTITIES
0
LINE
8
0
10
-10.5871081
20
-5.7042214
11
6.3165939
21
-10.2335547
0
LINE
8
0
10
6.3165939
20
-10.2335547
11
10.5871081
21
5.7042214
0
LINE
8
0
10
10.5871081
20
5.7042214
11
-6.3165939
21
10.2335547
0
LINE
8
0
10
-6.3165939
20
10.2335547
11
-10.5871081
21
-5.7042214
0
LINE
8
0
10
-6.1871843
20
10.7165177
11
10.7165177
21
6.1871844
0
LINE
8
0
10
10.7165177
20
6.1871844
11
14.9870319
21
22.1249605
0
LINE
8
0
10
14.9870319
20
22.1249605
11
-1.9166701
21
26.6542938
0
LINE
8
0
10
-1.9166701
20
26.6542938
11
-6.1871843
21
10.7165177
0
LINE
8
0
10
-1.7872605
20
27.1372567
11
15.1164415
21
22.6079234
0
LINE
8
0
10
15.1164415
20
22.6079234
11
19.3869557
21
38.5456995
0
LINE
8
0
10
19.3869557
20
38.5456995
11
2.4832537
21
43.0750328
0
LINE
8
0
10
2.4832537
20
43.0750328
11
-1.7872605
21
27.1372567
0
LINE
8
0
10
10.7145392
20
0.6757351
11
27.15916
21
-5.3096174
0
LINE
8
0
10
27.15916
20
-5.3096174
11
32.8024924
21
10.1953109
0
LINE
8
0
10
32.8024924
20
10.1953109
11
16.3578716
21
16.1806634
0
LINE
8
0
10
16.3578716
20
16.1806634
11
10.7145392
21
0.6757351
0
LINE
8
0
10
16.5288816
20
16.6505096
11
32.9735024
21
10.6651571
0
LINE
8
0
10
32.9735024
20
10.6651571
11
38.6168348
21
26.1700854
0
LINE
8
0
10
38.6168348
20
26.1700854
11
22.172214
21
32.1554379
0
LINE
8
0
10
22.172214
20
32.1554379
11
16.5288816
21
16.6505096
0
LINE
8
0
10
22.3432241
20
32.6252842
11
38.7878449
21
26.6399317
0
LINE
8
0
10
38.7878449
20
26.6399317
11
44.4311773
21
42.14486
0
LINE
8
0
10
44.4311773
20
42.14486
11
27.9865565
21
48.1302125
0
LINE
8
0
10
27.9865565
20
48.1302125
11
22.3432241
21
32.6252842
0
LINE
8
0
10
29.3391071
20
-0.7821643
11
45.7837279
21
-6.7675168
0
LINE
8
0
10
45.7837279
20
-6.7675168
11
51.4270603
21
8.7374115
0
LINE
8
0
10
51.4270603
20
8.7374115
11
34.9824395
21
14.722764
0
LINE
8
0
10
34.9824395
20
14.722764
11
29.3391071
21
-0.7821643
0
LINE
8
0
10
35.1534496
20
15.1926102
11
51.5980704
21
9.2072577
0
LINE
8
0
10
51.5980704
20
9.2072577
11
57.2414028
21
24.712186
0
LINE
8
0
10
57.2414028
20
24.712186
11
40.796782
21
30.6975385
0
LINE
8
0
10
40.796782
20
30.6975385
11
35.1534496
21
15.1926102
0
LINE
8
0
10
40.967792
20
31.1673848
11
57.4124128
21
25.1820323
0
LINE
8
0
10
57.4124128
20
25.1820323
11
63.0557452
21
40.6869606
0
LINE
8
0
10
63.0557452
20
40.6869606
11
46.6111244
21
46.6723131
0
LINE
8
0
10
46.6111244
20
46.6723131
11
40.967792
21
31.1673848
0
LINE
8
0
10
44.2014534
20
-12.5766826
11
60.6460742
21
-18.5620351
0
LINE
8
0
10
60.6460742
20
-18.5620351
11
66.2894066
21
-3.0571068
0
LINE
8
0
10
66.2894066
20
-3.0571068
11
49.8447858
21
2.9282457
0
LINE
8
0
10
49.8447858
20
2.9282457
11
44.2014534
21
-12.5766826
0
LINE
8
0
10
50.0157959
20
3.3980919
11
66.4604167
21
-2.5872606
0
LINE
8
0
10
66.4604167
20
-2.5872606
11
72.1037491
21
12.9176677
0
LINE
8
0
10
72.1037491
20
12.9176677
11
55.6591283
21
18.9030202
0
LINE
8
0
10
55.6591283
20
18.9030202
11
50.0157959
21
3.3980919
0
LINE
8
0
10
55.8301383
20
19.3728665
11
72.2747591
21
13.387514
0
LINE
8
0
10
72.2747591
20
13.387514
11
77.9180915
21
28.8924423
0
LINE
8
0
10
77.9180915
20
28.8924423
11
61.4734707
21
34.8777948
0
LINE
8
0
10
61.4734707
20
34.8777948
11
55.8301383
21
19.3728665
0
LINE
8
0
10
60.4318803
20
-20.6124305
11
76.8765011
21
-26.597783
0
LINE
8
0
10
76.8765011
20
-26.597783
11
82.5198335
21
-11.0928547
0
LINE
8
0
10
82.5198335
20
-11.0928547
11
66.0752127
21
-5.1075022
0
LINE
8
0
10
66.0752127
20
-5.1075022
11
60.4318803
21
-20.6124305
0
LINE
8
0
10
66.2462228
20
-4.6376559
11
82.6908436
21
-10.6230084
0
LINE
8
0
10
82.6908436
20
-10.6230084
11
88.334176
21
4.8819199
0
LINE
8
0
10
88.334176
20
4.8819199
11
71.8895552
21
10.8672724
0
LINE
8
0
10
71.8895552
20
10.8672724
11
66.2462228
21
-4.6376559
0
LINE
8
0
10
72.0605652
20
11.3371186
11
88.505186
21
5.3517661
0
LINE
8
0
10
88.505186
20
5.3517661
11
94.1485184
21
20.8566944
0
LINE
8
0
10
94.1485184
20
20.8566944
11
77.7038976
21
26.8420469
0
LINE
8
0
10
77.7038976
20
26.8420469
11
72.0605652
21
11.3371186
0
LINE
8
0
10
46.8448068
20
-37.4787448
11
58.5545924
21
-50.4837792
0
LINE
8
0
10
58.5545924
20
-50.4837792
11
70.816482
21
-39.4431242
0
LINE
8
0
10
70.816482
20
-39.4431242
11
59.1066964
21
-26.4380898
0
LINE
8
0
10
59.1066964
20
-26.4380898
11
46.8448068
21
-37.4787448
0
LINE
8
0
10
60.9137887
20
-53.7613419
11
65.1474218
21
-70.7415171
0
LINE
8
0
10
65.1474218
20
-70.7415171
11
81.1573013
21
-66.7498059
0
LINE
8
0
10
81.1573013
20
-66.7498059
11
76.9236682
21
-49.7696307
0
LINE
8
0
10
76.9236682
20
-49.7696307
11
60.9137887
21
-53.7613419
0
LINE
8
0
10
218.4832537
20
-10.2335547
11
235.3869557
21
-5.7042214
0
LINE
8
0
10
235.3869557
20
-5.7042214
11
231.1164415
21
10.2335547
0
LINE
8
0
10
231.1164415
20
10.2335547
11
214.2127395
21
5.7042214
0
LINE
8
0
10
214.2127395
20
5.7042214
11
218.4832537
21
-10.2335547
0
LINE
8
0
10
214.0833299
20
6.1871844
11
230.9870319
21
10.7165177
0
LINE
8
0
10
230.9870319
20
10.7165177
11
226.7165177
21
26.6542938
0
LINE
8
0
10
226.7165177
20
26.6542938
11
209.8128157
21
22.1249605
0
LINE
8
0
10
209.8128157
20
22.1249605
11
214.0833299
21
6.1871844
0
LINE
8
0
10
209.6834061
20
22.6079234
11
226.5871081
21
27.1372567
0
LINE
8
0
10
226.5871081
20
27.1372567
11
222.3165939
21
43.0750328
0
LINE
8
0
10
222.3165939
20
43.0750328
11
205.4128919
21
38.5456995
0
LINE
8
0
10
205.4128919
20
38.5456995
11
209.6834061
21
22.6079234
0
LINE
8
0
10
197.6406876
20
-5.3096174
11
214.0853084
21
0.6757351
0
LINE
8
0
10
214.0853084
20
0.6757351
11
208.441976
21
16.1806634
0
LINE
8
0
10
208.441976
20
16.1806634
11
191.9973552
21
10.1953109
0
LINE
8
0
10
191.9973552
20
10.1953109
11
197.6406876
21
-5.3096174
0
LINE
8
0
10
191.8263452
20
10.6651571
11
208.270966
21
16.6505096
0
LINE
8
0
10
208.270966
20
16.6505096
11
202.6276336
21
32.1554379
0
LINE
8
0
10
202.6276336
20
32.1554379
11
186.1830128
21
26.1700854
0
LINE
8
0
10
186.1830128
20
26.1700854
11
191.8263452
21
10.6651571
0
LINE
8
0
10
186.0120027
20
26.6399317
11
202.4566235
21
32.6252842
0
LINE
8
0
10
202.4566235
20
32.6252842
11
196.8132911
21
48.1302125
0
LINE
8
0
10
196.8132911
20
48.1302125
11
180.3686703
21
42.14486
0
LINE
8
0
10
180.3686703
20
42.14486
11
186.0120027
21
26.6399317
0
LINE
8
0
10
179.0161197
20
-6.7675168
11
195.4607405
21
-0.7821643
0
LINE
8
0
10
195.4607405
20
-0.7821643
11
189.8174081
21
14.722764
0
LINE
8
0
10
189.8174081
20
14.722764
11
173.3727873
21
8.7374115
0
LINE
8
0
10
173.3727873
20
8.7374115
11
179.0161197
21
-6.7675168
0
LINE
8
0
10
173.2017772
20
9.2072577
11
189.646398
21
15.1926102
0
LINE
8
0
10
189.646398
20
15.1926102
11
184.0030656
21
30.6975385
0
LINE
8
0
10
184.0030656
20
30.6975385
11
167.5584448
21
24.712186
0
LINE
8
0
10
167.5584448
20
24.712186
11
173.2017772
21
9.2072577
0
LINE
8
0
10
167.3874348
20
25.1820323
11
183.8320556
21
31.1673848
0
LINE
8
0
10
183.8320556
20
31.1673848
11
178.1887232
21
46.6723131
0
LINE
8
0
10
178.1887232
20
46.6723131
11
161.7441024
21
40.6869606
0
LINE
8
0
10
161.7441024
20
40.6869606
11
167.3874348
21
25.1820323
0
LINE
8
0
10
164.1537734
20
-18.5620351
11
180.5983942
21
-12.5766826
0
LINE
8
0
10
180.5983942
20
-12.5766826
11
174.9550618
21
2.9282457
0
LINE
8
0
10
174.9550618
20
2.9282457
11
158.510441
21
-3.0571068
0
LINE
8
0
10
158.510441
20
-3.0571068
11
164.1537734
21
-18.5620351
0
LINE
8
0
10
158.3394309
20
-2.5872606
11
174.7840517
21
3.3980919
0
LINE
8
0
10
174.7840517
20
3.3980919
11
169.1407193
21
18.9030202
0
LINE
8
0
10
169.1407193
20
18.9030202
11
152.6960985
21
12.9176677
0
LINE
8
0
10
152.6960985
20
12.9176677
11
158.3394309
21
-2.5872606
0
LINE
8
0
10
152.5250885
20
13.387514
11
168.9697093
21
19.3728665
0
LINE
8
0
10
168.9697093
20
19.3728665
11
163.3263769
21
34.8777948
0
LINE
8
0
10
163.3263769
20
34.8777948
11
146.8817561
21
28.8924423
0
LINE
8
0
10
146.8817561
20
28.8924423
11
152.5250885
21
13.387514
0
LINE
8
0
10
147.9233465
20
-26.597783
11
164.3679673
21
-20.6124305
0
LINE
8
0
10
164.3679673
20
-20.6124305
11
158.7246349
21
-5.1075022
0
LINE
8
0
10
158.7246349
20
-5.1075022
11
142.2800141
21
-11.0928547
0
LINE
8
0
10
142.2800141
20
-11.0928547
11
147.9233465
21
-26.597783
0
LINE
8
0
10
142.109004
20
-10.6230084
11
158.5536248
21
-4.6376559
0
LINE
8
0
10
158.5536248
20
-4.6376559
11
152.9102924
21
10.8672724
0
LINE
8
0
10
152.9102924
20
10.8672724
11
136.4656716
21
4.8819199
0
LINE
8
0
10
136.4656716
20
4.8819199
11
142.109004
21
-10.6230084
0
LINE
8
0
10
136.2946616
20
5.3517661
11
152.7392824
21
11.3371186
0
LINE
8
0
10
152.7392824
20
11.3371186
11
147.09595
21
26.8420469
0
LINE
8
0
10
147.09595
20
26.8420469
11
130.6513292
21
20.8566944
0
LINE
8
0
10
130.6513292
20
20.8566944
11
136.2946616
21
5.3517661
0
LINE
8
0
10
166.2452552
20
-50.4837792
11
177.9550408
21
-37.4787448
0
LINE
8
0
10
177.9550408
20
-37.4787448
11
165.6931512
21
-26.4380898
0
LINE
8
0
10
165.6931512
20
-26.4380898
11
153.9833656
21
-39.4431242
0
LINE
8
0
10
153.9833656
20
-39.4431242
11
166.2452552
21
-50.4837792
0
LINE
8
0
10
159.6524258
20
-70.7415171
11
163.8860589
21
-53.7613419
0
LINE
8
0
10
163.8860589
20
-53.7613419
11
147.8761794
21
-49.7696307
0
LINE
8
0
10
147.8761794
20
-49.7696307
11
143.6425463
21
-66.7498059
0
LINE
8
0
10
143.6425463
20
-66.7498059
11
159.6524258
21
-70.7415171
0
ENDSEC
0
EOF