0
SECTION
2
HEADER
9
$INSUNITS
70
4
0
ENDSEC
0
SECTION
2
TABLES
0
TABLE
2
LTYPE
0
LTYPE
72
65
70
64
2
CONTINUOUS
3
______
73
0
40
0
0
ENDTAB
0
TABLE
2
LAYER
0
ENDTAB
0
ENDSEC
0
SECTION
2
ENTITIES
0
LINE
8
0
10
140.5683688
20
-161.9287188
11
160.3737301
21
-159.1452568
0
LINE
8
0
10
161.2248251
20
-158.0158156
11
159.7994587
21
-147.8738069
0
LINE
8
0
10
132.0627533
20
-108.5934162
11
139.4389276
21
-161.0776238
0
LINE
8
0
10
152.351471
20
-104.7321953
11
132.9138483
21
-107.463975
0
LINE
8
0
10
160.7199703
20
-146.7370697
11
177.1919888
21
-145.585234
0
LINE
8
0
10
178.1197964
20
-144.5179134
11
177.8948732
21
-141.301362
0
LINE
8
0
10
173.1751289
20
-90.7318157
11
153.4041018
21
-92.1143406
0
LINE
8
0
10
152.4762942
20
-93.1816612
11
153.209862
21
-103.6721707
0
LINE
8
0
10
178.8924373
20
-140.2316055
11
191.1053723
21
-140.2316055
0
LINE
8
0
10
196.1053724
20
-88.9946055
11
196.1053724
21
-86.2316055
0
LINE
8
0
10
195.1053724
20
-85.2316055
11
175.1053724
21
-85.2316055
0
LINE
8
0
10
174.1053724
20
-86.2316055
11
174.1053724
21
-89.7342516
0
LINE
8
0
10
192.1053723
20
-164.9946055
11
192.1053723
21
-141.2316055
0
LINE
8
0
10
197.1053724
20
-89.9946055
11
231.1053724
21
-89.9946055
0
LINE
8
0
10
232.1053724
20
-144.9946056
11
232.1053724
21
-90.9946056
0
LINE
8
0
10
193.1053723
20
-165.9946055
11
227.1053723
21
-165.9946055
0
LINE
8
0
10
232.1053723
20
-153.9946055
11
232.1053723
21
-144.9946055
0
LINE
8
0
10
229.1053723
20
-175.9946055
11
249.1053723
21
-175.9946055
0
LINE
8
0
10
250.1053723
20
-174.9946055
11
250.1053723
21
-155.9946055
0
LINE
8
0
10
249.1053723
20
-154.9946055
11
233.1053723
21
-154.9946055
0
LINE
8
0
10
228.1053723
20
-166.9946055
11
228.1053723
21
-174.9946055
0
ARC
8
0
10
160.234557
20
-158.1549887
40
1
50
277.9999997
51
7.9999997
0
ARC
8
0
10
160.7897268
20
-147.7346338
40
1
50
94.0000013
51
187.9999997
0
ARC
8
0
10
177.1222323
20
-144.5876699
40
1
50
274.0000013
51
4.0000013
0
ARC
8
0
10
178.8924373
20
-141.2316055
40
1
50
90
51
184.0000013
0
ARC
8
0
10
191.1053723
20
-141.2316055
40
1
50
0
51
90
0
ARC
8
0
10
193.1053723
20
-164.9946055
40
1
50
180
51
270
0
ARC
8
0
10
227.1053723
20
-166.9946055
40
1
50
0
51
90
0
ARC
8
0
10
229.1053723
20
-174.9946055
40
1
50
180
51
270
0
ARC
8
0
10
249.1053723
20
-174.9946055
40
1
50
270
51
0
0
ARC
8
0
10
249.1053723
20
-155.9946055
40
1
50
0
51
90
0
ARC
8
0
10
233.1053723
20
-153.9946055
40
1
50
180
51
270
0
ARC
8
0
10
231.1053724
20
-90.9946056
40
1
50
0
51
90
0
ARC
8
0
10
197.1053724
20
-88.9946055
40
1
50
180
51
270
0
ARC
8
0
10
195.1053724
20
-86.2316055
40
1
50
0
51
90
0
ARC
8
0
10
175.1053724
20
-86.2316055
40
1
50
90
51
180
0
ARC
8
0
10
173.1053724
20
-89.7342516
40
1
50
274.0000013
51
0
0
ARC
8
0
10
153.4738583
20
-93.1119047
40
1
50
94.0000013
51
184.0000013
0
ARC
8
0
10
152.2122979
20
-103.7419272
40
1
50
277.9999997
51
4.0000013
0
ARC
8
0
10
133.0530214
20
-108.4542431
40
1
50
97.9999997
51
187.9999997
0
ARC
8
0
10
140.4291957
20
-160.9384507
40
1
50
187.9999997
51
277.9999997
0
ENDSEC
0
EOF