0
SECTION
2
HEADER
9
$INSUNITS
70
4
0
ENDSEC
0
SECTION
2
TABLES
0
TABLE
2
LTYPE
0
LTYPE
72
65
70
64
2
CONTINUOUS
3
______
73
0
40
0
0
ENDTAB
0
TABLE
2
LAYER
0
ENDTAB
0
ENDSEC
0
SECTION
2
ENTITIES
0
LINE
8
0
10
140.5683688
20
-161.9287188
11
161.000367
21
-159.0571887
0
LINE
8
0
10
132.0627533
20
-108.5934162
11
139.4389276
21
-161.0776238
0
LINE
8
0
10
152.351471
20
-104.7321953
11
132.9138483
21
-107.463975
0
LINE
8
0
10
173.1751289
20
-90.7318157
11
153.4041018
21
-92.1143406
0
LINE
8
0
10
152.4762942
20
-93.1816612
11
153.209862
21
-103.6721707
0
LINE
8
0
10
196.1053724
20
-88.9946055
11
196.1053724
21
-86.2316055
0
LINE
8
0
10
195.1053724
20
-85.2316055
11
175.1053724
21
-85.2316055
0
LINE
8
0
10
174.1053724
20
-86.2316055
11
174.1053724
21
-89.7342516
0
LINE
8
0
10
197.1053724
20
-89.9946055
11
248.1053724
21
-89.9946055
0
LINE
8
0
10
192.3298415
20
-165.9946055
11
227.1053723
21
-165.9946055
0
LINE
8
0
10
229.1053723
20
-175.9946055
11
249.1053723
21
-175.9946055
0
LINE
8
0
10
250.1053723
20
-174.9946055
11
250.1053723
21
-173.995238
0
LINE
8
0
10
228.1053723
20
-166.9946055
11
228.1053723
21
-174.9946055
0
ARC
8
0
10
227.1053723
20
-166.9946055
40
1
50
0
51
90
0
ARC
8
0
10
229.1053723
20
-174.9946055
40
1
50
180
51
270
0
ARC
8
0
10
249.1053723
20
-174.9946055
40
1
50
270
51
0
0
ARC
8
0
10
197.1053724
20
-88.9946055
40
1
50
180
51
270
0
ARC
8
0
10
195.1053724
20
-86.2316055
40
1
50
0
51
90
0
ARC
8
0
10
175.1053724
20
-86.2316055
40
1
50
90
51
180
0
ARC
8
0
10
173.1053724
20
-89.7342516
40
1
50
274.0000013
51
0
0
ARC
8
0
10
153.4738583
20
-93.1119047
40
1
50
94.0000013
51
184.0000013
0
ARC
8
0
10
152.2122979
20
-103.7419272
40
1
50
277.9999997
51
4.0000013
0
ARC
8
0
10
133.0530214
20
-108.4542431
40
1
50
97.9999997
51
187.9999997
0
ARC
8
0
10
140.4291957
20
-160.9384507
40
1
50
187.9999997
51
277.9999997
0
LINE
8
0
10
161.7220668
20
-159.0874844
11
191.8864879
21
-165.9448459
0
ARC
8
0
10
161.2787132
20
-161.0377248
40
2
50
77.1924614
51
97.9999997
0
ARC
8
0
10
192.3298415
20
-163.9946055
40
2
50
257.1924614
51
270
0
LINE
8
0
10
250.1053724
20
-91.9946056
11
250.1053724
21
-173.9946055
0
ARC
8
0
10
248.1053724
20
-91.9946056
40
2
50
0
51
90
0
ARC
8
0
10
248.1053724
20
-173.9946055
40
2
50
359.9818802
51
0
0
ENDSEC
0
EOF