0
SECTION
2
HEADER
9
$INSUNITS
70
4
0
ENDSEC
0
SECTION
2
TABLES
0
TABLE
2
LTYPE
0
LTYPE
72
65
70
64
2
CONTINUOUS
3
______
73
0
40
0
0
ENDTAB
0
TABLE
2
LAYER
0
ENDTAB
0
ENDSEC
0
SECTION
2
ENTITIES
0
LINE
8
0
10
-12.1180392
20
-6.5881049
11
7.2004773
21
-11.7644858
0
LINE
8
0
10
7.2004773
20
-11.7644858
11
10.2251231
21
-0.4763542
0
LINE
8
0
10
-12.1180392
20
-6.5881049
11
1.5993703
21
44.6059639
0
LINE
8
0
10
13.7415548
20
12.6471476
11
20.9178868
21
39.429583
0
LINE
8
0
10
20.9178868
20
39.429583
11
1.5993703
21
44.6059639
0
LINE
8
0
10
10.2251231
20
-0.4763542
11
27.9062506
21
-6.9117583
0
LINE
8
0
10
27.9062506
20
-6.9117583
11
29.6163513
21
-2.2132952
0
LINE
8
0
10
13.7415548
20
12.6471476
11
27.2394659
21
49.7323534
0
LINE
8
0
10
44.1539331
20
43.5759909
11
27.2394659
21
49.7323534
0
LINE
8
0
10
29.6163513
20
-2.2132952
11
44.6514333
21
-7.6856174
0
LINE
8
0
10
62.6057653
20
35.7958954
11
64.6578862
21
41.4340512
0
LINE
8
0
10
64.6578862
20
41.4340512
11
45.8640338
21
48.274454
0
LINE
8
0
10
45.8640338
20
48.274454
11
44.1539331
21
43.5759909
0
LINE
8
0
10
42.5993124
20
-13.3237732
11
59.5137796
21
-19.4801357
0
LINE
8
0
10
44.6514333
20
-7.6856174
11
42.5993124
21
-13.3237732
0
LINE
8
0
10
78.8361922
20
27.7601475
11
79.5202325
21
29.6395329
0
LINE
8
0
10
79.5202325
20
29.6395329
11
62.6057653
21
35.7958954
0
LINE
8
0
10
58.8297393
20
-21.3595211
11
77.6235917
21
-28.1999239
0
LINE
8
0
10
77.6235917
20
-28.1999239
11
95.7506594
21
21.603785
0
LINE
8
0
10
59.5137796
20
-19.4801357
11
58.8297393
21
-21.3595211
0
LINE
8
0
10
95.7506594
20
21.603785
11
78.8361922
21
27.7601475
0
LINE
8
0
10
45.0794625
20
-37.386227
11
58.4620746
21
-52.2491235
0
LINE
8
0
10
58.4620746
20
-52.2491235
11
72.5818263
21
-39.535642
0
LINE
8
0
10
72.5818263
20
-39.535642
11
59.1992142
21
-24.6727455
0
LINE
8
0
10
59.1992142
20
-24.6727455
11
45.0794625
21
-37.386227
0
LINE
8
0
10
59.3985166
20
-52.8508746
11
64.2369546
21
-72.2567892
0
LINE
8
0
10
64.2369546
20
-72.2567892
11
82.6725734
21
-67.6602732
0
LINE
8
0
10
82.6725734
20
-67.6602732
11
77.8341354
21
-48.2543586
0
LINE
8
0
10
77.8341354
20
-48.2543586
11
59.3985166
21
-52.8508746
0
LINE
8
0
10
217.5993703
20
-11.7644858
11
236.9178868
21
-6.5881049
0
LINE
8
0
10
223.2004773
20
44.6059639
11
236.9178868
21
-6.5881049
0
LINE
8
0
10
214.5747245
20
-0.4763542
11
217.5993703
21
-11.7644858
0
LINE
8
0
10
203.8819608
20
39.429583
11
211.0582928
21
12.6471476
0
LINE
8
0
10
223.2004773
20
44.6059639
11
203.8819608
21
39.429583
0
LINE
8
0
10
196.893597
20
-6.9117583
11
214.5747245
21
-0.4763542
0
LINE
8
0
10
197.5603817
20
49.7323534
11
211.0582928
21
12.6471476
0
LINE
8
0
10
195.1834963
20
-2.2132952
11
196.893597
21
-6.9117583
0
LINE
8
0
10
197.5603817
20
49.7323534
11
180.6459145
21
43.5759909
0
LINE
8
0
10
180.1484143
20
-7.6856174
11
195.1834963
21
-2.2132952
0
LINE
8
0
10
180.6459145
20
43.5759909
11
178.9358138
21
48.274454
0
LINE
8
0
10
178.9358138
20
48.274454
11
160.1419614
21
41.4340512
0
LINE
8
0
10
160.1419614
20
41.4340512
11
162.1940823
21
35.7958954
0
LINE
8
0
10
165.286068
20
-19.4801357
11
182.2005352
21
-13.3237732
0
LINE
8
0
10
182.2005352
20
-13.3237732
11
180.1484143
21
-7.6856174
0
LINE
8
0
10
162.1940823
20
35.7958954
11
145.2796151
21
29.6395329
0
LINE
8
0
10
145.2796151
20
29.6395329
11
145.9636554
21
27.7601475
0
LINE
8
0
10
147.1762559
20
-28.1999239
11
165.9701083
21
-21.3595211
0
LINE
8
0
10
165.9701083
20
-21.3595211
11
165.286068
21
-19.4801357
0
LINE
8
0
10
129.0491882
20
21.603785
11
147.1762559
21
-28.1999239
0
LINE
8
0
10
145.9636554
20
27.7601475
11
129.0491882
21
21.603785
0
LINE
8
0
10
166.337773
20
-52.2491235
11
179.7203851
21
-37.386227
0
LINE
8
0
10
179.7203851
20
-37.386227
11
165.6006334
21
-24.6727455
0
LINE
8
0
10
165.6006334
20
-24.6727455
11
152.2180213
21
-39.535642
0
LINE
8
0
10
152.2180213
20
-39.535642
11
166.337773
21
-52.2491235
0
LINE
8
0
10
160.562893
20
-72.2567892
11
165.401331
21
-52.8508746
0
LINE
8
0
10
165.401331
20
-52.8508746
11
146.9657122
21
-48.2543586
0
LINE
8
0
10
146.9657122
20
-48.2543586
11
142.1272742
21
-67.6602732
0
LINE
8
0
10
142.1272742
20
-67.6602732
11
160.562893
21
-72.2567892
0
ENDSEC
0
EOF