0
SECTION
2
HEADER
9
$INSUNITS
70
4
0
ENDSEC
0
SECTION
2
TABLES
0
TABLE
2
LTYPE
0
LTYPE
72
65
70
0
2
CONTINUOUS
3
______
73
0
40
0
0
LTYPE
72
65
70
0
2
DASHED
3
_ _ _ 
73
2
40
7.5
49
5
49
-2.5
0
LTYPE
72
65
70
0
2
DOTTED
3
. . . 
73
2
40
1.5
49
0.5
49
-1
0
ENDTAB
0
TABLE
2
LAYER
0
ENDTAB
0
ENDSEC
0
SECTION
2
ENTITIES
0
LINE
8
0
6
CONTINUOUS
10
140.5
20
-160
11
195.1373305
21
-160
0
LINE
8
0
6
CONTINUOUS
10
160.5
20
-159
11
160.5
21
-147
0
LINE
8
0
6
CONTINUOUS
10
139.5
20
-159
11
139.5
21
-107
0
LINE
8
0
6
CONTINUOUS
10
156.5
20
-106
11
140.5
21
-106
0
LINE
8
0
6
CONTINUOUS
10
161.5
20
-146
11
177.5
21
-146
0
LINE
8
0
6
CONTINUOUS
10
178.5
20
-145
11
178.5
21
-142.2375
0
LINE
8
0
6
CONTINUOUS
10
174.5
20
-92
11
158.5
21
-92
0
LINE
8
0
6
CONTINUOUS
10
157.5
20
-93
11
157.5
21
-105
0
LINE
8
0
6
CONTINUOUS
10
179.5
20
-141.2375
11
192.5
21
-141.2375
0
LINE
8
0
6
CONTINUOUS
10
196.5
20
-91
11
196.5
21
-88.2375
0
LINE
8
0
6
CONTINUOUS
10
195.5
20
-87.2375
11
176.5
21
-87.2375
0
LINE
8
0
6
CONTINUOUS
10
175.5
20
-88.2375
11
175.5
21
-91
0
LINE
8
0
6
CONTINUOUS
10
194.5
20
-146
11
210.5
21
-146
0
LINE
8
0
6
CONTINUOUS
10
193.5
20
-142.2375
11
193.5
21
-145
0
LINE
8
0
6
CONTINUOUS
10
214.5
20
-93.8575
11
214.5
21
-93
0
LINE
8
0
6
CONTINUOUS
10
213.5
20
-92
11
197.5
21
-92
0
LINE
8
0
6
CONTINUOUS
10
221.2648857
20
-148.8575
11
231.5
21
-148.8575
0
LINE
8
0
6
CONTINUOUS
10
232.5
20
-147.8575
11
232.5
21
-95.8575
0
LINE
8
0
6
CONTINUOUS
10
211.5
20
-147
11
211.5
21
-148.2762829
0
LINE
8
0
6
CONTINUOUS
10
231.5
20
-94.8575
11
215.5
21
-94.8575
0
LINE
8
0
6
CONTINUOUS
10
185.5
20
-166.955
11
205.2273431
21
-166.955
0
LINE
8
0
6
CONTINUOUS
10
205.5
20
-155.0741398
11
205.5
21
-147.955
0
LINE
8
0
6
CONTINUOUS
10
204.5
20
-146.955
11
185.5
21
-146.955
0
LINE
8
0
6
CONTINUOUS
10
184.5
20
-147.955
11
184.5
21
-165.955
0
LINE
8
0
6
CONTINUOUS
10
204.0630218
20
-166.9890742
11
220.5658791
21
-171.4110015
0
LINE
8
0
6
CONTINUOUS
10
225.7633881
20
-160.5879149
11
227.6270113
21
-153.6327787
0
LINE
8
0
6
CONTINUOUS
10
226.9199045
20
-152.4080339
11
221.0060667
21
-150.8234258
0
LINE
8
0
6
CONTINUOUS
10
211.5
20
-148.2762829
11
208.5673138
21
-147.490472
0
LINE
8
0
6
CONTINUOUS
10
207.342569
20
-148.1975788
11
205.5
21
-155.0741398
0
LINE
8
0
6
CONTINUOUS
10
220.0144534
20
-171.0532902
11
237.115022
21
-180.9263081
0
LINE
8
0
6
CONTINUOUS
10
238.4810474
20
-180.5602827
11
247.9595719
21
-164.1429967
0
LINE
8
0
6
CONTINUOUS
10
247.115022
20
-163.6058001
11
230.6605394
21
-154.1058001
0
LINE
8
0
6
CONTINUOUS
10
229.294514
20
-154.4718255
11
225.7633881
21
-160.5879149
0
ARC
8
0
6
CONTINUOUS
10
159.5
20
-159
40
1
50
270
51
0
0
ARC
8
0
6
CONTINUOUS
10
161.5
20
-147
40
1
50
90
51
180
0
ARC
8
0
6
CONTINUOUS
10
177.5
20
-145
40
1
50
270
51
0
0
ARC
8
0
6
CONTINUOUS
10
179.5
20
-142.2375
40
1
50
90
51
180
0
ARC
8
0
6
CONTINUOUS
10
192.5
20
-142.2375
40
1
50
0
51
90
0
ARC
8
0
6
CONTINUOUS
10
194.5
20
-145
40
1
50
180
51
270
0
ARC
8
0
6
CONTINUOUS
10
210.5
20
-147
40
1
50
0
51
90
0
ARC
8
0
6
CONTINUOUS
10
208.3084948
20
-148.4563978
40
1
50
75.0000021
51
165.0000021
0
ARC
8
0
6
CONTINUOUS
10
204.5
20
-147.955
40
1
50
0
51
90
0
ARC
8
0
6
CONTINUOUS
10
185.5
20
-147.955
40
1
50
90
51
180
0
ARC
8
0
6
CONTINUOUS
10
185.5
20
-165.955
40
1
50
180
51
270
0
ARC
8
0
6
CONTINUOUS
10
203.8042028
20
-167.955
40
1
50
75.0000021
51
90
0
ARC
8
0
6
CONTINUOUS
10
220.3070601
20
-172.3769273
40
1
50
59.9999999
51
75.0000021
0
ARC
8
0
6
CONTINUOUS
10
237.615022
20
-180.0602827
40
1
50
239.9999999
51
329.9999999
0
ARC
8
0
6
CONTINUOUS
10
246.615022
20
-164.4718255
40
1
50
329.9999999
51
59.9999999
0
ARC
8
0
6
CONTINUOUS
10
230.1605394
20
-154.9718255
40
1
50
59.9999999
51
149.9999999
0
ARC
8
0
6
CONTINUOUS
10
226.6610855
20
-153.3739597
40
1
50
345.0000021
51
75.0000021
0
ARC
8
0
6
CONTINUOUS
10
221.2648857
20
-149.8575
40
1
50
90
51
255.0000021
0
ARC
8
0
6
CONTINUOUS
10
231.5
20
-147.8575
40
1
50
270
51
0
0
ARC
8
0
6
CONTINUOUS
10
231.5
20
-95.8575
40
1
50
0
51
90
0
ARC
8
0
6
CONTINUOUS
10
215.5
20
-93.8575
40
1
50
180
51
270
0
ARC
8
0
6
CONTINUOUS
10
213.5
20
-93
40
1
50
0
51
90
0
ARC
8
0
6
CONTINUOUS
10
197.5
20
-91
40
1
50
180
51
270
0
ARC
8
0
6
CONTINUOUS
10
195.5
20
-88.2375
40
1
50
0
51
90
0
ARC
8
0
6
CONTINUOUS
10
176.5
20
-88.2375
40
1
50
90
51
180
0
ARC
8
0
6
CONTINUOUS
10
174.5
20
-91
40
1
50
270
51
0
0
ARC
8
0
6
CONTINUOUS
10
158.5
20
-93
40
1
50
90
51
180
0
ARC
8
0
6
CONTINUOUS
10
156.5
20
-105
40
1
50
270
51
0
0
ARC
8
0
6
CONTINUOUS
10
140.5
20
-107
40
1
50
90
51
180
0
ARC
8
0
6
CONTINUOUS
10
140.5
20
-159
40
1
50
180
51
270
0
LINE
8
0
6
CONTINUOUS
10
141.05
20
-158.45
11
158.95
21
-158.45
0
LINE
8
0
6
CONTINUOUS
10
158.95
20
-158.45
11
158.95
21
-141.55
0
LINE
8
0
6
CONTINUOUS
10
158.95
20
-141.55
11
141.05
21
-141.55
0
LINE
8
0
6
CONTINUOUS
10
141.05
20
-141.55
11
141.05
21
-158.45
0
LINE
8
0
6
CONTINUOUS
10
141.05
20
-141.45
11
158.95
21
-141.45
0
LINE
8
0
6
CONTINUOUS
10
158.95
20
-141.45
11
158.95
21
-124.55
0
LINE
8
0
6
CONTINUOUS
10
158.95
20
-124.55
11
141.05
21
-124.55
0
LINE
8
0
6
CONTINUOUS
10
141.05
20
-124.55
11
141.05
21
-141.45
0
LINE
8
0
6
CONTINUOUS
10
141.05
20
-124.45
11
158.95
21
-124.45
0
LINE
8
0
6
CONTINUOUS
10
158.95
20
-124.45
11
158.95
21
-109.6045476
0
LINE
8
0
6
CONTINUOUS
10
158.8672795
20
-107.55
11
141.05
21
-107.55
0
LINE
8
0
6
CONTINUOUS
10
141.05
20
-107.55
11
141.05
21
-124.45
0
LINE
8
0
6
CONTINUOUS
10
159.05
20
-144.45
11
176.95
21
-144.45
0
LINE
8
0
6
CONTINUOUS
10
176.95
20
-144.45
11
176.95
21
-127.55
0
LINE
8
0
6
CONTINUOUS
10
176.95
20
-127.55
11
159.05
21
-127.55
0
LINE
8
0
6
CONTINUOUS
10
159.05
20
-127.55
11
159.05
21
-144.45
0
LINE
8
0
6
CONTINUOUS
10
159.05
20
-127.45
11
176.95
21
-127.45
0
LINE
8
0
6
CONTINUOUS
10
176.95
20
-127.45
11
176.95
21
-110.55
0
LINE
8
0
6
CONTINUOUS
10
176.95
20
-110.55
11
159.05
21
-110.55
0
LINE
8
0
6
CONTINUOUS
10
159.05
20
-110.55
11
159.05
21
-127.45
0
LINE
8
0
6
CONTINUOUS
10
159.05
20
-110.45
11
176.95
21
-110.45
0
LINE
8
0
6
CONTINUOUS
10
176.95
20
-110.45
11
176.95
21
-93.55
0
LINE
8
0
6
CONTINUOUS
10
176.95
20
-93.55
11
159.05
21
-93.55
0
LINE
8
0
6
CONTINUOUS
10
159.05
20
-93.55
11
159.05
21
-107.3725146
0
LINE
8
0
6
CONTINUOUS
10
159.05
20
-109.694152
11
159.05
21
-110.45
0
LINE
8
0
6
CONTINUOUS
10
177.05
20
-139.6875
11
194.95
21
-139.6875
0
LINE
8
0
6
CONTINUOUS
10
194.95
20
-139.6875
11
194.95
21
-122.7875
0
LINE
8
0
6
CONTINUOUS
10
194.95
20
-122.7875
11
177.05
21
-122.7875
0
LINE
8
0
6
CONTINUOUS
10
177.05
20
-122.7875
11
177.05
21
-139.6875
0
LINE
8
0
6
CONTINUOUS
10
177.05
20
-122.6875
11
194.95
21
-122.6875
0
LINE
8
0
6
CONTINUOUS
10
194.95
20
-122.6875
11
194.95
21
-105.7875
0
LINE
8
0
6
CONTINUOUS
10
194.95
20
-105.7875
11
177.05
21
-105.7875
0
LINE
8
0
6
CONTINUOUS
10
177.05
20
-105.7875
11
177.05
21
-122.6875
0
LINE
8
0
6
CONTINUOUS
10
177.05
20
-105.6875
11
194.95
21
-105.6875
0
LINE
8
0
6
CONTINUOUS
10
194.95
20
-105.6875
11
194.95
21
-88.7875
0
LINE
8
0
6
CONTINUOUS
10
194.95
20
-88.7875
11
177.05
21
-88.7875
0
LINE
8
0
6
CONTINUOUS
10
177.05
20
-88.7875
11
177.05
21
-105.6875
0
LINE
8
0
6
CONTINUOUS
10
195.05
20
-144.45
11
212.95
21
-144.45
0
LINE
8
0
6
CONTINUOUS
10
212.95
20
-144.45
11
212.95
21
-127.55
0
LINE
8
0
6
CONTINUOUS
10
212.95
20
-127.55
11
195.05
21
-127.55
0
LINE
8
0
6
CONTINUOUS
10
195.05
20
-127.55
11
195.05
21
-144.45
0
LINE
8
0
6
CONTINUOUS
10
195.05
20
-127.45
11
212.95
21
-127.45
0
LINE
8
0
6
CONTINUOUS
10
212.95
20
-127.45
11
212.95
21
-110.55
0
LINE
8
0
6
CONTINUOUS
10
212.95
20
-110.55
11
195.05
21
-110.55
0
LINE
8
0
6
CONTINUOUS
10
195.05
20
-110.55
11
195.05
21
-127.45
0
LINE
8
0
6
CONTINUOUS
10
195.05
20
-110.45
11
212.95
21
-110.45
0
LINE
8
0
6
CONTINUOUS
10
212.95
20
-110.45
11
212.95
21
-93.55
0
LINE
8
0
6
CONTINUOUS
10
212.95
20
-93.55
11
195.05
21
-93.55
0
LINE
8
0
6
CONTINUOUS
10
195.05
20
-93.55
11
195.05
21
-110.45
0
LINE
8
0
6
CONTINUOUS
10
213.05
20
-147.3075
11
230.95
21
-147.3075
0
LINE
8
0
6
CONTINUOUS
10
230.95
20
-147.3075
11
230.95
21
-130.4075
0
LINE
8
0
6
CONTINUOUS
10
230.95
20
-130.4075
11
213.05
21
-130.4075
0
LINE
8
0
6
CONTINUOUS
10
213.05
20
-130.4075
11
213.05
21
-147.3075
0
LINE
8
0
6
CONTINUOUS
10
213.05
20
-130.3075
11
230.95
21
-130.3075
0
LINE
8
0
6
CONTINUOUS
10
230.95
20
-130.3075
11
230.95
21
-113.4075
0
LINE
8
0
6
CONTINUOUS
10
230.95
20
-113.4075
11
213.05
21
-113.4075
0
LINE
8
0
6
CONTINUOUS
10
213.05
20
-113.4075
11
213.05
21
-130.3075
0
LINE
8
0
6
CONTINUOUS
10
213.05
20
-113.3075
11
230.95
21
-113.3075
0
LINE
8
0
6
CONTINUOUS
10
230.95
20
-113.3075
11
230.95
21
-96.4075
0
LINE
8
0
6
CONTINUOUS
10
230.95
20
-96.4075
11
213.05
21
-96.4075
0
LINE
8
0
6
CONTINUOUS
10
213.05
20
-96.4075
11
213.05
21
-113.3075
0
LINE
8
0
6
CONTINUOUS
10
186.05
20
-165.405
11
203.95
21
-165.405
0
LINE
8
0
6
CONTINUOUS
10
203.95
20
-165.405
11
203.95
21
-148.505
0
LINE
8
0
6
CONTINUOUS
10
203.95
20
-148.505
11
186.05
21
-148.505
0
LINE
8
0
6
CONTINUOUS
10
186.05
20
-148.505
11
186.05
21
-165.405
0
LINE
8
0
6
CONTINUOUS
10
204.3233616
20
-165.454154
11
221.6134339
21
-170.0870149
0
LINE
8
0
6
CONTINUOUS
10
221.6134339
20
-170.0870149
11
225.9874758
21
-153.7628684
0
LINE
8
0
6
CONTINUOUS
10
225.9874758
20
-153.7628684
11
208.6974035
21
-149.1300075
0
LINE
8
0
6
CONTINUOUS
10
208.6974035
20
-149.1300075
11
204.3233616
21
-165.454154
0
LINE
8
0
6
CONTINUOUS
10
221.9118533
20
-170.3589688
11
237.4137081
21
-179.3089688
0
LINE
8
0
6
CONTINUOUS
10
237.4137081
20
-179.3089688
11
245.8637081
21
-164.6731394
0
LINE
8
0
6
CONTINUOUS
10
245.8637081
20
-164.6731394
11
230.3618533
21
-155.7231394
0
LINE
8
0
6
CONTINUOUS
10
230.3618533
20
-155.7231394
11
221.9118533
21
-170.3589688
0
LINE
8
0
6
CONTINUOUS
10
235
20
-137.8575
11
253
21
-137.8575
0
LINE
8
0
6
CONTINUOUS
10
253
20
-137.8575
11
253
21
-103.8575
0
LINE
8
0
6
CONTINUOUS
10
234.5
20
-103.8575
11
253
21
-103.8575
0
LINE
8
0
6
CONTINUOUS
10
235
20
-103.8575
11
235
21
-137.8575
0
LINE
8
0
6
CONTINUOUS
10
144.7868856
20
-156.3536122
11
229.3644792
21
-98.0200822
0
LINE
8
0
6
CONTINUOUS
10
254.5
20
-105.8575
11
254.5
21
-153.2753015
0
LINE
8
0
6
CONTINUOUS
10
254.1875238
20
-154.3487369
11
248.0040989
21
-164.0695613
0
LINE
8
0
6
CONTINUOUS
10
242.1479479
20
-172.9676455
11
229.6653401
21
-175.9881562
0
LINE
8
0
6
CONTINUOUS
10
219.5498174
20
-170.8583264
11
205.7627071
21
-167.0279854
0
LINE
8
0
6
CONTINUOUS
10
196.3557497
20
-164.0976548
11
196.9442503
21
-162.8573452
0
ARC
8
0
6
CONTINUOUS
10
230.5
20
-99.6664699
40
2
50
0
51
124.5941975
0
ARC
8
0
6
CONTINUOUS
10
234.5
20
-101.8575
40
2
50
180
51
270
0
ARC
8
0
6
CONTINUOUS
10
252.5
20
-105.8575
40
2
50
0
51
90
0
ARC
8
0
6
CONTINUOUS
10
252.5
20
-153.2753015
40
2
50
327.5395239
51
0
0
ARC
8
0
6
CONTINUOUS
10
249.6916227
20
-165.1429967
40
2
50
147.5395239
51
149.9999999
0
ARC
8
0
6
CONTINUOUS
10
241.6775681
20
-171.0237466
40
2
50
283.6028175
51
329.9999999
0
ARC
8
0
6
CONTINUOUS
10
229.1949603
20
-174.0442573
40
2
50
239.9999999
51
283.6028175
0
ARC
8
0
6
CONTINUOUS
10
219.0144534
20
-172.785341
40
2
50
59.9999999
51
74.473621
0
ARC
8
0
6
CONTINUOUS
10
205.2273431
20
-168.955
40
2
50
74.473621
51
90
0
ARC
8
0
6
CONTINUOUS
10
198.1626695
20
-164.955
40
2
50
154.6166504
51
270
0
ARC
8
0
6
CONTINUOUS
10
195.1373305
20
-162
40
2
50
334.6166504
51
90
0
ARC
8
0
6
CONTINUOUS
10
145.9224064
20
-158
40
2
50
124.5941975
51
270
0
ARC
8
0
6
CONTINUOUS
10
160
20
-108.5333333
40
1.5
50
225.572997
51
230.7035203
0
ARC
8
0
6
CONTINUOUS
10
160
20
-108.5333333
40
1.5
50
489.2964797
51
499.0382143
0
CIRCLE
8
0
6
CONTINUOUS
10
172.5
20
-152
40
1.5
0
CIRCLE
8
0
6
CONTINUOUS
10
234.9371581
20
-154.6627042
40
1.5
0
ENDSEC
0
EOF