0
SECTION
2
HEADER
9
$INSUNITS
70
4
0
ENDSEC
0
SECTION
2
TABLES
0
TABLE
2
LTYPE
0
LTYPE
72
65
70
0
2
CONTINUOUS
3
______
73
0
40
0
0
LTYPE
72
65
70
0
2
DASHED
3
_ _ _ 
73
2
40
7.5
49
5
49
-2.5
0
LTYPE
72
65
70
0
2
DOTTED
3
. . . 
73
2
40
1.5
49
0.5
49
-1
0
ENDTAB
0
TABLE
2
LAYER
0
ENDTAB
0
ENDSEC
0
SECTION
2
ENTITIES
0
LINE
8
0
6
CONTINUOUS
10
140.5
20
-160
11
182.5
21
-160
0
LINE
8
0
6
CONTINUOUS
10
139.5
20
-159
11
139.5
21
-107
0
LINE
8
0
6
CONTINUOUS
10
156.5
20
-106
11
140.5
21
-106
0
LINE
8
0
6
CONTINUOUS
10
174.5
20
-92
11
158.5
21
-92
0
LINE
8
0
6
CONTINUOUS
10
157.5
20
-93
11
157.5
21
-105
0
LINE
8
0
6
CONTINUOUS
10
196.5
20
-91
11
196.5
21
-88.2375
0
LINE
8
0
6
CONTINUOUS
10
195.5
20
-87.2375
11
176.5
21
-87.2375
0
LINE
8
0
6
CONTINUOUS
10
175.5
20
-88.2375
11
175.5
21
-91
0
LINE
8
0
6
CONTINUOUS
10
214.5
20
-93.8575
11
214.5
21
-93
0
LINE
8
0
6
CONTINUOUS
10
213.5
20
-92
11
197.5
21
-92
0
LINE
8
0
6
CONTINUOUS
10
232.5
20
-101.8575
11
232.5
21
-95.8575
0
LINE
8
0
6
CONTINUOUS
10
231.5
20
-94.8575
11
215.5
21
-94.8575
0
LINE
8
0
6
CONTINUOUS
10
185.5
20
-166.955
11
203.8042028
21
-166.955
0
LINE
8
0
6
CONTINUOUS
10
184.5
20
-162
11
184.5
21
-165.955
0
LINE
8
0
6
CONTINUOUS
10
204.0630218
20
-166.9890742
11
220.5658791
21
-171.4110015
0
LINE
8
0
6
CONTINUOUS
10
220.8070601
20
-171.5109019
11
237.115022
21
-180.9263081
0
LINE
8
0
6
CONTINUOUS
10
238.4810474
20
-180.5602827
11
247.9595719
21
-164.1429967
0
ARC
8
0
6
CONTINUOUS
10
185.5
20
-165.955
40
1
50
180
51
270
0
ARC
8
0
6
CONTINUOUS
10
203.8042028
20
-167.955
40
1
50
75.0000021
51
90
0
ARC
8
0
6
CONTINUOUS
10
220.3070601
20
-172.3769273
40
1
50
59.9999999
51
75.0000021
0
ARC
8
0
6
CONTINUOUS
10
237.615022
20
-180.0602827
40
1
50
239.9999999
51
329.9999999
0
ARC
8
0
6
CONTINUOUS
10
231.5
20
-95.8575
40
1
50
0
51
90
0
ARC
8
0
6
CONTINUOUS
10
215.5
20
-93.8575
40
1
50
180
51
270
0
ARC
8
0
6
CONTINUOUS
10
213.5
20
-93
40
1
50
0
51
90
0
ARC
8
0
6
CONTINUOUS
10
197.5
20
-91
40
1
50
180
51
270
0
ARC
8
0
6
CONTINUOUS
10
195.5
20
-88.2375
40
1
50
0
51
90
0
ARC
8
0
6
CONTINUOUS
10
176.5
20
-88.2375
40
1
50
90
51
180
0
ARC
8
0
6
CONTINUOUS
10
174.5
20
-91
40
1
50
270
51
0
0
ARC
8
0
6
CONTINUOUS
10
158.5
20
-93
40
1
50
90
51
180
0
ARC
8
0
6
CONTINUOUS
10
156.5
20
-105
40
1
50
270
51
0
0
ARC
8
0
6
CONTINUOUS
10
140.5
20
-107
40
1
50
90
51
180
0
ARC
8
0
6
CONTINUOUS
10
140.5
20
-159
40
1
50
180
51
270
0
LINE
8
0
6
CONTINUOUS
10
234.5
20
-103.8575
11
252.5
21
-103.8575
0
LINE
8
0
6
CONTINUOUS
10
254.5
20
-105.8575
11
254.5
21
-153.2753015
0
LINE
8
0
6
CONTINUOUS
10
254.1875238
20
-154.3487369
11
248.0040989
21
-164.0695613
0
ARC
8
0
6
CONTINUOUS
10
234.5
20
-101.8575
40
2
50
180
51
270
0
ARC
8
0
6
CONTINUOUS
10
252.5
20
-105.8575
40
2
50
0
51
90
0
ARC
8
0
6
CONTINUOUS
10
252.5
20
-153.2753015
40
2
50
327.5395239
51
0
0
ARC
8
0
6
CONTINUOUS
10
249.6916227
20
-165.1429967
40
2
50
147.5395239
51
149.9999999
0
ARC
8
0
6
CONTINUOUS
10
182.5
20
-162
40
2
50
0
51
90
0
LINE
8
0
6
CONTINUOUS
10
143.1
20
-156.9
11
156.9
21
-156.9
0
LINE
8
0
6
CONTINUOUS
10
156.9
20
-156.9
11
156.9
21
-143.1
0
LINE
8
0
6
CONTINUOUS
10
156.9
20
-143.1
11
143.1
21
-143.1
0
LINE
8
0
6
CONTINUOUS
10
143.1
20
-143.1
11
143.1
21
-156.9
0
LINE
8
0
6
CONTINUOUS
10
143.1
20
-139.9
11
156.9
21
-139.9
0
LINE
8
0
6
CONTINUOUS
10
156.9
20
-139.9
11
156.9
21
-126.1
0
LINE
8
0
6
CONTINUOUS
10
156.9
20
-126.1
11
143.1
21
-126.1
0
LINE
8
0
6
CONTINUOUS
10
143.1
20
-126.1
11
143.1
21
-139.9
0
LINE
8
0
6
CONTINUOUS
10
143.1
20
-122.9
11
156.9
21
-122.9
0
LINE
8
0
6
CONTINUOUS
10
156.9
20
-122.9
11
156.9
21
-109.1
0
LINE
8
0
6
CONTINUOUS
10
156.9
20
-109.1
11
143.1
21
-109.1
0
LINE
8
0
6
CONTINUOUS
10
143.1
20
-109.1
11
143.1
21
-122.9
0
LINE
8
0
6
CONTINUOUS
10
161.1
20
-142.9
11
174.9
21
-142.9
0
LINE
8
0
6
CONTINUOUS
10
174.9
20
-142.9
11
174.9
21
-129.1
0
LINE
8
0
6
CONTINUOUS
10
174.9
20
-129.1
11
161.1
21
-129.1
0
LINE
8
0
6
CONTINUOUS
10
161.1
20
-129.1
11
161.1
21
-142.9
0
LINE
8
0
6
CONTINUOUS
10
161.1
20
-125.9
11
174.9
21
-125.9
0
LINE
8
0
6
CONTINUOUS
10
174.9
20
-125.9
11
174.9
21
-112.1
0
LINE
8
0
6
CONTINUOUS
10
174.9
20
-112.1
11
161.1
21
-112.1
0
LINE
8
0
6
CONTINUOUS
10
161.1
20
-112.1
11
161.1
21
-125.9
0
LINE
8
0
6
CONTINUOUS
10
161.4544949
20
-108.9
11
174.9
21
-108.9
0
LINE
8
0
6
CONTINUOUS
10
174.9
20
-108.9
11
174.9
21
-95.1
0
LINE
8
0
6
CONTINUOUS
10
174.9
20
-95.1
11
161.1
21
-95.1
0
LINE
8
0
6
CONTINUOUS
10
161.1
20
-95.1
11
161.1
21
-107.5135294
0
LINE
8
0
6
CONTINUOUS
10
179.1
20
-138.1375
11
192.9
21
-138.1375
0
LINE
8
0
6
CONTINUOUS
10
192.9
20
-138.1375
11
192.9
21
-124.3375
0
LINE
8
0
6
CONTINUOUS
10
192.9
20
-124.3375
11
179.1
21
-124.3375
0
LINE
8
0
6
CONTINUOUS
10
179.1
20
-124.3375
11
179.1
21
-138.1375
0
LINE
8
0
6
CONTINUOUS
10
179.1
20
-121.1375
11
192.9
21
-121.1375
0
LINE
8
0
6
CONTINUOUS
10
192.9
20
-121.1375
11
192.9
21
-107.3375
0
LINE
8
0
6
CONTINUOUS
10
192.9
20
-107.3375
11
179.1
21
-107.3375
0
LINE
8
0
6
CONTINUOUS
10
179.1
20
-107.3375
11
179.1
21
-121.1375
0
LINE
8
0
6
CONTINUOUS
10
179.1
20
-104.1375
11
192.9
21
-104.1375
0
LINE
8
0
6
CONTINUOUS
10
192.9
20
-104.1375
11
192.9
21
-90.3375
0
LINE
8
0
6
CONTINUOUS
10
192.9
20
-90.3375
11
179.1
21
-90.3375
0
LINE
8
0
6
CONTINUOUS
10
179.1
20
-90.3375
11
179.1
21
-104.1375
0
LINE
8
0
6
CONTINUOUS
10
197.1
20
-142.9
11
210.9
21
-142.9
0
LINE
8
0
6
CONTINUOUS
10
210.9
20
-142.9
11
210.9
21
-129.1
0
LINE
8
0
6
CONTINUOUS
10
210.9
20
-129.1
11
197.1
21
-129.1
0
LINE
8
0
6
CONTINUOUS
10
197.1
20
-129.1
11
197.1
21
-142.9
0
LINE
8
0
6
CONTINUOUS
10
197.1
20
-125.9
11
210.9
21
-125.9
0
LINE
8
0
6
CONTINUOUS
10
210.9
20
-125.9
11
210.9
21
-112.1
0
LINE
8
0
6
CONTINUOUS
10
210.9
20
-112.1
11
197.1
21
-112.1
0
LINE
8
0
6
CONTINUOUS
10
197.1
20
-112.1
11
197.1
21
-125.9
0
LINE
8
0
6
CONTINUOUS
10
197.1
20
-108.9
11
210.9
21
-108.9
0
LINE
8
0
6
CONTINUOUS
10
210.9
20
-108.9
11
210.9
21
-95.1
0
LINE
8
0
6
CONTINUOUS
10
210.9
20
-95.1
11
197.1
21
-95.1
0
LINE
8
0
6
CONTINUOUS
10
197.1
20
-95.1
11
197.1
21
-108.9
0
LINE
8
0
6
CONTINUOUS
10
215.1
20
-145.7575
11
228.9
21
-145.7575
0
LINE
8
0
6
CONTINUOUS
10
228.9
20
-145.7575
11
228.9
21
-131.9575
0
LINE
8
0
6
CONTINUOUS
10
228.9
20
-131.9575
11
215.1
21
-131.9575
0
LINE
8
0
6
CONTINUOUS
10
215.1
20
-131.9575
11
215.1
21
-145.7575
0
LINE
8
0
6
CONTINUOUS
10
215.1
20
-128.7575
11
228.9
21
-128.7575
0
LINE
8
0
6
CONTINUOUS
10
228.9
20
-128.7575
11
228.9
21
-114.9575
0
LINE
8
0
6
CONTINUOUS
10
228.9
20
-114.9575
11
215.1
21
-114.9575
0
LINE
8
0
6
CONTINUOUS
10
215.1
20
-114.9575
11
215.1
21
-128.7575
0
LINE
8
0
6
CONTINUOUS
10
215.1
20
-111.7575
11
228.9
21
-111.7575
0
LINE
8
0
6
CONTINUOUS
10
228.9
20
-111.7575
11
228.9
21
-97.9575
0
LINE
8
0
6
CONTINUOUS
10
228.9
20
-97.9575
11
215.1
21
-97.9575
0
LINE
8
0
6
CONTINUOUS
10
215.1
20
-97.9575
11
215.1
21
-111.7575
0
LINE
8
0
6
CONTINUOUS
10
188.1
20
-163.855
11
201.9
21
-163.855
0
LINE
8
0
6
CONTINUOUS
10
201.9
20
-163.855
11
201.9
21
-150.055
0
LINE
8
0
6
CONTINUOUS
10
201.9
20
-150.055
11
188.1
21
-150.055
0
LINE
8
0
6
CONTINUOUS
10
188.1
20
-150.055
11
188.1
21
-163.855
0
LINE
8
0
6
CONTINUOUS
10
206.7046791
20
-164.487548
11
220.0344555
21
-168.0592508
0
LINE
8
0
6
CONTINUOUS
10
220.0344555
20
-168.0592508
11
223.6061583
21
-154.7294744
0
LINE
8
0
6
CONTINUOUS
10
223.6061583
20
-154.7294744
11
210.2763819
21
-151.1577716
0
LINE
8
0
6
CONTINUOUS
10
210.2763819
20
-151.1577716
11
206.7046791
21
-164.487548
0
LINE
8
0
6
CONTINUOUS
10
224.4622054
20
-170.0416294
11
236.413356
21
-176.9416294
0
LINE
8
0
6
CONTINUOUS
10
236.413356
20
-176.9416294
11
243.313356
21
-164.9904788
0
LINE
8
0
6
CONTINUOUS
10
243.313356
20
-164.9904788
11
231.3622054
21
-158.0904788
0
LINE
8
0
6
CONTINUOUS
10
231.3622054
20
-158.0904788
11
224.4622054
21
-170.0416294
0
ARC
8
0
6
CONTINUOUS
10
160
20
-108.5333333
40
1.5
50
402.833428
51
705.8509938
0
CIRCLE
8
0
6
CONTINUOUS
10
172.5
20
-152
40
1.5
0
CIRCLE
8
0
6
CONTINUOUS
10
234.9371581
20
-154.6627042
40
1.5
0
ENDSEC
0
EOF