M48
; DRILL file {KiCad 9.0.5} date 2025-10-18T21:29:55+0200
; FORMAT={-:-/ absolute / metric / decimal}
; #@! TF.CreationDate,2025-10-18T21:29:55+02:00
; #@! TF.GenerationSoftware,Kicad,Pcbnew,9.0.5
; #@! TF.FileFunction,NonPlated,1,2,NPTH
FMAT,2
METRIC
; #@! TA.AperFunction,NonPlated,NPTH,ComponentDrill
T1C0.900
; #@! TA.AperFunction,NonPlated,NPTH,ComponentDrill
T2C1.702
; #@! TA.AperFunction,NonPlated,NPTH,ComponentDrill
T3C3.429
%
G90
G05
T1
X238.605Y-94.165
X238.605Y-94.165
X241.605Y-94.165
X241.605Y-94.165
T2
X138.831Y-117.236
X141.197Y-134.07
X143.563Y-150.905
X149.724Y-115.705
X152.09Y-132.539
X154.456Y-149.374
X158.626Y-102.275
X159.811Y-119.233
X160.997Y-136.192
X169.599Y-101.508
X170.785Y-118.466
X171.971Y-135.425
X179.605Y-95.732
X179.605Y-112.732
X179.605Y-129.732
X190.605Y-95.732
X190.605Y-112.732
X190.605Y-129.732
X197.605Y-100.495
X197.605Y-117.495
X197.605Y-134.495
X197.605Y-155.495
X208.605Y-100.495
X208.605Y-117.495
X208.605Y-134.495
X208.605Y-155.495
X215.605Y-100.495
X215.605Y-117.495
X215.605Y-134.495
X215.605Y-155.495
X226.605Y-100.495
X226.605Y-117.495
X226.605Y-134.495
X226.605Y-155.495
X233.605Y-165.495
X244.605Y-165.495
T3
X144.278Y-116.47
X146.644Y-133.305
X149.01Y-150.139
X164.112Y-101.891
X165.298Y-118.85
X166.484Y-135.808
X185.105Y-95.732
X185.105Y-112.732
X185.105Y-129.732
X203.105Y-100.495
X203.105Y-117.495
X203.105Y-134.495
X203.105Y-155.495
X221.105Y-100.495
X221.105Y-117.495
X221.105Y-134.495
X221.105Y-155.495
X239.105Y-165.495
M30
