%TF.GenerationSoftware,KiCad,Pcbnew,9.0.5*%
%TF.CreationDate,2025-10-18T21:30:00+02:00*%
%TF.ProjectId,shield-pcb,73686965-6c64-42d7-9063-622e6b696361,1.2*%
%TF.SameCoordinates,Original*%
%TF.FileFunction,Profile,NP*%
%FSLAX46Y46*%
G04 Gerber Fmt 4.6, Leading zero omitted, Abs format (unit mm)*
G04 Created by KiCad (PCBNEW 9.0.5) date 2025-10-18 21:30:00*
%MOMM*%
%LPD*%
G01*
G04 APERTURE LIST*
%TA.AperFunction,Profile*%
%ADD10C,0.150000*%
%TD*%
G04 APERTURE END LIST*
D10*
X140568369Y-161928719D02*
X161000367Y-159057189D01*
X132062753Y-108593416D02*
X139438928Y-161077624D01*
X152351471Y-104732195D02*
X132913848Y-107463975D01*
X173175129Y-90731816D02*
X153404102Y-92114341D01*
X152476294Y-93181661D02*
X153209862Y-103672171D01*
X196105372Y-88994606D02*
X196105372Y-86231606D01*
X195105372Y-85231606D02*
X175105372Y-85231606D01*
X174105372Y-86231606D02*
X174105372Y-89734252D01*
X197105372Y-89994606D02*
X248105372Y-89994606D01*
X192329841Y-165994606D02*
X227105372Y-165994606D01*
X229105372Y-175994606D02*
X249105372Y-175994606D01*
X228105372Y-166994606D02*
X228105372Y-174994606D01*
X227105372Y-165994606D02*
G75*
G02*
X228105372Y-166994606I0J-1000000D01*
G01*
X229105372Y-175994606D02*
G75*
G02*
X228105372Y-174994606I0J1000000D01*
G01*
X250105372Y-174994606D02*
G75*
G02*
X249105372Y-175994606I-1000000J0D01*
G01*
X197105372Y-89994606D02*
G75*
G02*
X196105372Y-88994606I0J1000000D01*
G01*
X195105372Y-85231606D02*
G75*
G02*
X196105372Y-86231606I0J-1000000D01*
G01*
X174105372Y-86231606D02*
G75*
G02*
X175105372Y-85231606I1000000J0D01*
G01*
X174105372Y-89734251D02*
G75*
G02*
X173175129Y-90731816I-1000000J-1D01*
G01*
X152476294Y-93181661D02*
G75*
G02*
X153404102Y-92114341I997564J69756D01*
G01*
X153209862Y-103672171D02*
G75*
G02*
X152351471Y-104732195I-997564J-69756D01*
G01*
X132062753Y-108593416D02*
G75*
G02*
X132913848Y-107463975I990268J139173D01*
G01*
X140568369Y-161928719D02*
G75*
G02*
X139438928Y-161077624I-139173J990268D01*
G01*
X161722067Y-159087484D02*
X191886488Y-165944846D01*
X161000367Y-159057188D02*
G75*
G02*
X161722067Y-159087484I278346J-1980537D01*
G01*
X192329841Y-165994605D02*
G75*
G02*
X191886488Y-165944846I0J1999999D01*
G01*
X250105372Y-91994606D02*
X250105372Y-174990000D01*
X248105372Y-89994606D02*
G75*
G02*
X250105372Y-91994606I0J-2000000D01*
G01*
M02*
