%TF.GenerationSoftware,KiCad,Pcbnew,9.0.5*%
%TF.CreationDate,2025-10-18T21:30:00+02:00*%
%TF.ProjectId,shield-pcb,73686965-6c64-42d7-9063-622e6b696361,1.2*%
%TF.SameCoordinates,Original*%
%TF.FileFunction,Legend,Bot*%
%TF.FilePolarity,Positive*%
%FSLAX46Y46*%
G04 Gerber Fmt 4.6, Leading zero omitted, Abs format (unit mm)*
G04 Created by KiCad (PCBNEW 9.0.5) date 2025-10-18 21:30:00*
%MOMM*%
%LPD*%
G01*
G04 APERTURE LIST*
%ADD10C,0.150000*%
%ADD11C,0.000000*%
%ADD12C,0.120000*%
G04 APERTURE END LIST*
D10*
X216268592Y-144949425D02*
X216268592Y-143949425D01*
X216268592Y-144330377D02*
X216173354Y-144282758D01*
X216173354Y-144282758D02*
X215982878Y-144282758D01*
X215982878Y-144282758D02*
X215887640Y-144330377D01*
X215887640Y-144330377D02*
X215840021Y-144377996D01*
X215840021Y-144377996D02*
X215792402Y-144473234D01*
X215792402Y-144473234D02*
X215792402Y-144758948D01*
X215792402Y-144758948D02*
X215840021Y-144854186D01*
X215840021Y-144854186D02*
X215887640Y-144901806D01*
X215887640Y-144901806D02*
X215982878Y-144949425D01*
X215982878Y-144949425D02*
X216173354Y-144949425D01*
X216173354Y-144949425D02*
X216268592Y-144901806D01*
X215220973Y-144949425D02*
X215316211Y-144901806D01*
X215316211Y-144901806D02*
X215363830Y-144806567D01*
X215363830Y-144806567D02*
X215363830Y-143949425D01*
X214697163Y-144949425D02*
X214792401Y-144901806D01*
X214792401Y-144901806D02*
X214840020Y-144854186D01*
X214840020Y-144854186D02*
X214887639Y-144758948D01*
X214887639Y-144758948D02*
X214887639Y-144473234D01*
X214887639Y-144473234D02*
X214840020Y-144377996D01*
X214840020Y-144377996D02*
X214792401Y-144330377D01*
X214792401Y-144330377D02*
X214697163Y-144282758D01*
X214697163Y-144282758D02*
X214554306Y-144282758D01*
X214554306Y-144282758D02*
X214459068Y-144330377D01*
X214459068Y-144330377D02*
X214411449Y-144377996D01*
X214411449Y-144377996D02*
X214363830Y-144473234D01*
X214363830Y-144473234D02*
X214363830Y-144758948D01*
X214363830Y-144758948D02*
X214411449Y-144854186D01*
X214411449Y-144854186D02*
X214459068Y-144901806D01*
X214459068Y-144901806D02*
X214554306Y-144949425D01*
X214554306Y-144949425D02*
X214697163Y-144949425D01*
X213506687Y-144282758D02*
X213506687Y-145092282D01*
X213506687Y-145092282D02*
X213554306Y-145187520D01*
X213554306Y-145187520D02*
X213601925Y-145235139D01*
X213601925Y-145235139D02*
X213697163Y-145282758D01*
X213697163Y-145282758D02*
X213840020Y-145282758D01*
X213840020Y-145282758D02*
X213935258Y-145235139D01*
X213506687Y-144901806D02*
X213601925Y-144949425D01*
X213601925Y-144949425D02*
X213792401Y-144949425D01*
X213792401Y-144949425D02*
X213887639Y-144901806D01*
X213887639Y-144901806D02*
X213935258Y-144854186D01*
X213935258Y-144854186D02*
X213982877Y-144758948D01*
X213982877Y-144758948D02*
X213982877Y-144473234D01*
X213982877Y-144473234D02*
X213935258Y-144377996D01*
X213935258Y-144377996D02*
X213887639Y-144330377D01*
X213887639Y-144330377D02*
X213792401Y-144282758D01*
X213792401Y-144282758D02*
X213601925Y-144282758D01*
X213601925Y-144282758D02*
X213506687Y-144330377D01*
X213030496Y-144854186D02*
X212982877Y-144901806D01*
X212982877Y-144901806D02*
X213030496Y-144949425D01*
X213030496Y-144949425D02*
X213078115Y-144901806D01*
X213078115Y-144901806D02*
X213030496Y-144854186D01*
X213030496Y-144854186D02*
X213030496Y-144949425D01*
X212554306Y-144949425D02*
X212554306Y-144282758D01*
X212554306Y-143949425D02*
X212601925Y-143997044D01*
X212601925Y-143997044D02*
X212554306Y-144044663D01*
X212554306Y-144044663D02*
X212506687Y-143997044D01*
X212506687Y-143997044D02*
X212554306Y-143949425D01*
X212554306Y-143949425D02*
X212554306Y-144044663D01*
X212078116Y-144949425D02*
X212078116Y-144282758D01*
X212078116Y-144377996D02*
X212030497Y-144330377D01*
X212030497Y-144330377D02*
X211935259Y-144282758D01*
X211935259Y-144282758D02*
X211792402Y-144282758D01*
X211792402Y-144282758D02*
X211697164Y-144330377D01*
X211697164Y-144330377D02*
X211649545Y-144425615D01*
X211649545Y-144425615D02*
X211649545Y-144949425D01*
X211649545Y-144425615D02*
X211601926Y-144330377D01*
X211601926Y-144330377D02*
X211506688Y-144282758D01*
X211506688Y-144282758D02*
X211363831Y-144282758D01*
X211363831Y-144282758D02*
X211268592Y-144330377D01*
X211268592Y-144330377D02*
X211220973Y-144425615D01*
X211220973Y-144425615D02*
X211220973Y-144949425D01*
X210601926Y-144949425D02*
X210697164Y-144901806D01*
X210697164Y-144901806D02*
X210744783Y-144854186D01*
X210744783Y-144854186D02*
X210792402Y-144758948D01*
X210792402Y-144758948D02*
X210792402Y-144473234D01*
X210792402Y-144473234D02*
X210744783Y-144377996D01*
X210744783Y-144377996D02*
X210697164Y-144330377D01*
X210697164Y-144330377D02*
X210601926Y-144282758D01*
X210601926Y-144282758D02*
X210459069Y-144282758D01*
X210459069Y-144282758D02*
X210363831Y-144330377D01*
X210363831Y-144330377D02*
X210316212Y-144377996D01*
X210316212Y-144377996D02*
X210268593Y-144473234D01*
X210268593Y-144473234D02*
X210268593Y-144758948D01*
X210268593Y-144758948D02*
X210316212Y-144854186D01*
X210316212Y-144854186D02*
X210363831Y-144901806D01*
X210363831Y-144901806D02*
X210459069Y-144949425D01*
X210459069Y-144949425D02*
X210601926Y-144949425D01*
X209411450Y-144901806D02*
X209506688Y-144949425D01*
X209506688Y-144949425D02*
X209697164Y-144949425D01*
X209697164Y-144949425D02*
X209792402Y-144901806D01*
X209792402Y-144901806D02*
X209840021Y-144854186D01*
X209840021Y-144854186D02*
X209887640Y-144758948D01*
X209887640Y-144758948D02*
X209887640Y-144473234D01*
X209887640Y-144473234D02*
X209840021Y-144377996D01*
X209840021Y-144377996D02*
X209792402Y-144330377D01*
X209792402Y-144330377D02*
X209697164Y-144282758D01*
X209697164Y-144282758D02*
X209506688Y-144282758D01*
X209506688Y-144282758D02*
X209411450Y-144330377D01*
X208982878Y-144949425D02*
X208982878Y-143949425D01*
X208554307Y-144949425D02*
X208554307Y-144425615D01*
X208554307Y-144425615D02*
X208601926Y-144330377D01*
X208601926Y-144330377D02*
X208697164Y-144282758D01*
X208697164Y-144282758D02*
X208840021Y-144282758D01*
X208840021Y-144282758D02*
X208935259Y-144330377D01*
X208935259Y-144330377D02*
X208982878Y-144377996D01*
X207935259Y-144949425D02*
X208030497Y-144901806D01*
X208030497Y-144901806D02*
X208078116Y-144854186D01*
X208078116Y-144854186D02*
X208125735Y-144758948D01*
X208125735Y-144758948D02*
X208125735Y-144473234D01*
X208125735Y-144473234D02*
X208078116Y-144377996D01*
X208078116Y-144377996D02*
X208030497Y-144330377D01*
X208030497Y-144330377D02*
X207935259Y-144282758D01*
X207935259Y-144282758D02*
X207792402Y-144282758D01*
X207792402Y-144282758D02*
X207697164Y-144330377D01*
X207697164Y-144330377D02*
X207649545Y-144377996D01*
X207649545Y-144377996D02*
X207601926Y-144473234D01*
X207601926Y-144473234D02*
X207601926Y-144758948D01*
X207601926Y-144758948D02*
X207649545Y-144854186D01*
X207649545Y-144854186D02*
X207697164Y-144901806D01*
X207697164Y-144901806D02*
X207792402Y-144949425D01*
X207792402Y-144949425D02*
X207935259Y-144949425D01*
X206744783Y-144949425D02*
X206744783Y-144425615D01*
X206744783Y-144425615D02*
X206792402Y-144330377D01*
X206792402Y-144330377D02*
X206887640Y-144282758D01*
X206887640Y-144282758D02*
X207078116Y-144282758D01*
X207078116Y-144282758D02*
X207173354Y-144330377D01*
X206744783Y-144901806D02*
X206840021Y-144949425D01*
X206840021Y-144949425D02*
X207078116Y-144949425D01*
X207078116Y-144949425D02*
X207173354Y-144901806D01*
X207173354Y-144901806D02*
X207220973Y-144806567D01*
X207220973Y-144806567D02*
X207220973Y-144711329D01*
X207220973Y-144711329D02*
X207173354Y-144616091D01*
X207173354Y-144616091D02*
X207078116Y-144568472D01*
X207078116Y-144568472D02*
X206840021Y-144568472D01*
X206840021Y-144568472D02*
X206744783Y-144520853D01*
X206268592Y-144854186D02*
X206220973Y-144901806D01*
X206220973Y-144901806D02*
X206268592Y-144949425D01*
X206268592Y-144949425D02*
X206316211Y-144901806D01*
X206316211Y-144901806D02*
X206268592Y-144854186D01*
X206268592Y-144854186D02*
X206268592Y-144949425D01*
X205363831Y-144901806D02*
X205459069Y-144949425D01*
X205459069Y-144949425D02*
X205649545Y-144949425D01*
X205649545Y-144949425D02*
X205744783Y-144901806D01*
X205744783Y-144901806D02*
X205792402Y-144854186D01*
X205792402Y-144854186D02*
X205840021Y-144758948D01*
X205840021Y-144758948D02*
X205840021Y-144473234D01*
X205840021Y-144473234D02*
X205792402Y-144377996D01*
X205792402Y-144377996D02*
X205744783Y-144330377D01*
X205744783Y-144330377D02*
X205649545Y-144282758D01*
X205649545Y-144282758D02*
X205459069Y-144282758D01*
X205459069Y-144282758D02*
X205363831Y-144330377D01*
X204792402Y-144949425D02*
X204887640Y-144901806D01*
X204887640Y-144901806D02*
X204935259Y-144854186D01*
X204935259Y-144854186D02*
X204982878Y-144758948D01*
X204982878Y-144758948D02*
X204982878Y-144473234D01*
X204982878Y-144473234D02*
X204935259Y-144377996D01*
X204935259Y-144377996D02*
X204887640Y-144330377D01*
X204887640Y-144330377D02*
X204792402Y-144282758D01*
X204792402Y-144282758D02*
X204649545Y-144282758D01*
X204649545Y-144282758D02*
X204554307Y-144330377D01*
X204554307Y-144330377D02*
X204506688Y-144377996D01*
X204506688Y-144377996D02*
X204459069Y-144473234D01*
X204459069Y-144473234D02*
X204459069Y-144758948D01*
X204459069Y-144758948D02*
X204506688Y-144854186D01*
X204506688Y-144854186D02*
X204554307Y-144901806D01*
X204554307Y-144901806D02*
X204649545Y-144949425D01*
X204649545Y-144949425D02*
X204792402Y-144949425D01*
X204030497Y-144949425D02*
X204030497Y-144282758D01*
X204030497Y-144377996D02*
X203982878Y-144330377D01*
X203982878Y-144330377D02*
X203887640Y-144282758D01*
X203887640Y-144282758D02*
X203744783Y-144282758D01*
X203744783Y-144282758D02*
X203649545Y-144330377D01*
X203649545Y-144330377D02*
X203601926Y-144425615D01*
X203601926Y-144425615D02*
X203601926Y-144949425D01*
X203601926Y-144425615D02*
X203554307Y-144330377D01*
X203554307Y-144330377D02*
X203459069Y-144282758D01*
X203459069Y-144282758D02*
X203316212Y-144282758D01*
X203316212Y-144282758D02*
X203220973Y-144330377D01*
X203220973Y-144330377D02*
X203173354Y-144425615D01*
X203173354Y-144425615D02*
X203173354Y-144949425D01*
D11*
G36*
X182811341Y-141304908D02*
G01*
X182974606Y-141368995D01*
X183132020Y-141445009D01*
X183285541Y-141529025D01*
X183431847Y-141624490D01*
X183582393Y-141712760D01*
X183747370Y-141771261D01*
X183918913Y-141805130D01*
X184092920Y-141822407D01*
X184267535Y-141829133D01*
X184750272Y-142587872D01*
X184343577Y-141831247D01*
X184517974Y-141844888D01*
X184689492Y-141878011D01*
X184856155Y-141931379D01*
X185017005Y-141999406D01*
X185158104Y-142101720D01*
X185268721Y-142237767D01*
X185360832Y-142385804D01*
X185446671Y-142538835D01*
X185531302Y-142691717D01*
X185620323Y-142842489D01*
X185723383Y-142983551D01*
X185856761Y-143095817D01*
X186012041Y-143176801D01*
X186171669Y-143249028D01*
X186329835Y-143323682D01*
X186484593Y-143405000D01*
X186628929Y-143503846D01*
X186742959Y-143635477D01*
X186822732Y-143791083D01*
X186882846Y-143955359D01*
X186929103Y-144124208D01*
X186963228Y-144295520D01*
X187017349Y-144461825D01*
X187097011Y-144617327D01*
X187201981Y-144757090D01*
X187327848Y-144878387D01*
X187467210Y-144983737D01*
X187612444Y-145082452D01*
X187754501Y-145182218D01*
X187879909Y-145305014D01*
X187988068Y-145441420D01*
X188043910Y-145606274D01*
X188068984Y-145779829D01*
X188085789Y-145953999D01*
X188100174Y-146128452D01*
X188113883Y-146302994D01*
X188140539Y-146475345D01*
X188203913Y-146638339D01*
X188305721Y-146780241D01*
X188427890Y-146905101D01*
X188558430Y-147022034D01*
X188685686Y-147141707D01*
X188801052Y-147273181D01*
X188887649Y-147424432D01*
X188929559Y-147594253D01*
X188935755Y-147768818D01*
X188924631Y-147943292D01*
X188907844Y-148117960D01*
X188898788Y-148292459D01*
X188908371Y-148466681D01*
X188952426Y-148635967D01*
X189034924Y-148790197D01*
X189140239Y-148929312D01*
X189255102Y-149061445D01*
X189366051Y-149196736D01*
X189469631Y-149337834D01*
X189532614Y-149500222D01*
X189556403Y-149673725D01*
X189554578Y-149848383D01*
X189534604Y-150022135D01*
X189500925Y-150193606D01*
X189468021Y-150365995D01*
X189452123Y-150540145D01*
X189472421Y-150713166D01*
X189536613Y-150875821D01*
X189625684Y-151026092D01*
X189722852Y-151171569D01*
X189816067Y-151319410D01*
X189898538Y-151474040D01*
X189955682Y-151638726D01*
X189969724Y-151812687D01*
X189942783Y-151985655D01*
X189893957Y-152153577D01*
X189835949Y-152318914D01*
X189779606Y-152484203D01*
X189734249Y-152653107D01*
X189715816Y-152826676D01*
X189745858Y-152998330D01*
X189816935Y-153158355D01*
X189898761Y-153313072D01*
X189968456Y-153473785D01*
X190027004Y-153638199D01*
X190073584Y-153807270D01*
X190094290Y-153980118D01*
X190058049Y-154151252D01*
X190001389Y-154316509D01*
X189933319Y-154477955D01*
X189856126Y-154634653D01*
X189774703Y-154789769D01*
X189707771Y-154950790D01*
X189722484Y-155122572D01*
X189768725Y-155291296D01*
X189821638Y-155458057D01*
X189874978Y-155624814D01*
X189921095Y-155793877D01*
X189951102Y-155965912D01*
X189950785Y-156140517D01*
X189910826Y-156310913D01*
X189841091Y-156470878D01*
X189755632Y-156623620D01*
X189663203Y-156772071D01*
X189567647Y-156918912D01*
X189480781Y-157070393D01*
X189432826Y-157238098D01*
X189438362Y-157412720D01*
X189464178Y-157585590D01*
X189494054Y-157757920D01*
X189521248Y-157930828D01*
X189539824Y-158105110D01*
X189538235Y-158279550D01*
X189497851Y-158449265D01*
X189414111Y-158602818D01*
X189306348Y-158740379D01*
X189189316Y-158870089D01*
X189070016Y-158998263D01*
X188958908Y-159133203D01*
X188871496Y-159284308D01*
X188823396Y-159452461D01*
X188802078Y-159626342D01*
X188788822Y-159800561D01*
X188765377Y-159973864D01*
X188728485Y-160145311D01*
X188676179Y-160311822D01*
X188600572Y-160469245D01*
X188478509Y-160592723D01*
X188323184Y-160673430D01*
X188157136Y-160726931D01*
X187986140Y-160763801D01*
X187812656Y-160789933D01*
X187639459Y-160813335D01*
X187466960Y-160844066D01*
X187303679Y-160904962D01*
X187156368Y-160999009D01*
X187014367Y-161101580D01*
X186872393Y-161203248D01*
X186726325Y-161299544D01*
X186572842Y-161383942D01*
X186408808Y-161445046D01*
X186237238Y-161476873D01*
X186062759Y-161485174D01*
X185893778Y-161441606D01*
X185731122Y-161376267D01*
X185570043Y-161307691D01*
X185408829Y-161240777D01*
X185243364Y-161183628D01*
X185070266Y-161162275D01*
X184897791Y-161188479D01*
X184728483Y-161234197D01*
X184560819Y-161283851D01*
X184392589Y-161330528D01*
X184222219Y-161371851D01*
X184049886Y-161402698D01*
X183876482Y-161394747D01*
X183716428Y-161324484D01*
X183562295Y-161242075D01*
X183410874Y-161154355D01*
X183261693Y-161063404D01*
X183115075Y-160967773D01*
X182964548Y-160878201D01*
X182800799Y-160819155D01*
X182626475Y-160820744D01*
X182455014Y-160855369D01*
X182284796Y-160896747D01*
X182114430Y-160936074D01*
X181942249Y-160967455D01*
X181767959Y-160971913D01*
X181600418Y-160923721D01*
X181442900Y-160847323D01*
X181296203Y-160751429D01*
X181158705Y-160643358D01*
X181028077Y-160527509D01*
X180893579Y-160415735D01*
X180743237Y-160326227D01*
X180573894Y-160287694D01*
X180398943Y-160297172D01*
X180227208Y-160327760D01*
X180055391Y-160363697D01*
X179882321Y-160388718D01*
X179707866Y-160391194D01*
X179536500Y-160358416D01*
X179376309Y-160288576D01*
X179229302Y-160193392D01*
X179092338Y-160084894D01*
X178960709Y-159969012D01*
X178828843Y-159853744D01*
X178690238Y-159747499D01*
X178534877Y-159670859D01*
X178360279Y-159660987D01*
X178185429Y-159667803D01*
X178011431Y-159682714D01*
X177836673Y-159693984D01*
X177661564Y-159696762D01*
X177487177Y-159682802D01*
X177322886Y-159623827D01*
X177171298Y-159537540D01*
X177028671Y-159435986D01*
X176894051Y-159324050D01*
X176766887Y-159204068D01*
X176639854Y-159083547D01*
X176494316Y-158987633D01*
X176327932Y-158935719D01*
X176153319Y-158922341D01*
X175978771Y-158928503D01*
X175803720Y-158934602D01*
X175628730Y-158929321D01*
X175454953Y-158911106D01*
X175283644Y-158876417D01*
X175119161Y-158817108D01*
X174975043Y-158718150D01*
X174841507Y-158605301D01*
X174713719Y-158485133D01*
X174583330Y-158369307D01*
X174434833Y-158277103D01*
X174272905Y-158211178D01*
X174107107Y-158154358D01*
X173936028Y-158117876D01*
X173761462Y-158112419D01*
X173586397Y-158116804D01*
X173411600Y-158109038D01*
X173238611Y-158086409D01*
X173069001Y-158043478D01*
X172911604Y-157968956D01*
X172782178Y-157851073D01*
X172661823Y-157724469D01*
X172542627Y-157595939D01*
X172422132Y-157469491D01*
X172288701Y-157356391D01*
X172130769Y-157281717D01*
X171965769Y-157223311D01*
X171797768Y-157174788D01*
X171626145Y-157142098D01*
X171451983Y-157125931D01*
X171277570Y-157107101D01*
X171106549Y-157071949D01*
X170940624Y-157015713D01*
X170787613Y-156932223D01*
X170661768Y-156811709D01*
X170556319Y-156671771D01*
X170458715Y-156526562D01*
X170363634Y-156379884D01*
X170263509Y-156236300D01*
X170149325Y-156103832D01*
X170006302Y-156004007D01*
X169844014Y-155939766D01*
X169676361Y-155889346D01*
X169506410Y-155846344D01*
X169334899Y-155812221D01*
X169165211Y-155771530D01*
X169006122Y-155698891D01*
X168877596Y-155582015D01*
X168782587Y-155435370D01*
X168708680Y-155276657D01*
X168645878Y-155113173D01*
X168589099Y-154947925D01*
X168535340Y-154780990D01*
X168470387Y-154619420D01*
X168364815Y-154479869D01*
X168240581Y-154356773D01*
X168108738Y-154241696D01*
X167978778Y-154124399D01*
X167858901Y-153997265D01*
X167750460Y-153860347D01*
X167656727Y-153712316D01*
X167587203Y-153552138D01*
X167580355Y-153379373D01*
X167587433Y-153355595D01*
X168229094Y-153355595D01*
X168230679Y-153523615D01*
X168358047Y-153643370D01*
X168491116Y-153757400D01*
X168625348Y-153869524D01*
X168757102Y-153985117D01*
X168880735Y-154108430D01*
X168989270Y-154245427D01*
X169075034Y-154398176D01*
X169138512Y-154561031D01*
X169187879Y-154728897D01*
X169229944Y-154898637D01*
X169286431Y-155063749D01*
X169379668Y-155211122D01*
X169508999Y-155326404D01*
X169677676Y-155370777D01*
X169849826Y-155402323D01*
X170021565Y-155437693D01*
X170191195Y-155481219D01*
X170356068Y-155538489D01*
X170511914Y-155617336D01*
X170651573Y-155722824D01*
X170770804Y-155850258D01*
X170874591Y-155991891D01*
X170968977Y-156138634D01*
X171066397Y-156284373D01*
X171172350Y-156423443D01*
X171301123Y-156541326D01*
X171467757Y-156587649D01*
X171642298Y-156600676D01*
X171817155Y-156605267D01*
X171991477Y-156613281D01*
X172164801Y-156638517D01*
X172333004Y-156686288D01*
X172497498Y-156745974D01*
X172652972Y-156825567D01*
X172786278Y-156938595D01*
X172906134Y-157065772D01*
X173022308Y-157196944D01*
X173137483Y-157328453D01*
X173253561Y-157411026D01*
X173317200Y-157248277D01*
X173379758Y-157084664D01*
X173441903Y-156921049D01*
X173503933Y-156757144D01*
X173565649Y-156593677D01*
X173627515Y-156429529D01*
X173689143Y-156265794D01*
X173750534Y-156102512D01*
X173812165Y-155938446D01*
X173873716Y-155774466D01*
X173935129Y-155610747D01*
X173996617Y-155446734D01*
X174057909Y-155283157D01*
X174119343Y-155119124D01*
X174180728Y-154955152D01*
X174242089Y-154791181D01*
X174303152Y-154627140D01*
X174364082Y-154463367D01*
X174425206Y-154299231D01*
X174486381Y-154135110D01*
X174547459Y-153971395D01*
X174608673Y-153807456D01*
X174670038Y-153643254D01*
X174731171Y-153479815D01*
X174792601Y-153315720D01*
X174854062Y-153151687D01*
X174915431Y-152988047D01*
X174976865Y-152824385D01*
X175038404Y-152660606D01*
X175100244Y-152496205D01*
X175161891Y-152332514D01*
X175223440Y-152169311D01*
X175285387Y-152005339D01*
X175347398Y-151841575D01*
X175409494Y-151678189D01*
X175472260Y-151514455D01*
X175535390Y-151351422D01*
X175598502Y-151188140D01*
X175661525Y-151024994D01*
X175724594Y-150861907D01*
X175787915Y-150698548D01*
X175847808Y-150533993D01*
X175975616Y-150510828D01*
X176141525Y-150566608D01*
X176307207Y-150622311D01*
X176473324Y-150678161D01*
X176638872Y-150733820D01*
X176804999Y-150789673D01*
X176970473Y-150845755D01*
X177136521Y-150902045D01*
X177301844Y-150958091D01*
X177468081Y-151014449D01*
X177633395Y-151070494D01*
X177799437Y-151126786D01*
X177965130Y-151182955D01*
X178130749Y-151239092D01*
X178296518Y-151295267D01*
X178462064Y-151351346D01*
X178627938Y-151407505D01*
X178793731Y-151463584D01*
X178959790Y-151519669D01*
X179125224Y-151575410D01*
X179291571Y-151631246D01*
X179457446Y-151686607D01*
X179623564Y-151741649D01*
X179790005Y-151796402D01*
X179956049Y-151851263D01*
X180121955Y-151906389D01*
X180288143Y-151961767D01*
X180454129Y-152017177D01*
X180619737Y-152072532D01*
X180785616Y-152128033D01*
X180952047Y-152183763D01*
X181117657Y-152239256D01*
X181283744Y-152294941D01*
X181449486Y-152350539D01*
X181615308Y-152406191D01*
X181781163Y-152462046D01*
X181946884Y-152518258D01*
X182112875Y-152574312D01*
X182278836Y-152630141D01*
X182444611Y-152685719D01*
X182610688Y-152741230D01*
X182776865Y-152796619D01*
X182942746Y-152851765D01*
X183108740Y-152906812D01*
X183275106Y-152961848D01*
X183441451Y-153016740D01*
X183607269Y-153071313D01*
X183773831Y-153125958D01*
X183939990Y-153179921D01*
X184106859Y-153233829D01*
X184272967Y-153289140D01*
X184438157Y-153346454D01*
X184601177Y-153408751D01*
X184593431Y-153560193D01*
X184539115Y-153726379D01*
X184483556Y-153892580D01*
X184427601Y-154058143D01*
X184371156Y-154224002D01*
X184314517Y-154389609D01*
X184257712Y-154555068D01*
X184200718Y-154720567D01*
X184143715Y-154885660D01*
X184086421Y-155051220D01*
X184028958Y-155216936D01*
X183971671Y-155381846D01*
X183914102Y-155547290D01*
X183856278Y-155712686D01*
X183798452Y-155877191D01*
X183740365Y-156042506D01*
X183682262Y-156207940D01*
X183624409Y-156372735D01*
X183566409Y-156538029D01*
X183508525Y-156703079D01*
X183450587Y-156868381D01*
X183392858Y-157033196D01*
X183335008Y-157198486D01*
X183277207Y-157363800D01*
X183219403Y-157529345D01*
X183162002Y-157694068D01*
X183104564Y-157859543D01*
X183048925Y-158025596D01*
X182992839Y-158191247D01*
X182934931Y-158356693D01*
X182876567Y-158521759D01*
X182818172Y-158686069D01*
X182759220Y-158851457D01*
X182700579Y-159015689D01*
X182641564Y-159180817D01*
X182582913Y-159345861D01*
X182524532Y-159510940D01*
X182466693Y-159675883D01*
X182409761Y-159841019D01*
X182354537Y-160007544D01*
X182305579Y-160175131D01*
X182316370Y-160343310D01*
X182480241Y-160339767D01*
X182653238Y-160312405D01*
X182827009Y-160295134D01*
X183001737Y-160303673D01*
X183171020Y-160347287D01*
X183330168Y-160419022D01*
X183480910Y-160507913D01*
X183625676Y-160606127D01*
X183768384Y-160707605D01*
X183915504Y-160802686D01*
X184071565Y-160880985D01*
X184242588Y-160850641D01*
X184409517Y-160797296D01*
X184573314Y-160736406D01*
X184737893Y-160677634D01*
X184906628Y-160631258D01*
X185080097Y-160607491D01*
X185254472Y-160615370D01*
X185425251Y-160653189D01*
X185590367Y-160711060D01*
X185750916Y-160780159D01*
X185909098Y-160855519D01*
X186067528Y-160929154D01*
X186237671Y-160962420D01*
X186398916Y-160899213D01*
X186541800Y-160798115D01*
X186679439Y-160689848D01*
X186818086Y-160583113D01*
X186960977Y-160482094D01*
X187113784Y-160397939D01*
X187283643Y-160356269D01*
X187456222Y-160326887D01*
X187629481Y-160304920D01*
X187803475Y-160285676D01*
X187976819Y-160260377D01*
X188120398Y-160173371D01*
X188169826Y-160006364D01*
X188184502Y-159832188D01*
X188186150Y-159657552D01*
X188199984Y-159483125D01*
X188234909Y-159311763D01*
X188296480Y-159147727D01*
X188383176Y-158995957D01*
X188488297Y-158856370D01*
X188604949Y-158726224D01*
X188727648Y-158601530D01*
X188846997Y-158473375D01*
X188937106Y-158324562D01*
X188944445Y-158151488D01*
X188908471Y-157980008D01*
X188865631Y-157810401D01*
X188827200Y-157639759D01*
X188799096Y-157467201D01*
X188789822Y-157292596D01*
X188810862Y-157119343D01*
X188867777Y-156954193D01*
X188952623Y-156801250D01*
X189053591Y-156657988D01*
X189161908Y-156520343D01*
X189266193Y-156379969D01*
X189342096Y-156223173D01*
X189342136Y-156049659D01*
X189293382Y-155882218D01*
X189231222Y-155718306D01*
X189167236Y-155555772D01*
X189111210Y-155389489D01*
X189074530Y-155218778D01*
X189071476Y-155043882D01*
X189107126Y-154873216D01*
X189169916Y-154710161D01*
X189247123Y-154552789D01*
X189330140Y-154398958D01*
X189409349Y-154242508D01*
X189478552Y-154082373D01*
X189456605Y-153914024D01*
X189391454Y-153751687D01*
X189319660Y-153591675D01*
X189243975Y-153434196D01*
X189169160Y-153275842D01*
X189102137Y-153113926D01*
X189067738Y-152943327D01*
X189076352Y-152768952D01*
X189110411Y-152597439D01*
X189170593Y-152433001D01*
X189240953Y-152272661D01*
X189306960Y-152110933D01*
X189350086Y-151941359D01*
X189328829Y-151769405D01*
X189248833Y-151614382D01*
X189149876Y-151469637D01*
X189049433Y-151326439D01*
X188956361Y-151178790D01*
X188875102Y-151023474D01*
X188815994Y-150859123D01*
X188797354Y-150685767D01*
X188821087Y-150512370D01*
X188854833Y-150340535D01*
X188896011Y-150170594D01*
X188936727Y-150000444D01*
X188958999Y-149827060D01*
X188925551Y-149656714D01*
X188833365Y-149509003D01*
X188720744Y-149374476D01*
X188605241Y-149242936D01*
X188492718Y-149109299D01*
X188385517Y-148970768D01*
X188315359Y-148811949D01*
X188286664Y-148639635D01*
X188282440Y-148464534D01*
X188295309Y-148289934D01*
X188319920Y-148116720D01*
X188340025Y-147942862D01*
X188343427Y-147768623D01*
X188276608Y-147607883D01*
X188165682Y-147472799D01*
X188035918Y-147355429D01*
X187900398Y-147245609D01*
X187773825Y-147124050D01*
X187661258Y-146990126D01*
X187567656Y-146842732D01*
X187503615Y-146680341D01*
X187482236Y-146506976D01*
X187474286Y-146332256D01*
X187474389Y-146157382D01*
X187472155Y-145982478D01*
X187442655Y-145810594D01*
X187352236Y-145661922D01*
X187221187Y-145546143D01*
X187078546Y-145444430D01*
X186934530Y-145345601D01*
X186793971Y-145241451D01*
X186658108Y-145130663D01*
X186542547Y-145000748D01*
X186463761Y-144845018D01*
X186410011Y-144678318D01*
X186374676Y-144506655D01*
X186351164Y-144333282D01*
X186314065Y-144162978D01*
X186253285Y-143999212D01*
X186134681Y-143873478D01*
X185980345Y-143791481D01*
X185822063Y-143717379D01*
X185662276Y-143644447D01*
X185504130Y-143570036D01*
X185350644Y-143486267D01*
X185213113Y-143378247D01*
X185105059Y-143241503D01*
X185017184Y-143090454D01*
X184936624Y-142934565D01*
X184757443Y-142601212D01*
X184703067Y-142518449D01*
X184560801Y-142420233D01*
X184388779Y-142390267D01*
X184214469Y-142384448D01*
X184039357Y-142382886D01*
X183864372Y-142373562D01*
X183691919Y-142347434D01*
X183524800Y-142294905D01*
X183368988Y-142215202D01*
X183224205Y-142117845D01*
X183082890Y-142014322D01*
X182938208Y-141915845D01*
X182787813Y-141826789D01*
X182633266Y-141775256D01*
X182475371Y-141850815D01*
X182317411Y-141926405D01*
X182159354Y-142001591D01*
X181999213Y-142072464D01*
X181835356Y-142133413D01*
X181665680Y-142175941D01*
X181491839Y-142190809D01*
X181317350Y-142177873D01*
X181145452Y-142146145D01*
X180975538Y-142104369D01*
X180806240Y-142059536D01*
X180634835Y-142024851D01*
X180461788Y-142035961D01*
X180309251Y-142120567D01*
X180175001Y-142232912D01*
X180044445Y-142349077D01*
X179905863Y-142455691D01*
X179759552Y-142552474D01*
X179605284Y-142634827D01*
X179439842Y-142691047D01*
X179266563Y-142713110D01*
X179091671Y-142713100D01*
X178916878Y-142703546D01*
X178742811Y-142689961D01*
X178568276Y-142677790D01*
X178397935Y-142712913D01*
X178250944Y-142807148D01*
X178126698Y-142929962D01*
X178013984Y-143064090D01*
X177900729Y-143197540D01*
X177779057Y-143323287D01*
X177643038Y-143432277D01*
X177487908Y-143513318D01*
X177320266Y-143562055D01*
X177146945Y-143587859D01*
X176972401Y-143600804D01*
X176797626Y-143607240D01*
X176623040Y-143614208D01*
X176450086Y-143640573D01*
X176301349Y-143728209D01*
X176193089Y-143865760D01*
X176098330Y-144012806D01*
X176000373Y-144157682D01*
X175893403Y-144296158D01*
X175772459Y-144422007D01*
X175632475Y-144527216D01*
X175475974Y-144604901D01*
X175309727Y-144658080D01*
X175138252Y-144694973D01*
X174965822Y-144722088D01*
X174793028Y-144749969D01*
X174621678Y-144786994D01*
X174463881Y-144855341D01*
X174368119Y-145001333D01*
X174284635Y-145155436D01*
X174206981Y-145312379D01*
X174123531Y-145465579D01*
X174026125Y-145611295D01*
X173908454Y-145740236D01*
X173767678Y-145844302D01*
X173611444Y-145921819D01*
X173446659Y-145980531D01*
X173277915Y-146027832D01*
X173108014Y-146068782D01*
X172938713Y-146113507D01*
X172784057Y-146192425D01*
X172679925Y-146332225D01*
X172607167Y-146491065D01*
X172541163Y-146653278D01*
X172474658Y-146815027D01*
X172400455Y-146973702D01*
X172311235Y-147124116D01*
X172197729Y-147256500D01*
X172058212Y-147361828D01*
X171902928Y-147442728D01*
X171741341Y-147508982D01*
X171576914Y-147568389D01*
X171414747Y-147634120D01*
X171259894Y-147715713D01*
X171139722Y-147840581D01*
X171088709Y-148007540D01*
X171053299Y-148179122D01*
X171017000Y-148350147D01*
X170970957Y-148519148D01*
X170907524Y-148681502D01*
X170816906Y-148831248D01*
X170698207Y-148959067D01*
X170559550Y-149066088D01*
X170410708Y-149158599D01*
X170257303Y-149242628D01*
X170103302Y-149325587D01*
X169951400Y-149412586D01*
X169831357Y-149533538D01*
X169790986Y-149703236D01*
X169772008Y-149876981D01*
X169761483Y-150052089D01*
X169744540Y-150226217D01*
X169707999Y-150397142D01*
X169648326Y-150561552D01*
X169560889Y-150712392D01*
X169442462Y-150840689D01*
X169309908Y-150954870D01*
X169172802Y-151063354D01*
X169032013Y-151167882D01*
X168893839Y-151275209D01*
X168774245Y-151402030D01*
X168723029Y-151567356D01*
X168725538Y-151742244D01*
X168740810Y-151916558D01*
X168756858Y-152091055D01*
X168759767Y-152265821D01*
X168724452Y-152436517D01*
X168666206Y-152601264D01*
X168595379Y-152761721D01*
X168508577Y-152913429D01*
X168406429Y-153055387D01*
X168306960Y-153199648D01*
X168229094Y-153355595D01*
X167587433Y-153355595D01*
X167630254Y-153211732D01*
X167688831Y-153046821D01*
X167750162Y-152883563D01*
X167815780Y-152720730D01*
X167885478Y-152560456D01*
X167964443Y-152404385D01*
X168034363Y-152244092D01*
X168080878Y-152075853D01*
X168095448Y-151901291D01*
X168063152Y-151730331D01*
X168026472Y-151560532D01*
X168058245Y-151388896D01*
X168118768Y-151224942D01*
X168210152Y-151076165D01*
X168327091Y-150945991D01*
X168457976Y-150829746D01*
X168595475Y-150721840D01*
X168732242Y-150613003D01*
X168860893Y-150494025D01*
X168974031Y-150360497D01*
X169062964Y-150210039D01*
X169123841Y-150046040D01*
X169161298Y-149875381D01*
X169183462Y-149701862D01*
X169197538Y-149527826D01*
X169228256Y-149355899D01*
X169318129Y-149207997D01*
X169389441Y-149048067D01*
X169507508Y-148920635D01*
X169656750Y-148829392D01*
X169811350Y-148747731D01*
X169964916Y-148664423D01*
X170110510Y-148567770D01*
X170224069Y-148435052D01*
X170316304Y-148286280D01*
X170421522Y-148146842D01*
X170490509Y-147992267D01*
X170523449Y-147820233D01*
X170578215Y-147654363D01*
X170647966Y-147494153D01*
X170729093Y-147338854D01*
X170818887Y-147188842D01*
X170958971Y-147091588D01*
X171127334Y-147045576D01*
X171292873Y-146991059D01*
X171383443Y-146844877D01*
X171530542Y-146771061D01*
X171694904Y-146711040D01*
X171857892Y-146647337D01*
X171943185Y-146502513D01*
X172013586Y-146342199D01*
X172084434Y-146182488D01*
X172162264Y-146025846D01*
X172248197Y-145872951D01*
X172349733Y-145731156D01*
X172487418Y-145625265D01*
X172651613Y-145565738D01*
X172818665Y-145513264D01*
X172982728Y-145453159D01*
X173145249Y-145387036D01*
X173304016Y-145314148D01*
X173459435Y-145233666D01*
X173596074Y-145126141D01*
X173684024Y-144975254D01*
X173772023Y-144823705D01*
X173866037Y-144676418D01*
X173963685Y-144530846D01*
X174059035Y-144384543D01*
X174159450Y-144241291D01*
X174324896Y-144192777D01*
X174497906Y-144165618D01*
X174671079Y-144142133D01*
X174844683Y-144118937D01*
X175016984Y-144088459D01*
X175184162Y-144037963D01*
X175332356Y-143945999D01*
X175450775Y-143817295D01*
X175555199Y-143676894D01*
X175664093Y-143539981D01*
X175780081Y-143409122D01*
X175905315Y-143287130D01*
X176048606Y-143188173D01*
X176218301Y-143143857D01*
X176389615Y-143110913D01*
X176562281Y-143083052D01*
X176735603Y-143056843D01*
X176908045Y-143025869D01*
X177078959Y-142988950D01*
X177244935Y-142935091D01*
X177388454Y-142835204D01*
X177521392Y-142722017D01*
X177648399Y-142601006D01*
X177767091Y-142472871D01*
X177871968Y-142332482D01*
X178016094Y-142238397D01*
X178186176Y-142196459D01*
X178358658Y-142169509D01*
X178533073Y-142152342D01*
X178707995Y-142145273D01*
X178882933Y-142150775D01*
X179057569Y-142151508D01*
X179230956Y-142127964D01*
X179392511Y-142063019D01*
X179544448Y-141975097D01*
X179684887Y-141871579D01*
X179816599Y-141755833D01*
X179958885Y-141654618D01*
X180112706Y-141572060D01*
X180277385Y-141511925D01*
X180450524Y-141494527D01*
X180624444Y-141512702D01*
X180797627Y-141539955D01*
X180969139Y-141573785D01*
X181137951Y-141617770D01*
X181305855Y-141666113D01*
X181479036Y-141654802D01*
X181631896Y-141571658D01*
X181786757Y-141490083D01*
X181957373Y-141452642D01*
X182123527Y-141397727D01*
X182293245Y-141362391D01*
X182466257Y-141336760D01*
X182638130Y-141303719D01*
X182811341Y-141304908D01*
G37*
G36*
X185945944Y-149193455D02*
G01*
X186112041Y-149246329D01*
X186251489Y-149350434D01*
X186351766Y-149493554D01*
X186410416Y-149657678D01*
X186410669Y-149831811D01*
X186348057Y-149994406D01*
X186239510Y-150130643D01*
X186097749Y-150231912D01*
X185932894Y-150290319D01*
X185759512Y-150303774D01*
X185586918Y-150274230D01*
X185429310Y-150200812D01*
X185307116Y-150077188D01*
X185221192Y-149925011D01*
X185191339Y-149753815D01*
X185229450Y-149583767D01*
X185310977Y-149429439D01*
X185435654Y-149308279D01*
X185592509Y-149231254D01*
X185762683Y-149193100D01*
X185945944Y-149193455D01*
G37*
G36*
X177864117Y-146499914D02*
G01*
X178015860Y-146586047D01*
X178127891Y-146720054D01*
X178187475Y-146882769D01*
X178179685Y-147057065D01*
X178129369Y-147224261D01*
X178026867Y-147364541D01*
X177887672Y-147469532D01*
X177725384Y-147532604D01*
X177551309Y-147550067D01*
X177379255Y-147522703D01*
X177219462Y-147451397D01*
X177087431Y-147338527D01*
X176997666Y-147188716D01*
X176975521Y-147017681D01*
X177021549Y-146848783D01*
X177089776Y-146687726D01*
X177212213Y-146566301D01*
X177367889Y-146485963D01*
X177864117Y-146499914D01*
G37*
G36*
X180957478Y-148673743D02*
G01*
X180976169Y-148845303D01*
X180966902Y-149019207D01*
X181019200Y-149185155D01*
X181118510Y-149329218D01*
X181246244Y-149448159D01*
X181409071Y-149506007D01*
X181583314Y-149509118D01*
X181748819Y-149455345D01*
X181880827Y-149342078D01*
X181982449Y-149199483D01*
X182103977Y-149075486D01*
X182308566Y-149088902D01*
X182381655Y-149232643D01*
X182309332Y-149390789D01*
X182202080Y-149528937D01*
X182076489Y-149650366D01*
X181933504Y-149751091D01*
X181772838Y-149819817D01*
X181604124Y-149865705D01*
X181429727Y-149870680D01*
X181259223Y-149833841D01*
X181093993Y-149776274D01*
X180934363Y-149703618D01*
X180790493Y-149605570D01*
X180675955Y-149473441D01*
X180595271Y-149318694D01*
X180549627Y-149150202D01*
X180541867Y-148975658D01*
X180571516Y-148803571D01*
X180653892Y-148651182D01*
X180813815Y-148592531D01*
X180957478Y-148673743D01*
G37*
D10*
X243226828Y-112282752D02*
X243226828Y-113282752D01*
X243226828Y-112330371D02*
X243131590Y-112282752D01*
X243131590Y-112282752D02*
X242941114Y-112282752D01*
X242941114Y-112282752D02*
X242845876Y-112330371D01*
X242845876Y-112330371D02*
X242798257Y-112377990D01*
X242798257Y-112377990D02*
X242750638Y-112473228D01*
X242750638Y-112473228D02*
X242750638Y-112758942D01*
X242750638Y-112758942D02*
X242798257Y-112854180D01*
X242798257Y-112854180D02*
X242845876Y-112901800D01*
X242845876Y-112901800D02*
X242941114Y-112949419D01*
X242941114Y-112949419D02*
X243131590Y-112949419D01*
X243131590Y-112949419D02*
X243226828Y-112901800D01*
X242322066Y-112949419D02*
X242322066Y-112282752D01*
X242322066Y-112473228D02*
X242274447Y-112377990D01*
X242274447Y-112377990D02*
X242226828Y-112330371D01*
X242226828Y-112330371D02*
X242131590Y-112282752D01*
X242131590Y-112282752D02*
X242036352Y-112282752D01*
X241560161Y-112949419D02*
X241655399Y-112901800D01*
X241655399Y-112901800D02*
X241703018Y-112854180D01*
X241703018Y-112854180D02*
X241750637Y-112758942D01*
X241750637Y-112758942D02*
X241750637Y-112473228D01*
X241750637Y-112473228D02*
X241703018Y-112377990D01*
X241703018Y-112377990D02*
X241655399Y-112330371D01*
X241655399Y-112330371D02*
X241560161Y-112282752D01*
X241560161Y-112282752D02*
X241417304Y-112282752D01*
X241417304Y-112282752D02*
X241322066Y-112330371D01*
X241322066Y-112330371D02*
X241274447Y-112377990D01*
X241274447Y-112377990D02*
X241226828Y-112473228D01*
X241226828Y-112473228D02*
X241226828Y-112758942D01*
X241226828Y-112758942D02*
X241274447Y-112854180D01*
X241274447Y-112854180D02*
X241322066Y-112901800D01*
X241322066Y-112901800D02*
X241417304Y-112949419D01*
X241417304Y-112949419D02*
X241560161Y-112949419D01*
X240798256Y-112949419D02*
X240798256Y-112282752D01*
X240798256Y-112377990D02*
X240750637Y-112330371D01*
X240750637Y-112330371D02*
X240655399Y-112282752D01*
X240655399Y-112282752D02*
X240512542Y-112282752D01*
X240512542Y-112282752D02*
X240417304Y-112330371D01*
X240417304Y-112330371D02*
X240369685Y-112425609D01*
X240369685Y-112425609D02*
X240369685Y-112949419D01*
X240369685Y-112425609D02*
X240322066Y-112330371D01*
X240322066Y-112330371D02*
X240226828Y-112282752D01*
X240226828Y-112282752D02*
X240083971Y-112282752D01*
X240083971Y-112282752D02*
X239988732Y-112330371D01*
X239988732Y-112330371D02*
X239941113Y-112425609D01*
X239941113Y-112425609D02*
X239941113Y-112949419D01*
X239464923Y-112949419D02*
X239464923Y-112282752D01*
X239464923Y-111949419D02*
X239512542Y-111997038D01*
X239512542Y-111997038D02*
X239464923Y-112044657D01*
X239464923Y-112044657D02*
X239417304Y-111997038D01*
X239417304Y-111997038D02*
X239464923Y-111949419D01*
X239464923Y-111949419D02*
X239464923Y-112044657D01*
X238560162Y-112901800D02*
X238655400Y-112949419D01*
X238655400Y-112949419D02*
X238845876Y-112949419D01*
X238845876Y-112949419D02*
X238941114Y-112901800D01*
X238941114Y-112901800D02*
X238988733Y-112854180D01*
X238988733Y-112854180D02*
X239036352Y-112758942D01*
X239036352Y-112758942D02*
X239036352Y-112473228D01*
X239036352Y-112473228D02*
X238988733Y-112377990D01*
X238988733Y-112377990D02*
X238941114Y-112330371D01*
X238941114Y-112330371D02*
X238845876Y-112282752D01*
X238845876Y-112282752D02*
X238655400Y-112282752D01*
X238655400Y-112282752D02*
X238560162Y-112330371D01*
X238131590Y-112949419D02*
X238131590Y-112282752D01*
X238131590Y-112473228D02*
X238083971Y-112377990D01*
X238083971Y-112377990D02*
X238036352Y-112330371D01*
X238036352Y-112330371D02*
X237941114Y-112282752D01*
X237941114Y-112282752D02*
X237845876Y-112282752D01*
X237369685Y-112949419D02*
X237464923Y-112901800D01*
X237464923Y-112901800D02*
X237512542Y-112854180D01*
X237512542Y-112854180D02*
X237560161Y-112758942D01*
X237560161Y-112758942D02*
X237560161Y-112473228D01*
X237560161Y-112473228D02*
X237512542Y-112377990D01*
X237512542Y-112377990D02*
X237464923Y-112330371D01*
X237464923Y-112330371D02*
X237369685Y-112282752D01*
X237369685Y-112282752D02*
X237226828Y-112282752D01*
X237226828Y-112282752D02*
X237131590Y-112330371D01*
X237131590Y-112330371D02*
X237083971Y-112377990D01*
X237083971Y-112377990D02*
X237036352Y-112473228D01*
X237036352Y-112473228D02*
X237036352Y-112758942D01*
X237036352Y-112758942D02*
X237083971Y-112854180D01*
X237083971Y-112854180D02*
X237131590Y-112901800D01*
X237131590Y-112901800D02*
X237226828Y-112949419D01*
X237226828Y-112949419D02*
X237369685Y-112949419D01*
X248203019Y-151949419D02*
X248679209Y-151949419D01*
X248679209Y-151949419D02*
X248679209Y-150949419D01*
X247869685Y-151854180D02*
X247822066Y-151901800D01*
X247822066Y-151901800D02*
X247869685Y-151949419D01*
X247869685Y-151949419D02*
X247917304Y-151901800D01*
X247917304Y-151901800D02*
X247869685Y-151854180D01*
X247869685Y-151854180D02*
X247869685Y-151949419D01*
X246679209Y-151901800D02*
X246536352Y-151949419D01*
X246536352Y-151949419D02*
X246298257Y-151949419D01*
X246298257Y-151949419D02*
X246203019Y-151901800D01*
X246203019Y-151901800D02*
X246155400Y-151854180D01*
X246155400Y-151854180D02*
X246107781Y-151758942D01*
X246107781Y-151758942D02*
X246107781Y-151663704D01*
X246107781Y-151663704D02*
X246155400Y-151568466D01*
X246155400Y-151568466D02*
X246203019Y-151520847D01*
X246203019Y-151520847D02*
X246298257Y-151473228D01*
X246298257Y-151473228D02*
X246488733Y-151425609D01*
X246488733Y-151425609D02*
X246583971Y-151377990D01*
X246583971Y-151377990D02*
X246631590Y-151330371D01*
X246631590Y-151330371D02*
X246679209Y-151235133D01*
X246679209Y-151235133D02*
X246679209Y-151139895D01*
X246679209Y-151139895D02*
X246631590Y-151044657D01*
X246631590Y-151044657D02*
X246583971Y-150997038D01*
X246583971Y-150997038D02*
X246488733Y-150949419D01*
X246488733Y-150949419D02*
X246250638Y-150949419D01*
X246250638Y-150949419D02*
X246107781Y-150997038D01*
X245679209Y-151949419D02*
X245679209Y-151282752D01*
X245679209Y-150949419D02*
X245726828Y-150997038D01*
X245726828Y-150997038D02*
X245679209Y-151044657D01*
X245679209Y-151044657D02*
X245631590Y-150997038D01*
X245631590Y-150997038D02*
X245679209Y-150949419D01*
X245679209Y-150949419D02*
X245679209Y-151044657D01*
X244774448Y-151949419D02*
X244774448Y-150949419D01*
X244774448Y-151901800D02*
X244869686Y-151949419D01*
X244869686Y-151949419D02*
X245060162Y-151949419D01*
X245060162Y-151949419D02*
X245155400Y-151901800D01*
X245155400Y-151901800D02*
X245203019Y-151854180D01*
X245203019Y-151854180D02*
X245250638Y-151758942D01*
X245250638Y-151758942D02*
X245250638Y-151473228D01*
X245250638Y-151473228D02*
X245203019Y-151377990D01*
X245203019Y-151377990D02*
X245155400Y-151330371D01*
X245155400Y-151330371D02*
X245060162Y-151282752D01*
X245060162Y-151282752D02*
X244869686Y-151282752D01*
X244869686Y-151282752D02*
X244774448Y-151330371D01*
X243917305Y-151901800D02*
X244012543Y-151949419D01*
X244012543Y-151949419D02*
X244203019Y-151949419D01*
X244203019Y-151949419D02*
X244298257Y-151901800D01*
X244298257Y-151901800D02*
X244345876Y-151806561D01*
X244345876Y-151806561D02*
X244345876Y-151425609D01*
X244345876Y-151425609D02*
X244298257Y-151330371D01*
X244298257Y-151330371D02*
X244203019Y-151282752D01*
X244203019Y-151282752D02*
X244012543Y-151282752D01*
X244012543Y-151282752D02*
X243917305Y-151330371D01*
X243917305Y-151330371D02*
X243869686Y-151425609D01*
X243869686Y-151425609D02*
X243869686Y-151520847D01*
X243869686Y-151520847D02*
X244345876Y-151616085D01*
X242679209Y-151568466D02*
X241917305Y-151568466D01*
X240393495Y-150949419D02*
X240393495Y-151663704D01*
X240393495Y-151663704D02*
X240441114Y-151806561D01*
X240441114Y-151806561D02*
X240536352Y-151901800D01*
X240536352Y-151901800D02*
X240679209Y-151949419D01*
X240679209Y-151949419D02*
X240774447Y-151949419D01*
X239488733Y-151282752D02*
X239488733Y-151949419D01*
X239917304Y-151282752D02*
X239917304Y-151806561D01*
X239917304Y-151806561D02*
X239869685Y-151901800D01*
X239869685Y-151901800D02*
X239774447Y-151949419D01*
X239774447Y-151949419D02*
X239631590Y-151949419D01*
X239631590Y-151949419D02*
X239536352Y-151901800D01*
X239536352Y-151901800D02*
X239488733Y-151854180D01*
X239012542Y-151949419D02*
X239012542Y-151282752D01*
X239012542Y-151377990D02*
X238964923Y-151330371D01*
X238964923Y-151330371D02*
X238869685Y-151282752D01*
X238869685Y-151282752D02*
X238726828Y-151282752D01*
X238726828Y-151282752D02*
X238631590Y-151330371D01*
X238631590Y-151330371D02*
X238583971Y-151425609D01*
X238583971Y-151425609D02*
X238583971Y-151949419D01*
X238583971Y-151425609D02*
X238536352Y-151330371D01*
X238536352Y-151330371D02*
X238441114Y-151282752D01*
X238441114Y-151282752D02*
X238298257Y-151282752D01*
X238298257Y-151282752D02*
X238203018Y-151330371D01*
X238203018Y-151330371D02*
X238155399Y-151425609D01*
X238155399Y-151425609D02*
X238155399Y-151949419D01*
X237679209Y-151282752D02*
X237679209Y-152282752D01*
X237679209Y-151330371D02*
X237583971Y-151282752D01*
X237583971Y-151282752D02*
X237393495Y-151282752D01*
X237393495Y-151282752D02*
X237298257Y-151330371D01*
X237298257Y-151330371D02*
X237250638Y-151377990D01*
X237250638Y-151377990D02*
X237203019Y-151473228D01*
X237203019Y-151473228D02*
X237203019Y-151758942D01*
X237203019Y-151758942D02*
X237250638Y-151854180D01*
X237250638Y-151854180D02*
X237298257Y-151901800D01*
X237298257Y-151901800D02*
X237393495Y-151949419D01*
X237393495Y-151949419D02*
X237583971Y-151949419D01*
X237583971Y-151949419D02*
X237679209Y-151901800D01*
X236393495Y-151901800D02*
X236488733Y-151949419D01*
X236488733Y-151949419D02*
X236679209Y-151949419D01*
X236679209Y-151949419D02*
X236774447Y-151901800D01*
X236774447Y-151901800D02*
X236822066Y-151806561D01*
X236822066Y-151806561D02*
X236822066Y-151425609D01*
X236822066Y-151425609D02*
X236774447Y-151330371D01*
X236774447Y-151330371D02*
X236679209Y-151282752D01*
X236679209Y-151282752D02*
X236488733Y-151282752D01*
X236488733Y-151282752D02*
X236393495Y-151330371D01*
X236393495Y-151330371D02*
X236345876Y-151425609D01*
X236345876Y-151425609D02*
X236345876Y-151520847D01*
X236345876Y-151520847D02*
X236822066Y-151616085D01*
X235917304Y-151949419D02*
X235917304Y-151282752D01*
X235917304Y-151473228D02*
X235869685Y-151377990D01*
X235869685Y-151377990D02*
X235822066Y-151330371D01*
X235822066Y-151330371D02*
X235726828Y-151282752D01*
X235726828Y-151282752D02*
X235631590Y-151282752D01*
X234536351Y-151949419D02*
X234536351Y-150949419D01*
X234536351Y-151425609D02*
X233964923Y-151425609D01*
X233964923Y-151949419D02*
X233964923Y-150949419D01*
X233107780Y-151901800D02*
X233203018Y-151949419D01*
X233203018Y-151949419D02*
X233393494Y-151949419D01*
X233393494Y-151949419D02*
X233488732Y-151901800D01*
X233488732Y-151901800D02*
X233536351Y-151806561D01*
X233536351Y-151806561D02*
X233536351Y-151425609D01*
X233536351Y-151425609D02*
X233488732Y-151330371D01*
X233488732Y-151330371D02*
X233393494Y-151282752D01*
X233393494Y-151282752D02*
X233203018Y-151282752D01*
X233203018Y-151282752D02*
X233107780Y-151330371D01*
X233107780Y-151330371D02*
X233060161Y-151425609D01*
X233060161Y-151425609D02*
X233060161Y-151520847D01*
X233060161Y-151520847D02*
X233536351Y-151616085D01*
X232631589Y-151949419D02*
X232631589Y-151282752D01*
X232631589Y-151473228D02*
X232583970Y-151377990D01*
X232583970Y-151377990D02*
X232536351Y-151330371D01*
X232536351Y-151330371D02*
X232441113Y-151282752D01*
X232441113Y-151282752D02*
X232345875Y-151282752D01*
X231631589Y-151901800D02*
X231726827Y-151949419D01*
X231726827Y-151949419D02*
X231917303Y-151949419D01*
X231917303Y-151949419D02*
X232012541Y-151901800D01*
X232012541Y-151901800D02*
X232060160Y-151806561D01*
X232060160Y-151806561D02*
X232060160Y-151425609D01*
X232060160Y-151425609D02*
X232012541Y-151330371D01*
X232012541Y-151330371D02*
X231917303Y-151282752D01*
X231917303Y-151282752D02*
X231726827Y-151282752D01*
X231726827Y-151282752D02*
X231631589Y-151330371D01*
X231631589Y-151330371D02*
X231583970Y-151425609D01*
X231583970Y-151425609D02*
X231583970Y-151520847D01*
X231583970Y-151520847D02*
X232060160Y-151616085D01*
%TO.C,MCU*%
X231265400Y-150274600D02*
X249045400Y-150274600D01*
X249045400Y-150274600D02*
X249045400Y-117254600D01*
X249045400Y-117254600D02*
X243965400Y-117254600D01*
X243965400Y-117254600D02*
X243965400Y-114714600D01*
X243965400Y-114714600D02*
X236345400Y-114714600D01*
X236345400Y-114714600D02*
X236345400Y-117254600D01*
X236345400Y-117254600D02*
X231265400Y-117254600D01*
X231265400Y-117254600D02*
X231265400Y-150274600D01*
D12*
%TO.C,_2*%
X237045400Y-99034600D02*
X237045400Y-106854600D01*
X237045400Y-100634600D02*
X237965400Y-100634600D01*
X237045400Y-106854600D02*
X243165400Y-106854600D01*
X237805400Y-102994600D02*
X237805400Y-104594600D01*
X237805400Y-104594600D02*
X238805400Y-104594600D01*
X237965400Y-99034600D02*
X237045400Y-99034600D01*
X237965400Y-100634600D02*
X237965400Y-99034600D01*
X238245400Y-100634600D02*
X237965400Y-100634600D01*
X238245400Y-100634600D02*
X238245400Y-99419600D01*
X238305400Y-104594600D02*
X238305400Y-106854600D01*
X238805400Y-102994600D02*
X237805400Y-102994600D01*
X238805400Y-104594600D02*
X238805400Y-102994600D01*
X238805400Y-104594600D02*
X238805400Y-106854600D01*
X239605400Y-102494600D02*
X240605400Y-102494600D01*
X239605400Y-106854600D02*
X239605400Y-102494600D01*
X240605400Y-102494600D02*
X240605400Y-106854600D01*
X241405400Y-102994600D02*
X242405400Y-102994600D01*
X241405400Y-104594600D02*
X241405400Y-102994600D01*
X242245400Y-99034600D02*
X242245400Y-100634600D01*
X242245400Y-100634600D02*
X241965400Y-100634600D01*
X242405400Y-102994600D02*
X242405400Y-104594600D01*
X242405400Y-104594600D02*
X241405400Y-104594600D01*
X243165400Y-99034600D02*
X242245400Y-99034600D01*
X243165400Y-100634600D02*
X242245400Y-100634600D01*
X243165400Y-106854600D02*
X243165400Y-99034600D01*
%TD*%
M02*
