%TF.GenerationSoftware,KiCad,Pcbnew,9.0.5*%
%TF.CreationDate,2025-10-18T21:30:00+02:00*%
%TF.ProjectId,shield-pcb,73686965-6c64-42d7-9063-622e6b696361,1.2*%
%TF.SameCoordinates,Original*%
%TF.FileFunction,Soldermask,Bot*%
%TF.FilePolarity,Negative*%
%FSLAX46Y46*%
G04 Gerber Fmt 4.6, Leading zero omitted, Abs format (unit mm)*
G04 Created by KiCad (PCBNEW 9.0.5) date 2025-10-18 21:30:00*
%MOMM*%
%LPD*%
G01*
G04 APERTURE LIST*
G04 Aperture macros list*
%AMRoundRect*
0 Rectangle with rounded corners*
0 $1 Rounding radius*
0 $2 $3 $4 $5 $6 $7 $8 $9 X,Y pos of 4 corners*
0 Add a 4 corners polygon primitive as box body*
4,1,4,$2,$3,$4,$5,$6,$7,$8,$9,$2,$3,0*
0 Add four circle primitives for the rounded corners*
1,1,$1+$1,$2,$3*
1,1,$1+$1,$4,$5*
1,1,$1+$1,$6,$7*
1,1,$1+$1,$8,$9*
0 Add four rect primitives between the rounded corners*
20,1,$1+$1,$2,$3,$4,$5,0*
20,1,$1+$1,$4,$5,$6,$7,0*
20,1,$1+$1,$6,$7,$8,$9,0*
20,1,$1+$1,$8,$9,$2,$3,0*%
%AMFreePoly0*
4,1,16,-0.214645,0.660355,-0.210957,0.656235,0.289043,0.031235,0.299694,-0.005522,0.289043,-0.031235,-0.210957,-0.656235,-0.244478,-0.674694,-0.250000,-0.675000,-0.500000,-0.675000,-0.535355,-0.660355,-0.550000,-0.625000,-0.550000,0.625000,-0.535355,0.660355,-0.500000,0.675000,-0.250000,0.675000,-0.214645,0.660355,-0.214645,0.660355,$1*%
%AMFreePoly1*
4,1,16,0.535355,0.660355,0.550000,0.625000,0.550000,-0.625000,0.535355,-0.660355,0.500000,-0.675000,-0.650000,-0.675000,-0.685355,-0.660355,-0.700000,-0.625000,-0.689043,-0.593765,-0.214031,0.000000,-0.689043,0.593765,-0.699694,0.630522,-0.681235,0.664043,-0.650000,0.675000,0.500000,0.675000,0.535355,0.660355,0.535355,0.660355,$1*%
G04 Aperture macros list end*
%ADD10C,3.529000*%
%ADD11C,1.801800*%
%ADD12C,2.132000*%
%ADD13O,1.800000X1.800000*%
%ADD14C,0.900000*%
%ADD15FreePoly0,0.000000*%
%ADD16FreePoly1,0.000000*%
%ADD17FreePoly0,180.000000*%
%ADD18FreePoly1,180.000000*%
%ADD19RoundRect,0.270833X-0.379167X-0.654167X0.379167X-0.654167X0.379167X0.654167X-0.379167X0.654167X0*%
%ADD20O,1.300000X1.850000*%
%ADD21C,1.000000*%
%ADD22RoundRect,0.050000X0.350000X0.750000X-0.350000X0.750000X-0.350000X-0.750000X0.350000X-0.750000X0*%
%ADD23RoundRect,0.050000X0.500000X0.400000X-0.500000X0.400000X-0.500000X-0.400000X0.500000X-0.400000X0*%
%ADD24C,0.800000*%
%ADD25C,4.500000*%
G04 APERTURE END LIST*
D10*
%TO.C,S1*%
X149009700Y-150139200D03*
D11*
X154456174Y-149373748D03*
X143563226Y-150904652D03*
D12*
X153432183Y-145680316D03*
X148188579Y-144296618D03*
X143529502Y-147072047D03*
X148188579Y-144296618D03*
%TD*%
D10*
%TO.C,S2*%
X146643800Y-133304600D03*
D11*
X152090274Y-132539148D03*
X141197326Y-134070052D03*
D12*
X151066283Y-128845716D03*
X145822679Y-127462018D03*
X141163602Y-130237447D03*
X145822679Y-127462018D03*
%TD*%
D10*
%TO.C,S3*%
X144277800Y-116470100D03*
D11*
X149724274Y-115704648D03*
X138831326Y-117235552D03*
D12*
X148700283Y-112011216D03*
X143456679Y-110627518D03*
X138797602Y-113402947D03*
X143456679Y-110627518D03*
%TD*%
D10*
%TO.C,S4*%
X166483900Y-135808400D03*
D11*
X171970502Y-135424739D03*
X160997298Y-136192061D03*
D12*
X171206646Y-131668874D03*
X166072337Y-129922772D03*
X161231005Y-132366439D03*
X166072337Y-129922772D03*
%TD*%
D10*
%TO.C,S5*%
X165298000Y-118849800D03*
D11*
X170784602Y-118466139D03*
X159811398Y-119233461D03*
D12*
X170020746Y-114710274D03*
X164886437Y-112964172D03*
X160045105Y-115407839D03*
X164886437Y-112964172D03*
%TD*%
D10*
%TO.C,S7*%
X185105400Y-129731600D03*
D11*
X190605400Y-129731600D03*
X179605400Y-129731600D03*
D12*
X190105400Y-125931600D03*
X185105400Y-123831600D03*
X180105400Y-125931600D03*
X185105400Y-123831600D03*
%TD*%
D10*
%TO.C,S8*%
X185105400Y-112731600D03*
D11*
X190605400Y-112731600D03*
X179605400Y-112731600D03*
D12*
X190105400Y-108931600D03*
X185105400Y-106831600D03*
X180105400Y-108931600D03*
X185105400Y-106831600D03*
%TD*%
D10*
%TO.C,S9*%
X185105400Y-95731600D03*
D11*
X190605400Y-95731600D03*
X179605400Y-95731600D03*
D12*
X190105400Y-91931600D03*
X185105400Y-89831600D03*
X180105400Y-91931600D03*
X185105400Y-89831600D03*
%TD*%
D10*
%TO.C,S10*%
X203105400Y-134494600D03*
D11*
X208605400Y-134494600D03*
X197605400Y-134494600D03*
D12*
X208105400Y-130694600D03*
X203105400Y-128594600D03*
X198105400Y-130694600D03*
X203105400Y-128594600D03*
%TD*%
%TO.C,S11*%
X203105400Y-111594600D03*
X198105400Y-113694600D03*
X203105400Y-111594600D03*
X208105400Y-113694600D03*
D11*
X197605400Y-117494600D03*
X208605400Y-117494600D03*
D10*
X203105400Y-117494600D03*
%TD*%
%TO.C,S12*%
X203105400Y-100494600D03*
D11*
X208605400Y-100494600D03*
X197605400Y-100494600D03*
D12*
X208105400Y-96694600D03*
X203105400Y-94594600D03*
X198105400Y-96694600D03*
X203105400Y-94594600D03*
%TD*%
D10*
%TO.C,S14*%
X221105400Y-117494600D03*
D11*
X226605400Y-117494600D03*
X215605400Y-117494600D03*
D12*
X226105400Y-113694600D03*
X221105400Y-111594600D03*
X216105400Y-113694600D03*
X221105400Y-111594600D03*
%TD*%
D10*
%TO.C,S15*%
X221105400Y-100494600D03*
D11*
X226605400Y-100494600D03*
X215605400Y-100494600D03*
D12*
X226105400Y-96694600D03*
X221105400Y-94594600D03*
X216105400Y-96694600D03*
X221105400Y-94594600D03*
%TD*%
D10*
%TO.C,S16*%
X203105400Y-155494600D03*
D11*
X208605400Y-155494600D03*
X197605400Y-155494600D03*
D12*
X208105400Y-151694600D03*
X203105400Y-149594600D03*
X198105400Y-151694600D03*
X203105400Y-149594600D03*
%TD*%
D10*
%TO.C,S17*%
X221105400Y-155494600D03*
D11*
X226605400Y-155494600D03*
X215605400Y-155494600D03*
D12*
X226105400Y-151694600D03*
X221105400Y-149594600D03*
X216105400Y-151694600D03*
X221105400Y-149594600D03*
%TD*%
D10*
%TO.C,S18*%
X239105400Y-165494600D03*
D11*
X244605400Y-165494600D03*
X233605400Y-165494600D03*
D12*
X244105400Y-161694600D03*
X239105400Y-159594600D03*
X234105400Y-161694600D03*
X239105400Y-159594600D03*
%TD*%
D13*
%TO.C,MCU*%
X232535400Y-118524600D03*
X247775400Y-118524600D03*
X232535400Y-121064600D03*
X247775400Y-121064600D03*
X232535400Y-123604600D03*
X247775400Y-123604600D03*
X232535400Y-126144600D03*
X247775400Y-126144600D03*
X232535400Y-128684600D03*
X247775400Y-128684600D03*
X232535400Y-131224600D03*
X247775400Y-131224600D03*
X232535400Y-133764600D03*
X247775400Y-133764600D03*
X232535400Y-136304600D03*
X247775400Y-136304600D03*
X232535400Y-138844600D03*
X247775400Y-138844600D03*
X232535400Y-141384600D03*
X247775400Y-141384600D03*
X232535400Y-143924600D03*
X247775400Y-143924600D03*
X232535400Y-146464600D03*
X247775400Y-146464600D03*
X232535400Y-149004600D03*
X247775400Y-149004600D03*
D14*
X236893400Y-118524600D03*
D15*
X234535400Y-118524600D03*
D16*
X235380400Y-118524600D03*
D14*
X243417400Y-118524600D03*
D17*
X245775400Y-118524600D03*
D18*
X244930400Y-118524600D03*
D14*
X236893400Y-121064600D03*
D15*
X234535400Y-121064600D03*
D16*
X235380400Y-121064600D03*
D14*
X243417400Y-121064600D03*
D17*
X245775400Y-121064600D03*
D18*
X244930400Y-121064600D03*
D14*
X236893400Y-123604600D03*
D15*
X234535400Y-123604600D03*
D16*
X235380400Y-123604600D03*
D14*
X243417400Y-123604600D03*
D17*
X245775400Y-123604600D03*
D18*
X244930400Y-123604600D03*
D14*
X236893400Y-126144600D03*
D15*
X234535400Y-126144600D03*
D16*
X235380400Y-126144600D03*
D14*
X243417400Y-126144600D03*
D17*
X245775400Y-126144600D03*
D18*
X244930400Y-126144600D03*
D14*
X236893400Y-128684600D03*
D15*
X234535400Y-128684600D03*
D16*
X235380400Y-128684600D03*
D14*
X243417400Y-128684600D03*
D17*
X245775400Y-128684600D03*
D18*
X244930400Y-128684600D03*
D14*
X236893400Y-131224600D03*
D15*
X234535400Y-131224600D03*
D16*
X235380400Y-131224600D03*
D14*
X243417400Y-131224600D03*
D17*
X245775400Y-131224600D03*
D18*
X244930400Y-131224600D03*
D14*
X236893400Y-133764600D03*
D15*
X234535400Y-133764600D03*
D16*
X235380400Y-133764600D03*
D14*
X243417400Y-133764600D03*
D17*
X245775400Y-133764600D03*
D18*
X244930400Y-133764600D03*
D14*
X236893400Y-136304600D03*
D15*
X234535400Y-136304600D03*
D16*
X235380400Y-136304600D03*
D14*
X243417400Y-136304600D03*
D17*
X245775400Y-136304600D03*
D18*
X244930400Y-136304600D03*
D14*
X236893400Y-138844600D03*
D15*
X234535400Y-138844600D03*
D16*
X235380400Y-138844600D03*
D14*
X243417400Y-138844600D03*
D17*
X245775400Y-138844600D03*
D18*
X244930400Y-138844600D03*
D14*
X236893400Y-141384600D03*
D15*
X234535400Y-141384600D03*
D16*
X235380400Y-141384600D03*
D14*
X243417400Y-141384600D03*
D17*
X245775400Y-141384600D03*
D18*
X244930400Y-141384600D03*
D14*
X236893400Y-143924600D03*
D15*
X234535400Y-143924600D03*
D16*
X235380400Y-143924600D03*
D14*
X243417400Y-143924600D03*
D17*
X245775400Y-143924600D03*
D18*
X244930400Y-143924600D03*
D14*
X236893400Y-146464600D03*
D15*
X234535400Y-146464600D03*
D16*
X235380400Y-146464600D03*
D14*
X243417400Y-146464600D03*
D17*
X245775400Y-146464600D03*
D18*
X244930400Y-146464600D03*
D14*
X236893400Y-149004600D03*
D15*
X234535400Y-149004600D03*
D16*
X235380400Y-149004600D03*
D14*
X243417400Y-149004600D03*
D17*
X245775400Y-149004600D03*
D18*
X244930400Y-149004600D03*
%TD*%
D19*
%TO.C,_2*%
X239105400Y-100494600D03*
D20*
X241105400Y-100494600D03*
%TD*%
D21*
%TO.C,T1*%
X241605400Y-94164600D03*
X238605400Y-94164600D03*
X241605400Y-94164600D03*
X238605400Y-94164600D03*
D22*
X237855400Y-95924600D03*
X240855400Y-95924600D03*
X242355400Y-95924600D03*
D23*
X236455400Y-93064600D03*
X243755400Y-93064600D03*
X243755400Y-95274600D03*
X236455400Y-95274600D03*
%TD*%
D24*
%TO.C,_6*%
X155582173Y-112793899D03*
D25*
X154318200Y-111733300D03*
D24*
X154462007Y-113377021D03*
X155378799Y-110469327D03*
X152674479Y-111877107D03*
X153054227Y-110672701D03*
X153257601Y-112997273D03*
X155961921Y-111589493D03*
X154174393Y-110089579D03*
%TD*%
%TO.C,_7*%
X157254373Y-130706899D03*
D25*
X155990400Y-129646300D03*
D24*
X156134207Y-131290021D03*
X157050999Y-128382327D03*
X154346679Y-129790107D03*
X154726427Y-128585701D03*
X154929801Y-130910273D03*
X157634121Y-129502493D03*
X155846593Y-128002579D03*
%TD*%
%TO.C,_8*%
X213272126Y-110161326D03*
D25*
X212105400Y-108994600D03*
D24*
X212105400Y-110644600D03*
X213272126Y-107827874D03*
X210455400Y-108994600D03*
X210938674Y-107827874D03*
X210938674Y-110161326D03*
X213755400Y-108994600D03*
X212105400Y-107344600D03*
%TD*%
%TO.C,_9*%
X213272126Y-127161326D03*
D25*
X212105400Y-125994600D03*
D24*
X212105400Y-127644600D03*
X213272126Y-124827874D03*
X210455400Y-125994600D03*
X210938674Y-124827874D03*
X210938674Y-127161326D03*
X213755400Y-125994600D03*
X212105400Y-124344600D03*
%TD*%
%TO.C,_10*%
X233272126Y-156661326D03*
D25*
X232105400Y-155494600D03*
D24*
X232105400Y-157144600D03*
X233272126Y-154327874D03*
X230455400Y-155494600D03*
X230938674Y-154327874D03*
X230938674Y-156661326D03*
X233755400Y-155494600D03*
X232105400Y-153844600D03*
%TD*%
D10*
%TO.C,S6*%
X164112200Y-101891200D03*
D11*
X169598802Y-101507539D03*
X158625598Y-102274861D03*
D12*
X168834946Y-97751674D03*
X163700637Y-96005572D03*
X158859305Y-98449239D03*
X163700637Y-96005572D03*
%TD*%
D10*
%TO.C,S13*%
X221105400Y-134494600D03*
D11*
X226605400Y-134494600D03*
X215605400Y-134494600D03*
D12*
X226105400Y-130694600D03*
X221105400Y-128594600D03*
X216105400Y-130694600D03*
X221105400Y-128594600D03*
%TD*%
M02*
