%TF.GenerationSoftware,KiCad,Pcbnew,9.0.5*%
%TF.CreationDate,2025-10-18T21:30:00+02:00*%
%TF.ProjectId,shield-pcb,73686965-6c64-42d7-9063-622e6b696361,1.2*%
%TF.SameCoordinates,Original*%
%TF.FileFunction,Legend,Top*%
%TF.FilePolarity,Positive*%
%FSLAX46Y46*%
G04 Gerber Fmt 4.6, Leading zero omitted, Abs format (unit mm)*
G04 Created by KiCad (PCBNEW 9.0.5) date 2025-10-18 21:30:00*
%MOMM*%
%LPD*%
G01*
G04 APERTURE LIST*
%ADD10C,0.000000*%
%ADD11C,0.150000*%
%ADD12C,0.120000*%
G04 APERTURE END LIST*
D10*
G36*
X182540396Y-150208280D02*
G01*
X182575751Y-150210811D01*
X182662732Y-150220790D01*
X182762811Y-150235880D01*
X182865668Y-150254343D01*
X182960984Y-150274443D01*
X183002590Y-150284564D01*
X183038441Y-150294444D01*
X183067247Y-150303864D01*
X183087719Y-150312609D01*
X183094753Y-150316202D01*
X183102313Y-150319823D01*
X183118742Y-150327062D01*
X183136461Y-150334152D01*
X183154924Y-150340920D01*
X183173586Y-150347191D01*
X183191900Y-150352793D01*
X183209321Y-150357551D01*
X183225303Y-150361292D01*
X183232933Y-150363000D01*
X183240703Y-150364934D01*
X183248553Y-150367073D01*
X183256425Y-150369395D01*
X183264259Y-150371878D01*
X183271998Y-150374501D01*
X183279581Y-150377241D01*
X183286951Y-150380078D01*
X183294047Y-150382989D01*
X183300812Y-150385952D01*
X183307187Y-150388947D01*
X183313111Y-150391951D01*
X183318528Y-150394943D01*
X183323376Y-150397900D01*
X183327599Y-150400802D01*
X183331136Y-150403626D01*
X183334674Y-150406548D01*
X183338896Y-150409736D01*
X183349161Y-150416789D01*
X183361460Y-150424536D01*
X183375322Y-150432730D01*
X183390275Y-150441122D01*
X183405848Y-150449465D01*
X183421570Y-150457509D01*
X183436969Y-150465009D01*
X183463014Y-150477068D01*
X183486579Y-150488457D01*
X183509151Y-150500095D01*
X183532219Y-150512898D01*
X183557272Y-150527785D01*
X183585797Y-150545673D01*
X183619284Y-150567481D01*
X183659219Y-150594125D01*
X183672349Y-150603018D01*
X183686075Y-150612084D01*
X183713724Y-150629844D01*
X183738991Y-150645620D01*
X183758703Y-150657625D01*
X183770163Y-150664170D01*
X183788072Y-150675452D01*
X183839666Y-150709749D01*
X183906341Y-150755555D01*
X183980953Y-150807909D01*
X184067174Y-150866514D01*
X184162722Y-150932263D01*
X184336553Y-151053442D01*
X184590553Y-151227009D01*
X184610632Y-151240718D01*
X184635301Y-151256113D01*
X184663590Y-151272699D01*
X184694534Y-151289980D01*
X184727165Y-151307459D01*
X184760515Y-151324640D01*
X184793617Y-151341027D01*
X184825504Y-151356125D01*
X184856468Y-151370769D01*
X184885097Y-151385370D01*
X184911438Y-151399983D01*
X184935537Y-151414664D01*
X184957441Y-151429470D01*
X184977196Y-151444455D01*
X184986283Y-151452032D01*
X184994849Y-151459675D01*
X185002902Y-151467392D01*
X185010447Y-151475188D01*
X185017489Y-151483070D01*
X185024035Y-151491047D01*
X185030090Y-151499125D01*
X185035661Y-151507310D01*
X185040752Y-151515610D01*
X185045370Y-151524031D01*
X185049521Y-151532581D01*
X185053210Y-151541267D01*
X185056443Y-151550096D01*
X185059227Y-151559074D01*
X185061566Y-151568209D01*
X185063467Y-151577507D01*
X185064935Y-151586976D01*
X185065977Y-151596622D01*
X185066597Y-151606453D01*
X185066803Y-151616475D01*
X185066563Y-151626010D01*
X185065853Y-151635552D01*
X185064686Y-151645086D01*
X185063074Y-151654592D01*
X185061031Y-151664056D01*
X185058571Y-151673458D01*
X185055706Y-151682784D01*
X185052449Y-151692014D01*
X185048815Y-151701133D01*
X185044815Y-151710124D01*
X185040463Y-151718969D01*
X185035773Y-151727650D01*
X185030756Y-151736153D01*
X185025428Y-151744458D01*
X185019800Y-151752549D01*
X185013887Y-151760409D01*
X185007700Y-151768021D01*
X185001254Y-151775368D01*
X184994561Y-151782433D01*
X184987635Y-151789199D01*
X184980489Y-151795649D01*
X184973136Y-151801765D01*
X184965589Y-151807530D01*
X184957861Y-151812929D01*
X184949966Y-151817943D01*
X184941917Y-151822555D01*
X184933726Y-151826749D01*
X184925408Y-151830507D01*
X184916975Y-151833812D01*
X184908441Y-151836648D01*
X184899818Y-151838997D01*
X184891120Y-151840842D01*
X184876506Y-151842544D01*
X184859138Y-151842950D01*
X184839439Y-151842154D01*
X184817830Y-151840247D01*
X184794733Y-151837323D01*
X184770569Y-151833475D01*
X184745760Y-151828796D01*
X184720728Y-151823380D01*
X184695894Y-151817318D01*
X184671681Y-151810704D01*
X184648509Y-151803632D01*
X184626801Y-151796194D01*
X184606978Y-151788482D01*
X184589461Y-151780591D01*
X184574674Y-151772613D01*
X184563036Y-151764642D01*
X184556442Y-151759321D01*
X184547988Y-151753033D01*
X184537996Y-151746001D01*
X184526788Y-151738448D01*
X184514688Y-151730598D01*
X184502017Y-151722673D01*
X184489098Y-151714897D01*
X184476253Y-151707493D01*
X184420889Y-151676859D01*
X184371478Y-151648556D01*
X184324448Y-151620353D01*
X184276228Y-151590017D01*
X184223245Y-151555315D01*
X184161928Y-151514015D01*
X184000003Y-151402692D01*
X183832046Y-151285725D01*
X183683859Y-151184113D01*
X183555565Y-151097929D01*
X183447288Y-151027248D01*
X183400695Y-150997745D01*
X183359153Y-150972145D01*
X183322677Y-150950458D01*
X183291283Y-150932693D01*
X183264987Y-150918860D01*
X183243803Y-150908967D01*
X183227748Y-150903025D01*
X183221648Y-150901538D01*
X183216836Y-150901042D01*
X183213940Y-150900895D01*
X183210829Y-150900463D01*
X183207539Y-150899758D01*
X183204103Y-150898793D01*
X183200556Y-150897580D01*
X183196931Y-150896131D01*
X183193262Y-150894459D01*
X183189584Y-150892575D01*
X183185931Y-150890494D01*
X183182337Y-150888226D01*
X183178836Y-150885785D01*
X183175462Y-150883183D01*
X183172250Y-150880432D01*
X183169232Y-150877544D01*
X183166444Y-150874532D01*
X183163920Y-150871409D01*
X183160827Y-150868189D01*
X183157140Y-150864894D01*
X183152906Y-150861549D01*
X183148177Y-150858180D01*
X183143001Y-150854811D01*
X183137428Y-150851466D01*
X183131508Y-150848171D01*
X183125291Y-150844951D01*
X183118825Y-150841829D01*
X183112161Y-150838832D01*
X183105348Y-150835984D01*
X183098436Y-150833309D01*
X183091474Y-150830832D01*
X183084512Y-150828579D01*
X183077600Y-150826574D01*
X183070787Y-150824842D01*
X183063308Y-150823409D01*
X183055209Y-150821514D01*
X183046565Y-150819191D01*
X183037449Y-150816475D01*
X183018101Y-150809997D01*
X182997761Y-150802353D01*
X182977024Y-150793816D01*
X182956486Y-150784659D01*
X182936742Y-150775155D01*
X182918386Y-150765576D01*
X182905124Y-150758799D01*
X182892155Y-150752731D01*
X182879230Y-150747340D01*
X182866098Y-150742590D01*
X182852506Y-150738448D01*
X182838205Y-150734880D01*
X182822942Y-150731851D01*
X182806467Y-150729328D01*
X182788529Y-150727276D01*
X182768876Y-150725661D01*
X182723421Y-150723606D01*
X182668094Y-150722891D01*
X182600886Y-150723242D01*
X182526575Y-150723548D01*
X182495530Y-150724051D01*
X182467966Y-150724896D01*
X182443441Y-150726162D01*
X182421511Y-150727930D01*
X182401733Y-150730282D01*
X182383664Y-150733296D01*
X182366859Y-150737055D01*
X182350876Y-150741639D01*
X182335271Y-150747128D01*
X182319602Y-150753603D01*
X182303423Y-150761145D01*
X182286293Y-150769834D01*
X182267768Y-150779750D01*
X182247404Y-150790976D01*
X182234625Y-150798722D01*
X182220974Y-150807603D01*
X182206573Y-150817514D01*
X182191543Y-150828348D01*
X182160078Y-150852367D01*
X182127547Y-150878817D01*
X182094916Y-150906855D01*
X182063154Y-150935636D01*
X182033227Y-150964319D01*
X182006103Y-150992058D01*
X181949723Y-151057529D01*
X181924493Y-151090563D01*
X181901237Y-151123808D01*
X181879956Y-151157272D01*
X181860651Y-151190963D01*
X181843323Y-151224888D01*
X181827972Y-151259056D01*
X181814599Y-151293476D01*
X181803206Y-151328154D01*
X181793792Y-151363100D01*
X181786358Y-151398322D01*
X181780906Y-151433828D01*
X181777436Y-151469625D01*
X181775948Y-151505722D01*
X181776445Y-151542128D01*
X181778925Y-151578849D01*
X181783391Y-151615895D01*
X181789843Y-151653274D01*
X181798281Y-151690993D01*
X181808707Y-151729061D01*
X181821121Y-151767486D01*
X181835524Y-151806276D01*
X181851917Y-151845440D01*
X181890675Y-151924919D01*
X181937402Y-152005988D01*
X181992104Y-152088713D01*
X182054787Y-152173159D01*
X182112825Y-152245560D01*
X182169847Y-152312230D01*
X182198899Y-152344293D01*
X182228804Y-152375974D01*
X182259930Y-152407624D01*
X182292647Y-152439594D01*
X182364328Y-152505893D01*
X182446799Y-152577674D01*
X182543013Y-152657739D01*
X182655919Y-152748892D01*
X182706459Y-152787182D01*
X182766152Y-152830185D01*
X182830458Y-152874875D01*
X182894839Y-152918225D01*
X182954754Y-152957210D01*
X183005666Y-152988803D01*
X183026327Y-153000882D01*
X183043034Y-153009978D01*
X183055221Y-153015713D01*
X183059442Y-153017202D01*
X183062320Y-153017708D01*
X183064346Y-153018025D01*
X183067219Y-153018953D01*
X183075318Y-153022504D01*
X183086244Y-153028089D01*
X183099626Y-153035436D01*
X183132269Y-153054320D01*
X183170270Y-153076975D01*
X183192916Y-153090775D01*
X183220474Y-153106410D01*
X183251902Y-153123335D01*
X183286157Y-153141005D01*
X183322199Y-153158872D01*
X183358984Y-153176393D01*
X183395472Y-153193020D01*
X183430620Y-153208209D01*
X183495664Y-153235637D01*
X183553006Y-153260253D01*
X183603130Y-153282469D01*
X183646520Y-153302698D01*
X183665840Y-153312196D01*
X183683659Y-153321351D01*
X183700035Y-153330216D01*
X183715030Y-153338842D01*
X183728705Y-153347281D01*
X183741119Y-153355583D01*
X183752333Y-153363801D01*
X183762407Y-153371986D01*
X183771403Y-153380189D01*
X183779380Y-153388463D01*
X183786399Y-153396858D01*
X183792520Y-153405427D01*
X183797804Y-153414220D01*
X183802312Y-153423290D01*
X183806103Y-153432687D01*
X183809238Y-153442464D01*
X183811779Y-153452672D01*
X183813784Y-153463363D01*
X183815315Y-153474587D01*
X183816432Y-153486398D01*
X183817666Y-153511981D01*
X183817970Y-153540526D01*
X183817765Y-153551305D01*
X183817122Y-153561473D01*
X183816002Y-153571115D01*
X183814365Y-153580313D01*
X183812169Y-153589151D01*
X183809375Y-153597713D01*
X183805942Y-153606083D01*
X183801830Y-153614345D01*
X183796999Y-153622581D01*
X183791408Y-153630877D01*
X183785017Y-153639315D01*
X183777786Y-153647980D01*
X183769674Y-153656954D01*
X183760642Y-153666323D01*
X183750648Y-153676168D01*
X183739653Y-153686575D01*
X183730853Y-153694360D01*
X183721942Y-153701822D01*
X183712957Y-153708937D01*
X183703934Y-153715679D01*
X183694911Y-153722025D01*
X183685926Y-153727949D01*
X183677015Y-153733427D01*
X183668215Y-153738434D01*
X183659565Y-153742944D01*
X183651100Y-153746933D01*
X183642859Y-153750377D01*
X183634878Y-153753250D01*
X183627195Y-153755528D01*
X183619846Y-153757186D01*
X183612870Y-153758199D01*
X183606303Y-153758542D01*
X183593603Y-153757814D01*
X183577930Y-153755690D01*
X183559585Y-153752263D01*
X183538867Y-153747628D01*
X183491519Y-153735102D01*
X183438293Y-153718855D01*
X183381593Y-153699631D01*
X183323827Y-153678175D01*
X183267401Y-153655231D01*
X183214720Y-153631542D01*
X183121715Y-153588072D01*
X183043369Y-153550877D01*
X182978269Y-153519288D01*
X182925001Y-153492636D01*
X182882151Y-153470249D01*
X182864191Y-153460447D01*
X182848305Y-153451460D01*
X182834316Y-153443204D01*
X182822049Y-153435597D01*
X182811326Y-153428554D01*
X182801970Y-153421992D01*
X182766350Y-153397121D01*
X182709101Y-153357963D01*
X182637961Y-153310073D01*
X182560670Y-153259009D01*
X182462563Y-153193938D01*
X182385813Y-153142460D01*
X182353997Y-153120733D01*
X182325782Y-153101102D01*
X182300586Y-153083133D01*
X182277830Y-153066392D01*
X182256935Y-153050445D01*
X182237320Y-153034857D01*
X182218406Y-153019195D01*
X182199612Y-153003024D01*
X182180360Y-152985911D01*
X182160069Y-152967421D01*
X182114052Y-152924575D01*
X182088252Y-152901251D01*
X182063617Y-152879266D01*
X182040718Y-152859165D01*
X182020126Y-152841496D01*
X182002411Y-152826804D01*
X181994811Y-152820744D01*
X181988145Y-152815633D01*
X181982482Y-152811539D01*
X181977896Y-152808531D01*
X181974457Y-152806676D01*
X181973190Y-152806202D01*
X181972236Y-152806042D01*
X181969650Y-152804798D01*
X181965138Y-152801147D01*
X181950772Y-152787124D01*
X181930006Y-152764966D01*
X181903709Y-152735663D01*
X181872749Y-152700209D01*
X181837993Y-152659595D01*
X181760570Y-152566859D01*
X181717098Y-152513527D01*
X181676321Y-152461377D01*
X181638154Y-152410250D01*
X181602514Y-152359988D01*
X181569318Y-152310433D01*
X181538481Y-152261426D01*
X181509920Y-152212810D01*
X181483551Y-152164427D01*
X181459291Y-152116119D01*
X181437055Y-152067726D01*
X181416760Y-152019092D01*
X181398322Y-151970058D01*
X181381658Y-151920465D01*
X181366684Y-151870157D01*
X181353316Y-151818974D01*
X181341470Y-151766758D01*
X181332966Y-151725963D01*
X181325033Y-151685267D01*
X181317843Y-151645761D01*
X181311572Y-151608538D01*
X181306392Y-151574688D01*
X181302477Y-151545302D01*
X181300000Y-151521474D01*
X181299356Y-151511984D01*
X181299136Y-151504292D01*
X181300097Y-151479936D01*
X181302857Y-151451024D01*
X181307229Y-151418311D01*
X181313027Y-151382551D01*
X181328158Y-151304900D01*
X181346761Y-151224098D01*
X181367349Y-151146174D01*
X181377922Y-151110175D01*
X181388433Y-151077155D01*
X181398696Y-151047868D01*
X181408525Y-151023068D01*
X181417734Y-151003508D01*
X181426136Y-150989942D01*
X181430449Y-150984715D01*
X181434640Y-150979383D01*
X181438689Y-150973989D01*
X181442574Y-150968577D01*
X181446272Y-150963189D01*
X181449763Y-150957869D01*
X181453024Y-150952662D01*
X181456034Y-150947609D01*
X181458771Y-150942754D01*
X181461214Y-150938142D01*
X181463341Y-150933814D01*
X181465129Y-150929815D01*
X181466558Y-150926189D01*
X181467605Y-150922978D01*
X181468250Y-150920226D01*
X181468414Y-150919035D01*
X181468469Y-150917976D01*
X181469486Y-150912851D01*
X181472438Y-150905557D01*
X181477176Y-150896302D01*
X181483551Y-150885299D01*
X181500616Y-150858891D01*
X181522445Y-150828017D01*
X181547845Y-150794365D01*
X181575626Y-150759622D01*
X181604598Y-150725474D01*
X181619158Y-150709151D01*
X181633570Y-150693608D01*
X181642863Y-150682537D01*
X181647299Y-150677079D01*
X181651561Y-150671714D01*
X181655625Y-150666473D01*
X181659466Y-150661388D01*
X181663058Y-150656488D01*
X181666378Y-150651805D01*
X181669400Y-150647370D01*
X181672100Y-150643214D01*
X181674452Y-150639369D01*
X181676432Y-150635864D01*
X181678016Y-150632731D01*
X181679177Y-150630002D01*
X181679893Y-150627706D01*
X181680075Y-150626731D01*
X181680136Y-150625876D01*
X181680893Y-150622605D01*
X181683115Y-150618385D01*
X181691662Y-150607326D01*
X181705195Y-150593147D01*
X181723131Y-150576299D01*
X181769880Y-150536393D01*
X181827245Y-150491203D01*
X181890563Y-150444326D01*
X181955170Y-150399359D01*
X182016405Y-150359899D01*
X182044300Y-150343358D01*
X182069603Y-150329543D01*
X182083526Y-150322452D01*
X182098244Y-150315486D01*
X182113656Y-150308669D01*
X182129663Y-150302026D01*
X182163067Y-150289359D01*
X182197661Y-150277684D01*
X182232652Y-150267200D01*
X182267247Y-150258105D01*
X182300650Y-150250597D01*
X182332070Y-150244875D01*
X182359450Y-150240733D01*
X182385615Y-150236343D01*
X182409944Y-150231853D01*
X182431818Y-150227413D01*
X182450615Y-150223171D01*
X182465717Y-150219277D01*
X182471688Y-150217507D01*
X182476503Y-150215879D01*
X182480084Y-150214412D01*
X182482353Y-150213126D01*
X182486084Y-150210864D01*
X182492407Y-150209220D01*
X182512185Y-150207677D01*
X182540396Y-150208280D01*
G37*
G36*
X181641578Y-147941457D02*
G01*
X181696603Y-147942554D01*
X181751373Y-147944669D01*
X181805285Y-147947763D01*
X181857733Y-147951800D01*
X181908112Y-147956743D01*
X181955820Y-147962553D01*
X182000249Y-147969195D01*
X182040797Y-147976630D01*
X182076858Y-147984822D01*
X182107829Y-147993733D01*
X182133103Y-148003326D01*
X182145074Y-148009738D01*
X182155602Y-148017042D01*
X182164706Y-148025202D01*
X182172406Y-148034179D01*
X182178721Y-148043935D01*
X182183672Y-148054434D01*
X182187278Y-148065638D01*
X182189558Y-148077508D01*
X182190534Y-148090008D01*
X182190224Y-148103100D01*
X182188647Y-148116746D01*
X182185825Y-148130909D01*
X182181777Y-148145550D01*
X182176522Y-148160634D01*
X182170080Y-148176121D01*
X182162472Y-148191974D01*
X182153716Y-148208156D01*
X182143833Y-148224629D01*
X182120763Y-148258297D01*
X182093420Y-148292679D01*
X182061964Y-148327473D01*
X182026550Y-148362379D01*
X181987339Y-148397096D01*
X181944487Y-148431323D01*
X181898154Y-148464759D01*
X181884306Y-148474564D01*
X181872109Y-148484260D01*
X181861523Y-148494036D01*
X181852513Y-148504083D01*
X181845040Y-148514588D01*
X181841869Y-148520072D01*
X181839069Y-148525741D01*
X181836634Y-148531620D01*
X181834560Y-148537732D01*
X181832843Y-148544100D01*
X181831478Y-148550749D01*
X181829785Y-148564981D01*
X181829444Y-148580617D01*
X181830418Y-148597848D01*
X181832669Y-148616861D01*
X181836160Y-148637846D01*
X181840854Y-148660993D01*
X181846714Y-148686489D01*
X181853703Y-148714525D01*
X181860761Y-148740764D01*
X181868821Y-148766679D01*
X181887826Y-148817428D01*
X181910490Y-148866558D01*
X181936584Y-148913856D01*
X181965877Y-148959108D01*
X181998141Y-149002099D01*
X182033145Y-149042616D01*
X182070662Y-149080445D01*
X182110460Y-149115371D01*
X182152310Y-149147182D01*
X182195984Y-149175662D01*
X182241252Y-149200599D01*
X182287883Y-149221777D01*
X182311639Y-149230890D01*
X182335650Y-149238984D01*
X182359887Y-149246031D01*
X182384322Y-149252005D01*
X182408925Y-149256879D01*
X182433670Y-149260626D01*
X182457346Y-149263190D01*
X182481398Y-149264570D01*
X182505605Y-149264821D01*
X182529746Y-149263999D01*
X182553603Y-149262161D01*
X182576954Y-149259361D01*
X182599579Y-149255656D01*
X182621259Y-149251101D01*
X182641773Y-149245752D01*
X182660901Y-149239666D01*
X182678423Y-149232897D01*
X182694119Y-149225502D01*
X182701213Y-149221587D01*
X182707768Y-149217537D01*
X182713757Y-149213358D01*
X182719151Y-149209057D01*
X182723924Y-149204641D01*
X182728047Y-149200117D01*
X182731494Y-149195493D01*
X182734236Y-149190775D01*
X182739564Y-149180120D01*
X182744436Y-149169204D01*
X182748856Y-149158052D01*
X182752827Y-149146689D01*
X182759439Y-149123431D01*
X182764300Y-149099627D01*
X182767436Y-149075475D01*
X182768876Y-149051175D01*
X182768648Y-149026924D01*
X182766780Y-149002921D01*
X182763300Y-148979365D01*
X182758235Y-148956454D01*
X182751614Y-148934386D01*
X182743464Y-148913360D01*
X182738825Y-148903300D01*
X182733813Y-148893574D01*
X182728434Y-148884208D01*
X182722690Y-148875227D01*
X182716585Y-148866655D01*
X182710122Y-148858517D01*
X182703305Y-148850838D01*
X182696137Y-148843642D01*
X182691511Y-148839119D01*
X182687158Y-148834294D01*
X182683080Y-148829190D01*
X182679278Y-148823827D01*
X182675751Y-148818228D01*
X182672501Y-148812412D01*
X182669528Y-148806401D01*
X182666834Y-148800218D01*
X182664419Y-148793882D01*
X182662283Y-148787416D01*
X182660428Y-148780840D01*
X182658855Y-148774177D01*
X182657564Y-148767447D01*
X182656555Y-148760671D01*
X182655831Y-148753872D01*
X182655390Y-148747069D01*
X182655235Y-148740286D01*
X182655367Y-148733542D01*
X182655785Y-148726860D01*
X182656490Y-148720260D01*
X182657484Y-148713764D01*
X182658767Y-148707393D01*
X182660340Y-148701168D01*
X182662203Y-148695112D01*
X182664358Y-148689244D01*
X182666806Y-148683587D01*
X182669546Y-148678162D01*
X182672580Y-148672990D01*
X182675909Y-148668093D01*
X182679533Y-148663491D01*
X182683453Y-148659206D01*
X182687670Y-148655259D01*
X182692795Y-148651439D01*
X182698238Y-148647916D01*
X182703979Y-148644689D01*
X182710002Y-148641757D01*
X182716289Y-148639120D01*
X182722821Y-148636776D01*
X182736551Y-148632968D01*
X182751051Y-148630325D01*
X182766176Y-148628842D01*
X182781786Y-148628512D01*
X182797736Y-148629330D01*
X182813885Y-148631288D01*
X182830090Y-148634382D01*
X182846208Y-148638604D01*
X182862096Y-148643948D01*
X182877613Y-148650409D01*
X182892614Y-148657979D01*
X182906959Y-148666654D01*
X182920503Y-148676426D01*
X182933445Y-148687623D01*
X182946052Y-148700519D01*
X182958287Y-148715028D01*
X182970112Y-148731062D01*
X182981492Y-148748535D01*
X182992387Y-148767360D01*
X183002762Y-148787449D01*
X183012578Y-148808717D01*
X183021799Y-148831077D01*
X183030388Y-148854440D01*
X183038307Y-148878722D01*
X183045518Y-148903835D01*
X183051986Y-148929692D01*
X183057673Y-148956206D01*
X183062540Y-148983290D01*
X183066552Y-149010859D01*
X183068569Y-149032713D01*
X183069091Y-149055317D01*
X183068162Y-149078529D01*
X183065825Y-149102206D01*
X183062124Y-149126206D01*
X183057102Y-149150385D01*
X183050803Y-149174602D01*
X183043269Y-149198713D01*
X183034546Y-149222576D01*
X183024674Y-149246049D01*
X183013699Y-149268988D01*
X183001664Y-149291251D01*
X182988612Y-149312696D01*
X182974586Y-149333179D01*
X182959630Y-149352559D01*
X182943787Y-149370692D01*
X182916484Y-149397276D01*
X182886298Y-149421442D01*
X182853420Y-149443153D01*
X182818043Y-149462370D01*
X182780360Y-149479057D01*
X182740562Y-149493178D01*
X182698841Y-149504693D01*
X182655390Y-149513567D01*
X182610402Y-149519762D01*
X182564068Y-149523241D01*
X182516580Y-149523967D01*
X182468132Y-149521902D01*
X182418914Y-149517009D01*
X182369120Y-149509251D01*
X182318941Y-149498591D01*
X182268570Y-149484992D01*
X182236606Y-149475047D01*
X182206438Y-149464958D01*
X182177826Y-149454585D01*
X182150533Y-149443784D01*
X182124318Y-149432412D01*
X182098943Y-149420327D01*
X182074170Y-149407386D01*
X182049759Y-149393447D01*
X182025473Y-149378366D01*
X182001072Y-149362003D01*
X181976317Y-149344212D01*
X181950971Y-149324853D01*
X181924793Y-149303783D01*
X181897545Y-149280858D01*
X181868989Y-149255937D01*
X181838886Y-149228876D01*
X181826992Y-149217920D01*
X181815173Y-149207312D01*
X181803502Y-149197101D01*
X181792055Y-149187336D01*
X181780905Y-149178067D01*
X181770128Y-149169344D01*
X181759796Y-149161217D01*
X181749986Y-149153734D01*
X181740771Y-149146946D01*
X181732226Y-149140902D01*
X181724425Y-149135651D01*
X181717442Y-149131244D01*
X181711353Y-149127730D01*
X181706230Y-149125159D01*
X181702150Y-149123580D01*
X181700524Y-149123178D01*
X181699186Y-149123042D01*
X181692213Y-149123443D01*
X181684774Y-149124659D01*
X181676853Y-149126712D01*
X181668428Y-149129624D01*
X181659483Y-149133416D01*
X181649998Y-149138111D01*
X181639956Y-149143730D01*
X181629336Y-149150295D01*
X181618121Y-149157826D01*
X181606293Y-149166347D01*
X181593831Y-149175879D01*
X181580719Y-149186443D01*
X181566937Y-149198062D01*
X181552466Y-149210756D01*
X181537289Y-149224548D01*
X181521386Y-149239459D01*
X181487628Y-149268703D01*
X181453037Y-149296105D01*
X181417620Y-149321659D01*
X181381389Y-149345358D01*
X181344351Y-149367198D01*
X181306516Y-149387171D01*
X181267893Y-149405271D01*
X181228493Y-149421492D01*
X181188323Y-149435828D01*
X181147394Y-149448273D01*
X181105714Y-149458820D01*
X181063293Y-149467464D01*
X181020141Y-149474197D01*
X180976266Y-149479014D01*
X180931678Y-149481909D01*
X180886386Y-149482876D01*
X180836213Y-149481925D01*
X180788809Y-149479039D01*
X180766111Y-149476855D01*
X180744065Y-149474169D01*
X180722657Y-149470975D01*
X180701873Y-149467265D01*
X180681700Y-149463035D01*
X180662124Y-149458278D01*
X180643132Y-149452987D01*
X180624709Y-149447157D01*
X180606844Y-149440781D01*
X180589521Y-149433853D01*
X180572728Y-149426367D01*
X180556451Y-149418317D01*
X180540676Y-149409697D01*
X180525390Y-149400499D01*
X180510579Y-149390719D01*
X180496230Y-149380350D01*
X180482328Y-149369385D01*
X180468861Y-149357819D01*
X180455815Y-149345645D01*
X180443176Y-149332857D01*
X180430931Y-149319449D01*
X180419067Y-149305415D01*
X180407569Y-149290748D01*
X180396424Y-149275442D01*
X180385618Y-149259492D01*
X180375138Y-149242891D01*
X180364971Y-149225632D01*
X180355103Y-149207709D01*
X180347771Y-149192643D01*
X180341248Y-149176849D01*
X180335522Y-149160381D01*
X180330584Y-149143291D01*
X180326422Y-149125635D01*
X180323026Y-149107464D01*
X180318491Y-149069795D01*
X180316896Y-149030712D01*
X180318157Y-148990643D01*
X180322189Y-148950016D01*
X180328909Y-148909259D01*
X180338234Y-148868799D01*
X180350080Y-148829065D01*
X180364363Y-148790485D01*
X180380999Y-148753485D01*
X180399905Y-148718495D01*
X180420997Y-148685942D01*
X180432336Y-148670713D01*
X180444191Y-148656254D01*
X180456550Y-148642618D01*
X180469403Y-148629859D01*
X180479022Y-148620823D01*
X180488110Y-148612739D01*
X180496783Y-148605567D01*
X180505155Y-148599266D01*
X180513341Y-148593796D01*
X180521456Y-148589117D01*
X180529614Y-148585188D01*
X180537930Y-148581969D01*
X180546520Y-148579420D01*
X180555496Y-148577500D01*
X180564975Y-148576170D01*
X180575071Y-148575388D01*
X180585899Y-148575114D01*
X180597573Y-148575309D01*
X180610209Y-148575932D01*
X180623920Y-148576942D01*
X180637900Y-148578167D01*
X180650531Y-148579497D01*
X180661904Y-148580989D01*
X180672107Y-148582697D01*
X180676799Y-148583650D01*
X180681232Y-148584678D01*
X180685417Y-148585789D01*
X180689367Y-148586988D01*
X180693092Y-148588284D01*
X180696603Y-148589683D01*
X180699912Y-148591192D01*
X180703030Y-148592817D01*
X180705968Y-148594567D01*
X180708738Y-148596448D01*
X180711350Y-148598467D01*
X180713816Y-148600631D01*
X180716147Y-148602947D01*
X180718355Y-148605421D01*
X180720450Y-148608062D01*
X180722444Y-148610875D01*
X180724348Y-148613868D01*
X180726173Y-148617048D01*
X180727931Y-148620422D01*
X180729633Y-148623997D01*
X180731290Y-148627779D01*
X180732913Y-148631776D01*
X180736103Y-148640442D01*
X180738998Y-148649643D01*
X180741304Y-148658285D01*
X180742977Y-148666506D01*
X180743974Y-148674441D01*
X180744252Y-148682228D01*
X180743768Y-148690002D01*
X180742477Y-148697901D01*
X180740336Y-148706059D01*
X180737303Y-148714615D01*
X180733333Y-148723704D01*
X180728384Y-148733462D01*
X180722411Y-148744027D01*
X180715371Y-148755534D01*
X180707222Y-148768121D01*
X180697919Y-148781922D01*
X180687420Y-148797076D01*
X180669807Y-148822251D01*
X180654272Y-148846967D01*
X180640808Y-148871211D01*
X180634851Y-148883153D01*
X180629410Y-148894972D01*
X180624483Y-148906667D01*
X180620070Y-148918236D01*
X180616170Y-148929679D01*
X180612782Y-148940993D01*
X180609906Y-148952176D01*
X180607541Y-148963228D01*
X180605686Y-148974146D01*
X180604340Y-148984930D01*
X180603503Y-148995577D01*
X180603174Y-149006086D01*
X180603351Y-149016456D01*
X180604035Y-149026684D01*
X180605224Y-149036770D01*
X180606917Y-149046712D01*
X180609114Y-149056508D01*
X180611815Y-149066157D01*
X180615018Y-149075657D01*
X180618722Y-149085006D01*
X180622927Y-149094204D01*
X180627632Y-149103248D01*
X180632836Y-149112137D01*
X180638539Y-149120870D01*
X180644739Y-149129444D01*
X180651436Y-149137859D01*
X180664920Y-149152700D01*
X180679534Y-149166273D01*
X180695217Y-149178588D01*
X180711910Y-149189655D01*
X180729552Y-149199483D01*
X180748081Y-149208082D01*
X180767439Y-149215462D01*
X180787564Y-149221633D01*
X180808396Y-149226603D01*
X180829875Y-149230383D01*
X180851939Y-149232982D01*
X180874530Y-149234411D01*
X180897585Y-149234679D01*
X180921045Y-149233795D01*
X180968936Y-149228611D01*
X181017721Y-149218938D01*
X181066915Y-149204852D01*
X181116034Y-149186432D01*
X181164596Y-149163755D01*
X181212115Y-149136898D01*
X181258110Y-149105939D01*
X181280384Y-149088946D01*
X181302095Y-149070956D01*
X181323183Y-149051979D01*
X181343587Y-149032026D01*
X181367151Y-149007368D01*
X181389426Y-148982602D01*
X181410411Y-148957719D01*
X181430106Y-148932708D01*
X181448511Y-148907561D01*
X181465626Y-148882268D01*
X181481451Y-148856819D01*
X181495987Y-148831207D01*
X181509232Y-148805421D01*
X181521188Y-148779452D01*
X181531854Y-148753291D01*
X181541230Y-148726928D01*
X181549317Y-148700355D01*
X181556113Y-148673561D01*
X181561620Y-148646538D01*
X181565837Y-148619276D01*
X181569872Y-148584028D01*
X181571194Y-148569372D01*
X181571922Y-148556371D01*
X181572032Y-148550416D01*
X181571955Y-148544784D01*
X181571680Y-148539445D01*
X181571194Y-148534369D01*
X181570485Y-148529526D01*
X181569541Y-148524884D01*
X181568348Y-148520415D01*
X181566895Y-148516088D01*
X181565169Y-148511872D01*
X181563158Y-148507738D01*
X181560849Y-148503655D01*
X181558230Y-148499593D01*
X181555288Y-148495522D01*
X181552012Y-148491411D01*
X181548389Y-148487230D01*
X181544405Y-148482949D01*
X181535310Y-148473967D01*
X181524628Y-148464222D01*
X181512258Y-148453472D01*
X181498103Y-148441476D01*
X181463302Y-148411203D01*
X181431825Y-148382945D01*
X181403523Y-148356486D01*
X181378247Y-148331607D01*
X181355848Y-148308094D01*
X181336178Y-148285727D01*
X181319088Y-148264291D01*
X181304428Y-148243567D01*
X181297963Y-148233405D01*
X181292050Y-148223340D01*
X181286671Y-148213345D01*
X181281806Y-148203392D01*
X181277437Y-148193455D01*
X181273546Y-148183506D01*
X181270114Y-148173518D01*
X181267122Y-148163465D01*
X181264551Y-148153318D01*
X181262384Y-148143052D01*
X181259184Y-148122049D01*
X181257374Y-148100241D01*
X181256803Y-148077409D01*
X181257136Y-148062194D01*
X181258180Y-148048256D01*
X181259998Y-148035533D01*
X181261219Y-148029608D01*
X181262657Y-148023963D01*
X181264322Y-148018592D01*
X181266221Y-148013486D01*
X181268363Y-148008636D01*
X181270756Y-148004037D01*
X181273407Y-147999679D01*
X181276326Y-147995556D01*
X181279520Y-147991659D01*
X181282997Y-147987980D01*
X181286766Y-147984512D01*
X181290834Y-147981248D01*
X181295210Y-147978178D01*
X181299901Y-147975296D01*
X181304917Y-147972595D01*
X181310265Y-147970065D01*
X181315953Y-147967699D01*
X181321990Y-147965490D01*
X181335141Y-147961511D01*
X181349784Y-147958065D01*
X181365983Y-147955091D01*
X181383803Y-147952525D01*
X181431030Y-147947980D01*
X181481025Y-147944638D01*
X181533185Y-147942461D01*
X181586904Y-147941413D01*
X181641578Y-147941457D01*
G37*
G36*
X184377144Y-147739093D02*
G01*
X184388941Y-147740595D01*
X184400985Y-147742866D01*
X184413365Y-147745915D01*
X184426166Y-147749752D01*
X184439476Y-147754386D01*
X184453381Y-147759826D01*
X184467968Y-147766082D01*
X184483324Y-147773162D01*
X184499536Y-147781076D01*
X184515216Y-147789690D01*
X184529727Y-147798894D01*
X184543091Y-147808730D01*
X184555330Y-147819242D01*
X184566464Y-147830473D01*
X184576517Y-147842467D01*
X184585509Y-147855268D01*
X184593463Y-147868917D01*
X184600399Y-147883460D01*
X184606341Y-147898939D01*
X184611308Y-147915398D01*
X184615324Y-147932881D01*
X184618410Y-147951429D01*
X184620587Y-147971088D01*
X184621877Y-147991900D01*
X184622303Y-148013909D01*
X184622171Y-148030277D01*
X184621749Y-148045333D01*
X184620991Y-148059204D01*
X184619855Y-148072018D01*
X184618298Y-148083902D01*
X184616275Y-148094983D01*
X184613744Y-148105388D01*
X184612274Y-148110377D01*
X184610661Y-148115244D01*
X184608899Y-148120006D01*
X184606983Y-148124679D01*
X184604907Y-148129278D01*
X184602666Y-148133819D01*
X184597667Y-148142792D01*
X184591942Y-148151724D01*
X184585448Y-148160743D01*
X184578143Y-148169976D01*
X184569981Y-148179550D01*
X184560920Y-148189593D01*
X184550663Y-148200445D01*
X184541172Y-148210036D01*
X184532220Y-148218442D01*
X184523581Y-148225741D01*
X184515029Y-148232011D01*
X184506337Y-148237329D01*
X184497280Y-148241773D01*
X184487630Y-148245420D01*
X184477162Y-148248347D01*
X184465649Y-148250633D01*
X184452865Y-148252354D01*
X184438583Y-148253589D01*
X184422577Y-148254414D01*
X184404621Y-148254908D01*
X184361953Y-148255209D01*
X184339070Y-148255147D01*
X184318690Y-148254908D01*
X184300585Y-148254414D01*
X184284529Y-148253589D01*
X184277200Y-148253027D01*
X184270297Y-148252354D01*
X184263794Y-148251559D01*
X184257662Y-148250633D01*
X184251872Y-148249565D01*
X184246397Y-148248347D01*
X184241207Y-148246968D01*
X184236276Y-148245420D01*
X184231574Y-148243691D01*
X184227073Y-148241773D01*
X184222745Y-148239655D01*
X184218561Y-148237329D01*
X184214494Y-148234784D01*
X184210515Y-148232011D01*
X184206595Y-148229000D01*
X184202707Y-148225741D01*
X184198822Y-148222225D01*
X184194911Y-148218442D01*
X184190948Y-148214382D01*
X184186902Y-148210036D01*
X184178453Y-148200445D01*
X184169336Y-148189593D01*
X184156509Y-148173904D01*
X184145003Y-148158537D01*
X184134799Y-148143418D01*
X184125878Y-148128474D01*
X184118223Y-148113628D01*
X184111814Y-148098807D01*
X184106633Y-148083937D01*
X184102661Y-148068942D01*
X184099880Y-148053749D01*
X184098271Y-148038284D01*
X184097815Y-148022471D01*
X184098494Y-148006236D01*
X184100289Y-147989505D01*
X184103182Y-147972204D01*
X184107154Y-147954258D01*
X184112186Y-147935592D01*
X184118114Y-147917734D01*
X184124783Y-147900676D01*
X184132190Y-147884423D01*
X184140332Y-147868983D01*
X184149205Y-147854362D01*
X184158807Y-147840565D01*
X184169134Y-147827600D01*
X184180184Y-147815471D01*
X184191954Y-147804186D01*
X184204439Y-147793751D01*
X184217638Y-147784171D01*
X184231546Y-147775453D01*
X184246162Y-147767604D01*
X184261482Y-147760628D01*
X184277502Y-147754534D01*
X184294220Y-147749326D01*
X184306711Y-147745706D01*
X184318843Y-147742790D01*
X184330701Y-147740587D01*
X184342374Y-147739106D01*
X184353947Y-147738358D01*
X184365508Y-147738350D01*
X184377144Y-147739093D01*
G37*
G36*
X179110000Y-147390000D02*
G01*
X179135853Y-147392634D01*
X179160513Y-147397278D01*
X179183950Y-147403813D01*
X179206131Y-147412121D01*
X179227024Y-147422086D01*
X179246599Y-147433588D01*
X179264822Y-147446510D01*
X179281662Y-147460735D01*
X179297087Y-147476144D01*
X179311066Y-147492619D01*
X179323567Y-147510043D01*
X179334558Y-147528299D01*
X179344007Y-147547267D01*
X179351883Y-147566831D01*
X179358153Y-147586872D01*
X179362786Y-147607273D01*
X179365751Y-147627915D01*
X179367014Y-147648682D01*
X179366546Y-147669455D01*
X179364312Y-147690116D01*
X179360283Y-147710548D01*
X179354426Y-147730633D01*
X179346710Y-147750252D01*
X179337102Y-147769289D01*
X179325571Y-147787625D01*
X179312085Y-147805142D01*
X179296613Y-147821723D01*
X179279122Y-147837249D01*
X179259580Y-147851604D01*
X179237957Y-147864669D01*
X179214220Y-147876326D01*
X179199734Y-147882679D01*
X179186339Y-147888257D01*
X179173887Y-147893078D01*
X179162229Y-147897162D01*
X179151216Y-147900526D01*
X179140699Y-147903189D01*
X179130529Y-147905171D01*
X179120557Y-147906488D01*
X179110636Y-147907161D01*
X179100614Y-147907208D01*
X179090345Y-147906646D01*
X179079679Y-147905496D01*
X179068468Y-147903775D01*
X179056561Y-147901503D01*
X179043812Y-147898697D01*
X179030070Y-147895376D01*
X179005068Y-147887785D01*
X178981655Y-147879298D01*
X178959837Y-147869912D01*
X178939615Y-147859624D01*
X178930104Y-147854140D01*
X178920994Y-147848430D01*
X178912284Y-147842493D01*
X178903975Y-147836328D01*
X178896068Y-147829935D01*
X178888562Y-147823314D01*
X178881459Y-147816465D01*
X178874759Y-147809386D01*
X178868462Y-147802078D01*
X178862568Y-147794540D01*
X178857078Y-147786772D01*
X178851992Y-147778773D01*
X178847311Y-147770543D01*
X178843035Y-147762082D01*
X178839165Y-147753389D01*
X178835700Y-147744464D01*
X178832641Y-147735306D01*
X178829989Y-147725916D01*
X178827744Y-147716292D01*
X178825906Y-147706434D01*
X178824476Y-147696343D01*
X178823454Y-147686016D01*
X178822841Y-147675455D01*
X178822636Y-147664659D01*
X178822814Y-147654913D01*
X178823344Y-147645133D01*
X178824216Y-147635334D01*
X178825422Y-147625530D01*
X178826954Y-147615737D01*
X178828803Y-147605970D01*
X178830961Y-147596244D01*
X178833418Y-147586574D01*
X178839198Y-147567464D01*
X178846077Y-147548759D01*
X178853984Y-147530582D01*
X178862853Y-147513053D01*
X178872615Y-147496292D01*
X178883201Y-147480422D01*
X178888782Y-147472858D01*
X178894544Y-147465562D01*
X178900478Y-147458549D01*
X178906575Y-147451834D01*
X178912828Y-147445433D01*
X178919227Y-147439359D01*
X178925764Y-147433629D01*
X178932430Y-147428258D01*
X178939217Y-147423260D01*
X178946117Y-147418650D01*
X178953121Y-147414445D01*
X178960220Y-147410659D01*
X178964947Y-147408677D01*
X178970357Y-147406711D01*
X178976386Y-147404775D01*
X178982974Y-147402887D01*
X178997576Y-147399311D01*
X179013666Y-147396107D01*
X179030748Y-147393399D01*
X179048326Y-147391311D01*
X179065905Y-147389968D01*
X179074539Y-147389614D01*
X179082987Y-147389492D01*
X179110000Y-147390000D01*
G37*
G36*
X181796553Y-142459777D02*
G01*
X181871463Y-142462716D01*
X181902407Y-142464413D01*
X181929903Y-142466622D01*
X181954621Y-142469613D01*
X181977230Y-142473654D01*
X181998401Y-142479017D01*
X182008656Y-142482277D01*
X182018803Y-142485970D01*
X182039106Y-142494783D01*
X182059979Y-142505726D01*
X182082092Y-142519070D01*
X182106116Y-142535083D01*
X182132719Y-142554035D01*
X182162571Y-142576197D01*
X182234703Y-142631226D01*
X182250595Y-142645107D01*
X182268669Y-142663398D01*
X182288579Y-142685595D01*
X182309977Y-142711197D01*
X182332516Y-142739700D01*
X182355849Y-142770604D01*
X182403507Y-142837601D01*
X182450173Y-142908171D01*
X182493069Y-142978293D01*
X182512234Y-143011932D01*
X182529416Y-143043951D01*
X182544265Y-143073850D01*
X182556436Y-143101126D01*
X182564317Y-143118236D01*
X182573051Y-143133926D01*
X182582895Y-143148314D01*
X182594107Y-143161517D01*
X182606942Y-143173654D01*
X182621660Y-143184842D01*
X182638518Y-143195199D01*
X182657772Y-143204843D01*
X182679680Y-143213891D01*
X182704500Y-143222462D01*
X182732488Y-143230674D01*
X182763903Y-143238643D01*
X182799001Y-143246489D01*
X182838040Y-143254328D01*
X182928970Y-143270460D01*
X183070432Y-143296514D01*
X183212446Y-143327589D01*
X183354125Y-143363296D01*
X183494583Y-143403247D01*
X183632932Y-143447056D01*
X183768286Y-143494334D01*
X183899758Y-143544694D01*
X184026462Y-143597749D01*
X184147509Y-143653110D01*
X184262015Y-143710391D01*
X184369092Y-143769204D01*
X184467853Y-143829160D01*
X184557411Y-143889873D01*
X184636881Y-143950955D01*
X184705374Y-144012018D01*
X184762004Y-144072675D01*
X184777657Y-144092595D01*
X184793571Y-144114852D01*
X184809610Y-144139155D01*
X184825635Y-144165214D01*
X184841512Y-144192735D01*
X184857104Y-144221429D01*
X184872274Y-144251004D01*
X184886886Y-144281167D01*
X184900804Y-144311629D01*
X184913890Y-144342096D01*
X184926009Y-144372278D01*
X184937025Y-144401884D01*
X184946800Y-144430621D01*
X184955198Y-144458199D01*
X184962083Y-144484325D01*
X184967319Y-144508709D01*
X184974472Y-144539494D01*
X184984360Y-144569452D01*
X184997485Y-144599043D01*
X185014349Y-144628731D01*
X185035454Y-144658976D01*
X185061304Y-144690242D01*
X185092400Y-144722990D01*
X185129244Y-144757682D01*
X185172339Y-144794780D01*
X185222187Y-144834746D01*
X185279291Y-144878042D01*
X185344152Y-144925130D01*
X185499156Y-145032531D01*
X185691219Y-145160642D01*
X186051053Y-145397709D01*
X186142036Y-145458299D01*
X186242347Y-145522064D01*
X186374010Y-145602497D01*
X186559052Y-145713092D01*
X186685953Y-145789755D01*
X186812259Y-145867609D01*
X186923086Y-145937525D01*
X186968045Y-145966654D01*
X187003553Y-145990376D01*
X187070029Y-146032742D01*
X187140078Y-146076894D01*
X187205363Y-146117475D01*
X187257553Y-146149126D01*
X187268557Y-146155097D01*
X187279310Y-146161078D01*
X187289760Y-146167027D01*
X187299853Y-146172905D01*
X187318758Y-146184287D01*
X187335605Y-146194899D01*
X187349971Y-146204419D01*
X187356092Y-146208670D01*
X187361435Y-146212526D01*
X187365947Y-146215949D01*
X187369575Y-146218897D01*
X187372267Y-146221331D01*
X187373969Y-146223209D01*
X187381237Y-146228749D01*
X187397583Y-146240142D01*
X187453344Y-146277713D01*
X187532918Y-146330365D01*
X187627969Y-146392543D01*
X187677483Y-146424251D01*
X187725236Y-146455315D01*
X187770063Y-146484890D01*
X187810796Y-146512134D01*
X187846271Y-146536203D01*
X187875321Y-146556253D01*
X187896781Y-146571442D01*
X187909485Y-146580925D01*
X187918642Y-146588020D01*
X187929958Y-146596404D01*
X187943009Y-146605780D01*
X187957375Y-146615851D01*
X187972635Y-146626319D01*
X187988365Y-146636885D01*
X188004145Y-146647254D01*
X188019553Y-146657126D01*
X188107853Y-146714392D01*
X188205654Y-146784258D01*
X188312335Y-146866229D01*
X188427275Y-146959809D01*
X188549856Y-147064501D01*
X188679456Y-147179810D01*
X188815456Y-147305239D01*
X188957235Y-147440292D01*
X189036522Y-147519564D01*
X189111607Y-147600894D01*
X189182408Y-147684110D01*
X189248840Y-147769037D01*
X189310819Y-147855502D01*
X189368262Y-147943331D01*
X189421085Y-148032351D01*
X189469205Y-148122388D01*
X189512537Y-148213268D01*
X189550999Y-148304818D01*
X189584505Y-148396864D01*
X189612973Y-148489233D01*
X189636319Y-148581750D01*
X189654459Y-148674243D01*
X189667310Y-148766537D01*
X189674787Y-148858459D01*
X189676974Y-148907586D01*
X189677995Y-148957190D01*
X189677875Y-149007055D01*
X189676639Y-149056963D01*
X189674311Y-149106697D01*
X189670917Y-149156041D01*
X189666481Y-149204777D01*
X189661028Y-149252688D01*
X189654583Y-149299558D01*
X189647170Y-149345168D01*
X189638815Y-149389303D01*
X189629542Y-149431745D01*
X189619376Y-149472277D01*
X189608342Y-149510682D01*
X189596465Y-149546743D01*
X189583769Y-149580242D01*
X189573686Y-149606043D01*
X189564223Y-149630678D01*
X189555604Y-149653577D01*
X189548051Y-149674169D01*
X189541788Y-149691884D01*
X189537038Y-149706151D01*
X189534024Y-149716399D01*
X189533238Y-149719838D01*
X189532970Y-149722059D01*
X189532506Y-149724377D01*
X189531147Y-149728103D01*
X189525925Y-149739455D01*
X189517677Y-149755471D01*
X189506776Y-149775505D01*
X189493592Y-149798912D01*
X189478498Y-149825048D01*
X189444068Y-149882925D01*
X189425958Y-149911350D01*
X189406638Y-149940162D01*
X189386239Y-149969204D01*
X189364892Y-149998317D01*
X189342726Y-150027343D01*
X189319872Y-150056124D01*
X189296459Y-150084502D01*
X189272619Y-150112319D01*
X189248481Y-150139417D01*
X189224175Y-150165637D01*
X189199833Y-150190821D01*
X189175583Y-150214812D01*
X189151557Y-150237451D01*
X189127884Y-150258580D01*
X189104695Y-150278041D01*
X189082120Y-150295675D01*
X189058758Y-150312432D01*
X189031853Y-150330013D01*
X189001878Y-150348202D01*
X188969307Y-150366782D01*
X188898279Y-150404246D01*
X188822563Y-150440667D01*
X188745953Y-150474310D01*
X188672246Y-150503439D01*
X188637667Y-150515768D01*
X188605236Y-150526318D01*
X188575429Y-150534870D01*
X188548719Y-150541209D01*
X188521095Y-150546616D01*
X188491238Y-150553115D01*
X188460092Y-150560408D01*
X188428598Y-150568196D01*
X188368340Y-150584071D01*
X188318004Y-150598359D01*
X188285898Y-150607599D01*
X188251262Y-150614730D01*
X188211368Y-150619827D01*
X188163486Y-150622965D01*
X188104889Y-150624218D01*
X188032848Y-150623660D01*
X187944634Y-150621365D01*
X187837519Y-150617409D01*
X187460753Y-150602592D01*
X187401486Y-150691493D01*
X187383138Y-150720059D01*
X187375580Y-150733099D01*
X187369008Y-150745798D01*
X187363354Y-150758522D01*
X187358549Y-150771636D01*
X187354525Y-150785507D01*
X187351215Y-150800501D01*
X187348549Y-150816982D01*
X187346461Y-150835318D01*
X187344880Y-150855874D01*
X187343740Y-150879016D01*
X187342508Y-150934520D01*
X187342219Y-151004759D01*
X187342562Y-151078106D01*
X187344567Y-151139101D01*
X187346650Y-151167059D01*
X187349698Y-151194440D01*
X187353893Y-151222082D01*
X187359417Y-151250821D01*
X187366455Y-151281495D01*
X187375189Y-151314941D01*
X187398477Y-151393498D01*
X187430743Y-151493188D01*
X187473453Y-151620709D01*
X187572076Y-151921044D01*
X187654428Y-152178715D01*
X187719317Y-152390745D01*
X187744841Y-152478715D01*
X187765552Y-152554159D01*
X187775031Y-152586506D01*
X187785223Y-152616088D01*
X187790592Y-152629845D01*
X187796146Y-152642916D01*
X187801888Y-152655302D01*
X187807820Y-152667003D01*
X187813944Y-152678023D01*
X187820262Y-152688362D01*
X187826778Y-152698022D01*
X187833492Y-152707005D01*
X187840409Y-152715312D01*
X187847529Y-152722944D01*
X187854855Y-152729904D01*
X187862390Y-152736192D01*
X187870136Y-152741811D01*
X187878094Y-152746761D01*
X187886269Y-152751045D01*
X187894661Y-152754663D01*
X187903273Y-152757618D01*
X187912108Y-152759912D01*
X187921167Y-152761544D01*
X187930454Y-152762518D01*
X187939970Y-152762835D01*
X187949718Y-152762495D01*
X187959700Y-152761502D01*
X187969918Y-152759856D01*
X187980376Y-152757558D01*
X187991074Y-152754612D01*
X188002015Y-152751017D01*
X188013203Y-152746775D01*
X188017405Y-152744604D01*
X188022810Y-152741306D01*
X188036883Y-152731595D01*
X188054726Y-152718163D01*
X188075645Y-152701532D01*
X188098945Y-152682221D01*
X188123931Y-152660753D01*
X188149910Y-152637647D01*
X188176187Y-152613425D01*
X188216739Y-152575698D01*
X188255834Y-152540309D01*
X188293453Y-152507265D01*
X188329578Y-152476570D01*
X188364190Y-152448232D01*
X188397270Y-152422256D01*
X188428800Y-152398649D01*
X188458760Y-152377417D01*
X188487134Y-152358567D01*
X188513901Y-152342104D01*
X188539044Y-152328034D01*
X188562543Y-152316365D01*
X188584381Y-152307101D01*
X188604538Y-152300250D01*
X188613980Y-152297730D01*
X188622995Y-152295817D01*
X188631581Y-152294509D01*
X188639735Y-152293808D01*
X188686068Y-152292854D01*
X188730694Y-152294809D01*
X188752409Y-152296902D01*
X188773746Y-152299752D01*
X188794722Y-152303370D01*
X188815353Y-152307765D01*
X188835655Y-152312948D01*
X188855645Y-152318928D01*
X188875339Y-152325716D01*
X188894753Y-152333322D01*
X188913903Y-152341756D01*
X188932806Y-152351028D01*
X188951479Y-152361147D01*
X188969936Y-152372125D01*
X188988195Y-152383971D01*
X189006272Y-152396695D01*
X189024183Y-152410308D01*
X189041944Y-152424819D01*
X189077083Y-152456576D01*
X189111819Y-152492048D01*
X189146282Y-152531315D01*
X189180602Y-152574457D01*
X189214910Y-152621556D01*
X189249336Y-152672692D01*
X189285313Y-152730150D01*
X189318677Y-152786777D01*
X189349492Y-152842784D01*
X189377824Y-152898382D01*
X189403737Y-152953781D01*
X189427297Y-153009192D01*
X189448569Y-153064827D01*
X189467617Y-153120896D01*
X189484508Y-153177610D01*
X189499305Y-153235179D01*
X189512075Y-153293816D01*
X189522882Y-153353729D01*
X189531792Y-153415131D01*
X189538869Y-153478232D01*
X189544179Y-153543243D01*
X189547787Y-153610375D01*
X189550697Y-153701495D01*
X189551226Y-153780536D01*
X189550474Y-153816712D01*
X189548977Y-153851291D01*
X189546687Y-153884748D01*
X189543553Y-153917557D01*
X189539527Y-153950192D01*
X189534557Y-153983128D01*
X189528596Y-154016839D01*
X189521592Y-154051799D01*
X189504262Y-154127367D01*
X189482169Y-154213625D01*
X189450874Y-154317518D01*
X189413481Y-154419488D01*
X189370190Y-154519300D01*
X189321203Y-154616718D01*
X189266722Y-154711507D01*
X189206948Y-154803431D01*
X189142084Y-154892255D01*
X189072329Y-154977742D01*
X188997887Y-155059658D01*
X188918958Y-155137766D01*
X188835744Y-155211830D01*
X188748446Y-155281616D01*
X188657267Y-155346888D01*
X188562407Y-155407409D01*
X188464069Y-155462945D01*
X188362452Y-155513259D01*
X188332790Y-155526409D01*
X188304542Y-155538692D01*
X188278328Y-155549833D01*
X188254767Y-155559560D01*
X188234481Y-155567601D01*
X188218090Y-155573683D01*
X188211548Y-155575903D01*
X188206212Y-155577531D01*
X188202160Y-155578534D01*
X188199469Y-155578875D01*
X188196498Y-155579247D01*
X188193160Y-155580335D01*
X188189485Y-155582100D01*
X188185504Y-155584502D01*
X188176745Y-155591056D01*
X188167124Y-155599678D01*
X188156883Y-155610049D01*
X188146263Y-155621849D01*
X188135508Y-155634759D01*
X188124857Y-155648460D01*
X188114554Y-155662632D01*
X188104840Y-155676957D01*
X188095956Y-155691113D01*
X188088146Y-155704783D01*
X188081650Y-155717647D01*
X188076711Y-155729385D01*
X188074901Y-155734733D01*
X188073570Y-155739679D01*
X188072749Y-155744184D01*
X188072469Y-155748208D01*
X188071889Y-155757780D01*
X188070113Y-155769123D01*
X188062746Y-155797653D01*
X188049922Y-155834864D01*
X188031194Y-155881823D01*
X188006117Y-155939598D01*
X187974243Y-156009253D01*
X187935126Y-156091857D01*
X187888319Y-156188475D01*
X187844979Y-156271257D01*
X187796790Y-156352848D01*
X187743863Y-156433149D01*
X187686310Y-156512060D01*
X187624242Y-156589484D01*
X187557772Y-156665320D01*
X187487010Y-156739470D01*
X187412069Y-156811833D01*
X187333060Y-156882312D01*
X187250095Y-156950806D01*
X187163284Y-157017216D01*
X187072741Y-157081444D01*
X186978576Y-157143389D01*
X186880901Y-157202954D01*
X186779828Y-157260038D01*
X186675469Y-157314542D01*
X186591377Y-157352642D01*
X186478189Y-157398283D01*
X186344513Y-157448487D01*
X186198955Y-157500280D01*
X186050123Y-157550683D01*
X185906623Y-157596720D01*
X185777064Y-157635415D01*
X185670052Y-157663792D01*
X185609959Y-157677285D01*
X185540142Y-157693954D01*
X185405469Y-157727291D01*
X185292017Y-157755321D01*
X185191984Y-157779282D01*
X185103906Y-157799474D01*
X185026322Y-157816192D01*
X184957766Y-157829735D01*
X184896775Y-157840401D01*
X184841886Y-157848487D01*
X184791636Y-157854291D01*
X184762218Y-157857934D01*
X184731708Y-157862395D01*
X184701000Y-157867501D01*
X184670986Y-157873077D01*
X184642560Y-157878952D01*
X184616614Y-157884950D01*
X184594042Y-157890899D01*
X184575736Y-157896625D01*
X184566587Y-157899870D01*
X184555127Y-157903236D01*
X184525961Y-157910218D01*
X184489602Y-157917350D01*
X184447413Y-157924407D01*
X184400760Y-157931166D01*
X184351006Y-157937405D01*
X184299516Y-157942899D01*
X184247653Y-157947426D01*
X184194257Y-157952044D01*
X184138380Y-157957778D01*
X184081710Y-157964355D01*
X184025932Y-157971502D01*
X183972734Y-157978948D01*
X183923803Y-157986418D01*
X183880825Y-157993640D01*
X183845487Y-158000341D01*
X183806862Y-158007655D01*
X183755958Y-158015191D01*
X183694984Y-158022778D01*
X183626147Y-158030240D01*
X183473714Y-158044098D01*
X183316320Y-158055376D01*
X183151716Y-158065925D01*
X182982151Y-158077864D01*
X182827270Y-158090200D01*
X182706719Y-158101941D01*
X182536869Y-158111665D01*
X182269463Y-158118610D01*
X181570864Y-158124167D01*
X180868692Y-158118610D01*
X180596821Y-158111665D01*
X180420720Y-158101941D01*
X180167997Y-158078083D01*
X179966992Y-158060303D01*
X179883629Y-158053606D01*
X179810487Y-158048326D01*
X179746666Y-158044430D01*
X179691264Y-158041881D01*
X179643377Y-158040648D01*
X179602103Y-158040695D01*
X179566541Y-158041989D01*
X179535788Y-158044494D01*
X179508941Y-158048179D01*
X179485100Y-158053007D01*
X179463360Y-158058945D01*
X179442820Y-158065959D01*
X179388845Y-158083686D01*
X179315820Y-158106175D01*
X179233270Y-158130252D01*
X179150720Y-158152742D01*
X179090804Y-158168977D01*
X179038107Y-158181416D01*
X179013000Y-158186329D01*
X178987939Y-158190433D01*
X178962339Y-158193774D01*
X178935614Y-158196398D01*
X178907177Y-158198353D01*
X178876442Y-158199685D01*
X178805736Y-158200665D01*
X178718808Y-158199710D01*
X178610970Y-158197193D01*
X178529085Y-158194414D01*
X178451988Y-158190843D01*
X178380100Y-158186477D01*
X178313843Y-158181317D01*
X178253637Y-158175364D01*
X178199906Y-158168617D01*
X178153071Y-158161076D01*
X178132371Y-158157008D01*
X178113553Y-158152742D01*
X178047643Y-158135727D01*
X177981063Y-158115738D01*
X177914086Y-158092927D01*
X177846985Y-158067447D01*
X177780033Y-158039449D01*
X177713503Y-158009086D01*
X177647667Y-157976508D01*
X177582799Y-157941869D01*
X177519171Y-157905320D01*
X177457056Y-157867012D01*
X177396727Y-157827099D01*
X177338456Y-157785731D01*
X177282518Y-157743062D01*
X177229183Y-157699242D01*
X177178727Y-157654423D01*
X177131420Y-157608759D01*
X177116865Y-157594548D01*
X177101795Y-157580506D01*
X177086241Y-157566649D01*
X177070235Y-157552997D01*
X177053807Y-157539569D01*
X177036988Y-157526382D01*
X177019810Y-157513456D01*
X177002303Y-157500808D01*
X176984498Y-157488459D01*
X176966427Y-157476425D01*
X176948120Y-157464727D01*
X176929609Y-157453382D01*
X176910924Y-157442409D01*
X176892096Y-157431826D01*
X176873156Y-157421653D01*
X176854136Y-157411908D01*
X176788619Y-157379563D01*
X176726872Y-157348408D01*
X176675840Y-157322016D01*
X176656513Y-157311722D01*
X176642470Y-157303958D01*
X176627679Y-157296217D01*
X176611158Y-157289654D01*
X176593012Y-157284257D01*
X176573347Y-157280014D01*
X176552269Y-157276911D01*
X176529881Y-157274937D01*
X176506291Y-157274079D01*
X176481603Y-157274325D01*
X176455923Y-157275663D01*
X176429356Y-157278079D01*
X176402008Y-157281562D01*
X176373984Y-157286099D01*
X176345389Y-157291678D01*
X176316329Y-157298287D01*
X176286910Y-157305912D01*
X176257236Y-157314542D01*
X176220757Y-157325675D01*
X176180904Y-157335345D01*
X176137281Y-157343675D01*
X176089491Y-157350789D01*
X176037136Y-157356813D01*
X175979821Y-157361869D01*
X175917148Y-157366081D01*
X175848720Y-157369574D01*
X175767832Y-157372811D01*
X175699296Y-157374436D01*
X175668684Y-157374574D01*
X175639988Y-157374225D01*
X175612818Y-157373362D01*
X175586782Y-157371956D01*
X175561491Y-157369979D01*
X175536553Y-157367404D01*
X175511578Y-157364203D01*
X175486174Y-157360348D01*
X175432522Y-157350562D01*
X175372470Y-157337825D01*
X175270727Y-157311959D01*
X175171899Y-157281212D01*
X175076023Y-157245617D01*
X174983135Y-157205203D01*
X174893274Y-157160002D01*
X174806477Y-157110044D01*
X174722779Y-157055361D01*
X174642220Y-156995984D01*
X174564835Y-156931943D01*
X174490663Y-156863271D01*
X174419740Y-156789996D01*
X174352104Y-156712152D01*
X174287792Y-156629768D01*
X174226841Y-156542876D01*
X174169288Y-156451507D01*
X174115170Y-156355692D01*
X174094313Y-156315098D01*
X174073130Y-156270657D01*
X174030470Y-156172303D01*
X173988554Y-156064770D01*
X173948747Y-155952202D01*
X173912412Y-155838742D01*
X173880914Y-155728530D01*
X173855618Y-155625711D01*
X173845721Y-155578367D01*
X173837887Y-155534425D01*
X173834848Y-155512763D01*
X173830644Y-155486536D01*
X173819630Y-155424358D01*
X173806633Y-155355831D01*
X173793437Y-155288892D01*
X173777568Y-155193468D01*
X173767193Y-155097201D01*
X173762201Y-155000538D01*
X173762318Y-154960159D01*
X174165441Y-154960159D01*
X174169000Y-155071792D01*
X174178141Y-155186498D01*
X174192788Y-155303511D01*
X174212867Y-155422064D01*
X174238305Y-155541393D01*
X174269025Y-155660731D01*
X174304955Y-155779312D01*
X174346019Y-155896371D01*
X174392143Y-156011142D01*
X174443253Y-156122859D01*
X174489734Y-156211804D01*
X174539471Y-156296061D01*
X174592444Y-156375606D01*
X174648636Y-156450413D01*
X174708028Y-156520457D01*
X174770601Y-156585714D01*
X174836336Y-156646159D01*
X174905216Y-156701767D01*
X174977221Y-156752513D01*
X175052332Y-156798373D01*
X175130532Y-156839321D01*
X175211802Y-156875334D01*
X175296122Y-156906385D01*
X175383475Y-156932451D01*
X175473841Y-156953506D01*
X175567203Y-156969525D01*
X175639769Y-156979943D01*
X175699660Y-156987385D01*
X175726039Y-156989989D01*
X175750671Y-156991849D01*
X175774032Y-156992966D01*
X175796597Y-156993338D01*
X175818839Y-156992966D01*
X175841233Y-156991849D01*
X175864253Y-156989989D01*
X175888374Y-156987385D01*
X175914070Y-156984036D01*
X175941816Y-156979943D01*
X176005353Y-156969525D01*
X176044354Y-156962736D01*
X176082707Y-156955097D01*
X176120309Y-156946652D01*
X176157059Y-156937444D01*
X176192853Y-156927517D01*
X176227591Y-156916914D01*
X176261169Y-156905679D01*
X176293484Y-156893854D01*
X176324436Y-156881484D01*
X176353921Y-156868612D01*
X176381837Y-156855280D01*
X176408082Y-156841533D01*
X176432553Y-156827414D01*
X176455149Y-156812966D01*
X176475766Y-156798233D01*
X176494303Y-156783259D01*
X176511749Y-156767908D01*
X176518767Y-156760585D01*
X176524730Y-156752930D01*
X176529701Y-156744519D01*
X176533743Y-156734926D01*
X176536916Y-156723727D01*
X176539282Y-156710498D01*
X176540905Y-156694812D01*
X176541845Y-156676246D01*
X176542166Y-156654375D01*
X176541928Y-156628774D01*
X176540026Y-156564683D01*
X176536636Y-156480574D01*
X176530266Y-156295937D01*
X176526946Y-156113532D01*
X176526553Y-155938171D01*
X176528964Y-155774667D01*
X176534053Y-155627832D01*
X176541697Y-155502477D01*
X176546438Y-155449359D01*
X176551772Y-155403415D01*
X176557682Y-155365248D01*
X176564153Y-155335458D01*
X176587895Y-155243966D01*
X176607247Y-155171053D01*
X176615517Y-155140796D01*
X176622977Y-155114263D01*
X176629725Y-155091147D01*
X176635855Y-155071140D01*
X176641465Y-155053936D01*
X176646649Y-155039229D01*
X176651505Y-155026710D01*
X176656129Y-155016074D01*
X176660616Y-155007012D01*
X176665063Y-154999219D01*
X176669565Y-154992386D01*
X176674220Y-154986208D01*
X176679532Y-154978449D01*
X176685762Y-154968184D01*
X176692637Y-154955885D01*
X176699884Y-154942024D01*
X176707231Y-154927071D01*
X176714403Y-154911497D01*
X176721130Y-154895775D01*
X176727136Y-154880375D01*
X176742256Y-154844479D01*
X176760486Y-154806825D01*
X176781612Y-154767689D01*
X176805420Y-154727347D01*
X176831696Y-154686074D01*
X176860226Y-154644148D01*
X176890796Y-154601843D01*
X176923193Y-154559436D01*
X176957201Y-154517202D01*
X176992609Y-154475418D01*
X177029200Y-154434359D01*
X177066762Y-154394303D01*
X177105081Y-154355523D01*
X177143942Y-154318297D01*
X177183132Y-154282900D01*
X177222437Y-154249609D01*
X177254373Y-154223308D01*
X177284647Y-154198743D01*
X177312589Y-154176460D01*
X177337530Y-154157005D01*
X177358800Y-154140923D01*
X177375729Y-154128760D01*
X177382357Y-154124319D01*
X177387648Y-154121063D01*
X177391519Y-154119059D01*
X177392896Y-154118548D01*
X177393886Y-154118376D01*
X177395661Y-154118107D01*
X177398554Y-154117321D01*
X177407413Y-154114308D01*
X177419894Y-154109558D01*
X177435426Y-154103294D01*
X177473361Y-154087122D01*
X177494623Y-154077658D01*
X177516653Y-154067575D01*
X177549506Y-154053117D01*
X177584415Y-154039918D01*
X177621154Y-154027996D01*
X177659495Y-154017370D01*
X177699213Y-154008060D01*
X177740081Y-154000082D01*
X177781874Y-153993456D01*
X177824363Y-153988200D01*
X177867325Y-153984334D01*
X177910531Y-153981875D01*
X177953756Y-153980843D01*
X177996773Y-153981255D01*
X178039356Y-153983131D01*
X178081278Y-153986489D01*
X178122314Y-153991348D01*
X178162236Y-153997726D01*
X178208033Y-154007343D01*
X178251889Y-154018015D01*
X178293996Y-154029853D01*
X178334546Y-154042969D01*
X178373733Y-154057473D01*
X178411747Y-154073478D01*
X178448781Y-154091096D01*
X178485028Y-154110437D01*
X178520680Y-154131614D01*
X178555928Y-154154739D01*
X178590966Y-154179922D01*
X178625985Y-154207275D01*
X178661177Y-154236910D01*
X178696736Y-154268940D01*
X178732852Y-154303474D01*
X178769719Y-154340625D01*
X178802239Y-154374477D01*
X178832430Y-154407151D01*
X178860444Y-154438908D01*
X178886434Y-154470007D01*
X178910551Y-154500709D01*
X178932947Y-154531274D01*
X178953774Y-154561964D01*
X178973184Y-154593038D01*
X178991330Y-154624757D01*
X179008362Y-154657381D01*
X179024432Y-154691171D01*
X179039694Y-154726388D01*
X179054298Y-154763291D01*
X179068397Y-154802141D01*
X179082143Y-154843199D01*
X179095687Y-154886725D01*
X179105707Y-154919732D01*
X179114336Y-154949858D01*
X179121569Y-154977348D01*
X179127403Y-155002448D01*
X179131837Y-155025402D01*
X179133527Y-155036151D01*
X179134866Y-155046455D01*
X179135852Y-155056346D01*
X179136487Y-155065853D01*
X179136768Y-155075008D01*
X179136697Y-155083840D01*
X179136272Y-155092381D01*
X179135493Y-155100661D01*
X179134360Y-155108711D01*
X179132873Y-155116562D01*
X179131030Y-155124243D01*
X179128832Y-155131786D01*
X179126278Y-155139221D01*
X179123369Y-155146579D01*
X179120102Y-155153891D01*
X179116478Y-155161187D01*
X179112498Y-155168497D01*
X179108159Y-155175853D01*
X179098407Y-155190823D01*
X179087220Y-155206342D01*
X179074847Y-155221150D01*
X179061559Y-155234615D01*
X179047385Y-155246735D01*
X179032352Y-155257506D01*
X179016488Y-155266925D01*
X178999820Y-155274989D01*
X178982378Y-155281695D01*
X178964188Y-155287040D01*
X178945279Y-155291021D01*
X178925679Y-155293634D01*
X178905415Y-155294877D01*
X178884516Y-155294746D01*
X178863008Y-155293239D01*
X178840921Y-155290352D01*
X178818282Y-155286082D01*
X178795119Y-155280426D01*
X178779566Y-155275341D01*
X178764655Y-155268821D01*
X178750383Y-155260869D01*
X178736746Y-155251487D01*
X178723741Y-155240678D01*
X178711366Y-155228447D01*
X178699618Y-155214796D01*
X178688492Y-155199727D01*
X178677987Y-155183245D01*
X178668099Y-155165352D01*
X178658824Y-155146051D01*
X178650161Y-155125346D01*
X178642105Y-155103239D01*
X178634654Y-155079734D01*
X178627804Y-155054834D01*
X178621553Y-155028542D01*
X178617110Y-155010945D01*
X178611015Y-154991653D01*
X178603400Y-154970903D01*
X178594400Y-154948935D01*
X178584147Y-154925987D01*
X178572774Y-154902298D01*
X178560416Y-154878107D01*
X178547205Y-154853652D01*
X178533275Y-154829173D01*
X178518758Y-154804907D01*
X178503789Y-154781094D01*
X178488501Y-154757973D01*
X178473026Y-154735781D01*
X178457499Y-154714759D01*
X178442052Y-154695144D01*
X178426820Y-154677176D01*
X178419963Y-154669770D01*
X178412152Y-154661887D01*
X178403472Y-154653595D01*
X178394011Y-154644962D01*
X178373093Y-154626946D01*
X178350091Y-154608383D01*
X178325699Y-154589821D01*
X178300613Y-154571805D01*
X178275528Y-154554880D01*
X178251136Y-154539592D01*
X178214831Y-154517665D01*
X178198777Y-154508599D01*
X178183734Y-154500698D01*
X178169410Y-154493890D01*
X178155514Y-154488098D01*
X178141755Y-154483248D01*
X178127840Y-154479267D01*
X178113479Y-154476080D01*
X178098381Y-154473611D01*
X178082252Y-154471788D01*
X178064803Y-154470535D01*
X178045742Y-154469779D01*
X178024777Y-154469444D01*
X177975970Y-154469741D01*
X177927427Y-154470949D01*
X177906160Y-154471993D01*
X177886474Y-154473446D01*
X177868054Y-154475395D01*
X177850582Y-154477927D01*
X177833743Y-154481129D01*
X177817220Y-154485087D01*
X177800697Y-154489889D01*
X177783857Y-154495621D01*
X177766386Y-154502370D01*
X177747965Y-154510223D01*
X177728279Y-154519266D01*
X177707013Y-154529587D01*
X177658470Y-154554408D01*
X177599853Y-154586897D01*
X177544542Y-154621832D01*
X177492368Y-154659477D01*
X177443165Y-154700095D01*
X177396765Y-154743950D01*
X177353000Y-154791306D01*
X177311703Y-154842426D01*
X177272707Y-154897573D01*
X177235844Y-154957012D01*
X177200947Y-155021005D01*
X177167848Y-155089817D01*
X177136381Y-155163711D01*
X177106376Y-155242950D01*
X177077668Y-155327798D01*
X177050088Y-155418518D01*
X177023470Y-155515375D01*
X177019522Y-155538171D01*
X177015698Y-155575105D01*
X177012122Y-155624243D01*
X177008918Y-155683651D01*
X177004122Y-155825534D01*
X177002778Y-155904140D01*
X177002303Y-155985276D01*
X177002642Y-156100539D01*
X177003824Y-156194594D01*
X177004809Y-156234731D01*
X177006098Y-156270839D01*
X177007722Y-156303345D01*
X177009711Y-156332673D01*
X177012098Y-156359248D01*
X177014912Y-156383494D01*
X177018185Y-156405836D01*
X177021948Y-156426700D01*
X177026232Y-156446509D01*
X177031068Y-156465688D01*
X177036487Y-156484664D01*
X177042520Y-156503859D01*
X177051313Y-156530689D01*
X177060081Y-156559752D01*
X177068602Y-156590105D01*
X177076651Y-156620805D01*
X177084005Y-156650909D01*
X177090442Y-156679476D01*
X177095738Y-156705562D01*
X177099670Y-156728224D01*
X177101005Y-156738581D01*
X177102613Y-156748961D01*
X177104470Y-156759293D01*
X177106549Y-156769500D01*
X177108827Y-156779509D01*
X177111278Y-156789245D01*
X177113879Y-156798633D01*
X177116603Y-156807600D01*
X177119427Y-156816071D01*
X177122325Y-156823971D01*
X177125272Y-156831227D01*
X177128245Y-156837762D01*
X177131217Y-156843505D01*
X177134165Y-156848379D01*
X177137063Y-156852310D01*
X177138485Y-156853899D01*
X177139886Y-156855225D01*
X177142710Y-156858244D01*
X177145612Y-156861715D01*
X177148569Y-156865596D01*
X177151561Y-156869843D01*
X177154565Y-156874412D01*
X177157560Y-156879261D01*
X177160523Y-156884345D01*
X177163434Y-156889621D01*
X177166271Y-156895046D01*
X177169011Y-156900576D01*
X177171634Y-156906169D01*
X177174117Y-156911780D01*
X177176439Y-156917366D01*
X177178578Y-156922884D01*
X177180512Y-156928290D01*
X177182220Y-156933542D01*
X177198111Y-156977258D01*
X177218563Y-157022429D01*
X177243225Y-157068673D01*
X177271748Y-157115608D01*
X177303781Y-157162853D01*
X177338973Y-157210027D01*
X177376974Y-157256748D01*
X177417434Y-157302635D01*
X177460003Y-157347307D01*
X177504329Y-157390382D01*
X177550064Y-157431479D01*
X177596855Y-157470216D01*
X177644353Y-157506212D01*
X177692208Y-157539086D01*
X177740070Y-157568456D01*
X177787587Y-157593942D01*
X177873832Y-157636287D01*
X177945741Y-157670373D01*
X177977296Y-157684651D01*
X178006438Y-157697265D01*
X178033559Y-157708347D01*
X178059049Y-157718031D01*
X178083299Y-157726449D01*
X178106699Y-157733736D01*
X178129640Y-157740025D01*
X178152513Y-157745448D01*
X178175708Y-157750140D01*
X178199617Y-157754233D01*
X178224629Y-157757862D01*
X178251136Y-157761158D01*
X178346850Y-157772414D01*
X178436613Y-157781552D01*
X178520827Y-157788538D01*
X178599890Y-157793339D01*
X178674204Y-157795919D01*
X178744167Y-157796245D01*
X178810180Y-157794283D01*
X178872643Y-157789998D01*
X178931955Y-157783357D01*
X178988518Y-157774326D01*
X179042730Y-157762870D01*
X179094992Y-157748955D01*
X179145704Y-157732547D01*
X179195265Y-157713612D01*
X179244076Y-157692116D01*
X179292537Y-157668025D01*
X179455519Y-157581241D01*
X179652370Y-157619342D01*
X179774413Y-157636474D01*
X179960378Y-157654002D01*
X180194811Y-157671134D01*
X180462259Y-157687075D01*
X181034388Y-157712211D01*
X181308161Y-157719817D01*
X181553136Y-157723058D01*
X181789099Y-157720255D01*
X182069239Y-157712540D01*
X182681584Y-157686545D01*
X182973556Y-157670348D01*
X183229239Y-157653407D01*
X183428515Y-157636763D01*
X183551269Y-157621459D01*
X183590366Y-157614149D01*
X183636631Y-157606641D01*
X183688303Y-157599134D01*
X183743622Y-157591825D01*
X183858153Y-157578596D01*
X183913844Y-157573073D01*
X183966136Y-157568542D01*
X184068927Y-157558356D01*
X184169336Y-157547375D01*
X184214927Y-157541835D01*
X184255458Y-157536395D01*
X184289440Y-157531153D01*
X184315386Y-157526208D01*
X184341075Y-157521074D01*
X184372867Y-157515294D01*
X184449794Y-157502396D01*
X184622303Y-157475408D01*
X184663884Y-157468794D01*
X184705316Y-157461782D01*
X184745458Y-157454572D01*
X184783170Y-157447362D01*
X184817309Y-157440351D01*
X184846736Y-157433736D01*
X184870309Y-157427717D01*
X184879543Y-157424992D01*
X184886886Y-157422491D01*
X184903208Y-157418063D01*
X184924589Y-157412867D01*
X184950138Y-157407125D01*
X184978961Y-157401060D01*
X185010166Y-157394896D01*
X185042858Y-157388856D01*
X185076146Y-157383164D01*
X185109136Y-157378042D01*
X185143077Y-157372817D01*
X185179052Y-157366797D01*
X185215920Y-157360183D01*
X185252540Y-157353171D01*
X185287771Y-157345961D01*
X185320472Y-157338751D01*
X185349501Y-157331740D01*
X185373719Y-157325125D01*
X185425280Y-157310772D01*
X185486167Y-157294434D01*
X185549039Y-157278095D01*
X185606553Y-157263741D01*
X185716177Y-157236299D01*
X185813623Y-157210494D01*
X185901791Y-157185384D01*
X185983584Y-157160025D01*
X186061905Y-157133476D01*
X186139655Y-157104794D01*
X186219737Y-157073035D01*
X186305053Y-157037259D01*
X186356746Y-157015116D01*
X186406256Y-156993470D01*
X186452393Y-156972816D01*
X186493965Y-156953650D01*
X186529783Y-156936468D01*
X186558656Y-156921768D01*
X186570116Y-156915502D01*
X186579392Y-156910043D01*
X186586338Y-156905453D01*
X186590803Y-156901792D01*
X186594218Y-156898968D01*
X186598083Y-156896066D01*
X186602351Y-156893109D01*
X186606975Y-156890117D01*
X186611910Y-156887113D01*
X186617108Y-156884119D01*
X186628109Y-156878244D01*
X186639606Y-156872667D01*
X186651227Y-156867562D01*
X186662600Y-156863101D01*
X186668077Y-156861167D01*
X186673353Y-156859459D01*
X186708884Y-156845968D01*
X186749140Y-156825749D01*
X186793439Y-156799416D01*
X186841099Y-156767582D01*
X186891438Y-156730862D01*
X186943774Y-156689869D01*
X186997424Y-156645217D01*
X187051707Y-156597521D01*
X187105940Y-156547394D01*
X187159442Y-156495450D01*
X187211530Y-156442303D01*
X187261522Y-156388567D01*
X187308735Y-156334855D01*
X187352489Y-156281783D01*
X187392100Y-156229963D01*
X187426886Y-156180009D01*
X187477600Y-156099514D01*
X187524224Y-156018146D01*
X187566836Y-155935582D01*
X187605513Y-155851496D01*
X187640333Y-155765562D01*
X187671373Y-155677454D01*
X187698712Y-155586847D01*
X187722426Y-155493415D01*
X187742592Y-155396834D01*
X187759290Y-155296776D01*
X187772595Y-155192917D01*
X187782585Y-155084932D01*
X187789339Y-154972493D01*
X187792933Y-154855277D01*
X187793445Y-154732958D01*
X187790953Y-154605209D01*
X187785810Y-154469304D01*
X187779179Y-154352201D01*
X187769968Y-154246905D01*
X187757086Y-154146421D01*
X187739442Y-154043755D01*
X187715944Y-153931910D01*
X187685500Y-153803893D01*
X187647020Y-153652709D01*
X187580317Y-153387029D01*
X188096556Y-153387029D01*
X188096567Y-153394927D01*
X188096957Y-153402944D01*
X188097685Y-153411143D01*
X188099985Y-153428343D01*
X188111288Y-153493285D01*
X188124129Y-153559344D01*
X188137863Y-153623865D01*
X188151844Y-153684194D01*
X188165429Y-153737677D01*
X188177972Y-153781660D01*
X188183651Y-153799260D01*
X188188828Y-153813489D01*
X188193422Y-153824016D01*
X188197353Y-153830509D01*
X188201884Y-153840279D01*
X188206716Y-153858166D01*
X188217097Y-153916432D01*
X188228122Y-154001587D01*
X188239421Y-154109909D01*
X188250620Y-154237678D01*
X188261348Y-154381173D01*
X188271233Y-154536673D01*
X188279902Y-154700459D01*
X188294719Y-155017959D01*
X188351869Y-155037009D01*
X188360729Y-155039848D01*
X188369170Y-155041958D01*
X188377370Y-155043255D01*
X188385504Y-155043657D01*
X188393750Y-155043078D01*
X188402285Y-155041437D01*
X188411284Y-155038648D01*
X188420926Y-155034628D01*
X188431385Y-155029293D01*
X188442841Y-155022560D01*
X188455468Y-155014345D01*
X188469444Y-155004564D01*
X188484945Y-154993134D01*
X188502149Y-154979971D01*
X188542369Y-154948109D01*
X188569820Y-154925111D01*
X188597668Y-154901046D01*
X188625118Y-154876634D01*
X188651378Y-154852594D01*
X188675654Y-154829646D01*
X188697151Y-154808508D01*
X188715076Y-154789900D01*
X188722451Y-154781770D01*
X188728636Y-154774542D01*
X188739993Y-154760114D01*
X188751622Y-154745637D01*
X188763202Y-154731457D01*
X188774409Y-154717921D01*
X188794418Y-154694175D01*
X188809069Y-154677176D01*
X188818206Y-154666104D01*
X188830277Y-154649225D01*
X188861655Y-154600810D01*
X188900077Y-154537463D01*
X188942419Y-154464715D01*
X188985554Y-154388098D01*
X189026358Y-154313142D01*
X189061704Y-154245380D01*
X189088468Y-154190342D01*
X189101066Y-154159069D01*
X189112649Y-154125697D01*
X189123197Y-154090409D01*
X189132688Y-154053387D01*
X189141099Y-154014815D01*
X189148410Y-153974876D01*
X189154598Y-153933752D01*
X189159642Y-153891627D01*
X189163521Y-153848684D01*
X189166212Y-153805104D01*
X189167693Y-153761072D01*
X189167944Y-153716771D01*
X189166942Y-153672382D01*
X189164665Y-153628090D01*
X189161093Y-153584077D01*
X189156203Y-153540526D01*
X189146863Y-153478621D01*
X189134866Y-153416267D01*
X189120433Y-153353956D01*
X189103782Y-153292181D01*
X189085135Y-153231436D01*
X189064711Y-153172213D01*
X189042730Y-153115006D01*
X189019413Y-153060307D01*
X188994980Y-153008609D01*
X188969651Y-152960406D01*
X188943646Y-152916190D01*
X188917185Y-152876454D01*
X188890488Y-152841692D01*
X188877121Y-152826330D01*
X188863776Y-152812396D01*
X188850483Y-152799952D01*
X188837269Y-152789059D01*
X188824161Y-152779780D01*
X188811186Y-152772175D01*
X188788714Y-152761484D01*
X188767137Y-152753324D01*
X188756593Y-152750239D01*
X188746162Y-152747842D01*
X188735808Y-152746152D01*
X188725494Y-152745188D01*
X188715183Y-152744968D01*
X188704839Y-152745510D01*
X188694423Y-152746834D01*
X188683901Y-152748958D01*
X188673234Y-152751901D01*
X188662386Y-152755680D01*
X188651321Y-152760316D01*
X188640001Y-152765826D01*
X188628389Y-152772228D01*
X188616449Y-152779543D01*
X188591437Y-152796980D01*
X188564670Y-152818287D01*
X188535854Y-152843613D01*
X188504694Y-152873106D01*
X188470895Y-152906915D01*
X188434163Y-152945188D01*
X188394203Y-152988076D01*
X188343297Y-153043598D01*
X188298304Y-153093028D01*
X188258886Y-153136871D01*
X188224704Y-153175632D01*
X188195422Y-153209817D01*
X188170700Y-153239930D01*
X188159944Y-153253618D01*
X188150202Y-153266478D01*
X188141430Y-153278573D01*
X188133588Y-153289966D01*
X188126633Y-153300720D01*
X188120522Y-153310898D01*
X188115213Y-153320564D01*
X188110664Y-153329781D01*
X188106834Y-153338612D01*
X188103678Y-153347120D01*
X188101156Y-153355369D01*
X188099225Y-153363421D01*
X188097843Y-153371339D01*
X188096967Y-153379188D01*
X188096556Y-153387029D01*
X187580317Y-153387029D01*
X187522136Y-153155292D01*
X187457412Y-152903376D01*
X187404396Y-152703648D01*
X187381472Y-152620565D01*
X187360508Y-152547180D01*
X187341182Y-152482378D01*
X187323170Y-152425042D01*
X187262179Y-152238304D01*
X187210688Y-152078901D01*
X187168276Y-151945592D01*
X187134521Y-151837138D01*
X187109002Y-151752297D01*
X187091295Y-151689831D01*
X187080981Y-151648498D01*
X187078464Y-151635370D01*
X187077636Y-151627059D01*
X187077466Y-151622898D01*
X187076966Y-151618381D01*
X187076157Y-151613548D01*
X187075056Y-151608439D01*
X187073683Y-151603094D01*
X187072055Y-151597554D01*
X187070192Y-151591858D01*
X187068111Y-151586048D01*
X187065832Y-151580164D01*
X187063373Y-151574245D01*
X187060753Y-151568333D01*
X187057991Y-151562467D01*
X187055104Y-151556688D01*
X187052112Y-151551036D01*
X187049033Y-151545552D01*
X187045886Y-151540275D01*
X187037491Y-151526361D01*
X187029031Y-151507942D01*
X187020590Y-151485474D01*
X187012251Y-151459412D01*
X187004098Y-151430212D01*
X186996215Y-151398331D01*
X186981593Y-151328344D01*
X186969054Y-151253099D01*
X186959268Y-151176242D01*
X186952906Y-151101419D01*
X186951217Y-151065909D01*
X186950636Y-151032276D01*
X186951401Y-151000075D01*
X186953579Y-150961599D01*
X186956998Y-150918310D01*
X186961484Y-150871674D01*
X186966862Y-150823151D01*
X186972960Y-150774208D01*
X186979603Y-150726306D01*
X186986619Y-150680909D01*
X187020485Y-150469243D01*
X186895603Y-150363409D01*
X186858414Y-150330912D01*
X186817266Y-150293538D01*
X186726501Y-150207669D01*
X186630131Y-150112820D01*
X186534976Y-150016011D01*
X186447858Y-149924263D01*
X186375598Y-149844594D01*
X186347171Y-149811484D01*
X186325017Y-149784026D01*
X186309987Y-149763097D01*
X186305411Y-149755356D01*
X186302936Y-149749576D01*
X186301601Y-149744720D01*
X186299993Y-149739704D01*
X186298137Y-149734563D01*
X186296057Y-149729335D01*
X186293779Y-149724058D01*
X186291328Y-149718768D01*
X186288727Y-149713504D01*
X186286003Y-149708301D01*
X186283179Y-149703197D01*
X186280281Y-149698230D01*
X186277333Y-149693437D01*
X186274361Y-149688854D01*
X186271388Y-149684519D01*
X186268441Y-149680470D01*
X186265543Y-149676743D01*
X186262719Y-149673376D01*
X186259626Y-149669521D01*
X186255935Y-149664363D01*
X186246943Y-149650489D01*
X186236116Y-149632448D01*
X186223825Y-149610934D01*
X186210443Y-149586642D01*
X186196342Y-149560266D01*
X186181893Y-149532502D01*
X186167469Y-149504043D01*
X186153653Y-149475195D01*
X186139489Y-149446297D01*
X186111907Y-149391330D01*
X186072220Y-149313542D01*
X186054509Y-149276757D01*
X186033722Y-149228413D01*
X186010753Y-149171039D01*
X185986494Y-149107167D01*
X185961839Y-149039326D01*
X185937679Y-148970047D01*
X185914908Y-148901859D01*
X185894420Y-148837292D01*
X185875004Y-148769492D01*
X185855778Y-148696228D01*
X185818650Y-148537850D01*
X185784547Y-148371237D01*
X185754984Y-148205467D01*
X185731473Y-148049620D01*
X185715528Y-147912772D01*
X185710865Y-147854311D01*
X185708661Y-147804004D01*
X185709105Y-147762986D01*
X185712386Y-147732392D01*
X185715912Y-147717010D01*
X185720503Y-147702227D01*
X185726107Y-147688059D01*
X185732672Y-147674523D01*
X185740148Y-147661635D01*
X185748481Y-147649411D01*
X185757622Y-147637868D01*
X185767519Y-147627022D01*
X185778119Y-147616889D01*
X185789371Y-147607485D01*
X185801224Y-147598827D01*
X185813626Y-147590931D01*
X185826526Y-147583813D01*
X185839872Y-147577490D01*
X185853613Y-147571978D01*
X185867696Y-147567292D01*
X185882071Y-147563450D01*
X185896686Y-147560468D01*
X185911489Y-147558361D01*
X185926429Y-147557147D01*
X185941455Y-147556841D01*
X185956514Y-147557460D01*
X185971555Y-147559020D01*
X185986527Y-147561538D01*
X186001378Y-147565029D01*
X186016057Y-147569509D01*
X186030511Y-147574996D01*
X186044690Y-147581505D01*
X186058542Y-147589053D01*
X186072015Y-147597656D01*
X186085058Y-147607330D01*
X186097619Y-147618092D01*
X186107452Y-147627392D01*
X186116351Y-147636336D01*
X186124376Y-147645063D01*
X186131585Y-147653712D01*
X186138038Y-147662423D01*
X186143793Y-147671336D01*
X186148910Y-147680589D01*
X186153447Y-147690324D01*
X186157462Y-147700678D01*
X186161016Y-147711792D01*
X186164167Y-147723806D01*
X186166974Y-147736857D01*
X186169495Y-147751088D01*
X186171790Y-147766635D01*
X186173917Y-147783641D01*
X186175936Y-147802243D01*
X186178780Y-147829391D01*
X186182418Y-147857904D01*
X186186652Y-147886963D01*
X186191282Y-147915749D01*
X186196110Y-147943443D01*
X186200939Y-147969228D01*
X186205569Y-147992284D01*
X186209802Y-148011793D01*
X186214838Y-148031587D01*
X186220320Y-148055449D01*
X186232028Y-148111805D01*
X186243736Y-148173717D01*
X186254253Y-148234042D01*
X186259867Y-148265189D01*
X186267019Y-148300651D01*
X186275461Y-148339189D01*
X186284945Y-148379563D01*
X186295222Y-148420532D01*
X186306045Y-148460856D01*
X186317166Y-148499295D01*
X186328337Y-148534609D01*
X186338419Y-148568794D01*
X186347882Y-148602508D01*
X186356502Y-148634882D01*
X186364055Y-148665049D01*
X186370318Y-148692139D01*
X186375068Y-148715286D01*
X186376805Y-148725109D01*
X186378081Y-148733621D01*
X186378867Y-148740712D01*
X186379136Y-148746275D01*
X186379355Y-148751675D01*
X186380000Y-148757520D01*
X186381047Y-148763763D01*
X186382476Y-148770353D01*
X186384265Y-148777240D01*
X186386391Y-148784376D01*
X186388834Y-148791710D01*
X186391571Y-148799192D01*
X186394582Y-148806774D01*
X186397843Y-148814406D01*
X186401334Y-148822037D01*
X186405032Y-148829619D01*
X186408917Y-148837102D01*
X186412966Y-148844436D01*
X186417157Y-148851572D01*
X186421469Y-148858459D01*
X186425782Y-148864924D01*
X186429973Y-148871581D01*
X186434022Y-148878374D01*
X186437907Y-148885248D01*
X186441605Y-148892147D01*
X186445096Y-148899015D01*
X186448357Y-148905796D01*
X186451367Y-148912434D01*
X186454105Y-148918874D01*
X186456547Y-148925060D01*
X186458674Y-148930935D01*
X186460462Y-148936445D01*
X186461891Y-148941533D01*
X186462939Y-148946144D01*
X186463583Y-148950221D01*
X186463803Y-148953709D01*
X186464071Y-148957394D01*
X186464861Y-148962052D01*
X186466147Y-148967615D01*
X186467904Y-148974016D01*
X186472732Y-148989056D01*
X186479149Y-149006626D01*
X186486954Y-149026180D01*
X186495950Y-149047173D01*
X186505937Y-149069059D01*
X186516719Y-149091292D01*
X186536596Y-149133096D01*
X186545554Y-149152461D01*
X186553496Y-149170138D01*
X186560148Y-149185633D01*
X186565237Y-149198448D01*
X186567110Y-149203697D01*
X186568491Y-149208089D01*
X186569344Y-149211564D01*
X186569636Y-149214059D01*
X186570215Y-149217674D01*
X186571992Y-149223034D01*
X186579359Y-149239426D01*
X186592183Y-149264103D01*
X186610911Y-149297932D01*
X186667862Y-149396522D01*
X186753786Y-149542142D01*
X186759348Y-149550852D01*
X186766436Y-149561019D01*
X186784742Y-149585203D01*
X186807811Y-149613654D01*
X186834749Y-149645330D01*
X186864663Y-149679188D01*
X186896661Y-149714187D01*
X186929850Y-149749286D01*
X186963336Y-149783442D01*
X187003825Y-149822723D01*
X187045845Y-149860361D01*
X187089292Y-149896300D01*
X187134059Y-149930484D01*
X187180042Y-149962857D01*
X187227134Y-149993364D01*
X187275232Y-150021948D01*
X187324228Y-150048555D01*
X187374018Y-150073127D01*
X187424497Y-150095609D01*
X187475558Y-150115946D01*
X187527097Y-150134081D01*
X187579008Y-150149959D01*
X187631186Y-150163524D01*
X187683525Y-150174721D01*
X187735920Y-150183492D01*
X187798176Y-150191198D01*
X187859891Y-150196871D01*
X187921007Y-150200535D01*
X187981465Y-150202216D01*
X188041209Y-150201939D01*
X188100181Y-150199729D01*
X188158322Y-150195611D01*
X188215576Y-150189611D01*
X188271884Y-150181754D01*
X188327188Y-150172064D01*
X188381432Y-150160568D01*
X188434556Y-150147290D01*
X188486503Y-150132256D01*
X188537217Y-150115490D01*
X188586638Y-150097018D01*
X188634709Y-150076865D01*
X188681372Y-150055057D01*
X188726570Y-150031618D01*
X188770245Y-150006574D01*
X188812339Y-149979949D01*
X188852795Y-149951770D01*
X188891554Y-149922061D01*
X188928558Y-149890847D01*
X188963751Y-149858154D01*
X188997075Y-149824007D01*
X189028470Y-149788431D01*
X189057881Y-149751451D01*
X189085249Y-149713092D01*
X189110516Y-149673380D01*
X189133625Y-149632340D01*
X189154518Y-149589997D01*
X189173136Y-149546376D01*
X189178953Y-149531171D01*
X189185142Y-149516015D01*
X189191479Y-149501355D01*
X189197742Y-149487638D01*
X189203708Y-149475310D01*
X189209153Y-149464818D01*
X189211610Y-149460400D01*
X189213853Y-149456608D01*
X189215855Y-149453498D01*
X189217587Y-149451126D01*
X189228643Y-149430775D01*
X189238762Y-149402823D01*
X189247901Y-149368098D01*
X189256017Y-149327433D01*
X189263067Y-149281658D01*
X189269007Y-149231604D01*
X189273793Y-149178103D01*
X189277382Y-149121984D01*
X189280797Y-149005220D01*
X189280535Y-148946237D01*
X189278903Y-148887960D01*
X189275858Y-148831221D01*
X189271354Y-148776852D01*
X189265350Y-148725682D01*
X189257802Y-148678542D01*
X189250328Y-148645612D01*
X189239980Y-148609077D01*
X189227009Y-148569447D01*
X189211666Y-148527234D01*
X189194202Y-148482950D01*
X189174868Y-148437106D01*
X189153916Y-148390214D01*
X189131596Y-148342786D01*
X189083860Y-148248367D01*
X189058945Y-148202399D01*
X189033668Y-148157942D01*
X189008279Y-148115505D01*
X188983029Y-148075602D01*
X188958170Y-148038744D01*
X188933953Y-148005442D01*
X188897179Y-147959661D01*
X188856161Y-147911449D01*
X188811267Y-147861153D01*
X188762866Y-147809122D01*
X188657021Y-147701238D01*
X188541575Y-147590576D01*
X188419483Y-147479914D01*
X188293694Y-147372030D01*
X188167161Y-147269703D01*
X188042836Y-147175709D01*
X187875686Y-147055720D01*
X187693057Y-146927001D01*
X187520747Y-146807806D01*
X187384552Y-146716392D01*
X187050119Y-146496258D01*
X187012652Y-146470838D01*
X186976995Y-146447278D01*
X186943968Y-146426049D01*
X186914388Y-146407623D01*
X186889075Y-146392472D01*
X186868847Y-146381066D01*
X186860896Y-146376915D01*
X186854522Y-146373877D01*
X186849830Y-146372011D01*
X186848145Y-146371536D01*
X186846920Y-146371376D01*
X186845903Y-146371333D01*
X186844839Y-146371205D01*
X186843730Y-146370996D01*
X186842579Y-146370706D01*
X186840157Y-146369897D01*
X186837593Y-146368796D01*
X186834905Y-146367423D01*
X186832111Y-146365795D01*
X186829231Y-146363931D01*
X186826282Y-146361851D01*
X186823284Y-146359572D01*
X186820254Y-146357113D01*
X186817213Y-146354493D01*
X186814177Y-146351730D01*
X186811166Y-146348844D01*
X186808199Y-146345852D01*
X186805294Y-146342773D01*
X186802469Y-146339626D01*
X186799481Y-146336509D01*
X186795330Y-146332751D01*
X186783849Y-146323519D01*
X186768648Y-146312353D01*
X186750346Y-146299674D01*
X186729564Y-146285903D01*
X186706921Y-146271462D01*
X186683039Y-146256774D01*
X186658536Y-146242259D01*
X186631532Y-146227095D01*
X186600460Y-146209054D01*
X186530478Y-146167118D01*
X186457320Y-146122006D01*
X186389719Y-146079276D01*
X186278760Y-146007210D01*
X186184667Y-145947248D01*
X186094147Y-145890859D01*
X185993903Y-145829509D01*
X185759912Y-145682169D01*
X185472938Y-145495341D01*
X185193505Y-145308908D01*
X185075530Y-145228305D01*
X184982136Y-145162759D01*
X184958072Y-145145937D01*
X184935772Y-145131178D01*
X184915066Y-145118459D01*
X184905257Y-145112858D01*
X184895783Y-145107758D01*
X184886622Y-145103158D01*
X184877752Y-145099055D01*
X184869154Y-145095445D01*
X184860804Y-145092326D01*
X184852682Y-145089695D01*
X184844767Y-145087550D01*
X184837037Y-145085888D01*
X184829472Y-145084707D01*
X184822048Y-145084002D01*
X184814746Y-145083773D01*
X184807544Y-145084016D01*
X184800421Y-145084727D01*
X184793355Y-145085906D01*
X184786325Y-145087549D01*
X184779310Y-145089652D01*
X184772288Y-145092214D01*
X184765239Y-145095232D01*
X184758140Y-145098703D01*
X184750970Y-145102625D01*
X184743709Y-145106994D01*
X184736334Y-145111808D01*
X184728825Y-145117064D01*
X184713319Y-145128892D01*
X184682374Y-145152026D01*
X184645441Y-145176050D01*
X184603033Y-145200763D01*
X184555661Y-145225961D01*
X184503836Y-145251446D01*
X184448070Y-145277014D01*
X184326763Y-145327594D01*
X184195832Y-145376092D01*
X184059369Y-145420893D01*
X183921467Y-145460387D01*
X183853256Y-145477639D01*
X183786219Y-145492959D01*
X183606018Y-145530472D01*
X183433232Y-145560891D01*
X183260001Y-145584861D01*
X183078459Y-145603026D01*
X182880745Y-145616032D01*
X182658995Y-145624524D01*
X182405347Y-145629145D01*
X182111936Y-145630543D01*
X181825078Y-145629493D01*
X181563323Y-145624523D01*
X181322403Y-145615287D01*
X181098053Y-145601438D01*
X180886006Y-145582628D01*
X180681996Y-145558510D01*
X180481756Y-145528736D01*
X180281020Y-145492959D01*
X180157355Y-145468109D01*
X180038025Y-145441994D01*
X179923098Y-145414638D01*
X179812641Y-145386067D01*
X179706724Y-145356306D01*
X179605415Y-145325379D01*
X179508781Y-145293310D01*
X179416891Y-145260126D01*
X179329813Y-145225850D01*
X179247615Y-145190508D01*
X179170366Y-145154123D01*
X179098134Y-145116722D01*
X179030986Y-145078329D01*
X178968992Y-145038968D01*
X178912219Y-144998664D01*
X178860736Y-144957443D01*
X178849909Y-144948422D01*
X178838912Y-144939649D01*
X178827822Y-144931174D01*
X178816716Y-144923047D01*
X178805672Y-144915316D01*
X178794768Y-144908032D01*
X178784081Y-144901243D01*
X178773688Y-144895001D01*
X178763668Y-144889354D01*
X178754097Y-144884351D01*
X178745053Y-144880044D01*
X178736614Y-144876480D01*
X178728856Y-144873710D01*
X178721859Y-144871784D01*
X178718669Y-144871152D01*
X178715699Y-144870750D01*
X178712956Y-144870584D01*
X178710453Y-144870659D01*
X178699194Y-144871444D01*
X178686959Y-144872966D01*
X178673911Y-144875171D01*
X178660215Y-144878001D01*
X178646036Y-144881403D01*
X178631537Y-144885319D01*
X178616883Y-144889694D01*
X178602238Y-144894472D01*
X178587767Y-144899597D01*
X178573634Y-144905013D01*
X178560004Y-144910666D01*
X178547040Y-144916498D01*
X178534907Y-144922454D01*
X178523769Y-144928478D01*
X178513790Y-144934515D01*
X178505136Y-144940509D01*
X178498046Y-144945635D01*
X178489691Y-144951357D01*
X178480394Y-144957476D01*
X178470476Y-144963793D01*
X178460261Y-144970110D01*
X178450070Y-144976228D01*
X178440227Y-144981949D01*
X178431053Y-144987076D01*
X178387761Y-145010889D01*
X178303788Y-145058514D01*
X178060636Y-145196626D01*
X177936220Y-145266364D01*
X177813813Y-145333448D01*
X177695822Y-145396613D01*
X177584651Y-145454594D01*
X177482708Y-145506126D01*
X177392398Y-145549944D01*
X177316128Y-145584782D01*
X177256303Y-145609376D01*
X177248745Y-145612224D01*
X177241185Y-145615193D01*
X177226240Y-145621382D01*
X177211841Y-145627719D01*
X177198359Y-145633982D01*
X177186168Y-145639948D01*
X177175638Y-145645392D01*
X177167143Y-145650093D01*
X177161053Y-145653826D01*
X177153260Y-145658435D01*
X177138398Y-145665699D01*
X177090938Y-145686899D01*
X177025619Y-145714845D01*
X176949386Y-145746959D01*
X176850990Y-145789165D01*
X176726971Y-145846079D01*
X176586432Y-145913163D01*
X176438476Y-145985878D01*
X176292207Y-146059684D01*
X176156728Y-146130042D01*
X176041142Y-146192414D01*
X175954553Y-146242259D01*
X175796862Y-146339683D01*
X175656235Y-146430709D01*
X175591144Y-146474736D01*
X175528905Y-146518261D01*
X175469047Y-146561649D01*
X175411099Y-146605268D01*
X175354590Y-146649481D01*
X175299048Y-146694655D01*
X175244002Y-146741157D01*
X175188981Y-146789351D01*
X175133514Y-146839605D01*
X175077129Y-146892283D01*
X174959720Y-147006376D01*
X174880698Y-147086728D01*
X174807072Y-147166788D01*
X174738729Y-147246761D01*
X174675557Y-147326852D01*
X174617446Y-147407266D01*
X174564284Y-147488207D01*
X174515958Y-147569880D01*
X174472357Y-147652488D01*
X174433371Y-147736238D01*
X174398886Y-147821334D01*
X174368792Y-147907980D01*
X174342976Y-147996381D01*
X174321328Y-148086741D01*
X174303735Y-148179266D01*
X174290086Y-148274159D01*
X174280270Y-148371626D01*
X174276994Y-148427487D01*
X174276260Y-148483103D01*
X174278021Y-148538403D01*
X174282225Y-148593318D01*
X174288825Y-148647775D01*
X174297771Y-148701703D01*
X174309014Y-148755033D01*
X174322504Y-148807692D01*
X174338193Y-148859610D01*
X174356030Y-148910717D01*
X174375968Y-148960940D01*
X174397956Y-149010210D01*
X174421945Y-149058455D01*
X174447887Y-149105604D01*
X174475732Y-149151587D01*
X174505430Y-149196332D01*
X174536933Y-149239769D01*
X174570192Y-149281826D01*
X174605156Y-149322433D01*
X174641778Y-149361519D01*
X174680007Y-149399012D01*
X174719794Y-149434843D01*
X174761091Y-149468940D01*
X174803847Y-149501231D01*
X174848015Y-149531647D01*
X174893544Y-149560116D01*
X174940385Y-149586567D01*
X174988489Y-149610930D01*
X175037807Y-149633133D01*
X175088290Y-149653106D01*
X175139889Y-149670777D01*
X175192553Y-149686076D01*
X175236059Y-149696428D01*
X175282135Y-149704497D01*
X175330326Y-149710335D01*
X175380176Y-149713989D01*
X175431228Y-149715511D01*
X175483028Y-149714948D01*
X175535120Y-149712352D01*
X175587047Y-149707771D01*
X175638354Y-149701256D01*
X175688585Y-149692856D01*
X175737284Y-149682619D01*
X175783996Y-149670597D01*
X175828265Y-149656839D01*
X175869634Y-149641394D01*
X175907649Y-149624312D01*
X175941853Y-149605642D01*
X175973851Y-149585987D01*
X176003270Y-149566571D01*
X176030257Y-149547185D01*
X176054963Y-149527623D01*
X176077535Y-149507677D01*
X176098123Y-149487138D01*
X176116875Y-149465799D01*
X176133941Y-149443453D01*
X176149468Y-149419891D01*
X176163607Y-149394906D01*
X176176506Y-149368290D01*
X176188313Y-149339835D01*
X176199177Y-149309334D01*
X176209248Y-149276579D01*
X176218673Y-149241362D01*
X176227603Y-149203475D01*
X176249592Y-149107725D01*
X176274930Y-149006196D01*
X176302203Y-148903624D01*
X176329997Y-148804749D01*
X176356898Y-148714307D01*
X176381491Y-148637036D01*
X176402365Y-148577674D01*
X176410964Y-148556190D01*
X176418103Y-148540959D01*
X176421623Y-148534170D01*
X176425028Y-148527325D01*
X176428303Y-148520467D01*
X176431432Y-148513641D01*
X176434399Y-148506889D01*
X176437190Y-148500255D01*
X176439789Y-148493781D01*
X176442180Y-148487513D01*
X176444348Y-148481493D01*
X176446277Y-148475764D01*
X176447952Y-148470370D01*
X176449357Y-148465354D01*
X176450477Y-148460760D01*
X176451296Y-148456631D01*
X176451799Y-148453011D01*
X176451970Y-148449942D01*
X176453791Y-148436261D01*
X176459097Y-148416200D01*
X176479222Y-148358992D01*
X176510459Y-148282436D01*
X176550924Y-148190651D01*
X176598731Y-148087753D01*
X176651995Y-147977860D01*
X176708831Y-147865089D01*
X176767353Y-147753559D01*
X176798929Y-147696742D01*
X176832341Y-147640036D01*
X176867291Y-147583802D01*
X176903481Y-147528399D01*
X176940614Y-147474186D01*
X176978391Y-147421524D01*
X177016516Y-147370771D01*
X177054691Y-147322288D01*
X177092617Y-147276435D01*
X177129998Y-147233570D01*
X177166535Y-147194055D01*
X177201931Y-147158247D01*
X177235889Y-147126507D01*
X177268110Y-147099195D01*
X177298297Y-147076670D01*
X177312535Y-147067316D01*
X177326153Y-147059293D01*
X177346004Y-147049853D01*
X177365825Y-147042516D01*
X177385548Y-147037201D01*
X177405106Y-147033826D01*
X177424432Y-147032312D01*
X177443458Y-147032578D01*
X177462116Y-147034543D01*
X177480339Y-147038126D01*
X177498060Y-147043247D01*
X177515211Y-147049825D01*
X177531725Y-147057781D01*
X177547535Y-147067032D01*
X177562572Y-147077498D01*
X177576770Y-147089100D01*
X177590061Y-147101755D01*
X177602378Y-147115384D01*
X177613653Y-147129906D01*
X177623819Y-147145241D01*
X177632808Y-147161307D01*
X177640552Y-147178024D01*
X177646986Y-147195312D01*
X177652040Y-147213090D01*
X177655648Y-147231277D01*
X177657742Y-147249792D01*
X177658255Y-147268556D01*
X177657119Y-147287487D01*
X177654267Y-147306505D01*
X177649631Y-147325529D01*
X177643144Y-147344479D01*
X177634739Y-147363273D01*
X177624347Y-147381832D01*
X177611903Y-147400075D01*
X177572844Y-147448528D01*
X177531205Y-147498765D01*
X177490757Y-147546225D01*
X177472158Y-147567487D01*
X177455270Y-147586342D01*
X177446044Y-147597372D01*
X177433053Y-147614756D01*
X177398186Y-147664824D01*
X177355480Y-147729031D01*
X177309749Y-147799861D01*
X177265803Y-147869798D01*
X177228456Y-147931326D01*
X177202518Y-147976929D01*
X177195332Y-147991411D01*
X177192803Y-147999092D01*
X177192584Y-148000946D01*
X177191943Y-148003309D01*
X177190905Y-148006143D01*
X177189496Y-148009411D01*
X177187739Y-148013076D01*
X177185659Y-148017100D01*
X177180632Y-148026080D01*
X177174613Y-148036051D01*
X177167800Y-148046717D01*
X177160392Y-148057780D01*
X177152586Y-148068942D01*
X177148201Y-148074388D01*
X177143793Y-148080365D01*
X177139392Y-148086806D01*
X177135025Y-148093648D01*
X177130719Y-148100824D01*
X177126504Y-148108270D01*
X177122407Y-148115921D01*
X177118455Y-148123711D01*
X177114677Y-148131576D01*
X177111101Y-148139450D01*
X177107753Y-148147268D01*
X177104664Y-148154965D01*
X177101859Y-148162476D01*
X177099368Y-148169736D01*
X177097218Y-148176680D01*
X177095436Y-148183242D01*
X177093679Y-148189781D01*
X177091596Y-148196658D01*
X177089209Y-148203813D01*
X177086540Y-148211189D01*
X177083610Y-148218726D01*
X177080442Y-148226365D01*
X177077057Y-148234048D01*
X177073476Y-148241715D01*
X177069722Y-148249308D01*
X177065815Y-148256768D01*
X177061779Y-148264035D01*
X177057634Y-148271051D01*
X177053402Y-148277757D01*
X177049105Y-148284094D01*
X177044765Y-148290003D01*
X177040403Y-148295426D01*
X177036487Y-148300653D01*
X177032689Y-148305988D01*
X177029027Y-148311392D01*
X177025520Y-148316824D01*
X177022187Y-148322243D01*
X177019046Y-148327610D01*
X177016116Y-148332883D01*
X177013416Y-148338024D01*
X177010963Y-148342990D01*
X177008777Y-148347743D01*
X177006876Y-148352241D01*
X177005280Y-148356445D01*
X177004005Y-148360314D01*
X177003072Y-148363808D01*
X177002498Y-148366887D01*
X177002303Y-148369509D01*
X177002034Y-148372401D01*
X177001245Y-148376273D01*
X176998202Y-148386707D01*
X176993373Y-148400316D01*
X176986957Y-148416605D01*
X176979152Y-148435076D01*
X176970156Y-148455234D01*
X176960168Y-148476583D01*
X176949386Y-148498626D01*
X176939212Y-148520355D01*
X176929509Y-148542282D01*
X176920551Y-148563812D01*
X176912609Y-148584351D01*
X176909105Y-148594062D01*
X176905957Y-148603301D01*
X176903201Y-148611995D01*
X176900868Y-148620069D01*
X176898995Y-148627449D01*
X176897615Y-148634059D01*
X176896762Y-148639826D01*
X176896470Y-148644676D01*
X176896251Y-148648957D01*
X176895610Y-148653824D01*
X176894572Y-148659219D01*
X176893162Y-148665082D01*
X176891405Y-148671354D01*
X176889326Y-148677976D01*
X176886949Y-148684890D01*
X176884299Y-148692036D01*
X176878280Y-148706791D01*
X176871467Y-148721769D01*
X176864058Y-148736498D01*
X176860193Y-148743623D01*
X176856253Y-148750509D01*
X176852240Y-148757664D01*
X176848159Y-148765582D01*
X176839915Y-148783384D01*
X176831771Y-148803269D01*
X176823974Y-148824592D01*
X176816772Y-148846710D01*
X176810414Y-148868976D01*
X176805147Y-148890747D01*
X176803000Y-148901244D01*
X176801220Y-148911376D01*
X176797383Y-148932390D01*
X176792356Y-148955264D01*
X176786337Y-148979279D01*
X176779524Y-149003715D01*
X176772115Y-149027854D01*
X176764310Y-149050976D01*
X176756307Y-149072362D01*
X176748303Y-149091292D01*
X176744314Y-149100527D01*
X176740299Y-149110698D01*
X176732296Y-149133427D01*
X176724491Y-149158637D01*
X176717082Y-149185484D01*
X176710269Y-149213125D01*
X176704250Y-149240716D01*
X176699223Y-149267414D01*
X176695386Y-149292376D01*
X176691740Y-149317152D01*
X176687250Y-149343341D01*
X176682066Y-149370176D01*
X176676336Y-149396886D01*
X176670210Y-149422704D01*
X176663835Y-149446859D01*
X176657361Y-149468584D01*
X176654133Y-149478294D01*
X176650936Y-149487109D01*
X176641343Y-149518661D01*
X176632432Y-149555776D01*
X176624240Y-149597865D01*
X176616805Y-149644337D01*
X176604353Y-149748079D01*
X176595374Y-149862288D01*
X176590165Y-149982252D01*
X176589024Y-150103257D01*
X176592249Y-150220592D01*
X176595591Y-150276410D01*
X176600136Y-150329543D01*
X176605192Y-150381115D01*
X176609231Y-150431771D01*
X176612229Y-150480193D01*
X176614159Y-150525069D01*
X176614999Y-150565083D01*
X176614722Y-150598921D01*
X176614157Y-150613113D01*
X176613304Y-150625268D01*
X176612159Y-150635221D01*
X176610720Y-150642808D01*
X176608872Y-150650396D01*
X176605759Y-150660350D01*
X176596035Y-150686697D01*
X176582145Y-150720534D01*
X176564682Y-150760549D01*
X176544243Y-150805424D01*
X176521423Y-150853847D01*
X176496817Y-150904503D01*
X176471020Y-150956075D01*
X176418037Y-151062570D01*
X176367832Y-151165096D01*
X176326359Y-151252541D01*
X176310757Y-151287135D01*
X176299570Y-151313792D01*
X176245165Y-151451872D01*
X176196118Y-151581815D01*
X176175030Y-151639953D01*
X176156992Y-151691518D01*
X176142577Y-151734997D01*
X176132353Y-151768876D01*
X176127830Y-151785140D01*
X176122365Y-151803338D01*
X176116205Y-151822826D01*
X176109599Y-151842959D01*
X176096039Y-151882580D01*
X176083670Y-151917042D01*
X176046450Y-152019006D01*
X176006974Y-152141012D01*
X175966356Y-152278695D01*
X175925714Y-152427688D01*
X175886162Y-152583627D01*
X175848819Y-152742146D01*
X175814799Y-152898878D01*
X175785220Y-153049459D01*
X175730187Y-153345792D01*
X175719376Y-153418280D01*
X175707995Y-153520483D01*
X175696663Y-153643820D01*
X175686001Y-153779709D01*
X175676629Y-153919566D01*
X175669167Y-154054809D01*
X175664235Y-154176856D01*
X175662453Y-154277125D01*
X175664367Y-154381441D01*
X175669829Y-154494911D01*
X175678415Y-154613589D01*
X175689705Y-154733532D01*
X175703278Y-154850796D01*
X175718710Y-154961437D01*
X175735582Y-155061512D01*
X175753470Y-155147075D01*
X175763837Y-155190940D01*
X175772710Y-155231398D01*
X175780082Y-155268663D01*
X175785947Y-155302948D01*
X175790300Y-155334467D01*
X175793132Y-155363434D01*
X175793977Y-155377027D01*
X175794440Y-155390063D01*
X175794520Y-155402568D01*
X175794216Y-155414569D01*
X175793527Y-155426092D01*
X175792453Y-155437164D01*
X175790994Y-155447813D01*
X175789147Y-155458064D01*
X175786913Y-155467944D01*
X175784291Y-155477481D01*
X175781279Y-155486701D01*
X175777878Y-155495631D01*
X175774085Y-155504296D01*
X175769902Y-155512726D01*
X175765326Y-155520945D01*
X175760357Y-155528980D01*
X175754995Y-155536859D01*
X175749238Y-155544609D01*
X175743085Y-155552255D01*
X175736537Y-155559825D01*
X175728291Y-155568610D01*
X175720178Y-155576729D01*
X175712133Y-155584210D01*
X175704092Y-155591079D01*
X175695989Y-155597366D01*
X175687758Y-155603097D01*
X175679335Y-155608301D01*
X175670655Y-155613006D01*
X175661653Y-155617240D01*
X175652263Y-155621031D01*
X175642420Y-155624406D01*
X175632059Y-155627393D01*
X175621116Y-155630021D01*
X175609524Y-155632317D01*
X175597219Y-155634309D01*
X175584137Y-155636025D01*
X175569354Y-155637431D01*
X175555867Y-155638444D01*
X175543534Y-155639016D01*
X175532212Y-155639101D01*
X175521758Y-155638653D01*
X175516812Y-155638214D01*
X175512029Y-155637625D01*
X175507392Y-155636879D01*
X175502884Y-155635971D01*
X175498485Y-155634894D01*
X175494178Y-155633644D01*
X175489946Y-155632214D01*
X175485770Y-155630598D01*
X175481634Y-155628790D01*
X175477518Y-155626785D01*
X175473405Y-155624578D01*
X175469277Y-155622161D01*
X175465117Y-155619529D01*
X175460907Y-155616677D01*
X175452263Y-155610289D01*
X175443204Y-155602948D01*
X175433588Y-155594609D01*
X175423270Y-155585225D01*
X175407250Y-155569091D01*
X175391751Y-155550114D01*
X175376798Y-155528377D01*
X175362416Y-155503965D01*
X175348628Y-155476960D01*
X175335461Y-155447448D01*
X175322939Y-155415510D01*
X175311087Y-155381232D01*
X175299929Y-155344696D01*
X175289490Y-155305987D01*
X175279795Y-155265188D01*
X175270870Y-155222383D01*
X175262738Y-155177655D01*
X175255425Y-155131089D01*
X175248955Y-155082768D01*
X175243353Y-155032776D01*
X175239021Y-154990591D01*
X175234093Y-154948903D01*
X175228768Y-154908802D01*
X175223245Y-154871380D01*
X175217722Y-154837728D01*
X175212397Y-154808938D01*
X175207469Y-154786101D01*
X175205216Y-154777256D01*
X175203137Y-154770309D01*
X175198994Y-154753367D01*
X175194604Y-154727248D01*
X175190114Y-154693290D01*
X175185674Y-154652834D01*
X175181432Y-154607218D01*
X175177538Y-154557782D01*
X175174140Y-154505866D01*
X175171387Y-154452809D01*
X175165574Y-154335515D01*
X175162782Y-154288000D01*
X175159811Y-154247095D01*
X175158198Y-154228931D01*
X175156468Y-154212193D01*
X175154596Y-154196803D01*
X175152560Y-154182686D01*
X175150334Y-154169765D01*
X175147896Y-154157966D01*
X175145220Y-154147211D01*
X175142282Y-154137425D01*
X175139060Y-154128533D01*
X175135528Y-154120457D01*
X175131663Y-154113122D01*
X175127441Y-154106452D01*
X175122837Y-154100372D01*
X175117828Y-154094805D01*
X175112390Y-154089674D01*
X175106498Y-154084906D01*
X175100128Y-154080422D01*
X175093257Y-154076147D01*
X175085860Y-154072006D01*
X175077914Y-154067923D01*
X175060277Y-154059623D01*
X175040153Y-154050642D01*
X175021062Y-154042507D01*
X175002516Y-154035569D01*
X174984268Y-154029834D01*
X174966070Y-154025308D01*
X174947673Y-154021997D01*
X174928830Y-154019909D01*
X174909292Y-154019048D01*
X174888812Y-154019421D01*
X174867141Y-154021034D01*
X174844031Y-154023894D01*
X174819234Y-154028006D01*
X174792503Y-154033377D01*
X174763589Y-154040014D01*
X174732244Y-154047921D01*
X174661270Y-154067575D01*
X174631408Y-154077376D01*
X174601462Y-154089229D01*
X174571596Y-154103005D01*
X174541976Y-154118574D01*
X174512765Y-154135804D01*
X174484127Y-154154565D01*
X174456228Y-154174729D01*
X174429230Y-154196163D01*
X174403300Y-154218738D01*
X174378600Y-154242325D01*
X174355295Y-154266791D01*
X174333550Y-154292008D01*
X174313529Y-154317845D01*
X174295397Y-154344172D01*
X174279317Y-154370859D01*
X174265453Y-154397775D01*
X174233964Y-154474889D01*
X174208502Y-154559671D01*
X174188993Y-154651355D01*
X174175363Y-154749175D01*
X174167537Y-154852365D01*
X174165441Y-154960159D01*
X173762318Y-154960159D01*
X173762480Y-154903923D01*
X173767919Y-154807805D01*
X173778405Y-154712630D01*
X173793827Y-154618843D01*
X173814074Y-154526893D01*
X173839034Y-154437224D01*
X173868595Y-154350283D01*
X173902645Y-154266518D01*
X173941074Y-154186374D01*
X173983769Y-154110298D01*
X174030619Y-154038736D01*
X174081512Y-153972136D01*
X174136337Y-153910943D01*
X174164076Y-153882279D01*
X174189381Y-153854971D01*
X174212299Y-153828933D01*
X174232876Y-153804084D01*
X174251159Y-153780338D01*
X174267194Y-153757612D01*
X174281027Y-153735822D01*
X174292705Y-153714886D01*
X174297751Y-153704711D01*
X174302275Y-153694718D01*
X174306284Y-153684896D01*
X174309783Y-153675235D01*
X174312779Y-153665725D01*
X174315276Y-153656354D01*
X174317281Y-153647113D01*
X174318800Y-153637991D01*
X174319838Y-153628977D01*
X174320401Y-153620062D01*
X174320496Y-153611234D01*
X174320127Y-153602483D01*
X174319301Y-153593799D01*
X174318023Y-153585171D01*
X174316300Y-153576589D01*
X174314137Y-153568042D01*
X174312276Y-153560781D01*
X174310664Y-153553316D01*
X174309300Y-153545690D01*
X174308183Y-153537946D01*
X174307315Y-153530127D01*
X174306695Y-153522278D01*
X174306323Y-153514440D01*
X174306199Y-153506659D01*
X174306323Y-153498977D01*
X174306695Y-153491437D01*
X174307315Y-153484084D01*
X174308183Y-153476959D01*
X174309300Y-153470108D01*
X174310664Y-153463573D01*
X174312276Y-153457398D01*
X174314137Y-153451625D01*
X174318473Y-153438177D01*
X174323430Y-153419049D01*
X174324983Y-153412170D01*
X174725921Y-153412170D01*
X174726506Y-153440823D01*
X174729596Y-153464088D01*
X174732131Y-153473479D01*
X174735353Y-153481259D01*
X174740798Y-153489670D01*
X174747656Y-153497448D01*
X174756003Y-153504606D01*
X174765913Y-153511156D01*
X174777459Y-153517112D01*
X174790717Y-153522484D01*
X174805761Y-153527285D01*
X174822666Y-153531529D01*
X174841505Y-153535227D01*
X174862353Y-153538392D01*
X174885285Y-153541035D01*
X174910375Y-153543171D01*
X174937697Y-153544810D01*
X174967327Y-153545965D01*
X175033803Y-153546875D01*
X175066785Y-153546603D01*
X175096042Y-153545589D01*
X175121821Y-153543540D01*
X175144366Y-153540161D01*
X175154502Y-153537881D01*
X175163922Y-153535157D01*
X175172656Y-153531954D01*
X175180734Y-153528234D01*
X175188187Y-153523961D01*
X175195047Y-153519097D01*
X175201342Y-153513607D01*
X175207105Y-153507452D01*
X175212366Y-153500597D01*
X175217155Y-153493004D01*
X175221503Y-153484637D01*
X175225440Y-153475458D01*
X175228998Y-153465432D01*
X175232206Y-153454520D01*
X175237698Y-153429896D01*
X175242160Y-153401291D01*
X175245838Y-153368410D01*
X175248976Y-153330958D01*
X175251820Y-153288642D01*
X175254668Y-153250604D01*
X175258335Y-153213335D01*
X175262647Y-153177803D01*
X175267430Y-153144973D01*
X175272511Y-153115816D01*
X175275109Y-153102916D01*
X175277716Y-153091296D01*
X175280311Y-153081078D01*
X175282871Y-153072383D01*
X175285376Y-153065330D01*
X175287803Y-153060042D01*
X175290304Y-153054705D01*
X175293029Y-153047508D01*
X175299048Y-153028028D01*
X175305663Y-153002594D01*
X175312674Y-152972200D01*
X175319884Y-152937838D01*
X175327094Y-152900498D01*
X175334105Y-152861174D01*
X175340720Y-152820858D01*
X175347434Y-152779964D01*
X175354743Y-152738970D01*
X175362449Y-152698968D01*
X175370353Y-152661050D01*
X175378258Y-152626307D01*
X175385964Y-152595830D01*
X175393273Y-152570712D01*
X175396716Y-152560502D01*
X175399987Y-152552042D01*
X175406502Y-152535195D01*
X175413216Y-152515298D01*
X175419929Y-152493069D01*
X175426445Y-152469227D01*
X175432563Y-152444493D01*
X175438087Y-152419585D01*
X175442816Y-152395223D01*
X175446553Y-152372125D01*
X175450394Y-152349627D01*
X175455450Y-152325492D01*
X175461548Y-152300465D01*
X175468514Y-152275288D01*
X175476174Y-152250707D01*
X175484355Y-152227464D01*
X175488587Y-152216578D01*
X175492884Y-152206306D01*
X175497224Y-152196741D01*
X175501586Y-152187975D01*
X175506224Y-152178556D01*
X175510607Y-152168578D01*
X175514730Y-152158079D01*
X175518586Y-152147097D01*
X175522169Y-152135669D01*
X175525473Y-152123831D01*
X175528492Y-152111621D01*
X175531220Y-152099076D01*
X175533650Y-152086233D01*
X175535776Y-152073130D01*
X175537591Y-152059804D01*
X175539091Y-152046291D01*
X175540268Y-152032630D01*
X175541117Y-152018857D01*
X175541630Y-152005010D01*
X175541803Y-151991126D01*
X175541724Y-151973424D01*
X175541468Y-151957561D01*
X175541008Y-151943440D01*
X175540692Y-151937003D01*
X175540315Y-151930966D01*
X175539872Y-151925316D01*
X175539361Y-151920042D01*
X175538778Y-151915131D01*
X175538120Y-151910572D01*
X175537382Y-151906353D01*
X175536562Y-151902461D01*
X175535655Y-151898884D01*
X175534659Y-151895611D01*
X175533570Y-151892629D01*
X175532385Y-151889927D01*
X175531100Y-151887492D01*
X175529711Y-151885313D01*
X175528215Y-151883377D01*
X175526609Y-151881672D01*
X175524888Y-151880187D01*
X175523051Y-151878909D01*
X175521092Y-151877827D01*
X175519009Y-151876928D01*
X175516798Y-151876200D01*
X175514456Y-151875631D01*
X175511979Y-151875210D01*
X175509363Y-151874924D01*
X175506606Y-151874761D01*
X175503703Y-151874709D01*
X175498083Y-151875212D01*
X175491958Y-151876700D01*
X175478303Y-151882502D01*
X175462961Y-151891857D01*
X175446156Y-151904508D01*
X175428111Y-151920197D01*
X175409048Y-151938668D01*
X175389192Y-151959662D01*
X175368766Y-151982923D01*
X175347992Y-152008194D01*
X175327094Y-152035216D01*
X175306295Y-152063732D01*
X175285819Y-152093486D01*
X175265888Y-152124220D01*
X175246727Y-152155676D01*
X175228557Y-152187597D01*
X175211603Y-152219726D01*
X175204298Y-152233161D01*
X175196820Y-152246250D01*
X175189391Y-152258644D01*
X175182234Y-152269996D01*
X175178828Y-152275173D01*
X175175574Y-152279959D01*
X175172500Y-152284312D01*
X175169634Y-152288186D01*
X175167003Y-152291540D01*
X175164635Y-152294330D01*
X175162560Y-152296512D01*
X175160803Y-152298043D01*
X175155627Y-152303317D01*
X175149161Y-152312065D01*
X175140711Y-152325575D01*
X175129582Y-152345138D01*
X175115080Y-152372043D01*
X175096509Y-152407580D01*
X175044387Y-152509709D01*
X175036189Y-152525108D01*
X175027619Y-152540830D01*
X175018900Y-152556403D01*
X175010255Y-152571356D01*
X175001909Y-152585218D01*
X174994083Y-152597517D01*
X174990435Y-152602933D01*
X174987001Y-152607782D01*
X174983809Y-152612005D01*
X174980887Y-152615542D01*
X174978013Y-152619128D01*
X174974967Y-152623496D01*
X174971771Y-152628583D01*
X174968451Y-152634328D01*
X174961539Y-152647540D01*
X174954428Y-152662638D01*
X174947318Y-152679125D01*
X174940405Y-152696505D01*
X174933890Y-152714281D01*
X174927970Y-152731959D01*
X174921959Y-152750025D01*
X174915204Y-152768934D01*
X174907952Y-152788141D01*
X174900453Y-152807100D01*
X174892954Y-152825266D01*
X174885703Y-152842092D01*
X174878948Y-152857032D01*
X174872937Y-152869542D01*
X174855625Y-152904201D01*
X174838723Y-152942621D01*
X174822391Y-152984098D01*
X174806791Y-153027928D01*
X174792084Y-153073408D01*
X174778431Y-153119834D01*
X174765993Y-153166501D01*
X174754932Y-153212707D01*
X174745409Y-153257746D01*
X174737586Y-153300916D01*
X174731622Y-153341513D01*
X174727680Y-153378832D01*
X174725921Y-153412170D01*
X174324983Y-153412170D01*
X174328833Y-153395108D01*
X174334509Y-153367223D01*
X174340285Y-153336263D01*
X174345986Y-153303095D01*
X174351439Y-153268588D01*
X174356470Y-153233609D01*
X174362274Y-153195947D01*
X174369964Y-153153771D01*
X174379241Y-153108519D01*
X174389807Y-153061629D01*
X174401366Y-153014542D01*
X174413620Y-152968694D01*
X174426270Y-152925526D01*
X174439020Y-152886475D01*
X174468810Y-152804351D01*
X174505893Y-152710494D01*
X174548037Y-152609841D01*
X174593007Y-152507328D01*
X174638574Y-152407890D01*
X174682503Y-152316464D01*
X174722562Y-152237986D01*
X174756520Y-152177392D01*
X174900453Y-151942442D01*
X174918920Y-151912585D01*
X174937462Y-151883771D01*
X174955557Y-151856643D01*
X174972684Y-151831846D01*
X174988324Y-151810027D01*
X175001954Y-151791828D01*
X175013054Y-151777896D01*
X175017493Y-151772732D01*
X175021103Y-151768876D01*
X175024623Y-151766027D01*
X175028028Y-151763055D01*
X175031303Y-151759983D01*
X175034432Y-151756837D01*
X175037399Y-151753641D01*
X175040190Y-151750421D01*
X175042789Y-151747200D01*
X175045180Y-151744004D01*
X175047348Y-151740858D01*
X175049277Y-151737787D01*
X175050952Y-151734814D01*
X175052357Y-151731966D01*
X175053477Y-151729266D01*
X175054296Y-151726740D01*
X175054588Y-151725550D01*
X175054799Y-151724413D01*
X175054927Y-151723331D01*
X175054970Y-151722309D01*
X175055746Y-151718149D01*
X175058027Y-151712469D01*
X175066822Y-151696872D01*
X175080796Y-151676158D01*
X175099387Y-151650971D01*
X175148174Y-151589740D01*
X175208693Y-151518315D01*
X175276455Y-151441830D01*
X175346971Y-151365419D01*
X175415750Y-151294217D01*
X175478303Y-151233358D01*
X175526590Y-151189595D01*
X175572098Y-151150345D01*
X175618202Y-151113180D01*
X175668274Y-151075667D01*
X175725689Y-151035376D01*
X175793819Y-150989876D01*
X175876038Y-150936736D01*
X175975720Y-150873525D01*
X175996823Y-150859146D01*
X176017251Y-150843817D01*
X176036972Y-150827584D01*
X176055955Y-150810488D01*
X176074169Y-150792574D01*
X176091583Y-150773885D01*
X176108166Y-150754463D01*
X176123887Y-150734354D01*
X176138715Y-150713600D01*
X176152619Y-150692244D01*
X176165568Y-150670330D01*
X176177531Y-150647902D01*
X176188477Y-150625002D01*
X176198375Y-150601674D01*
X176207194Y-150577962D01*
X176214903Y-150553909D01*
X176218227Y-150541812D01*
X176221055Y-150530055D01*
X176223386Y-150518534D01*
X176225222Y-150507144D01*
X176226561Y-150495778D01*
X176227405Y-150484332D01*
X176227752Y-150472699D01*
X176227603Y-150460776D01*
X176226958Y-150448455D01*
X176225817Y-150435632D01*
X176224180Y-150422201D01*
X176222047Y-150408058D01*
X176219418Y-150393095D01*
X176216292Y-150377209D01*
X176208553Y-150342243D01*
X176195985Y-150287242D01*
X176184211Y-150234027D01*
X176174025Y-150188354D01*
X176169775Y-150170143D01*
X176166220Y-150155975D01*
X176164762Y-150149906D01*
X176162793Y-150143635D01*
X176160346Y-150137209D01*
X176157455Y-150130675D01*
X176154156Y-150124078D01*
X176150481Y-150117466D01*
X176146465Y-150110885D01*
X176142143Y-150104382D01*
X176137547Y-150098002D01*
X176132713Y-150091793D01*
X176127674Y-150085802D01*
X176122464Y-150080073D01*
X176117118Y-150074655D01*
X176111670Y-150069593D01*
X176106154Y-150064934D01*
X176100603Y-150060725D01*
X176091453Y-150054797D01*
X176082864Y-150049712D01*
X176074554Y-150045471D01*
X176066240Y-150042072D01*
X176057642Y-150039518D01*
X176048476Y-150037806D01*
X176038461Y-150036938D01*
X176027314Y-150036913D01*
X176014753Y-150037732D01*
X176000496Y-150039394D01*
X175984260Y-150041899D01*
X175965765Y-150045248D01*
X175920864Y-150054475D01*
X175863537Y-150067075D01*
X175819864Y-150075705D01*
X175772619Y-150083331D01*
X175722447Y-150089939D01*
X175669994Y-150095518D01*
X175615903Y-150100055D01*
X175560820Y-150103538D01*
X175450257Y-150107292D01*
X175396067Y-150107538D01*
X175343465Y-150106680D01*
X175293095Y-150104706D01*
X175245602Y-150101604D01*
X175201632Y-150097360D01*
X175161828Y-150091963D01*
X175126837Y-150085400D01*
X175097303Y-150077659D01*
X175050904Y-150062820D01*
X175003922Y-150046161D01*
X174956568Y-150027797D01*
X174909052Y-150007842D01*
X174861586Y-149986411D01*
X174814381Y-149963619D01*
X174767647Y-149939581D01*
X174721595Y-149914411D01*
X174676436Y-149888224D01*
X174632381Y-149861135D01*
X174589640Y-149833258D01*
X174548425Y-149804708D01*
X174508946Y-149775600D01*
X174471415Y-149746049D01*
X174436041Y-149716170D01*
X174403037Y-149686076D01*
X174380448Y-149664392D01*
X174357264Y-149640795D01*
X174333683Y-149615555D01*
X174309903Y-149588941D01*
X174286124Y-149561223D01*
X174262543Y-149532671D01*
X174239359Y-149503555D01*
X174216770Y-149474144D01*
X174194975Y-149444709D01*
X174174172Y-149415518D01*
X174154560Y-149386843D01*
X174136337Y-149358951D01*
X174119701Y-149332114D01*
X174104851Y-149306601D01*
X174091986Y-149282682D01*
X174081303Y-149260626D01*
X174060302Y-149212802D01*
X174037118Y-149162201D01*
X174025513Y-149137718D01*
X174014331Y-149114774D01*
X174003892Y-149094112D01*
X173994520Y-149076475D01*
X173978131Y-149039130D01*
X173963121Y-148996493D01*
X173949532Y-148949074D01*
X173937403Y-148897386D01*
X173926775Y-148841939D01*
X173917687Y-148783247D01*
X173910181Y-148721820D01*
X173904297Y-148658169D01*
X173900075Y-148592807D01*
X173897554Y-148526246D01*
X173896777Y-148458996D01*
X173897782Y-148391569D01*
X173900610Y-148324477D01*
X173905302Y-148258231D01*
X173911897Y-148193344D01*
X173920437Y-148130326D01*
X173928986Y-148082887D01*
X173940016Y-148030611D01*
X173953030Y-147975210D01*
X173967532Y-147918395D01*
X173983027Y-147861877D01*
X173999018Y-147807369D01*
X174015009Y-147756581D01*
X174030503Y-147711226D01*
X174049633Y-147662736D01*
X174071129Y-147612036D01*
X174094727Y-147559593D01*
X174120164Y-147505876D01*
X174175499Y-147396491D01*
X174235026Y-147287628D01*
X174296637Y-147183030D01*
X174327565Y-147133502D01*
X174358223Y-147086445D01*
X174388348Y-147042327D01*
X174417675Y-147001617D01*
X174445943Y-146964783D01*
X174472887Y-146932292D01*
X174557094Y-146839031D01*
X174649661Y-146741429D01*
X174746247Y-146643678D01*
X174842509Y-146549969D01*
X174934109Y-146464497D01*
X175016705Y-146391451D01*
X175053269Y-146360898D01*
X175085955Y-146335024D01*
X175114220Y-146314353D01*
X175137520Y-146299409D01*
X175141186Y-146297281D01*
X175145019Y-146294886D01*
X175148989Y-146292256D01*
X175153064Y-146289421D01*
X175157214Y-146286412D01*
X175161407Y-146283261D01*
X175169799Y-146276655D01*
X175177993Y-146269850D01*
X175185740Y-146263095D01*
X175192793Y-146256638D01*
X175198903Y-146250726D01*
X175206382Y-146244529D01*
X175215870Y-146237265D01*
X175226995Y-146229257D01*
X175239384Y-146220828D01*
X175252667Y-146212299D01*
X175266471Y-146203994D01*
X175280424Y-146196234D01*
X175287340Y-146192659D01*
X175294153Y-146189342D01*
X175309445Y-146181264D01*
X175326399Y-146171549D01*
X175344494Y-146160544D01*
X175363209Y-146148596D01*
X175382024Y-146136053D01*
X175400416Y-146123262D01*
X175417867Y-146110571D01*
X175433853Y-146098326D01*
X175519173Y-146040531D01*
X175643337Y-145965769D01*
X175796771Y-145879102D01*
X175969899Y-145785588D01*
X176153148Y-145690289D01*
X176336942Y-145598264D01*
X176511708Y-145514573D01*
X176667870Y-145444276D01*
X176719794Y-145422216D01*
X176778466Y-145396386D01*
X176836343Y-145370159D01*
X176885886Y-145346909D01*
X176938175Y-145323758D01*
X177000980Y-145295051D01*
X177127186Y-145236842D01*
X177213556Y-145196196D01*
X177310543Y-145148207D01*
X177415467Y-145094265D01*
X177525649Y-145035759D01*
X177638411Y-144974078D01*
X177751074Y-144910611D01*
X177860959Y-144846748D01*
X177965386Y-144783876D01*
X178097943Y-144704236D01*
X178171662Y-144660944D01*
X178238437Y-144623009D01*
X178345428Y-144562035D01*
X178389386Y-144536396D01*
X178427614Y-144513438D01*
X178460583Y-144492751D01*
X178475243Y-144483129D01*
X178488765Y-144473920D01*
X178501209Y-144465073D01*
X178512632Y-144456535D01*
X178523094Y-144448255D01*
X178532653Y-144440182D01*
X178541369Y-144432264D01*
X178549301Y-144424449D01*
X178556507Y-144416686D01*
X178563047Y-144408924D01*
X178568979Y-144401111D01*
X178574362Y-144393194D01*
X178579255Y-144385124D01*
X178583718Y-144376848D01*
X178587808Y-144368314D01*
X178591585Y-144359471D01*
X178595108Y-144350268D01*
X178598435Y-144340653D01*
X178604740Y-144319981D01*
X178610970Y-144297043D01*
X178634421Y-144219128D01*
X178663638Y-144144812D01*
X178698834Y-144073926D01*
X178740219Y-144006298D01*
X178788003Y-143941759D01*
X178842397Y-143880138D01*
X178903613Y-143821263D01*
X178971861Y-143764965D01*
X179047352Y-143711073D01*
X179130297Y-143659417D01*
X179220907Y-143609826D01*
X179319392Y-143562129D01*
X179425963Y-143516156D01*
X179540831Y-143471737D01*
X179664208Y-143428700D01*
X179796303Y-143386876D01*
X179912687Y-143352513D01*
X180012203Y-143324699D01*
X180101401Y-143302044D01*
X180186828Y-143283159D01*
X180275034Y-143266656D01*
X180372566Y-143251145D01*
X180485973Y-143235237D01*
X180621803Y-143217543D01*
X180802762Y-143193759D01*
X180876578Y-143183038D01*
X180940361Y-143172531D01*
X180968742Y-143167224D01*
X180994917Y-143161812D01*
X181018987Y-143156241D01*
X181041052Y-143150459D01*
X181061213Y-143144410D01*
X181079572Y-143138044D01*
X181096228Y-143131307D01*
X181111282Y-143124145D01*
X181124836Y-143116505D01*
X181136990Y-143108335D01*
X181147845Y-143099582D01*
X181157502Y-143090191D01*
X181166061Y-143080111D01*
X181173623Y-143069287D01*
X181180289Y-143057668D01*
X181186159Y-143045199D01*
X181191336Y-143031829D01*
X181195918Y-143017502D01*
X181200007Y-143002168D01*
X181203705Y-142985771D01*
X181210325Y-142949582D01*
X181216587Y-142908509D01*
X181223841Y-142868434D01*
X181232156Y-142830697D01*
X181241599Y-142795205D01*
X181252239Y-142761864D01*
X181264144Y-142730582D01*
X181270593Y-142715684D01*
X181277383Y-142701266D01*
X181284523Y-142687316D01*
X181292023Y-142673823D01*
X181299890Y-142660775D01*
X181308132Y-142648159D01*
X181316760Y-142635966D01*
X181325780Y-142624183D01*
X181335202Y-142612798D01*
X181345033Y-142601799D01*
X181355284Y-142591176D01*
X181365961Y-142580917D01*
X181377074Y-142571009D01*
X181388632Y-142561442D01*
X181400642Y-142552203D01*
X181413113Y-142543282D01*
X181426054Y-142534666D01*
X181439473Y-142526343D01*
X181467780Y-142510533D01*
X181498103Y-142495759D01*
X181511059Y-142489727D01*
X181523863Y-142484316D01*
X181536710Y-142479500D01*
X181549796Y-142475254D01*
X181563316Y-142471554D01*
X181577466Y-142468375D01*
X181592440Y-142465692D01*
X181608434Y-142463480D01*
X181625644Y-142461715D01*
X181644265Y-142460372D01*
X181686520Y-142458850D01*
X181736761Y-142458718D01*
X181796553Y-142459777D01*
G37*
D11*
X203442151Y-144949425D02*
X203442151Y-143949425D01*
X203442151Y-144330377D02*
X203537389Y-144282758D01*
X203537389Y-144282758D02*
X203727865Y-144282758D01*
X203727865Y-144282758D02*
X203823103Y-144330377D01*
X203823103Y-144330377D02*
X203870722Y-144377996D01*
X203870722Y-144377996D02*
X203918341Y-144473234D01*
X203918341Y-144473234D02*
X203918341Y-144758948D01*
X203918341Y-144758948D02*
X203870722Y-144854186D01*
X203870722Y-144854186D02*
X203823103Y-144901806D01*
X203823103Y-144901806D02*
X203727865Y-144949425D01*
X203727865Y-144949425D02*
X203537389Y-144949425D01*
X203537389Y-144949425D02*
X203442151Y-144901806D01*
X204489770Y-144949425D02*
X204394532Y-144901806D01*
X204394532Y-144901806D02*
X204346913Y-144806567D01*
X204346913Y-144806567D02*
X204346913Y-143949425D01*
X205013580Y-144949425D02*
X204918342Y-144901806D01*
X204918342Y-144901806D02*
X204870723Y-144854186D01*
X204870723Y-144854186D02*
X204823104Y-144758948D01*
X204823104Y-144758948D02*
X204823104Y-144473234D01*
X204823104Y-144473234D02*
X204870723Y-144377996D01*
X204870723Y-144377996D02*
X204918342Y-144330377D01*
X204918342Y-144330377D02*
X205013580Y-144282758D01*
X205013580Y-144282758D02*
X205156437Y-144282758D01*
X205156437Y-144282758D02*
X205251675Y-144330377D01*
X205251675Y-144330377D02*
X205299294Y-144377996D01*
X205299294Y-144377996D02*
X205346913Y-144473234D01*
X205346913Y-144473234D02*
X205346913Y-144758948D01*
X205346913Y-144758948D02*
X205299294Y-144854186D01*
X205299294Y-144854186D02*
X205251675Y-144901806D01*
X205251675Y-144901806D02*
X205156437Y-144949425D01*
X205156437Y-144949425D02*
X205013580Y-144949425D01*
X206204056Y-144282758D02*
X206204056Y-145092282D01*
X206204056Y-145092282D02*
X206156437Y-145187520D01*
X206156437Y-145187520D02*
X206108818Y-145235139D01*
X206108818Y-145235139D02*
X206013580Y-145282758D01*
X206013580Y-145282758D02*
X205870723Y-145282758D01*
X205870723Y-145282758D02*
X205775485Y-145235139D01*
X206204056Y-144901806D02*
X206108818Y-144949425D01*
X206108818Y-144949425D02*
X205918342Y-144949425D01*
X205918342Y-144949425D02*
X205823104Y-144901806D01*
X205823104Y-144901806D02*
X205775485Y-144854186D01*
X205775485Y-144854186D02*
X205727866Y-144758948D01*
X205727866Y-144758948D02*
X205727866Y-144473234D01*
X205727866Y-144473234D02*
X205775485Y-144377996D01*
X205775485Y-144377996D02*
X205823104Y-144330377D01*
X205823104Y-144330377D02*
X205918342Y-144282758D01*
X205918342Y-144282758D02*
X206108818Y-144282758D01*
X206108818Y-144282758D02*
X206204056Y-144330377D01*
X206680247Y-144854186D02*
X206727866Y-144901806D01*
X206727866Y-144901806D02*
X206680247Y-144949425D01*
X206680247Y-144949425D02*
X206632628Y-144901806D01*
X206632628Y-144901806D02*
X206680247Y-144854186D01*
X206680247Y-144854186D02*
X206680247Y-144949425D01*
X207156437Y-144949425D02*
X207156437Y-144282758D01*
X207156437Y-143949425D02*
X207108818Y-143997044D01*
X207108818Y-143997044D02*
X207156437Y-144044663D01*
X207156437Y-144044663D02*
X207204056Y-143997044D01*
X207204056Y-143997044D02*
X207156437Y-143949425D01*
X207156437Y-143949425D02*
X207156437Y-144044663D01*
X207632627Y-144949425D02*
X207632627Y-144282758D01*
X207632627Y-144377996D02*
X207680246Y-144330377D01*
X207680246Y-144330377D02*
X207775484Y-144282758D01*
X207775484Y-144282758D02*
X207918341Y-144282758D01*
X207918341Y-144282758D02*
X208013579Y-144330377D01*
X208013579Y-144330377D02*
X208061198Y-144425615D01*
X208061198Y-144425615D02*
X208061198Y-144949425D01*
X208061198Y-144425615D02*
X208108817Y-144330377D01*
X208108817Y-144330377D02*
X208204055Y-144282758D01*
X208204055Y-144282758D02*
X208346912Y-144282758D01*
X208346912Y-144282758D02*
X208442151Y-144330377D01*
X208442151Y-144330377D02*
X208489770Y-144425615D01*
X208489770Y-144425615D02*
X208489770Y-144949425D01*
X209108817Y-144949425D02*
X209013579Y-144901806D01*
X209013579Y-144901806D02*
X208965960Y-144854186D01*
X208965960Y-144854186D02*
X208918341Y-144758948D01*
X208918341Y-144758948D02*
X208918341Y-144473234D01*
X208918341Y-144473234D02*
X208965960Y-144377996D01*
X208965960Y-144377996D02*
X209013579Y-144330377D01*
X209013579Y-144330377D02*
X209108817Y-144282758D01*
X209108817Y-144282758D02*
X209251674Y-144282758D01*
X209251674Y-144282758D02*
X209346912Y-144330377D01*
X209346912Y-144330377D02*
X209394531Y-144377996D01*
X209394531Y-144377996D02*
X209442150Y-144473234D01*
X209442150Y-144473234D02*
X209442150Y-144758948D01*
X209442150Y-144758948D02*
X209394531Y-144854186D01*
X209394531Y-144854186D02*
X209346912Y-144901806D01*
X209346912Y-144901806D02*
X209251674Y-144949425D01*
X209251674Y-144949425D02*
X209108817Y-144949425D01*
X210299293Y-144901806D02*
X210204055Y-144949425D01*
X210204055Y-144949425D02*
X210013579Y-144949425D01*
X210013579Y-144949425D02*
X209918341Y-144901806D01*
X209918341Y-144901806D02*
X209870722Y-144854186D01*
X209870722Y-144854186D02*
X209823103Y-144758948D01*
X209823103Y-144758948D02*
X209823103Y-144473234D01*
X209823103Y-144473234D02*
X209870722Y-144377996D01*
X209870722Y-144377996D02*
X209918341Y-144330377D01*
X209918341Y-144330377D02*
X210013579Y-144282758D01*
X210013579Y-144282758D02*
X210204055Y-144282758D01*
X210204055Y-144282758D02*
X210299293Y-144330377D01*
X210727865Y-144949425D02*
X210727865Y-143949425D01*
X211156436Y-144949425D02*
X211156436Y-144425615D01*
X211156436Y-144425615D02*
X211108817Y-144330377D01*
X211108817Y-144330377D02*
X211013579Y-144282758D01*
X211013579Y-144282758D02*
X210870722Y-144282758D01*
X210870722Y-144282758D02*
X210775484Y-144330377D01*
X210775484Y-144330377D02*
X210727865Y-144377996D01*
X211775484Y-144949425D02*
X211680246Y-144901806D01*
X211680246Y-144901806D02*
X211632627Y-144854186D01*
X211632627Y-144854186D02*
X211585008Y-144758948D01*
X211585008Y-144758948D02*
X211585008Y-144473234D01*
X211585008Y-144473234D02*
X211632627Y-144377996D01*
X211632627Y-144377996D02*
X211680246Y-144330377D01*
X211680246Y-144330377D02*
X211775484Y-144282758D01*
X211775484Y-144282758D02*
X211918341Y-144282758D01*
X211918341Y-144282758D02*
X212013579Y-144330377D01*
X212013579Y-144330377D02*
X212061198Y-144377996D01*
X212061198Y-144377996D02*
X212108817Y-144473234D01*
X212108817Y-144473234D02*
X212108817Y-144758948D01*
X212108817Y-144758948D02*
X212061198Y-144854186D01*
X212061198Y-144854186D02*
X212013579Y-144901806D01*
X212013579Y-144901806D02*
X211918341Y-144949425D01*
X211918341Y-144949425D02*
X211775484Y-144949425D01*
X212965960Y-144949425D02*
X212965960Y-144425615D01*
X212965960Y-144425615D02*
X212918341Y-144330377D01*
X212918341Y-144330377D02*
X212823103Y-144282758D01*
X212823103Y-144282758D02*
X212632627Y-144282758D01*
X212632627Y-144282758D02*
X212537389Y-144330377D01*
X212965960Y-144901806D02*
X212870722Y-144949425D01*
X212870722Y-144949425D02*
X212632627Y-144949425D01*
X212632627Y-144949425D02*
X212537389Y-144901806D01*
X212537389Y-144901806D02*
X212489770Y-144806567D01*
X212489770Y-144806567D02*
X212489770Y-144711329D01*
X212489770Y-144711329D02*
X212537389Y-144616091D01*
X212537389Y-144616091D02*
X212632627Y-144568472D01*
X212632627Y-144568472D02*
X212870722Y-144568472D01*
X212870722Y-144568472D02*
X212965960Y-144520853D01*
X213442151Y-144854186D02*
X213489770Y-144901806D01*
X213489770Y-144901806D02*
X213442151Y-144949425D01*
X213442151Y-144949425D02*
X213394532Y-144901806D01*
X213394532Y-144901806D02*
X213442151Y-144854186D01*
X213442151Y-144854186D02*
X213442151Y-144949425D01*
X214346912Y-144901806D02*
X214251674Y-144949425D01*
X214251674Y-144949425D02*
X214061198Y-144949425D01*
X214061198Y-144949425D02*
X213965960Y-144901806D01*
X213965960Y-144901806D02*
X213918341Y-144854186D01*
X213918341Y-144854186D02*
X213870722Y-144758948D01*
X213870722Y-144758948D02*
X213870722Y-144473234D01*
X213870722Y-144473234D02*
X213918341Y-144377996D01*
X213918341Y-144377996D02*
X213965960Y-144330377D01*
X213965960Y-144330377D02*
X214061198Y-144282758D01*
X214061198Y-144282758D02*
X214251674Y-144282758D01*
X214251674Y-144282758D02*
X214346912Y-144330377D01*
X214918341Y-144949425D02*
X214823103Y-144901806D01*
X214823103Y-144901806D02*
X214775484Y-144854186D01*
X214775484Y-144854186D02*
X214727865Y-144758948D01*
X214727865Y-144758948D02*
X214727865Y-144473234D01*
X214727865Y-144473234D02*
X214775484Y-144377996D01*
X214775484Y-144377996D02*
X214823103Y-144330377D01*
X214823103Y-144330377D02*
X214918341Y-144282758D01*
X214918341Y-144282758D02*
X215061198Y-144282758D01*
X215061198Y-144282758D02*
X215156436Y-144330377D01*
X215156436Y-144330377D02*
X215204055Y-144377996D01*
X215204055Y-144377996D02*
X215251674Y-144473234D01*
X215251674Y-144473234D02*
X215251674Y-144758948D01*
X215251674Y-144758948D02*
X215204055Y-144854186D01*
X215204055Y-144854186D02*
X215156436Y-144901806D01*
X215156436Y-144901806D02*
X215061198Y-144949425D01*
X215061198Y-144949425D02*
X214918341Y-144949425D01*
X215680246Y-144949425D02*
X215680246Y-144282758D01*
X215680246Y-144377996D02*
X215727865Y-144330377D01*
X215727865Y-144330377D02*
X215823103Y-144282758D01*
X215823103Y-144282758D02*
X215965960Y-144282758D01*
X215965960Y-144282758D02*
X216061198Y-144330377D01*
X216061198Y-144330377D02*
X216108817Y-144425615D01*
X216108817Y-144425615D02*
X216108817Y-144949425D01*
X216108817Y-144425615D02*
X216156436Y-144330377D01*
X216156436Y-144330377D02*
X216251674Y-144282758D01*
X216251674Y-144282758D02*
X216394531Y-144282758D01*
X216394531Y-144282758D02*
X216489770Y-144330377D01*
X216489770Y-144330377D02*
X216537389Y-144425615D01*
X216537389Y-144425615D02*
X216537389Y-144949425D01*
X232107780Y-151949419D02*
X231774447Y-151473228D01*
X231536352Y-151949419D02*
X231536352Y-150949419D01*
X231536352Y-150949419D02*
X231917304Y-150949419D01*
X231917304Y-150949419D02*
X232012542Y-150997038D01*
X232012542Y-150997038D02*
X232060161Y-151044657D01*
X232060161Y-151044657D02*
X232107780Y-151139895D01*
X232107780Y-151139895D02*
X232107780Y-151282752D01*
X232107780Y-151282752D02*
X232060161Y-151377990D01*
X232060161Y-151377990D02*
X232012542Y-151425609D01*
X232012542Y-151425609D02*
X231917304Y-151473228D01*
X231917304Y-151473228D02*
X231536352Y-151473228D01*
X232536352Y-151854180D02*
X232583971Y-151901800D01*
X232583971Y-151901800D02*
X232536352Y-151949419D01*
X232536352Y-151949419D02*
X232488733Y-151901800D01*
X232488733Y-151901800D02*
X232536352Y-151854180D01*
X232536352Y-151854180D02*
X232536352Y-151949419D01*
X233726828Y-151901800D02*
X233869685Y-151949419D01*
X233869685Y-151949419D02*
X234107780Y-151949419D01*
X234107780Y-151949419D02*
X234203018Y-151901800D01*
X234203018Y-151901800D02*
X234250637Y-151854180D01*
X234250637Y-151854180D02*
X234298256Y-151758942D01*
X234298256Y-151758942D02*
X234298256Y-151663704D01*
X234298256Y-151663704D02*
X234250637Y-151568466D01*
X234250637Y-151568466D02*
X234203018Y-151520847D01*
X234203018Y-151520847D02*
X234107780Y-151473228D01*
X234107780Y-151473228D02*
X233917304Y-151425609D01*
X233917304Y-151425609D02*
X233822066Y-151377990D01*
X233822066Y-151377990D02*
X233774447Y-151330371D01*
X233774447Y-151330371D02*
X233726828Y-151235133D01*
X233726828Y-151235133D02*
X233726828Y-151139895D01*
X233726828Y-151139895D02*
X233774447Y-151044657D01*
X233774447Y-151044657D02*
X233822066Y-150997038D01*
X233822066Y-150997038D02*
X233917304Y-150949419D01*
X233917304Y-150949419D02*
X234155399Y-150949419D01*
X234155399Y-150949419D02*
X234298256Y-150997038D01*
X234726828Y-151949419D02*
X234726828Y-151282752D01*
X234726828Y-150949419D02*
X234679209Y-150997038D01*
X234679209Y-150997038D02*
X234726828Y-151044657D01*
X234726828Y-151044657D02*
X234774447Y-150997038D01*
X234774447Y-150997038D02*
X234726828Y-150949419D01*
X234726828Y-150949419D02*
X234726828Y-151044657D01*
X235631589Y-151949419D02*
X235631589Y-150949419D01*
X235631589Y-151901800D02*
X235536351Y-151949419D01*
X235536351Y-151949419D02*
X235345875Y-151949419D01*
X235345875Y-151949419D02*
X235250637Y-151901800D01*
X235250637Y-151901800D02*
X235203018Y-151854180D01*
X235203018Y-151854180D02*
X235155399Y-151758942D01*
X235155399Y-151758942D02*
X235155399Y-151473228D01*
X235155399Y-151473228D02*
X235203018Y-151377990D01*
X235203018Y-151377990D02*
X235250637Y-151330371D01*
X235250637Y-151330371D02*
X235345875Y-151282752D01*
X235345875Y-151282752D02*
X235536351Y-151282752D01*
X235536351Y-151282752D02*
X235631589Y-151330371D01*
X236488732Y-151901800D02*
X236393494Y-151949419D01*
X236393494Y-151949419D02*
X236203018Y-151949419D01*
X236203018Y-151949419D02*
X236107780Y-151901800D01*
X236107780Y-151901800D02*
X236060161Y-151806561D01*
X236060161Y-151806561D02*
X236060161Y-151425609D01*
X236060161Y-151425609D02*
X236107780Y-151330371D01*
X236107780Y-151330371D02*
X236203018Y-151282752D01*
X236203018Y-151282752D02*
X236393494Y-151282752D01*
X236393494Y-151282752D02*
X236488732Y-151330371D01*
X236488732Y-151330371D02*
X236536351Y-151425609D01*
X236536351Y-151425609D02*
X236536351Y-151520847D01*
X236536351Y-151520847D02*
X236060161Y-151616085D01*
X237726828Y-151568466D02*
X238488733Y-151568466D01*
X240012542Y-150949419D02*
X240012542Y-151663704D01*
X240012542Y-151663704D02*
X239964923Y-151806561D01*
X239964923Y-151806561D02*
X239869685Y-151901800D01*
X239869685Y-151901800D02*
X239726828Y-151949419D01*
X239726828Y-151949419D02*
X239631590Y-151949419D01*
X240917304Y-151282752D02*
X240917304Y-151949419D01*
X240488733Y-151282752D02*
X240488733Y-151806561D01*
X240488733Y-151806561D02*
X240536352Y-151901800D01*
X240536352Y-151901800D02*
X240631590Y-151949419D01*
X240631590Y-151949419D02*
X240774447Y-151949419D01*
X240774447Y-151949419D02*
X240869685Y-151901800D01*
X240869685Y-151901800D02*
X240917304Y-151854180D01*
X241393495Y-151949419D02*
X241393495Y-151282752D01*
X241393495Y-151377990D02*
X241441114Y-151330371D01*
X241441114Y-151330371D02*
X241536352Y-151282752D01*
X241536352Y-151282752D02*
X241679209Y-151282752D01*
X241679209Y-151282752D02*
X241774447Y-151330371D01*
X241774447Y-151330371D02*
X241822066Y-151425609D01*
X241822066Y-151425609D02*
X241822066Y-151949419D01*
X241822066Y-151425609D02*
X241869685Y-151330371D01*
X241869685Y-151330371D02*
X241964923Y-151282752D01*
X241964923Y-151282752D02*
X242107780Y-151282752D01*
X242107780Y-151282752D02*
X242203019Y-151330371D01*
X242203019Y-151330371D02*
X242250638Y-151425609D01*
X242250638Y-151425609D02*
X242250638Y-151949419D01*
X242726828Y-151282752D02*
X242726828Y-152282752D01*
X242726828Y-151330371D02*
X242822066Y-151282752D01*
X242822066Y-151282752D02*
X243012542Y-151282752D01*
X243012542Y-151282752D02*
X243107780Y-151330371D01*
X243107780Y-151330371D02*
X243155399Y-151377990D01*
X243155399Y-151377990D02*
X243203018Y-151473228D01*
X243203018Y-151473228D02*
X243203018Y-151758942D01*
X243203018Y-151758942D02*
X243155399Y-151854180D01*
X243155399Y-151854180D02*
X243107780Y-151901800D01*
X243107780Y-151901800D02*
X243012542Y-151949419D01*
X243012542Y-151949419D02*
X242822066Y-151949419D01*
X242822066Y-151949419D02*
X242726828Y-151901800D01*
X244012542Y-151901800D02*
X243917304Y-151949419D01*
X243917304Y-151949419D02*
X243726828Y-151949419D01*
X243726828Y-151949419D02*
X243631590Y-151901800D01*
X243631590Y-151901800D02*
X243583971Y-151806561D01*
X243583971Y-151806561D02*
X243583971Y-151425609D01*
X243583971Y-151425609D02*
X243631590Y-151330371D01*
X243631590Y-151330371D02*
X243726828Y-151282752D01*
X243726828Y-151282752D02*
X243917304Y-151282752D01*
X243917304Y-151282752D02*
X244012542Y-151330371D01*
X244012542Y-151330371D02*
X244060161Y-151425609D01*
X244060161Y-151425609D02*
X244060161Y-151520847D01*
X244060161Y-151520847D02*
X243583971Y-151616085D01*
X244488733Y-151949419D02*
X244488733Y-151282752D01*
X244488733Y-151473228D02*
X244536352Y-151377990D01*
X244536352Y-151377990D02*
X244583971Y-151330371D01*
X244583971Y-151330371D02*
X244679209Y-151282752D01*
X244679209Y-151282752D02*
X244774447Y-151282752D01*
X245869686Y-151949419D02*
X245869686Y-150949419D01*
X245869686Y-151425609D02*
X246441114Y-151425609D01*
X246441114Y-151949419D02*
X246441114Y-150949419D01*
X247298257Y-151901800D02*
X247203019Y-151949419D01*
X247203019Y-151949419D02*
X247012543Y-151949419D01*
X247012543Y-151949419D02*
X246917305Y-151901800D01*
X246917305Y-151901800D02*
X246869686Y-151806561D01*
X246869686Y-151806561D02*
X246869686Y-151425609D01*
X246869686Y-151425609D02*
X246917305Y-151330371D01*
X246917305Y-151330371D02*
X247012543Y-151282752D01*
X247012543Y-151282752D02*
X247203019Y-151282752D01*
X247203019Y-151282752D02*
X247298257Y-151330371D01*
X247298257Y-151330371D02*
X247345876Y-151425609D01*
X247345876Y-151425609D02*
X247345876Y-151520847D01*
X247345876Y-151520847D02*
X246869686Y-151616085D01*
X247774448Y-151949419D02*
X247774448Y-151282752D01*
X247774448Y-151473228D02*
X247822067Y-151377990D01*
X247822067Y-151377990D02*
X247869686Y-151330371D01*
X247869686Y-151330371D02*
X247964924Y-151282752D01*
X247964924Y-151282752D02*
X248060162Y-151282752D01*
X248774448Y-151901800D02*
X248679210Y-151949419D01*
X248679210Y-151949419D02*
X248488734Y-151949419D01*
X248488734Y-151949419D02*
X248393496Y-151901800D01*
X248393496Y-151901800D02*
X248345877Y-151806561D01*
X248345877Y-151806561D02*
X248345877Y-151425609D01*
X248345877Y-151425609D02*
X248393496Y-151330371D01*
X248393496Y-151330371D02*
X248488734Y-151282752D01*
X248488734Y-151282752D02*
X248679210Y-151282752D01*
X248679210Y-151282752D02*
X248774448Y-151330371D01*
X248774448Y-151330371D02*
X248822067Y-151425609D01*
X248822067Y-151425609D02*
X248822067Y-151520847D01*
X248822067Y-151520847D02*
X248345877Y-151616085D01*
X237083971Y-112282752D02*
X237083971Y-113282752D01*
X237083971Y-112330371D02*
X237179209Y-112282752D01*
X237179209Y-112282752D02*
X237369685Y-112282752D01*
X237369685Y-112282752D02*
X237464923Y-112330371D01*
X237464923Y-112330371D02*
X237512542Y-112377990D01*
X237512542Y-112377990D02*
X237560161Y-112473228D01*
X237560161Y-112473228D02*
X237560161Y-112758942D01*
X237560161Y-112758942D02*
X237512542Y-112854180D01*
X237512542Y-112854180D02*
X237464923Y-112901800D01*
X237464923Y-112901800D02*
X237369685Y-112949419D01*
X237369685Y-112949419D02*
X237179209Y-112949419D01*
X237179209Y-112949419D02*
X237083971Y-112901800D01*
X237988733Y-112949419D02*
X237988733Y-112282752D01*
X237988733Y-112473228D02*
X238036352Y-112377990D01*
X238036352Y-112377990D02*
X238083971Y-112330371D01*
X238083971Y-112330371D02*
X238179209Y-112282752D01*
X238179209Y-112282752D02*
X238274447Y-112282752D01*
X238750638Y-112949419D02*
X238655400Y-112901800D01*
X238655400Y-112901800D02*
X238607781Y-112854180D01*
X238607781Y-112854180D02*
X238560162Y-112758942D01*
X238560162Y-112758942D02*
X238560162Y-112473228D01*
X238560162Y-112473228D02*
X238607781Y-112377990D01*
X238607781Y-112377990D02*
X238655400Y-112330371D01*
X238655400Y-112330371D02*
X238750638Y-112282752D01*
X238750638Y-112282752D02*
X238893495Y-112282752D01*
X238893495Y-112282752D02*
X238988733Y-112330371D01*
X238988733Y-112330371D02*
X239036352Y-112377990D01*
X239036352Y-112377990D02*
X239083971Y-112473228D01*
X239083971Y-112473228D02*
X239083971Y-112758942D01*
X239083971Y-112758942D02*
X239036352Y-112854180D01*
X239036352Y-112854180D02*
X238988733Y-112901800D01*
X238988733Y-112901800D02*
X238893495Y-112949419D01*
X238893495Y-112949419D02*
X238750638Y-112949419D01*
X239512543Y-112949419D02*
X239512543Y-112282752D01*
X239512543Y-112377990D02*
X239560162Y-112330371D01*
X239560162Y-112330371D02*
X239655400Y-112282752D01*
X239655400Y-112282752D02*
X239798257Y-112282752D01*
X239798257Y-112282752D02*
X239893495Y-112330371D01*
X239893495Y-112330371D02*
X239941114Y-112425609D01*
X239941114Y-112425609D02*
X239941114Y-112949419D01*
X239941114Y-112425609D02*
X239988733Y-112330371D01*
X239988733Y-112330371D02*
X240083971Y-112282752D01*
X240083971Y-112282752D02*
X240226828Y-112282752D01*
X240226828Y-112282752D02*
X240322067Y-112330371D01*
X240322067Y-112330371D02*
X240369686Y-112425609D01*
X240369686Y-112425609D02*
X240369686Y-112949419D01*
X240845876Y-112949419D02*
X240845876Y-112282752D01*
X240845876Y-111949419D02*
X240798257Y-111997038D01*
X240798257Y-111997038D02*
X240845876Y-112044657D01*
X240845876Y-112044657D02*
X240893495Y-111997038D01*
X240893495Y-111997038D02*
X240845876Y-111949419D01*
X240845876Y-111949419D02*
X240845876Y-112044657D01*
X241750637Y-112901800D02*
X241655399Y-112949419D01*
X241655399Y-112949419D02*
X241464923Y-112949419D01*
X241464923Y-112949419D02*
X241369685Y-112901800D01*
X241369685Y-112901800D02*
X241322066Y-112854180D01*
X241322066Y-112854180D02*
X241274447Y-112758942D01*
X241274447Y-112758942D02*
X241274447Y-112473228D01*
X241274447Y-112473228D02*
X241322066Y-112377990D01*
X241322066Y-112377990D02*
X241369685Y-112330371D01*
X241369685Y-112330371D02*
X241464923Y-112282752D01*
X241464923Y-112282752D02*
X241655399Y-112282752D01*
X241655399Y-112282752D02*
X241750637Y-112330371D01*
X242179209Y-112949419D02*
X242179209Y-112282752D01*
X242179209Y-112473228D02*
X242226828Y-112377990D01*
X242226828Y-112377990D02*
X242274447Y-112330371D01*
X242274447Y-112330371D02*
X242369685Y-112282752D01*
X242369685Y-112282752D02*
X242464923Y-112282752D01*
X242941114Y-112949419D02*
X242845876Y-112901800D01*
X242845876Y-112901800D02*
X242798257Y-112854180D01*
X242798257Y-112854180D02*
X242750638Y-112758942D01*
X242750638Y-112758942D02*
X242750638Y-112473228D01*
X242750638Y-112473228D02*
X242798257Y-112377990D01*
X242798257Y-112377990D02*
X242845876Y-112330371D01*
X242845876Y-112330371D02*
X242941114Y-112282752D01*
X242941114Y-112282752D02*
X243083971Y-112282752D01*
X243083971Y-112282752D02*
X243179209Y-112330371D01*
X243179209Y-112330371D02*
X243226828Y-112377990D01*
X243226828Y-112377990D02*
X243274447Y-112473228D01*
X243274447Y-112473228D02*
X243274447Y-112758942D01*
X243274447Y-112758942D02*
X243226828Y-112854180D01*
X243226828Y-112854180D02*
X243179209Y-112901800D01*
X243179209Y-112901800D02*
X243083971Y-112949419D01*
X243083971Y-112949419D02*
X242941114Y-112949419D01*
%TO.C,MCU*%
X249045400Y-117254600D02*
X249045400Y-150274600D01*
X249045400Y-117254600D02*
X243965400Y-117254600D01*
X243965400Y-117254600D02*
X243965400Y-114714600D01*
X243965400Y-114714600D02*
X236345400Y-114714600D01*
X236345400Y-114714600D02*
X236345400Y-117254600D01*
X236345400Y-117254600D02*
X231265400Y-117254600D01*
X231265400Y-117254600D02*
X231265400Y-150274600D01*
X231265400Y-150274600D02*
X249045400Y-150274600D01*
D12*
%TO.C,_2*%
X237045400Y-99034600D02*
X237045400Y-106854600D01*
X237045400Y-100634600D02*
X237965400Y-100634600D01*
X237045400Y-106854600D02*
X243165400Y-106854600D01*
X237805400Y-102994600D02*
X237805400Y-104594600D01*
X237805400Y-104594600D02*
X238805400Y-104594600D01*
X237965400Y-99034600D02*
X237045400Y-99034600D01*
X237965400Y-100634600D02*
X237965400Y-99034600D01*
X238245400Y-100634600D02*
X237965400Y-100634600D01*
X238245400Y-100634600D02*
X238245400Y-99419600D01*
X238305400Y-104594600D02*
X238305400Y-106854600D01*
X238805400Y-102994600D02*
X237805400Y-102994600D01*
X238805400Y-104594600D02*
X238805400Y-102994600D01*
X238805400Y-104594600D02*
X238805400Y-106854600D01*
X239605400Y-102494600D02*
X240605400Y-102494600D01*
X239605400Y-106854600D02*
X239605400Y-102494600D01*
X240605400Y-102494600D02*
X240605400Y-106854600D01*
X241405400Y-102994600D02*
X242405400Y-102994600D01*
X241405400Y-104594600D02*
X241405400Y-102994600D01*
X242245400Y-99034600D02*
X242245400Y-100634600D01*
X242245400Y-100634600D02*
X241965400Y-100634600D01*
X242405400Y-102994600D02*
X242405400Y-104594600D01*
X242405400Y-104594600D02*
X241405400Y-104594600D01*
X243165400Y-99034600D02*
X242245400Y-99034600D01*
X243165400Y-100634600D02*
X242245400Y-100634600D01*
X243165400Y-106854600D02*
X243165400Y-99034600D01*
%TD*%
M02*
