M48
; DRILL file {KiCad 9.0.5} date 2025-10-18T21:29:55+0200
; FORMAT={-:-/ absolute / metric / decimal}
; #@! TF.CreationDate,2025-10-18T21:29:55+02:00
; #@! TF.GenerationSoftware,Kicad,Pcbnew,9.0.5
; #@! TF.FileFunction,Plated,1,2,PTH
FMAT,2
METRIC
; #@! TA.AperFunction,Plated,PTH,ViaDrill
T1C0.400
; #@! TA.AperFunction,Plated,PTH,ComponentDrill
T2C0.400
; #@! TA.AperFunction,Plated,PTH,ComponentDrill
T3C0.750
; #@! TA.AperFunction,Plated,PTH,ComponentDrill
T4C1.000
; #@! TA.AperFunction,Plated,PTH,ComponentDrill
T5C1.270
; #@! TA.AperFunction,Plated,PTH,ComponentDrill
T6C2.200
%
G90
G05
T1
X192.89Y-142.55
X230.18Y-126.1
X240.13Y-94.19
X242.6Y-97.9
X246.17Y-115.36
T2
X152.674Y-111.877
X153.054Y-110.673
X153.258Y-112.997
X154.174Y-110.09
X154.347Y-129.79
X154.462Y-113.377
X154.726Y-128.586
X154.93Y-130.91
X155.379Y-110.469
X155.582Y-112.794
X155.847Y-128.003
X155.962Y-111.589
X156.134Y-131.29
X157.051Y-128.382
X157.254Y-130.707
X157.634Y-129.502
X210.455Y-108.995
X210.455Y-125.995
X210.939Y-107.828
X210.939Y-110.161
X210.939Y-124.828
X210.939Y-127.161
X212.105Y-107.345
X212.105Y-110.645
X212.105Y-124.345
X212.105Y-127.645
X213.272Y-107.828
X213.272Y-110.161
X213.272Y-124.828
X213.272Y-127.161
X213.755Y-108.995
X213.755Y-125.995
X230.455Y-155.495
X230.939Y-154.328
X230.939Y-156.661
X232.105Y-153.845
X232.105Y-157.145
X233.272Y-154.328
X233.272Y-156.661
X233.755Y-155.495
X236.893Y-118.525
X236.893Y-121.065
X236.893Y-123.605
X236.893Y-126.145
X236.893Y-128.685
X236.893Y-131.225
X236.893Y-133.765
X236.893Y-136.305
X236.893Y-138.845
X236.893Y-141.385
X236.893Y-143.925
X236.893Y-146.465
X236.893Y-149.005
X243.417Y-118.525
X243.417Y-121.065
X243.417Y-123.605
X243.417Y-126.145
X243.417Y-128.685
X243.417Y-131.225
X243.417Y-133.765
X243.417Y-136.305
X243.417Y-138.845
X243.417Y-141.385
X243.417Y-143.925
X243.417Y-146.465
X243.417Y-149.005
T3
X239.105Y-100.495
X241.105Y-100.495
T4
X232.535Y-118.525
X232.535Y-121.065
X232.535Y-123.605
X232.535Y-126.145
X232.535Y-128.685
X232.535Y-131.225
X232.535Y-133.765
X232.535Y-136.305
X232.535Y-138.845
X232.535Y-141.385
X232.535Y-143.925
X232.535Y-146.465
X232.535Y-149.005
X247.775Y-118.525
X247.775Y-121.065
X247.775Y-123.605
X247.775Y-126.145
X247.775Y-128.685
X247.775Y-131.225
X247.775Y-133.765
X247.775Y-136.305
X247.775Y-138.845
X247.775Y-141.385
X247.775Y-143.925
X247.775Y-146.465
X247.775Y-149.005
T5
X138.798Y-113.403
X141.164Y-130.237
X143.457Y-110.628
X143.457Y-110.628
X143.53Y-147.072
X145.823Y-127.462
X145.823Y-127.462
X148.189Y-144.297
X148.189Y-144.297
X148.7Y-112.011
X151.066Y-128.846
X153.432Y-145.68
X158.859Y-98.449
X160.045Y-115.408
X161.231Y-132.366
X163.701Y-96.006
X163.701Y-96.006
X164.886Y-112.964
X164.886Y-112.964
X166.072Y-129.923
X166.072Y-129.923
X168.835Y-97.752
X170.021Y-114.71
X171.207Y-131.669
X180.105Y-91.932
X180.105Y-108.932
X180.105Y-125.932
X185.105Y-89.832
X185.105Y-89.832
X185.105Y-106.832
X185.105Y-106.832
X185.105Y-123.832
X185.105Y-123.832
X190.105Y-91.932
X190.105Y-108.932
X190.105Y-125.932
X198.105Y-96.695
X198.105Y-113.695
X198.105Y-130.695
X198.105Y-151.695
X203.105Y-94.595
X203.105Y-94.595
X203.105Y-111.595
X203.105Y-111.595
X203.105Y-128.595
X203.105Y-128.595
X203.105Y-149.595
X203.105Y-149.595
X208.105Y-96.695
X208.105Y-113.695
X208.105Y-130.695
X208.105Y-151.695
X216.105Y-96.695
X216.105Y-113.695
X216.105Y-130.695
X216.105Y-151.695
X221.105Y-94.595
X221.105Y-94.595
X221.105Y-111.595
X221.105Y-111.595
X221.105Y-128.595
X221.105Y-128.595
X221.105Y-149.595
X221.105Y-149.595
X226.105Y-96.695
X226.105Y-113.695
X226.105Y-130.695
X226.105Y-151.695
X234.105Y-161.695
X239.105Y-159.595
X239.105Y-159.595
X244.105Y-161.695
T6
X154.318Y-111.733
X155.99Y-129.646
X212.105Y-108.995
X212.105Y-125.995
X232.105Y-155.495
M30
